<svg width="47" height="37" viewBox="0 0 47 37" fill="none" xmlns="http://www.w3.org/2000/svg">
  <path
    d="M45.819 9.16068C45.0642 7.37328 43.9846 5.7697 42.6101 4.39394C41.2361 3.0187 39.6345 1.93756 37.8487 1.18211C35.9962 0.397142 34.0325 0 32.0129 0H14.9876C12.968 0 11.0043 0.397142 9.15128 1.18211C7.36551 1.93756 5.76339 3.0187 4.38992 4.39394C3.01542 5.7697 1.93579 7.37328 1.18103 9.16068C0.396779 11.0138 0 12.9794 0 15.0018C0 17.0243 0.396779 18.9898 1.17999 20.8435C1.93579 22.6309 3.0149 24.2345 4.38992 25.6102C5.76391 26.9855 7.36551 28.0666 9.15128 28.8221C11.0043 29.6065 12.9675 30.0042 14.9876 30.0042H23.5005V37.0005L37.8492 28.8226C39.634 28.0671 41.2371 26.986 42.6106 25.6108C43.9851 24.235 45.0647 22.6314 45.8195 20.844C46.6032 18.9903 47.0005 17.0248 47.0005 15.0024C47.0005 12.9799 46.6037 11.0144 45.8195 9.16068H45.819ZM37.6682 20.6623C37.5332 20.7974 37.394 20.9274 37.2497 21.0522H37.2492L23.5 30.0037V23.0073H14.9871C10.5703 23.0073 6.98994 19.4232 6.98994 15.0018C6.98994 12.7909 7.88541 10.7891 9.33182 9.34139C10.7793 7.89159 12.7782 6.99633 14.9871 6.99633H32.0124C36.4292 6.99633 40.0095 10.5805 40.0095 15.0018C40.0095 17.2128 39.1141 19.2145 37.6677 20.6623H37.6682Z"
    fill="white" />
  <path
    d="M17.1887 17.9668C18.8246 17.9668 20.1508 16.6394 20.1508 15.002C20.1508 13.3645 18.8246 12.0371 17.1887 12.0371C15.5528 12.0371 14.2266 13.3645 14.2266 15.002C14.2266 16.6394 15.5528 17.9668 17.1887 17.9668Z"
    fill="white" />
  <path
    d="M29.8098 17.9668C31.4457 17.9668 32.7719 16.6394 32.7719 15.002C32.7719 13.3645 31.4457 12.0371 29.8098 12.0371C28.1739 12.0371 26.8477 13.3645 26.8477 15.002C26.8477 16.6394 28.1739 17.9668 29.8098 17.9668Z"
    fill="white" />
</svg>