<svg width="11" height="11" viewBox="0 0 11 11" fill="none" xmlns="http://www.w3.org/2000/svg">
  <path fill-rule="evenodd" clip-rule="evenodd"
    d="M8.74219 1.31236C9.00255 1.05219 9.42526 1.05207 9.68555 1.31236C9.94559 1.57266 9.94563 1.99543 9.68555 2.25572L3.7793 8.16197H8.20801C8.57583 8.16214 8.87464 8.46021 8.875 8.82798C8.875 9.19606 8.57605 9.4948 8.20801 9.49497H2.1748C1.84925 9.49497 1.57898 9.2616 1.52051 8.95298C1.51205 8.91012 1.50781 8.86663 1.50781 8.8231V2.79478C1.50807 2.42681 1.80678 2.12779 2.1748 2.12779C2.54269 2.12796 2.84154 2.42692 2.8418 2.79478V7.21275L8.74219 1.31236Z"
    fill="white" />
</svg>