<svg width="32" height="32" viewBox="0 0 32 32" fill="none" xmlns="http://www.w3.org/2000/svg">
  <g filter="url(#filter0_di_12991_33857)">
    <rect x="2.375" y="0.375" width="27.25" height="27.25" rx="13.625" fill="url(#paint0_linear_12991_33857)" />
    <rect x="2.375" y="0.375" width="27.25" height="27.25" rx="13.625" stroke="#FBD9D9" stroke-width="0.75" />
    <path
      d="M7.98982 14.3243C7.98982 14.5677 8.21089 14.7807 8.46355 14.7807L22.9597 14.7807L19.991 18.5237C19.9278 18.615 19.8962 18.7063 19.8962 18.7976C19.8962 18.9498 19.9594 19.0715 20.0857 19.1628C20.3068 19.3149 20.591 19.2845 20.7489 19.0715L24.2861 14.5981C24.3177 14.5677 24.3493 14.5373 24.3493 14.4764L24.3493 14.446C24.3493 14.4155 24.3809 14.3547 24.3809 14.3243C24.3809 14.2938 24.3809 14.233 24.3493 14.2025L24.3493 14.1721C24.3493 14.1417 24.3177 14.0808 24.2861 14.0504L20.7489 9.57701C20.591 9.364 20.3068 9.33357 20.0857 9.48572C19.8646 9.63788 19.8331 9.91176 19.991 10.1248L22.9597 13.8678L8.46355 13.8678C8.17931 13.8678 7.98982 14.0808 7.98982 14.3243Z"
      fill="white" />
    <path
      d="M7.67338 14.3229C7.67338 13.8969 8.02078 13.5621 8.46293 13.5621L22.3211 13.5621L19.7409 10.3091C19.6114 10.1326 19.5577 9.93476 19.5829 9.74304C19.6114 9.53915 19.7251 9.36265 19.9019 9.23789C20.0756 9.11921 20.2809 9.06747 20.483 9.09182C20.6946 9.11921 20.8778 9.22876 21.0073 9.39917L24.5287 13.8543C24.5887 13.9182 24.6455 14.0156 24.6613 14.116C24.6992 14.2012 24.6992 14.2834 24.6992 14.3229C24.6992 14.3868 24.6803 14.4416 24.6676 14.4812C24.6582 14.6516 24.576 14.7489 24.5287 14.7946L21.0041 19.2527C20.8841 19.4171 20.6978 19.5266 20.4862 19.551C20.2841 19.5753 20.0788 19.5266 19.9051 19.4049C19.6935 19.2527 19.5829 19.0397 19.5829 18.7932C19.5829 18.6411 19.6335 18.492 19.7314 18.352L22.3243 15.0806L8.46609 15.0806C8.03658 15.0806 7.67654 14.7337 7.67654 14.3199L7.67338 14.3229ZM23.597 14.1708L8.46293 14.1708C8.33976 14.1708 8.30502 14.2651 8.30502 14.3229C8.30502 14.399 8.38398 14.4751 8.46293 14.4751L23.597 14.4751L20.2398 18.708C20.2241 18.7324 20.2114 18.7689 20.2114 18.7963C20.2114 18.8511 20.2272 18.8845 20.2746 18.918C20.3125 18.9423 20.3567 18.9576 20.3978 18.9515C20.4357 18.9484 20.4641 18.9271 20.4893 18.8937L24.0328 14.4112C24.0328 14.3838 24.0392 14.3625 24.0455 14.3442L24.0297 14.329L24.0297 14.2316L20.4925 9.7613C20.4609 9.7187 20.4293 9.70044 20.3946 9.6974C20.3535 9.69131 20.3062 9.70653 20.2651 9.73391C20.2304 9.75826 20.2083 9.78869 20.2051 9.82216C20.1988 9.86477 20.2146 9.90737 20.243 9.94693L23.5938 14.1708L23.597 14.1708Z"
      fill="white" />
  </g>
  <defs>
    <filter id="filter0_di_12991_33857" x="0" y="0" width="32" height="32" filterUnits="userSpaceOnUse"
      color-interpolation-filters="sRGB">
      <feFlood flood-opacity="0" result="BackgroundImageFix" />
      <feColorMatrix in="SourceAlpha" type="matrix" values="0 0 0 0 0 0 0 0 0 0 0 0 0 0 0 0 0 0 127 0"
        result="hardAlpha" />
      <feOffset dy="2" />
      <feGaussianBlur stdDeviation="1" />
      <feComposite in2="hardAlpha" operator="out" />
      <feColorMatrix type="matrix" values="0 0 0 0 0 0 0 0 0 0 0 0 0 0 0 0 0 0 0.08 0" />
      <feBlend mode="normal" in2="BackgroundImageFix" result="effect1_dropShadow_12991_33857" />
      <feBlend mode="normal" in="SourceGraphic" in2="effect1_dropShadow_12991_33857" result="shape" />
      <feColorMatrix in="SourceAlpha" type="matrix" values="0 0 0 0 0 0 0 0 0 0 0 0 0 0 0 0 0 0 127 0"
        result="hardAlpha" />
      <feOffset dy="4" />
      <feGaussianBlur stdDeviation="2" />
      <feComposite in2="hardAlpha" operator="arithmetic" k2="-1" k3="1" />
      <feColorMatrix type="matrix" values="0 0 0 0 0 0 0 0 0 0 0 0 0 0 0 0 0 0 0.25 0" />
      <feBlend mode="normal" in2="shape" result="effect2_innerShadow_12991_33857" />
    </filter>
    <linearGradient id="paint0_linear_12991_33857" x1="25.739" y1="28.1758" x2="3.21739" y2="-5.30228"
      gradientUnits="userSpaceOnUse">
      <stop />
      <stop offset="0.110577" />
      <stop offset="0.544492" stop-color="#191919" />
      <stop offset="0.73149" stop-color="white" />
    </linearGradient>
  </defs>
</svg>