<svg width="36" height="36" viewBox="0 0 36 36" fill="none" xmlns="http://www.w3.org/2000/svg">
    <g clip-path="url(#clip0_4244_7243)">
        <path fill-rule="evenodd" clip-rule="evenodd"
            d="M14.8648 11.2207C14.7339 11.2207 14.6292 11.3267 14.6292 11.4504C14.6292 11.5828 14.7339 11.6888 14.856 11.6888H20.1258C20.2567 11.6888 20.3614 11.5828 20.3614 11.4592C20.3614 11.3267 20.2567 11.2295 20.1258 11.2295H14.856L14.8648 11.2207ZM11.4533 13.0403C11.3225 13.0403 11.2178 13.1463 11.2178 13.2699C11.2178 13.4024 11.3225 13.4996 11.4533 13.4996H12.6748V23.0302C12.6748 23.9841 13.4426 24.7614 14.3849 24.7614H20.6144C21.5567 24.7614 22.3245 23.9841 22.3245 23.0302V13.5084H23.546C23.6768 13.5084 23.7815 13.4024 23.7815 13.2787C23.7815 13.1463 23.6768 13.0403 23.5547 13.0403H11.4533ZM13.1372 13.5084H21.8708V23.039C21.8708 23.7456 21.3211 24.3021 20.6231 24.3021H14.3849C13.6869 24.3021 13.1372 23.7456 13.1372 23.039V13.5084ZM15.2661 15.3015C15.1352 15.3015 15.0305 15.4075 15.0305 15.5311V21.8731C15.0305 22.0056 15.1352 22.1027 15.2661 22.1027C15.397 22.1027 15.4929 21.9967 15.4929 21.8731V15.5311C15.4929 15.3986 15.3882 15.3015 15.2661 15.3015ZM17.5084 15.3015C17.3775 15.3015 17.2815 15.4075 17.2815 15.5311V21.8731C17.2815 22.0056 17.3862 22.1027 17.5084 22.1027C17.6392 22.1027 17.7439 21.9967 17.7439 21.8731V15.5311C17.7439 15.3986 17.6392 15.3015 17.5084 15.3015ZM19.7507 15.3015C19.6198 15.3015 19.5238 15.4075 19.5238 15.5311V21.8731C19.5238 22.0056 19.6285 22.1027 19.7507 22.1027C19.8815 22.1027 19.9862 21.9967 19.9862 21.8731V15.5311C19.9862 15.3986 19.8815 15.3015 19.7507 15.3015Z"
            fill="white" />
        <path
            d="M20.6148 25H14.3852C13.3208 25 12.457 24.1255 12.457 23.0479V13.7293H11.445C11.2007 13.7293 11 13.535 11 13.2788C11 13.0227 11.2007 12.8195 11.445 12.8195H23.5463C23.7993 12.8195 24 13.0227 24 13.2788C24 13.4025 23.9564 13.5173 23.8691 13.5968C23.7819 13.6851 23.6685 13.7293 23.555 13.7293H22.5517V23.0391C22.5517 24.1167 21.6879 24.9911 20.6235 24.9911L20.6148 25ZM11.445 13.2612C11.445 13.2612 11.4362 13.2612 11.4362 13.27H12.8933V23.0391C12.8933 23.8694 13.5651 24.5495 14.3852 24.5495H20.6148C21.4349 24.5495 22.1067 23.8694 22.1067 23.0391V13.2877H23.5463L11.445 13.2612ZM20.6148 24.523H14.3852C13.5651 24.523 12.9195 23.8694 12.9195 23.0391V13.2877H22.0893V23.0391C22.0893 23.8694 21.4436 24.523 20.6235 24.523H20.6148ZM13.347 13.7293V23.0391C13.347 23.622 13.8007 24.0813 14.3765 24.0813H20.606C21.1819 24.0813 21.6356 23.622 21.6356 23.0391V13.7293H13.347ZM15.249 22.3236C15.1356 22.3236 15.0221 22.2795 14.9349 22.1911C14.8477 22.1028 14.804 21.988 14.804 21.8731V15.5312C14.804 15.2839 15.0047 15.0807 15.249 15.0807C15.4933 15.0807 15.694 15.2839 15.694 15.5312V21.8731C15.694 22.1205 15.4933 22.3236 15.249 22.3236ZM15.249 15.5224C15.249 15.5224 15.2403 15.5224 15.2403 15.54V21.8731L15.2664 15.5312V15.3015L15.249 15.5224ZM19.7336 22.3236C19.4893 22.3236 19.2886 22.1205 19.2886 21.8731V15.5312C19.2886 15.2839 19.4893 15.0807 19.7336 15.0807C19.9779 15.0807 20.1785 15.2839 20.1785 15.5312V21.8731C20.1785 21.9968 20.1349 22.1116 20.0477 22.1911C19.9604 22.2795 19.847 22.3236 19.7336 22.3236ZM19.7336 15.5224C19.7336 15.5224 19.7161 15.5224 19.7161 15.54V21.8731L19.7423 15.5312H19.7336V15.5224ZM17.4913 22.3236C17.247 22.3236 17.0463 22.1205 17.0463 21.8731V15.5312C17.0463 15.2839 17.2295 15.0895 17.5 15.0807C17.7443 15.0807 17.945 15.2839 17.945 15.5312V21.8731C17.945 21.9968 17.9013 22.1116 17.8141 22.1911C17.7268 22.2795 17.6134 22.3236 17.5 22.3236H17.4913ZM17.4913 15.5224C17.4913 15.5224 17.4738 15.5224 17.4738 15.54V21.8731L17.5 15.5312H17.4913V15.5224ZM14.8651 11.9097C14.743 11.9097 14.6295 11.8656 14.5423 11.7772C14.455 11.6889 14.4114 11.5741 14.4114 11.4593C14.4114 11.2119 14.6121 11.0088 14.8564 11.0088H20.1262C20.3705 11.0088 20.5711 11.2119 20.5711 11.4593C20.5711 11.7154 20.3705 11.9186 20.1262 11.9186H14.8564L14.8651 11.9097ZM14.8651 11.4416C14.8651 11.4416 14.8564 11.4416 14.8564 11.4593H20.1436L14.8738 11.4416H14.8651Z"
            fill="white" />
    </g>
    <path
        d="M8.83883 8.8389C3.96529 13.7124 3.96571 21.6434 8.83976 26.5175C13.7138 31.3915 21.643 31.3901 26.5165 26.5166C31.39 21.643 31.3896 13.712 26.5174 8.83982C21.6452 3.96762 13.7105 3.9672 8.83883 8.8389ZM25.6941 9.66316C30.114 14.083 30.1162 21.2774 25.6968 25.6968C21.2774 30.1163 14.0811 30.1159 9.66124 25.696C5.24137 21.2761 5.23914 14.0817 9.66041 9.66047C14.0817 5.23921 21.2724 5.24143 25.6941 9.66316Z"
        fill="white" />
    <defs>
        <clipPath id="clip0_4244_7243">
            <rect width="13" height="14" fill="white" transform="translate(11 11)" />
        </clipPath>
    </defs>
</svg>
    