<svg width="24" height="24" viewBox="0 0 24 24" fill="none" xmlns="http://www.w3.org/2000/svg">
    <g clip-path="url(#clip0_4242_6960)">
        <path
            d="M12.0013 0C5.38402 0 0 5.38402 0 12.0013C0 18.6185 5.38402 24 12.0013 24C18.6185 24 24.0025 18.616 24.0025 12.0013C24.0025 5.38653 18.616 0 12.0013 0ZM22.8846 12.0013C22.8846 18.0019 18.0019 22.8871 12.0013 22.8871C6.00063 22.8871 1.1154 18.0019 1.1154 12.0013C1.1154 6.00063 5.99812 1.1154 12.0013 1.1154C18.0044 1.1154 22.8846 5.99812 22.8846 12.0013Z"
            fill="white" />
        <path
            d="M12.0013 0C5.38402 0 0 5.38402 0 12.0013C0 18.6185 5.38402 24 12.0013 24C18.6185 24 24.0025 18.616 24.0025 12.0013C24.0025 5.38653 18.616 0 12.0013 0ZM22.8846 12.0013C22.8846 18.0019 18.0019 22.8871 12.0013 22.8871C6.00063 22.8871 1.1154 18.0019 1.1154 12.0013C1.1154 6.00063 5.99812 1.1154 12.0013 1.1154C18.0044 1.1154 22.8846 5.99812 22.8846 12.0013Z"
            fill="white" />
        <path fill-rule="evenodd" clip-rule="evenodd"
            d="M12.3425 15.3333V7.84732L14.8871 9.86414C14.996 9.94029 15.112 9.97959 15.2303 9.97959C15.422 9.97959 15.5877 9.89361 15.7061 9.72903C15.8008 9.59392 15.8386 9.43424 15.8197 9.27702C15.8008 9.11243 15.7155 8.9675 15.5877 8.87415L12.1201 6.13265C12.0845 6.0958 12.0088 6.03193 11.8762 6.02457L11.8705 6.02271C11.8402 6.01299 11.7998 6 11.7532 6C11.7224 6 11.6585 6 11.5922 6.02948C11.5141 6.04176 11.4383 6.08598 11.3886 6.13265L7.92333 8.87169C7.79078 8.97241 7.70556 9.11489 7.68426 9.27948C7.66533 9.4367 7.70556 9.59637 7.79788 9.73148C7.89493 9.86905 8.03221 9.95748 8.1908 9.97959C8.33992 9.99924 8.49378 9.95748 8.63107 9.85677L11.1614 7.84977V15.3333H12.3425Z"
            fill="white" />
        <path d="M7.67969 18H16.3197" stroke="white" stroke-width="1.25" stroke-linecap="round" />
    </g>
    <defs>
        <clipPath id="clip0_4242_6960">
            <rect width="24" height="24" fill="white" />
        </clipPath>
    </defs>
</svg>
    