<svg width="30" height="20" viewBox="0 0 30 20" fill="none" xmlns="http://www.w3.org/2000/svg">
  <path
    d="M29.4176 11.5192H10.5815C10.2605 11.5192 10 11.7741 10 12.0881V19.4311C10 19.7451 10.2605 20 10.5815 20H29.4185C29.7395 20 30 19.7451 30 19.4311V12.0881C30 11.7741 29.7385 11.5192 29.4176 11.5192ZM28.8361 18.8622H11.1629V12.657H28.8371L28.8361 18.8622ZM12.7676 14.613C12.7676 14.299 13.0281 14.0441 13.3491 14.0441H26.65C26.9709 14.0441 27.2315 14.299 27.2315 14.613C27.2315 14.927 26.9709 15.1819 26.65 15.1819H13.3491C13.0281 15.1819 12.7676 14.927 12.7676 14.613ZM12.7676 16.9062C12.7676 16.5922 13.0281 16.3373 13.3491 16.3373H26.65C26.9709 16.3373 27.2315 16.5922 27.2315 16.9062C27.2315 17.2202 26.9709 17.4751 26.65 17.4751H13.3491C13.0281 17.4751 12.7676 17.2202 12.7676 16.9062ZM29.4176 0H10.5815C10.2605 0 10 0.254895 10 0.568896V7.91189C10 8.22589 10.2605 8.48079 10.5815 8.48079H29.4185C29.7395 8.48079 30 8.22589 30 7.91189V0.568896C30 0.254895 29.7385 0 29.4176 0ZM28.8361 7.343H11.1629V1.13779H28.8371L28.8361 7.343ZM12.5769 3.09383C12.5769 2.77983 12.8375 2.52493 13.1584 2.52493H26.4584C26.7793 2.52493 27.0398 2.77983 27.0398 3.09383C27.0398 3.40783 26.7793 3.66273 26.4584 3.66273H13.1584C12.8375 3.66273 12.5769 3.40783 12.5769 3.09383ZM12.5769 5.38696C12.5769 5.07296 12.8375 4.81806 13.1584 4.81806H26.4584C26.7793 4.81806 27.0398 5.07296 27.0398 5.38696C27.0398 5.70096 26.7793 5.95586 26.4584 5.95586H13.1584C12.8375 5.95586 12.5769 5.70096 12.5769 5.38696Z"
    fill="white" />
  <path
    d="M5.77236 14.3268L4.09784 16.0006L5.77236 17.6728C6.07588 17.9765 6.07588 18.4682 5.77236 18.7719C5.61838 18.923 5.41999 19 5.22159 19C5.0232 19 4.8248 18.9245 4.67082 18.7719L2.99926 17.0996L1.3277 18.7719C1.02418 19.0755 0.531154 19.0755 0.227637 18.7719C-0.0758791 18.4682 -0.0758791 17.9765 0.227637 17.6728L1.8992 16.0006L0.227637 14.3268C-0.0758791 14.0231 -0.0758791 13.5314 0.227637 13.2277C0.531154 12.9241 1.02418 12.9241 1.3277 13.2277L2.99926 14.9L4.67082 13.2277C4.97434 12.9241 5.46737 12.9241 5.77088 13.2277C6.0744 13.5314 6.0744 14.0231 5.77088 14.3268"
    fill="white" />
  <path
    d="M2.68675 12.999C2.40709 12.999 2.16199 12.8136 2.118 12.5536C1.57857 9.36353 2.99155 7.21549 4.27047 5.97561C5.6447 4.64396 7.13938 4.06465 7.20223 4.04075C7.49551 3.92891 7.83278 4.05509 7.95533 4.32372C8.07788 4.59138 7.93962 4.8992 7.64634 5.01105C7.63272 5.01583 6.28573 5.54352 5.07909 6.72509C3.49537 8.27565 2.88157 10.1828 3.25551 12.3939C3.30369 12.6807 3.08897 12.9493 2.77369 12.9933C2.74436 12.9971 2.71398 13 2.68466 13L2.68675 12.999Z"
    fill="white" />
</svg>
