<svg width="31" height="30" viewBox="0 0 31 30" fill="none" xmlns="http://www.w3.org/2000/svg">
<path fill-rule="evenodd" clip-rule="evenodd" d="M15.8578 0C7.57293 0 0.857422 6.71551 0.857422 15.0004C0.857422 23.2853 7.57293 30.0008 15.8578 30.0008C24.1427 30.0008 30.8582 23.2853 30.8582 15.0004C30.8582 6.71551 24.1419 0 15.8578 0ZM19.8283 9.01937H18.275C17.4168 9.01937 16.5168 9.55053 16.5168 10.4915V13.0268H19.7062L19.175 16.3793H16.5176V24.6795H12.9199V16.3793H9.89447V13.0268H12.9199V10.5325C12.9199 8.0382 14.3921 5.95371 17.0495 6.11684L19.8299 6.23979V9.02017L19.8283 9.01937Z" fill="#FACE00"/>
</svg>
