<svg width="30" height="30" viewBox="0 0 30 30" fill="none" xmlns="http://www.w3.org/2000/svg">
<g clip-path="url(#clip0_1_900)">
<path d="M18.9782 7.84H11.0228C9.23162 7.84 7.77393 9.29769 7.77393 11.0889V19.0025C7.77393 20.7937 9.23162 22.2514 11.0228 22.2514H18.9782C20.7694 22.2514 22.2271 20.7937 22.2271 19.0025V11.0889C22.2271 9.29769 20.7694 7.84 18.9782 7.84ZM15.0214 19.794H14.9796C12.3969 19.794 10.2731 17.6702 10.2731 15.0457C10.2731 12.4212 12.3969 10.2973 14.9796 10.2973H15.0214C17.6041 10.2973 19.7697 12.463 19.7697 15.0457C19.7697 17.6284 17.6041 19.794 15.0214 19.794ZM19.6862 11.3806C19.1028 11.3806 18.6865 10.9225 18.6865 10.3809C18.6865 9.8393 19.1028 9.38126 19.6862 9.38126C20.2278 9.38126 20.6858 9.8393 20.6858 10.3809C20.6858 10.9225 20.2278 11.3806 19.6862 11.3806Z" fill="#FACE00"/>
<path d="M15.0208 11.9215H14.979C13.2714 11.9215 11.8555 13.3374 11.8555 15.045C11.8555 16.7527 13.2714 18.2103 14.979 18.2103H15.0208C16.7284 18.2103 18.1443 16.7944 18.1443 15.045C18.1443 13.2957 16.7284 11.9215 15.0208 11.9215Z" fill="#FACE00"/>
<path d="M15.0004 0C6.71551 0 0 6.71551 0 15.0004C0 23.2853 6.71551 30.0008 15.0004 30.0008C23.2853 30.0008 30.0008 23.2853 30.0008 15.0004C30.0008 6.71551 23.2845 0 15.0004 0ZM23.7265 19.044C23.7265 21.6267 21.6026 23.7506 19.0199 23.7506H10.9809C8.3982 23.7506 6.27434 21.6267 6.27434 19.044V11.0468C6.27434 8.46409 8.3982 6.34024 10.9809 6.34024H19.0199C21.6026 6.34024 23.7265 8.46409 23.7265 11.0468V19.044Z" fill="#FACE00"/>
</g>
<defs>
<clipPath id="clip0_1_900">
<rect width="30" height="30" fill="white"/>
</clipPath>
</defs>
</svg>
