<svg width="31" height="30" viewBox="0 0 31 30" fill="none" xmlns="http://www.w3.org/2000/svg">
<g clip-path="url(#clip0_1_909)">
<path d="M15.7143 0C7.42937 0 0.713867 6.71551 0.713867 15.0004C0.713867 23.2853 7.42937 30.0008 15.7143 30.0008C23.9992 30.0008 30.7147 23.2853 30.7147 15.0004C30.7147 6.71551 23.9984 0 15.7143 0ZM11.2488 22.3331H8.26751V12.3229H11.2488V22.3331ZM9.73966 10.8507C8.74563 10.8507 7.9734 10.0407 7.9734 9.04749C7.9734 8.05427 8.74644 7.24426 9.73966 7.24426C10.7329 7.24426 11.5429 8.05427 11.5429 9.04749C11.5429 10.0407 10.7329 10.8507 9.73966 10.8507ZM22.9883 17.1074V22.3331H20.0439V16.9234C20.007 15.7823 19.2339 14.8992 18.0937 14.8992C16.9534 14.8992 15.9963 15.7823 15.9594 16.9234V22.3331H13.015V12.3229H15.9594V13.7211C16.5853 12.801 17.6155 12.212 18.7928 12.212H19.6028C21.4799 12.212 22.9883 13.7581 22.9883 15.5975V17.1066V17.1074Z" fill="#FACE00"/>
</g>
<defs>
<clipPath id="clip0_1_909">
<rect width="30" height="30" fill="white" transform="translate(0.713867)"/>
</clipPath>
</defs>
</svg>
