<svg width="323" height="77" viewBox="0 0 323 77" fill="none" xmlns="http://www.w3.org/2000/svg">
<path d="M17.2224 27H12.9542L5.81568 16.1923V27H1.54752V9.47808H5.81568L12.9542 20.3357V9.47808H17.2224V27ZM19.4676 20.0112C19.4676 18.5802 19.7339 17.3238 20.2663 16.2422C20.8155 15.1606 21.5559 14.3286 22.4878 13.7462C23.4196 13.1638 24.4596 12.8726 25.6078 12.8726C26.5895 12.8726 27.4465 13.0723 28.1787 13.4717C28.9275 13.871 29.5015 14.3952 29.9009 15.0442V13.0723H34.1691V27H29.9009V25.0282C29.4849 25.6771 28.9025 26.2013 28.1537 26.6006C27.4215 27 26.5646 27.1997 25.5828 27.1997C24.4513 27.1997 23.4196 26.9085 22.4878 26.3261C21.5559 25.727 20.8155 24.8867 20.2663 23.8051C19.7339 22.7069 19.4676 21.4422 19.4676 20.0112ZM29.9009 20.0362C29.9009 18.9712 29.6014 18.1309 29.0023 17.5152C28.4199 16.8995 27.7044 16.5917 26.8558 16.5917C26.0071 16.5917 25.2833 16.8995 24.6843 17.5152C24.1019 18.1142 23.8107 18.9462 23.8107 20.0112C23.8107 21.0762 24.1019 21.9248 24.6843 22.5571C25.2833 23.1728 26.0071 23.4806 26.8558 23.4806C27.7044 23.4806 28.4199 23.1728 29.0023 22.5571C29.6014 21.9414 29.9009 21.1011 29.9009 20.0362ZM45.0195 23.3808V27H42.8479C41.3004 27 40.094 26.6256 39.2287 25.8768C38.3635 25.1114 37.9308 23.8717 37.9308 22.1578V16.6166H36.2335V13.0723H37.9308V9.67776H42.199V13.0723H44.9945V16.6166H42.199V22.2077C42.199 22.6237 42.2988 22.9232 42.4985 23.1062C42.6982 23.2893 43.031 23.3808 43.4969 23.3808H45.0195ZM49.5435 11.6246C48.7947 11.6246 48.179 11.4083 47.6964 10.9757C47.2305 10.5264 46.9975 9.97728 46.9975 9.32832C46.9975 8.66272 47.2305 8.1136 47.6964 7.68096C48.179 7.23168 48.7947 7.00704 49.5435 7.00704C50.2756 7.00704 50.8747 7.23168 51.3406 7.68096C51.8231 8.1136 52.0644 8.66272 52.0644 9.32832C52.0644 9.97728 51.8231 10.5264 51.3406 10.9757C50.8747 11.4083 50.2756 11.6246 49.5435 11.6246ZM51.6651 13.0723V27H47.3969V13.0723H51.6651ZM61.098 27.1997C59.7335 27.1997 58.5021 26.9085 57.4039 26.3261C56.3223 25.7437 55.4653 24.9117 54.833 23.8301C54.2173 22.7485 53.9095 21.4838 53.9095 20.0362C53.9095 18.6051 54.2257 17.3488 54.858 16.2672C55.4903 15.169 56.3556 14.3286 57.4538 13.7462C58.5521 13.1638 59.7834 12.8726 61.1479 12.8726C62.5124 12.8726 63.7437 13.1638 64.842 13.7462C65.9402 14.3286 66.8055 15.169 67.4378 16.2672C68.0701 17.3488 68.3863 18.6051 68.3863 20.0362C68.3863 21.4672 68.0618 22.7318 67.4129 23.8301C66.7805 24.9117 65.9069 25.7437 64.7921 26.3261C63.6938 26.9085 62.4625 27.1997 61.098 27.1997ZM61.098 23.5056C61.9133 23.5056 62.6039 23.2061 63.1697 22.607C63.7521 22.008 64.0433 21.151 64.0433 20.0362C64.0433 18.9213 63.7604 18.0643 63.1946 17.4653C62.6455 16.8662 61.9633 16.5667 61.1479 16.5667C60.3159 16.5667 59.6253 16.8662 59.0762 17.4653C58.5271 18.0477 58.2525 18.9046 58.2525 20.0362C58.2525 21.151 58.5188 22.008 59.0513 22.607C59.6004 23.2061 60.2826 23.5056 61.098 23.5056ZM79.137 12.9226C80.7678 12.9226 82.0657 13.455 83.0308 14.52C84.0126 15.5683 84.5034 17.016 84.5034 18.863V27H80.2602V19.4371C80.2602 18.5053 80.019 17.7814 79.5364 17.2656C79.0538 16.7498 78.4049 16.4918 77.5895 16.4918C76.7742 16.4918 76.1252 16.7498 75.6426 17.2656C75.1601 17.7814 74.9188 18.5053 74.9188 19.4371V27H70.6506V13.0723H74.9188V14.9194C75.3514 14.3037 75.9338 13.8211 76.666 13.4717C77.3982 13.1056 78.2218 12.9226 79.137 12.9226ZM86.6207 20.0112C86.6207 18.5802 86.887 17.3238 87.4195 16.2422C87.9686 15.1606 88.7091 14.3286 89.6409 13.7462C90.5727 13.1638 91.6127 12.8726 92.7609 12.8726C93.7427 12.8726 94.5996 13.0723 95.3318 13.4717C96.0806 13.871 96.6547 14.3952 97.054 15.0442V13.0723H101.322V27H97.054V25.0282C96.638 25.6771 96.0556 26.2013 95.3068 26.6006C94.5747 27 93.7177 27.1997 92.7359 27.1997C91.6044 27.1997 90.5727 26.9085 89.6409 26.3261C88.7091 25.727 87.9686 24.8867 87.4195 23.8051C86.887 22.7069 86.6207 21.4422 86.6207 20.0112ZM97.054 20.0362C97.054 18.9712 96.7545 18.1309 96.1555 17.5152C95.5731 16.8995 94.8575 16.5917 94.0089 16.5917C93.1603 16.5917 92.4364 16.8995 91.8374 17.5152C91.255 18.1142 90.9638 18.9462 90.9638 20.0112C90.9638 21.0762 91.255 21.9248 91.8374 22.5571C92.4364 23.1728 93.1603 23.4806 94.0089 23.4806C94.8575 23.4806 95.5731 23.1728 96.1555 22.5571C96.7545 21.9414 97.054 21.1011 97.054 20.0362ZM108.678 8.5296V27H104.41V8.5296H108.678ZM116.337 18.2141C116.337 16.4835 116.711 14.9443 117.46 13.5965C118.209 12.232 119.249 11.1754 120.58 10.4266C121.928 9.66112 123.45 9.2784 125.148 9.2784C127.228 9.2784 129.008 9.82752 130.489 10.9258C131.97 12.024 132.96 13.5216 133.459 15.4186H128.767C128.417 14.6864 127.918 14.129 127.269 13.7462C126.637 13.3635 125.913 13.1722 125.098 13.1722C123.783 13.1722 122.718 13.6298 121.903 14.545C121.088 15.4602 120.68 16.6832 120.68 18.2141C120.68 19.745 121.088 20.968 121.903 21.8832C122.718 22.7984 123.783 23.256 125.098 23.256C125.913 23.256 126.637 23.0646 127.269 22.6819C127.918 22.2992 128.417 21.7418 128.767 21.0096H133.459C132.96 22.9066 131.97 24.4042 130.489 25.5024C129.008 26.584 127.228 27.1248 125.148 27.1248C123.45 27.1248 121.928 26.7504 120.58 26.0016C119.249 25.2362 118.209 24.1795 117.46 22.8317C116.711 21.4838 116.337 19.9446 116.337 18.2141ZM135.224 20.0112C135.224 18.5802 135.491 17.3238 136.023 16.2422C136.572 15.1606 137.313 14.3286 138.245 13.7462C139.176 13.1638 140.216 12.8726 141.365 12.8726C142.346 12.8726 143.203 13.0723 143.936 13.4717C144.684 13.871 145.258 14.3952 145.658 15.0442V13.0723H149.926V27H145.658V25.0282C145.242 25.6771 144.659 26.2013 143.911 26.6006C143.178 27 142.321 27.1997 141.34 27.1997C140.208 27.1997 139.176 26.9085 138.245 26.3261C137.313 25.727 136.572 24.8867 136.023 23.8051C135.491 22.7069 135.224 21.4422 135.224 20.0112ZM145.658 20.0362C145.658 18.9712 145.358 18.1309 144.759 17.5152C144.177 16.8995 143.461 16.5917 142.613 16.5917C141.764 16.5917 141.04 16.8995 140.441 17.5152C139.859 18.1142 139.568 18.9462 139.568 20.0112C139.568 21.0762 139.859 21.9248 140.441 22.5571C141.04 23.1728 141.764 23.4806 142.613 23.4806C143.461 23.4806 144.177 23.1728 144.759 22.5571C145.358 21.9414 145.658 21.1011 145.658 20.0362ZM161.5 12.9226C163.131 12.9226 164.429 13.455 165.394 14.52C166.376 15.5683 166.867 17.016 166.867 18.863V27H162.623V19.4371C162.623 18.5053 162.382 17.7814 161.9 17.2656C161.417 16.7498 160.768 16.4918 159.953 16.4918C159.137 16.4918 158.488 16.7498 158.006 17.2656C157.523 17.7814 157.282 18.5053 157.282 19.4371V27H153.014V13.0723H157.282V14.9194C157.715 14.3037 158.297 13.8211 159.029 13.4717C159.761 13.1056 160.585 12.9226 161.5 12.9226ZM168.984 20.0362C168.984 18.5885 169.275 17.3238 169.857 16.2422C170.457 15.1606 171.28 14.3286 172.329 13.7462C173.393 13.1638 174.608 12.8726 175.973 12.8726C177.72 12.8726 179.176 13.3302 180.341 14.2454C181.522 15.1606 182.296 16.4502 182.662 18.1142H178.119C177.737 17.0493 176.996 16.5168 175.898 16.5168C175.116 16.5168 174.492 16.8246 174.026 17.4403C173.56 18.0394 173.327 18.9046 173.327 20.0362C173.327 21.1677 173.56 22.0413 174.026 22.657C174.492 23.256 175.116 23.5555 175.898 23.5555C176.996 23.5555 177.737 23.023 178.119 21.9581H182.662C182.296 23.5888 181.522 24.8701 180.341 25.8019C179.159 26.7338 177.703 27.1997 175.973 27.1997C174.608 27.1997 173.393 26.9085 172.329 26.3261C171.28 25.7437 170.457 24.9117 169.857 23.8301C169.275 22.7485 168.984 21.4838 168.984 20.0362ZM198.074 19.8115C198.074 20.2109 198.049 20.6269 197.999 21.0595H188.34C188.406 21.9248 188.681 22.5904 189.163 23.0563C189.662 23.5056 190.27 23.7302 190.985 23.7302C192.05 23.7302 192.791 23.281 193.207 22.3824H197.749C197.517 23.2976 197.092 24.1213 196.477 24.8534C195.877 25.5856 195.12 26.1597 194.205 26.5757C193.29 26.9917 192.267 27.1997 191.135 27.1997C189.771 27.1997 188.556 26.9085 187.491 26.3261C186.426 25.7437 185.594 24.9117 184.995 23.8301C184.396 22.7485 184.096 21.4838 184.096 20.0362C184.096 18.5885 184.388 17.3238 184.97 16.2422C185.569 15.1606 186.401 14.3286 187.466 13.7462C188.531 13.1638 189.754 12.8726 191.135 12.8726C192.483 12.8726 193.681 13.1555 194.729 13.7213C195.778 14.287 196.593 15.0941 197.175 16.1424C197.774 17.1907 198.074 18.4138 198.074 19.8115ZM193.706 18.6883C193.706 17.9562 193.456 17.3738 192.957 16.9411C192.458 16.5085 191.834 16.2922 191.085 16.2922C190.37 16.2922 189.762 16.5002 189.263 16.9162C188.781 17.3322 188.481 17.9229 188.365 18.6883H193.706ZM204.594 15.3936C205.093 14.6282 205.717 14.0291 206.466 13.5965C207.215 13.1472 208.047 12.9226 208.962 12.9226V17.4403H207.789C206.724 17.4403 205.925 17.6733 205.393 18.1392C204.86 18.5885 204.594 19.3872 204.594 20.5354V27H200.326V13.0723H204.594V15.3936ZM220.559 9.47808V27H216.291V9.47808H220.559ZM232.139 12.9226C233.77 12.9226 235.068 13.455 236.033 14.52C237.014 15.5683 237.505 17.016 237.505 18.863V27H233.262V19.4371C233.262 18.5053 233.021 17.7814 232.538 17.2656C232.056 16.7498 231.407 16.4918 230.591 16.4918C229.776 16.4918 229.127 16.7498 228.645 17.2656C228.162 17.7814 227.921 18.5053 227.921 19.4371V27H223.653V13.0723H227.921V14.9194C228.353 14.3037 228.936 13.8211 229.668 13.4717C230.4 13.1056 231.224 12.9226 232.139 12.9226ZM246.137 27.1997C244.922 27.1997 243.841 26.9917 242.892 26.5757C241.944 26.1597 241.195 25.5939 240.646 24.8784C240.097 24.1462 239.789 23.3309 239.722 22.4323H243.941C243.991 22.9149 244.215 23.3059 244.615 23.6054C245.014 23.905 245.505 24.0547 246.087 24.0547C246.62 24.0547 247.027 23.9549 247.31 23.7552C247.61 23.5389 247.76 23.2643 247.76 22.9315C247.76 22.5322 247.552 22.241 247.136 22.0579C246.72 21.8582 246.046 21.6419 245.114 21.409C244.115 21.176 243.283 20.9347 242.618 20.6851C241.952 20.4189 241.378 20.0112 240.896 19.4621C240.413 18.8963 240.172 18.1392 240.172 17.1907C240.172 16.392 240.388 15.6682 240.821 15.0192C241.27 14.3536 241.919 13.8294 242.768 13.4467C243.633 13.064 244.656 12.8726 245.838 12.8726C247.585 12.8726 248.958 13.3053 249.956 14.1706C250.971 15.0358 251.553 16.184 251.703 17.615H247.76C247.693 17.1325 247.477 16.7498 247.111 16.4669C246.761 16.184 246.295 16.0426 245.713 16.0426C245.214 16.0426 244.831 16.1424 244.565 16.3421C244.298 16.5251 244.165 16.783 244.165 17.1158C244.165 17.5152 244.373 17.8147 244.789 18.0144C245.222 18.2141 245.888 18.4138 246.786 18.6134C247.818 18.8797 248.658 19.1459 249.307 19.4122C249.956 19.6618 250.522 20.0778 251.004 20.6602C251.504 21.2259 251.761 21.9914 251.778 22.9565C251.778 23.7718 251.545 24.504 251.079 25.153C250.63 25.7853 249.973 26.2845 249.107 26.6506C248.259 27.0166 247.269 27.1997 246.137 27.1997ZM262.152 23.3808V27H259.98C258.433 27 257.226 26.6256 256.361 25.8768C255.496 25.1114 255.063 23.8717 255.063 22.1578V16.6166H253.366V13.0723H255.063V9.67776H259.331V13.0723H262.127V16.6166H259.331V22.2077C259.331 22.6237 259.431 22.9232 259.631 23.1062C259.831 23.2893 260.163 23.3808 260.629 23.3808H262.152ZM266.676 11.6246C265.927 11.6246 265.311 11.4083 264.829 10.9757C264.363 10.5264 264.13 9.97728 264.13 9.32832C264.13 8.66272 264.363 8.1136 264.829 7.68096C265.311 7.23168 265.927 7.00704 266.676 7.00704C267.408 7.00704 268.007 7.23168 268.473 7.68096C268.956 8.1136 269.197 8.66272 269.197 9.32832C269.197 9.97728 268.956 10.5264 268.473 10.9757C268.007 11.4083 267.408 11.6246 266.676 11.6246ZM268.798 13.0723V27H264.529V13.0723H268.798ZM279.653 23.3808V27H277.482C275.934 27 274.728 26.6256 273.862 25.8768C272.997 25.1114 272.565 23.8717 272.565 22.1578V16.6166H270.867V13.0723H272.565V9.67776H276.833V13.0723H279.628V16.6166H276.833V22.2077C276.833 22.6237 276.933 22.9232 277.132 23.1062C277.332 23.2893 277.665 23.3808 278.131 23.3808H279.653ZM295.784 13.0723V27H291.515V25.103C291.083 25.7187 290.492 26.2179 289.743 26.6006C289.011 26.9667 288.196 27.1498 287.297 27.1498C286.232 27.1498 285.292 26.9168 284.477 26.4509C283.661 25.9683 283.029 25.2778 282.58 24.3792C282.13 23.4806 281.906 22.424 281.906 21.2093V13.0723H286.149V20.6352C286.149 21.567 286.39 22.2909 286.873 22.8067C287.355 23.3226 288.004 23.5805 288.82 23.5805C289.652 23.5805 290.309 23.3226 290.792 22.8067C291.274 22.2909 291.515 21.567 291.515 20.6352V13.0723H295.784ZM306.612 23.3808V27H304.44C302.893 27 301.686 26.6256 300.821 25.8768C299.956 25.1114 299.523 23.8717 299.523 22.1578V16.6166H297.826V13.0723H299.523V9.67776H303.791V13.0723H306.587V16.6166H303.791V22.2077C303.791 22.6237 303.891 22.9232 304.091 23.1062C304.291 23.2893 304.623 23.3808 305.089 23.3808H306.612ZM322.118 19.8115C322.118 20.2109 322.093 20.6269 322.043 21.0595H312.384C312.451 21.9248 312.725 22.5904 313.208 23.0563C313.707 23.5056 314.314 23.7302 315.03 23.7302C316.095 23.7302 316.835 23.281 317.251 22.3824H321.794C321.561 23.2976 321.137 24.1213 320.521 24.8534C319.922 25.5856 319.165 26.1597 318.25 26.5757C317.334 26.9917 316.311 27.1997 315.179 27.1997C313.815 27.1997 312.6 26.9085 311.535 26.3261C310.47 25.7437 309.638 24.9117 309.039 23.8301C308.44 22.7485 308.141 21.4838 308.141 20.0362C308.141 18.5885 308.432 17.3238 309.014 16.2422C309.613 15.1606 310.445 14.3286 311.51 13.7462C312.575 13.1638 313.798 12.8726 315.179 12.8726C316.527 12.8726 317.725 13.1555 318.774 13.7213C319.822 14.287 320.637 15.0941 321.22 16.1424C321.819 17.1907 322.118 18.4138 322.118 19.8115ZM317.75 18.6883C317.75 17.9562 317.501 17.3738 317.002 16.9411C316.502 16.5085 315.878 16.2922 315.13 16.2922C314.414 16.2922 313.807 16.5002 313.307 16.9162C312.825 17.3322 312.525 17.9229 312.409 18.6883H317.75Z" fill="white"/>
<path d="M0.80496 58.8333C0.80496 57.785 1.01712 56.8677 1.44144 56.0814C1.86576 55.2827 2.44608 54.665 3.1824 54.2282C3.9312 53.7914 4.76112 53.573 5.67216 53.573C6.57072 53.573 7.35072 53.7664 8.01216 54.1533C8.6736 54.5402 9.16656 55.0269 9.49104 55.6134V53.7414H11.2133V64H9.49104V62.0906C9.15408 62.6896 8.64864 63.1888 7.97472 63.5882C7.31328 63.975 6.53952 64.1685 5.65344 64.1685C4.7424 64.1685 3.91872 63.9438 3.1824 63.4946C2.44608 63.0453 1.86576 62.415 1.44144 61.6038C1.01712 60.7926 0.80496 59.8691 0.80496 58.8333ZM9.49104 58.852C9.49104 58.0782 9.33504 57.4043 9.02304 56.8302C8.71104 56.2562 8.28672 55.8194 7.75008 55.5198C7.22592 55.2078 6.6456 55.0518 6.00912 55.0518C5.37264 55.0518 4.79232 55.2016 4.26816 55.5011C3.744 55.8006 3.32592 56.2374 3.01392 56.8115C2.70192 57.3856 2.54592 58.0595 2.54592 58.8333C2.54592 59.6195 2.70192 60.3059 3.01392 60.8925C3.32592 61.4666 3.744 61.9096 4.26816 62.2216C4.79232 62.5211 5.37264 62.6709 6.00912 62.6709C6.6456 62.6709 7.22592 62.5211 7.75008 62.2216C8.28672 61.9096 8.71104 61.4666 9.02304 60.8925C9.33504 60.3059 9.49104 59.6258 9.49104 58.852ZM16.17 55.1454V61.192C16.17 61.6912 16.2761 62.0469 16.4882 62.259C16.7004 62.4587 17.0685 62.5586 17.5927 62.5586H18.8469V64H17.3119C16.3634 64 15.6521 63.7816 15.1778 63.3448C14.7036 62.908 14.4665 62.1904 14.4665 61.192V55.1454H13.1373V53.7414H14.4665V51.1581H16.17V53.7414H18.8469V55.1454H16.17ZM27.9797 55.1454V61.192C27.9797 61.6912 28.0858 62.0469 28.2979 62.259C28.5101 62.4587 28.8782 62.5586 29.4024 62.5586H30.6566V64H29.1216C28.1731 64 27.4618 63.7816 26.9875 63.3448C26.5133 62.908 26.2762 62.1904 26.2762 61.192V55.1454H24.947V53.7414H26.2762V51.1581H27.9797V53.7414H30.6566V55.1454H27.9797ZM37.8125 53.5542C38.5863 53.5542 39.2851 53.7227 39.9091 54.0597C40.5331 54.3842 41.0199 54.8771 41.3693 55.5386C41.7312 56.2 41.9122 57.005 41.9122 57.9534V64H40.2274V58.1968C40.2274 57.1734 39.9715 56.3934 39.4599 55.8568C38.9482 55.3077 38.2493 55.0331 37.3632 55.0331C36.4647 55.0331 35.7471 55.3139 35.2104 55.8755C34.6863 56.4371 34.4242 57.2546 34.4242 58.3278V64H32.7207V50.1472H34.4242V55.2016C34.7611 54.6774 35.2229 54.2718 35.8095 53.9848C36.4085 53.6978 37.0762 53.5542 37.8125 53.5542ZM54.0549 58.4776C54.0549 58.8021 54.0362 59.1453 53.9987 59.5072H45.7994C45.8618 60.5181 46.205 61.3106 46.829 61.8846C47.4654 62.4462 48.233 62.727 49.1315 62.727C49.8678 62.727 50.4794 62.5586 50.9661 62.2216C51.4653 61.8722 51.8147 61.4104 52.0144 60.8363H53.849C53.5744 61.8222 53.0253 62.6272 52.2016 63.2512C51.3779 63.8627 50.3546 64.1685 49.1315 64.1685C48.1581 64.1685 47.2845 63.9501 46.5107 63.5133C45.7494 63.0765 45.1504 62.4587 44.7136 61.66C44.2768 60.8488 44.0584 59.9128 44.0584 58.852C44.0584 57.7912 44.2706 56.8614 44.6949 56.0627C45.1192 55.264 45.712 54.6525 46.4733 54.2282C47.247 53.7914 48.1331 53.573 49.1315 53.573C50.105 53.573 50.9661 53.7851 51.7149 54.2094C52.4637 54.6338 53.0378 55.2203 53.4371 55.9691C53.849 56.7054 54.0549 57.5416 54.0549 58.4776ZM52.2952 58.1219C52.2952 57.473 52.1517 56.9176 51.8646 56.4558C51.5776 55.9816 51.1845 55.6259 50.6853 55.3888C50.1986 55.1392 49.6557 55.0144 49.0566 55.0144C48.1955 55.0144 47.4592 55.289 46.8477 55.8381C46.2486 56.3872 45.9054 57.1485 45.8181 58.1219H52.2952ZM71.5528 64H69.8493L62.9978 53.6104V64H61.2942V50.9334H62.9978L69.8493 61.3043V50.9334H71.5528V64ZM73.8203 58.8333C73.8203 57.785 74.0324 56.8677 74.4567 56.0814C74.8811 55.2827 75.4614 54.665 76.1977 54.2282C76.9465 53.7914 77.7764 53.573 78.6875 53.573C79.586 53.573 80.366 53.7664 81.0275 54.1533C81.6889 54.5402 82.1819 55.0269 82.5063 55.6134V53.7414H84.2286V64H82.5063V62.0906C82.1694 62.6896 81.6639 63.1888 80.99 63.5882C80.3286 63.975 79.5548 64.1685 78.6687 64.1685C77.7577 64.1685 76.934 63.9438 76.1977 63.4946C75.4614 63.0453 74.8811 62.415 74.4567 61.6038C74.0324 60.7926 73.8203 59.8691 73.8203 58.8333ZM82.5063 58.852C82.5063 58.0782 82.3503 57.4043 82.0383 56.8302C81.7263 56.2562 81.302 55.8194 80.7654 55.5198C80.2412 55.2078 79.6609 55.0518 79.0244 55.0518C78.3879 55.0518 77.8076 55.2016 77.2835 55.5011C76.7593 55.8006 76.3412 56.2374 76.0292 56.8115C75.7172 57.3856 75.5612 58.0595 75.5612 58.8333C75.5612 59.6195 75.7172 60.3059 76.0292 60.8925C76.3412 61.4666 76.7593 61.9096 77.2835 62.2216C77.8076 62.5211 78.3879 62.6709 79.0244 62.6709C79.6609 62.6709 80.2412 62.5211 80.7654 62.2216C81.302 61.9096 81.7263 61.4666 82.0383 60.8925C82.3503 60.3059 82.5063 59.6258 82.5063 58.852ZM89.1853 55.1454V61.192C89.1853 61.6912 89.2914 62.0469 89.5035 62.259C89.7157 62.4587 90.0839 62.5586 90.608 62.5586H91.8623V64H90.3272C89.3787 64 88.6674 63.7816 88.1931 63.3448C87.7189 62.908 87.4818 62.1904 87.4818 61.192V55.1454H86.1527V53.7414H87.4818V51.1581H89.1853V53.7414H91.8623V55.1454H89.1853ZM94.8061 52.0754C94.4816 52.0754 94.2071 51.963 93.9824 51.7384C93.7578 51.5138 93.6455 51.2392 93.6455 50.9147C93.6455 50.5902 93.7578 50.3157 93.9824 50.091C94.2071 49.8664 94.4816 49.7541 94.8061 49.7541C95.1181 49.7541 95.3802 49.8664 95.5924 50.091C95.817 50.3157 95.9293 50.5902 95.9293 50.9147C95.9293 51.2392 95.817 51.5138 95.5924 51.7384C95.3802 51.963 95.1181 52.0754 94.8061 52.0754ZM95.6298 53.7414V64H93.9263V53.7414H95.6298ZM103.007 64.1685C102.046 64.1685 101.173 63.9501 100.386 63.5133C99.6127 63.0765 99.0012 62.4587 98.5519 61.66C98.1151 60.8488 97.8967 59.9128 97.8967 58.852C97.8967 57.8037 98.1213 56.8802 98.5706 56.0814C99.0324 55.2702 99.6564 54.6525 100.443 54.2282C101.229 53.7914 102.109 53.573 103.082 53.573C104.056 53.573 104.935 53.7914 105.722 54.2282C106.508 54.6525 107.126 55.264 107.575 56.0627C108.037 56.8614 108.268 57.7912 108.268 58.852C108.268 59.9128 108.03 60.8488 107.556 61.66C107.094 62.4587 106.464 63.0765 105.665 63.5133C104.867 63.9501 103.981 64.1685 103.007 64.1685ZM103.007 62.6709C103.619 62.6709 104.193 62.5274 104.729 62.2403C105.266 61.9533 105.697 61.5227 106.021 60.9486C106.358 60.3746 106.527 59.6757 106.527 58.852C106.527 58.0283 106.364 57.3294 106.04 56.7554C105.715 56.1813 105.291 55.757 104.767 55.4824C104.243 55.1954 103.675 55.0518 103.063 55.0518C102.439 55.0518 101.865 55.1954 101.341 55.4824C100.829 55.757 100.418 56.1813 100.106 56.7554C99.7936 57.3294 99.6376 58.0283 99.6376 58.852C99.6376 59.6882 99.7874 60.3933 100.087 60.9674C100.399 61.5414 100.811 61.972 101.322 62.259C101.834 62.5336 102.396 62.6709 103.007 62.6709ZM115.506 53.5542C116.754 53.5542 117.764 53.9349 118.538 54.6962C119.312 55.445 119.699 56.5307 119.699 57.9534V64H118.014V58.1968C118.014 57.1734 117.758 56.3934 117.247 55.8568C116.735 55.3077 116.036 55.0331 115.15 55.0331C114.251 55.0331 113.534 55.3139 112.997 55.8755C112.473 56.4371 112.211 57.2546 112.211 58.3278V64H110.507V53.7414H112.211V55.2016C112.548 54.6774 113.003 54.2718 113.577 53.9848C114.164 53.6978 114.807 53.5542 115.506 53.5542ZM121.845 58.8333C121.845 57.785 122.057 56.8677 122.482 56.0814C122.906 55.2827 123.486 54.665 124.223 54.2282C124.971 53.7914 125.801 53.573 126.712 53.573C127.611 53.573 128.391 53.7664 129.052 54.1533C129.714 54.5402 130.207 55.0269 130.531 55.6134V53.7414H132.253V64H130.531V62.0906C130.194 62.6896 129.689 63.1888 129.015 63.5882C128.353 63.975 127.58 64.1685 126.694 64.1685C125.783 64.1685 124.959 63.9438 124.223 63.4946C123.486 63.0453 122.906 62.415 122.482 61.6038C122.057 60.7926 121.845 59.8691 121.845 58.8333ZM130.531 58.852C130.531 58.0782 130.375 57.4043 130.063 56.8302C129.751 56.2562 129.327 55.8194 128.79 55.5198C128.266 55.2078 127.686 55.0518 127.049 55.0518C126.413 55.0518 125.832 55.2016 125.308 55.5011C124.784 55.8006 124.366 56.2374 124.054 56.8115C123.742 57.3856 123.586 58.0595 123.586 58.8333C123.586 59.6195 123.742 60.3059 124.054 60.8925C124.366 61.4666 124.784 61.9096 125.308 62.2216C125.832 62.5211 126.413 62.6709 127.049 62.6709C127.686 62.6709 128.266 62.5211 128.79 62.2216C129.327 61.9096 129.751 61.4666 130.063 60.8925C130.375 60.3059 130.531 59.6258 130.531 58.852ZM136.836 50.1472V64H135.132V50.1472H136.836ZM146.433 50.9522V64H144.73V50.9522H146.433ZM154.335 53.5542C155.583 53.5542 156.594 53.9349 157.368 54.6962C158.141 55.445 158.528 56.5307 158.528 57.9534V64H156.843V58.1968C156.843 57.1734 156.588 56.3934 156.076 55.8568C155.564 55.3077 154.865 55.0331 153.979 55.0331C153.081 55.0331 152.363 55.3139 151.827 55.8755C151.302 56.4371 151.04 57.2546 151.04 58.3278V64H149.337V53.7414H151.04V55.2016C151.377 54.6774 151.833 54.2718 152.407 53.9848C152.993 53.6978 153.636 53.5542 154.335 53.5542ZM164.943 64.1685C164.156 64.1685 163.451 64.0374 162.827 63.7754C162.203 63.5008 161.71 63.1264 161.348 62.6522C160.986 62.1654 160.787 61.6101 160.749 60.9861H162.509C162.559 61.4978 162.796 61.9158 163.22 62.2403C163.657 62.5648 164.225 62.727 164.924 62.727C165.573 62.727 166.085 62.5835 166.459 62.2965C166.833 62.0094 167.021 61.6475 167.021 61.2107C167.021 60.7614 166.821 60.4307 166.422 60.2186C166.022 59.9939 165.404 59.7755 164.568 59.5634C163.807 59.3637 163.183 59.164 162.696 58.9643C162.222 58.7522 161.81 58.4464 161.461 58.047C161.124 57.6352 160.955 57.0986 160.955 56.4371C160.955 55.913 161.111 55.4325 161.423 54.9957C161.735 54.5589 162.178 54.2157 162.752 53.9661C163.326 53.704 163.982 53.573 164.718 53.573C165.854 53.573 166.771 53.86 167.47 54.4341C168.169 55.0082 168.543 55.7944 168.593 56.7928H166.89C166.852 56.2562 166.634 55.8256 166.234 55.5011C165.847 55.1766 165.323 55.0144 164.662 55.0144C164.05 55.0144 163.564 55.1454 163.202 55.4075C162.84 55.6696 162.659 56.0128 162.659 56.4371C162.659 56.7741 162.765 57.0549 162.977 57.2795C163.202 57.4917 163.476 57.6664 163.801 57.8037C164.138 57.9285 164.599 58.072 165.186 58.2342C165.922 58.4339 166.521 58.6336 166.983 58.8333C167.445 59.0205 167.838 59.3075 168.162 59.6944C168.499 60.0813 168.674 60.5867 168.687 61.2107C168.687 61.7723 168.531 62.2778 168.219 62.727C167.907 63.1763 167.464 63.532 166.89 63.7941C166.328 64.0437 165.679 64.1685 164.943 64.1685ZM173.169 55.1454V61.192C173.169 61.6912 173.275 62.0469 173.488 62.259C173.7 62.4587 174.068 62.5586 174.592 62.5586H175.846V64H174.311C173.363 64 172.651 63.7816 172.177 63.3448C171.703 62.908 171.466 62.1904 171.466 61.192V55.1454H170.137V53.7414H171.466V51.1581H173.169V53.7414H175.846V55.1454H173.169ZM178.79 52.0754C178.466 52.0754 178.191 51.963 177.967 51.7384C177.742 51.5138 177.63 51.2392 177.63 50.9147C177.63 50.5902 177.742 50.3157 177.967 50.091C178.191 49.8664 178.466 49.7541 178.79 49.7541C179.102 49.7541 179.364 49.8664 179.576 50.091C179.801 50.3157 179.913 50.5902 179.913 50.9147C179.913 51.2392 179.801 51.5138 179.576 51.7384C179.364 51.963 179.102 52.0754 178.79 52.0754ZM179.614 53.7414V64H177.91V53.7414H179.614ZM184.595 55.1454V61.192C184.595 61.6912 184.701 62.0469 184.913 62.259C185.126 62.4587 185.494 62.5586 186.018 62.5586H187.272V64H185.737C184.789 64 184.077 63.7816 183.603 63.3448C183.129 62.908 182.892 62.1904 182.892 61.192V55.1454H181.562V53.7414H182.892V51.1581H184.595V53.7414H187.272V55.1454H184.595ZM198.434 53.7414V64H196.731V62.4837C196.406 63.0078 195.951 63.4197 195.364 63.7192C194.79 64.0062 194.153 64.1498 193.455 64.1498C192.656 64.1498 191.938 63.9875 191.302 63.663C190.665 63.3261 190.16 62.8269 189.785 62.1654C189.423 61.504 189.243 60.699 189.243 59.7506V53.7414H190.927V59.5259C190.927 60.5368 191.183 61.3168 191.695 61.8659C192.207 62.4026 192.905 62.6709 193.791 62.6709C194.703 62.6709 195.42 62.3901 195.944 61.8285C196.468 61.2669 196.731 60.4494 196.731 59.3762V53.7414H198.434ZM203.388 55.1454V61.192C203.388 61.6912 203.494 62.0469 203.706 62.259C203.919 62.4587 204.287 62.5586 204.811 62.5586H206.065V64H204.53C203.582 64 202.87 63.7816 202.396 63.3448C201.922 62.908 201.685 62.1904 201.685 61.192V55.1454H200.356V53.7414H201.685V51.1581H203.388V53.7414H206.065V55.1454H203.388ZM217.489 58.4776C217.489 58.8021 217.471 59.1453 217.433 59.5072H209.234C209.296 60.5181 209.639 61.3106 210.263 61.8846C210.9 62.4462 211.667 62.727 212.566 62.727C213.302 62.727 213.914 62.5586 214.4 62.2216C214.9 61.8722 215.249 61.4104 215.449 60.8363H217.283C217.009 61.8222 216.46 62.6272 215.636 63.2512C214.812 63.8627 213.789 64.1685 212.566 64.1685C211.592 64.1685 210.719 63.9501 209.945 63.5133C209.184 63.0765 208.585 62.4587 208.148 61.66C207.711 60.8488 207.493 59.9128 207.493 58.852C207.493 57.7912 207.705 56.8614 208.129 56.0627C208.554 55.264 209.146 54.6525 209.908 54.2282C210.681 53.7914 211.567 53.573 212.566 53.573C213.539 53.573 214.4 53.7851 215.149 54.2094C215.898 54.6338 216.472 55.2203 216.871 55.9691C217.283 56.7054 217.489 57.5416 217.489 58.4776ZM215.73 58.1219C215.73 57.473 215.586 56.9176 215.299 56.4558C215.012 55.9816 214.619 55.6259 214.12 55.3888C213.633 55.1392 213.09 55.0144 212.491 55.0144C211.63 55.0144 210.894 55.289 210.282 55.8381C209.683 56.3872 209.34 57.1485 209.252 58.1219H215.73ZM223.37 64.1685C222.583 64.1685 221.878 64.0374 221.254 63.7754C220.63 63.5008 220.137 63.1264 219.775 62.6522C219.413 62.1654 219.214 61.6101 219.176 60.9861H220.936C220.986 61.4978 221.223 61.9158 221.647 62.2403C222.084 62.5648 222.652 62.727 223.351 62.727C224 62.727 224.511 62.5835 224.886 62.2965C225.26 62.0094 225.447 61.6475 225.447 61.2107C225.447 60.7614 225.248 60.4307 224.848 60.2186C224.449 59.9939 223.831 59.7755 222.995 59.5634C222.234 59.3637 221.61 59.164 221.123 58.9643C220.649 58.7522 220.237 58.4464 219.888 58.047C219.551 57.6352 219.382 57.0986 219.382 56.4371C219.382 55.913 219.538 55.4325 219.85 54.9957C220.162 54.5589 220.605 54.2157 221.179 53.9661C221.753 53.704 222.409 53.573 223.145 53.573C224.281 53.573 225.198 53.86 225.897 54.4341C226.596 55.0082 226.97 55.7944 227.02 56.7928H225.316C225.279 56.2562 225.061 55.8256 224.661 55.5011C224.274 55.1766 223.75 55.0144 223.089 55.0144C222.477 55.0144 221.99 55.1454 221.629 55.4075C221.267 55.6696 221.086 56.0128 221.086 56.4371C221.086 56.7741 221.192 57.0549 221.404 57.2795C221.629 57.4917 221.903 57.6664 222.228 57.8037C222.565 57.9285 223.026 58.072 223.613 58.2342C224.349 58.4339 224.948 58.6336 225.41 58.8333C225.872 59.0205 226.265 59.3075 226.589 59.6944C226.926 60.0813 227.101 60.5867 227.114 61.2107C227.114 61.7723 226.958 62.2778 226.646 62.727C226.334 63.1763 225.89 63.532 225.316 63.7941C224.755 64.0437 224.106 64.1685 223.37 64.1685ZM238.983 64.1685C238.022 64.1685 237.149 63.9501 236.362 63.5133C235.589 63.0765 234.977 62.4587 234.528 61.66C234.091 60.8488 233.873 59.9128 233.873 58.852C233.873 57.8037 234.097 56.8802 234.547 56.0814C235.008 55.2702 235.632 54.6525 236.419 54.2282C237.205 53.7914 238.085 53.573 239.058 53.573C240.031 53.573 240.911 53.7914 241.698 54.2282C242.484 54.6525 243.102 55.264 243.551 56.0627C244.013 56.8614 244.243 57.7912 244.243 58.852C244.243 59.9128 244.006 60.8488 243.532 61.66C243.07 62.4587 242.44 63.0765 241.641 63.5133C240.843 63.9501 239.957 64.1685 238.983 64.1685ZM238.983 62.6709C239.595 62.6709 240.169 62.5274 240.705 62.2403C241.242 61.9533 241.673 61.5227 241.997 60.9486C242.334 60.3746 242.503 59.6757 242.503 58.852C242.503 58.0283 242.34 57.3294 242.016 56.7554C241.691 56.1813 241.267 55.757 240.743 55.4824C240.219 55.1954 239.651 55.0518 239.039 55.0518C238.415 55.0518 237.841 55.1954 237.317 55.4824C236.805 55.757 236.394 56.1813 236.082 56.7554C235.77 57.3294 235.614 58.0283 235.614 58.852C235.614 59.6882 235.763 60.3933 236.063 60.9674C236.375 61.5414 236.787 61.972 237.298 62.259C237.81 62.5336 238.372 62.6709 238.983 62.6709ZM250.658 55.1454H248.505V64H246.802V55.1454H245.472V53.7414H246.802V53.0114C246.802 51.8632 247.095 51.027 247.681 50.5029C248.28 49.9662 249.235 49.6979 250.546 49.6979V51.1206C249.797 51.1206 249.266 51.2704 248.954 51.5699C248.655 51.857 248.505 52.3374 248.505 53.0114V53.7414H250.658V55.1454ZM267.688 50.9522V64H265.984V58.0845H259.338V64H257.635V50.9522H259.338V56.6805H265.984V50.9522H267.688ZM279.956 58.4776C279.956 58.8021 279.938 59.1453 279.9 59.5072H271.701C271.763 60.5181 272.106 61.3106 272.73 61.8846C273.367 62.4462 274.134 62.727 275.033 62.727C275.769 62.727 276.381 62.5586 276.867 62.2216C277.367 61.8722 277.716 61.4104 277.916 60.8363H279.75C279.476 61.8222 278.927 62.6272 278.103 63.2512C277.279 63.8627 276.256 64.1685 275.033 64.1685C274.059 64.1685 273.186 63.9501 272.412 63.5133C271.651 63.0765 271.052 62.4587 270.615 61.66C270.178 60.8488 269.96 59.9128 269.96 58.852C269.96 57.7912 270.172 56.8614 270.596 56.0627C271.021 55.264 271.613 54.6525 272.375 54.2282C273.148 53.7914 274.034 53.573 275.033 53.573C276.006 53.573 276.867 53.7851 277.616 54.2094C278.365 54.6338 278.939 55.2203 279.338 55.9691C279.75 56.7054 279.956 57.5416 279.956 58.4776ZM278.197 58.1219C278.197 57.473 278.053 56.9176 277.766 56.4558C277.479 55.9816 277.086 55.6259 276.587 55.3888C276.1 55.1392 275.557 55.0144 274.958 55.0144C274.097 55.0144 273.361 55.289 272.749 55.8381C272.15 56.3872 271.807 57.1485 271.719 58.1219H278.197ZM281.568 58.8333C281.568 57.785 281.781 56.8677 282.205 56.0814C282.629 55.2827 283.21 54.665 283.946 54.2282C284.695 53.7914 285.525 53.573 286.436 53.573C287.334 53.573 288.114 53.7664 288.776 54.1533C289.437 54.5402 289.93 55.0269 290.254 55.6134V53.7414H291.977V64H290.254V62.0906C289.918 62.6896 289.412 63.1888 288.738 63.5882C288.077 63.975 287.303 64.1685 286.417 64.1685C285.506 64.1685 284.682 63.9438 283.946 63.4946C283.21 63.0453 282.629 62.415 282.205 61.6038C281.781 60.7926 281.568 59.8691 281.568 58.8333ZM290.254 58.852C290.254 58.0782 290.098 57.4043 289.786 56.8302C289.474 56.2562 289.05 55.8194 288.514 55.5198C287.989 55.2078 287.409 55.0518 286.773 55.0518C286.136 55.0518 285.556 55.2016 285.032 55.5011C284.507 55.8006 284.089 56.2374 283.777 56.8115C283.465 57.3856 283.309 58.0595 283.309 58.8333C283.309 59.6195 283.465 60.3059 283.777 60.8925C284.089 61.4666 284.507 61.9096 285.032 62.2216C285.556 62.5211 286.136 62.6709 286.773 62.6709C287.409 62.6709 287.989 62.5211 288.514 62.2216C289.05 61.9096 289.474 61.4666 289.786 60.8925C290.098 60.3059 290.254 59.6258 290.254 58.852ZM296.559 50.1472V64H294.856V50.1472H296.559ZM301.54 55.1454V61.192C301.54 61.6912 301.646 62.0469 301.859 62.259C302.071 62.4587 302.439 62.5586 302.963 62.5586H304.217V64H302.682C301.734 64 301.022 63.7816 300.548 63.3448C300.074 62.908 299.837 62.1904 299.837 61.192V55.1454H298.508V53.7414H299.837V51.1581H301.54V53.7414H304.217V55.1454H301.54ZM311.373 53.5542C312.147 53.5542 312.846 53.7227 313.47 54.0597C314.094 54.3842 314.58 54.8771 314.93 55.5386C315.292 56.2 315.473 57.005 315.473 57.9534V64H313.788V58.1968C313.788 57.1734 313.532 56.3934 313.02 55.8568C312.509 55.3077 311.81 55.0331 310.924 55.0331C310.025 55.0331 309.308 55.3139 308.771 55.8755C308.247 56.4371 307.985 57.2546 307.985 58.3278V64H306.281V50.1472H307.985V55.2016C308.322 54.6774 308.783 54.2718 309.37 53.9848C309.969 53.6978 310.637 53.5542 311.373 53.5542Z" fill="white"/>
</svg>
