<svg width="31" height="30" viewBox="0 0 31 30" fill="none" xmlns="http://www.w3.org/2000/svg">
<path fill-rule="evenodd" clip-rule="evenodd" d="M15.929 0C7.64409 0 0.928589 6.71551 0.928589 15.0004C0.928589 23.2853 7.64409 30.0008 15.929 30.0008C24.2139 30.0008 30.9294 23.2853 30.9294 15.0004C30.9294 6.71551 24.2131 0 15.929 0ZM23.3316 11.5201C23.9423 20.0268 14.7775 25.197 7.35159 20.967C7.35159 20.967 11.0175 21.155 12.5684 19.3687C12.5684 19.3687 10.3128 19.5567 9.18456 16.831C9.18456 16.831 10.0307 17.1596 10.8769 16.7369C10.8769 16.7369 8.24517 16.3143 8.00972 13.165C8.00972 13.165 8.85589 13.8232 9.79608 13.5877C9.79608 13.5877 6.8823 11.8488 8.52723 8.69954C8.52723 8.69954 11.629 12.6475 16.0945 12.5069C15.3898 8.79356 19.8545 6.58452 22.4862 9.26365C22.4862 9.26365 23.661 8.93499 24.6952 8.27686C24.6952 8.27686 24.3192 9.54571 23.0503 10.3453C23.0503 10.3453 24.4606 10.1572 25.0713 9.78116C25.0713 9.78116 24.4606 11.05 23.3324 11.5201H23.3316Z" fill="#FACE00"/>
</svg>
