<svg width="31" height="30" viewBox="0 0 31 30" fill="none" xmlns="http://www.w3.org/2000/svg">
<g clip-path="url(#clip0_1_906)">
<path d="M15.7865 0C7.50164 0 0.786133 6.71551 0.786133 15.0004C0.786133 23.2853 7.50164 30.0008 15.7865 30.0008C24.0714 30.0008 30.7869 23.2853 30.7869 15.0004C30.7869 6.71551 24.0706 0 15.7865 0ZM24.2137 18.3915C23.9461 20.4004 22.9416 20.7018 20.9656 20.8689C19.258 21.0361 17.3157 21.0698 15.8098 21.0698C14.3039 21.0698 12.3279 21.0361 10.6533 20.8689C8.67808 20.7018 7.63985 20.4004 7.37226 18.3915C7.27182 17.5212 7.20512 16.2484 7.20512 14.9763C7.20512 13.7042 7.27182 12.4651 7.37226 11.5611C7.63985 9.58589 8.67808 9.2508 10.6533 9.08365C12.3271 8.94945 14.3031 8.88276 15.8098 8.88276C17.3165 8.88276 19.2588 8.94945 20.9656 9.08365C22.9408 9.2508 23.9453 9.58589 24.2137 11.5611C24.3479 12.4651 24.4146 13.7042 24.4146 14.9763C24.4146 16.2484 24.3479 17.5212 24.2137 18.3915Z" fill="#FACE00"/>
<path d="M14.0682 17.5882L18.5554 14.9766L14.0682 12.3987V17.5882Z" fill="#FACE00"/>
</g>
<defs>
<clipPath id="clip0_1_906">
<rect width="30" height="30" fill="white" transform="translate(0.786133)"/>
</clipPath>
</defs>
</svg>
