<svg width="26" height="28" viewBox="0 0 26 28" fill="none" xmlns="http://www.w3.org/2000/svg">
  <g clip-path="url(#clip0_7675_11311)">
    <path
      d="M11.3145 1.47998L17.8095 7.14998H11.7855C11.5249 7.14998 11.3145 6.93998 11.3145 6.67998V1.47998Z"
      fill="white" />
    <path
      d="M18.9334 26.8102C22.0777 26.8102 24.6267 24.2672 24.6267 21.1302C24.6267 17.9932 22.0777 15.4502 18.9334 15.4502C15.7892 15.4502 13.2402 17.9932 13.2402 21.1302C13.2402 24.2672 15.7892 26.8102 18.9334 26.8102Z"
      fill="white" />
    <path
      d="M1.90417 22.0502C1.65359 22.0502 1.45312 21.8502 1.45312 21.6002V1.19023C1.45312 0.940234 1.65359 0.740234 1.90417 0.740234H10.6044V6.38024C10.6044 7.19024 11.2659 7.85024 12.0778 7.85024H18.7633V15.0302C16.6283 15.1602 14.7841 16.3602 13.7517 18.1002H4.20952C3.92887 18.1002 3.69834 18.3302 3.69834 18.6102C3.69834 18.8902 3.92887 19.1202 4.20952 19.1202H13.2706C13.02 19.8002 12.8796 20.5302 12.8796 21.2902C12.8796 21.5502 12.8997 21.8102 12.9298 22.0702H1.90417V22.0502Z"
      fill="white" />
    <path
      d="M16.2771 13.9902H4.24921C3.96856 13.9902 3.74805 14.2102 3.74805 14.4902C3.74805 14.7702 3.96856 14.9902 4.24921 14.9902H16.2771C16.5578 14.9902 16.7783 14.7702 16.7783 14.4902C16.7783 14.2102 16.5578 13.9902 16.2771 13.9902Z"
      fill="black" />
    <path
      d="M4.19843 11.0098H16.2263C16.507 11.0098 16.7275 10.7898 16.7275 10.5098C16.7275 10.2298 16.507 10.0098 16.2263 10.0098H4.19843C3.91778 10.0098 3.69727 10.2298 3.69727 10.5098C3.69727 10.7898 3.91778 11.0098 4.19843 11.0098Z"
      fill="black" />
    <path
      d="M19.5144 15.08V7.53C19.5344 7.38 19.4743 7.23 19.364 7.13L11.3454 0.12C11.3454 0.12 11.3254 0.12 11.3154 0.11C11.2552 0.07 11.1951 0.04 11.1249 0.02C11.0848 0.02 11.0548 0.01 11.0147 0H1.94361C1.14175 0 0.490234 0.65 0.490234 1.45V21.55C0.490234 22.35 1.14175 23 1.94361 23H13.0193C13.7811 25.55 16.1566 27.41 18.9531 27.41C22.371 27.41 25.1475 24.64 25.1475 21.23C25.1475 18.01 22.6717 15.36 19.5144 15.08ZM11.5158 1.6L17.7002 7H11.9669C11.7163 7 11.5158 6.8 11.5158 6.55V1.6ZM1.94361 22C1.69303 22 1.49256 21.8 1.49256 21.55V1.45C1.49256 1.2 1.69303 1 1.94361 1H10.5135V6.55C10.5135 7.35 11.165 8 11.9669 8H18.5522V15.07C16.4473 15.2 14.6331 16.38 13.6107 18.1H4.21889C3.93824 18.1 3.71773 18.32 3.71773 18.6C3.71773 18.88 3.93824 19.1 4.21889 19.1H13.1396C12.889 19.77 12.7487 20.48 12.7487 21.24C12.7487 21.5 12.7687 21.76 12.7988 22.01H1.94361V22ZM18.9531 26.41C16.0864 26.41 13.761 24.08 13.761 21.23C13.761 18.38 16.0965 16.05 18.9531 16.05C21.8097 16.05 24.1451 18.38 24.1451 21.23C24.1451 24.08 21.8097 26.41 18.9531 26.41Z"
      fill="black" />
    <path fill-rule="evenodd" clip-rule="evenodd"
      d="M21.0522 18.2014L22.0267 19.1737L19.8517 21.3437L22.0268 23.5137L21.0522 24.486L18.8771 22.316L16.7019 24.4862L15.7273 23.5139L17.9026 21.3437L15.7274 19.1735L16.7019 18.2012L18.8771 20.3714L21.0522 18.2014Z"
      fill="#B54717" />
  </g>
  <defs>
    <clipPath id="clip0_7675_11311">
      <rect width="24.6572" height="27.41" fill="white" transform="translate(0.490234)" />
    </clipPath>
  </defs>
</svg>
    