<svg width="29" height="30" viewBox="0 0 29 31" fill="none" xmlns="http://www.w3.org/2000/svg">
  <circle cx="15.1559" cy="16.1256" r="9.88636" fill="#42C684" />
  <path fill-rule="evenodd" clip-rule="evenodd"
    d="M0.332031 15.4664C0.332031 7.64031 6.67644 1.2959 14.5025 1.2959C22.3285 1.2959 28.6729 7.64031 28.6729 15.4664C28.6729 23.2924 22.3285 29.6368 14.5025 29.6368C6.67644 29.6368 0.332031 23.2924 0.332031 15.4664ZM10.3608 14.6425L13.212 17.3909C13.3055 17.4811 13.3803 17.5888 13.4321 17.7079C13.484 17.827 13.5118 17.9551 13.5142 18.085C13.5165 18.2149 13.4932 18.3439 13.4457 18.4648C13.3981 18.5857 13.3272 18.696 13.237 18.7895C13.1468 18.883 13.0391 18.9578 12.92 19.0096C12.8009 19.0615 12.6728 19.0893 12.5429 19.0917C12.4131 19.094 12.284 19.0707 12.1631 19.0232C12.0422 18.9756 11.9319 18.9047 11.8384 18.8145L7.22612 14.367C7.1322 14.2768 7.05701 14.1689 7.0049 14.0496C6.95278 13.9302 6.92475 13.8018 6.92242 13.6716C6.9201 13.5414 6.94351 13.412 6.99133 13.2909C7.03915 13.1697 7.11043 13.0593 7.20108 12.9658L11.8147 8.18867C11.9969 8.00006 12.2465 7.89153 12.5086 7.88696C12.7708 7.88238 13.024 7.98214 13.2126 8.16428C13.4013 8.34643 13.5098 8.59604 13.5144 8.8582C13.5189 9.12036 13.4192 9.37361 13.237 9.56222L10.2408 12.6652H17.4025H17.4302C17.4988 12.6661 17.5674 12.6696 17.6358 12.6758C18.3628 12.7303 19.0707 12.9349 19.7146 13.2769C20.2985 13.5893 20.9009 14.0704 21.3557 14.7994C21.8118 15.5323 22.082 16.4603 22.082 17.6084C22.082 20.1657 20.9893 21.6064 19.7581 22.3486C19.0519 22.7682 18.2533 23.0076 17.4328 23.0459H17.4025H16.3479C16.0857 23.0459 15.8343 22.9417 15.6489 22.7563C15.4635 22.5709 15.3593 22.3195 15.3593 22.0573C15.3593 21.7951 15.4635 21.5436 15.6489 21.3582C15.8343 21.1728 16.0857 21.0686 16.3479 21.0686H17.4038L17.4763 21.0634C17.9218 21.0219 18.3526 20.8823 18.7378 20.6547C19.3521 20.2843 20.1048 19.5 20.1048 17.6084C20.1048 16.7793 19.9136 16.2243 19.6777 15.8447C19.4577 15.4947 19.1483 15.2098 18.7813 15.0195C18.3568 14.7954 17.8885 14.6667 17.4091 14.6425H10.3608Z"
    fill="white" />
</svg>
