<svg width="17" height="21" viewBox="0 0 17 21" fill="none" xmlns="http://www.w3.org/2000/svg">
  <path d="M9.18505 12.652L9.38072 6.34666H7.56041L7.76201 12.652H9.18505Z" fill="currentColor" />
  <path
    d="M7.77387 13.943C7.59994 14.1176 7.51298 14.338 7.51298 14.6041C7.51298 14.8618 7.59994 15.0801 7.77387 15.2589C7.95175 15.4377 8.18497 15.5271 8.47353 15.5271C8.76604 15.5271 8.99926 15.4377 9.17319 15.2589C9.34712 15.0801 9.43408 14.8618 9.43408 14.6041C9.43408 14.338 9.34712 14.1176 9.17319 13.943C8.99926 13.7642 8.76604 13.6748 8.47353 13.6748C8.18497 13.6748 7.95175 13.7642 7.77387 13.943Z"
    fill="currentColor" />
  <path fill-rule="evenodd" clip-rule="evenodd"
    d="M11.438 17.7921C11.3531 19.4014 10.07 20.6783 8.50029 20.6783C6.93042 20.6783 5.64721 19.4005 5.56255 17.7915H1.96511C0.879804 17.7915 0 16.8794 0 15.7537C0 14.6281 0.87922 13.716 1.96219 13.716C1.96102 13.716 1.96161 9.64046 1.96161 9.64046C1.96161 6.76941 3.68969 4.25253 6.21175 3.2755V3.18574C6.21117 1.87394 7.23751 0.80957 8.49971 0.80957C9.76191 0.80957 10.7882 1.87333 10.7882 3.18574V3.2755C13.3103 4.25253 15.0384 6.77001 15.0384 9.64046V13.716C16.1196 13.716 17 14.6293 17 15.7543C17 16.8794 16.1196 17.7921 15.0349 17.7921H11.438ZM6.87321 17.7915H10.1262C10.0445 18.6497 9.3474 19.3198 8.49971 19.3198C7.65201 19.3198 6.95553 18.6497 6.87321 17.7915ZM3.26876 9.64046C3.26876 7.20304 4.82637 5.08401 7.0466 4.41871L7.51832 4.27679V3.18574C7.51832 2.62475 7.95735 2.16868 8.49912 2.16868C9.0409 2.16868 9.47993 2.62415 9.47993 3.18574V4.27679L9.95223 4.41871C12.1725 5.08401 13.7301 7.20364 13.7301 9.64046V13.716C13.7301 14.468 14.3145 15.0751 15.0372 15.0751C15.3974 15.0751 15.6917 15.3808 15.6917 15.7543C15.6917 16.1279 15.3974 16.4336 15.0349 16.4336H1.96394C1.60081 16.4336 1.30715 16.1285 1.30715 15.7543C1.30715 15.3801 1.60081 15.0751 1.96161 15.0751C2.68261 15.0751 3.26876 14.4662 3.26876 13.716V9.64046Z"
    fill="currentColor" />
</svg>
