<svg width="16" height="19" viewBox="0 0 16 19" fill="none" xmlns="http://www.w3.org/2000/svg">
  <mask id="path-1-outside-1_8947_33959" maskUnits="userSpaceOnUse" x="0" y="0.318359" width="16" height="19"
    fill="black">
    <rect fill="white" y="0.318359" width="16" height="19" />
    <path fill-rule="evenodd" clip-rule="evenodd"
      d="M8.00024 17.6809C9.29291 17.6809 10.3496 16.6293 10.4195 15.304H13.3817C14.275 15.304 15 14.5523 15 13.6258C15 12.6993 14.275 11.9472 13.3846 11.9472V8.59086C13.3846 6.22696 11.9614 4.15374 9.88444 3.34912V3.27521C9.88444 2.1944 9.03922 1.31836 7.99976 1.31836C6.9603 1.31836 6.11508 2.19489 6.11556 3.27521V3.34912C4.03857 4.15374 2.61544 6.22646 2.61544 8.59086L2.61592 11.9472C1.72406 11.9472 1 12.6983 1 13.6253C1 14.5523 1.72454 15.3035 2.61832 15.3035H5.58093C5.65064 16.6285 6.70741 17.6809 8.00024 17.6809ZM9.33923 15.3035H6.66029C6.72808 16.0102 7.30166 16.5621 7.99976 16.5621C8.69786 16.5621 9.27192 16.0102 9.33923 15.3035ZM8.56255 11.0715L8.72368 5.87891H7.22461L7.39063 11.0715H8.56255ZM7.4004 12.1339C7.25716 12.2777 7.18555 12.4592 7.18555 12.6784C7.18555 12.8907 7.25716 13.0704 7.4004 13.2177C7.54689 13.3649 7.73895 13.4385 7.97659 13.4385C8.21748 13.4385 8.40955 13.3649 8.55278 13.2177C8.69602 13.0704 8.76763 12.8907 8.76763 12.6784C8.76763 12.4592 8.69602 12.2777 8.55278 12.1339C8.40955 11.9867 8.21748 11.9131 7.97659 11.9131C7.73895 11.9131 7.54689 11.9867 7.4004 12.1339Z" />
  </mask>
  <path fill-rule="evenodd" clip-rule="evenodd"
    d="M8.00024 17.6809C9.29291 17.6809 10.3496 16.6293 10.4195 15.304H13.3817C14.275 15.304 15 14.5523 15 13.6258C15 12.6993 14.275 11.9472 13.3846 11.9472V8.59086C13.3846 6.22696 11.9614 4.15374 9.88444 3.34912V3.27521C9.88444 2.1944 9.03922 1.31836 7.99976 1.31836C6.9603 1.31836 6.11508 2.19489 6.11556 3.27521V3.34912C4.03857 4.15374 2.61544 6.22646 2.61544 8.59086L2.61592 11.9472C1.72406 11.9472 1 12.6983 1 13.6253C1 14.5523 1.72454 15.3035 2.61832 15.3035H5.58093C5.65064 16.6285 6.70741 17.6809 8.00024 17.6809ZM9.33923 15.3035H6.66029C6.72808 16.0102 7.30166 16.5621 7.99976 16.5621C8.69786 16.5621 9.27192 16.0102 9.33923 15.3035ZM8.56255 11.0715L8.72368 5.87891H7.22461L7.39063 11.0715H8.56255ZM7.4004 12.1339C7.25716 12.2777 7.18555 12.4592 7.18555 12.6784C7.18555 12.8907 7.25716 13.0704 7.4004 13.2177C7.54689 13.3649 7.73895 13.4385 7.97659 13.4385C8.21748 13.4385 8.40955 13.3649 8.55278 13.2177C8.69602 13.0704 8.76763 12.8907 8.76763 12.6784C8.76763 12.4592 8.69602 12.2777 8.55278 12.1339C8.40955 11.9867 8.21748 11.9131 7.97659 11.9131C7.73895 11.9131 7.54689 11.9867 7.4004 12.1339Z"
    fill="currentColor" />
  <path
    d="M10.4195 15.304V14.304H9.47092L9.42092 15.2513L10.4195 15.304ZM13.3846 11.9472H12.3846V12.9472H13.3846V11.9472ZM9.88444 3.34912H8.88444V4.03415L9.5232 4.2816L9.88444 3.34912ZM6.11556 3.27521H7.11556V3.27476L6.11556 3.27521ZM6.11556 3.34912L6.4768 4.2816L7.11556 4.03415V3.34912H6.11556ZM2.61544 8.59086H1.61544V8.591L2.61544 8.59086ZM2.61592 11.9472V12.9472H3.61606L3.61592 11.947L2.61592 11.9472ZM5.58093 15.3035L6.57955 15.2509L6.5297 14.3035H5.58093V15.3035ZM6.66029 15.3035V14.3035H5.55978L5.66486 15.399L6.66029 15.3035ZM9.33923 15.3035L10.3347 15.3983L10.439 14.3035H9.33923V15.3035ZM8.72368 5.87891L9.7232 5.90992L9.7552 4.87891H8.72368V5.87891ZM8.56255 11.0715V12.0715H9.53199L9.56206 11.1025L8.56255 11.0715ZM7.22461 5.87891V4.87891H6.19213L6.22512 5.91086L7.22461 5.87891ZM7.39063 11.0715L6.39114 11.1035L6.42209 12.0715H7.39063V11.0715ZM7.4004 12.1339L8.10892 12.8396L8.1093 12.8392L7.4004 12.1339ZM7.4004 13.2177L6.68357 13.915L6.6915 13.923L7.4004 13.2177ZM8.55278 13.2177L9.26956 13.915L9.26956 13.915L8.55278 13.2177ZM8.55278 12.1339L7.83595 12.8313L7.84425 12.8396L8.55278 12.1339ZM9.42092 15.2513C9.37709 16.0816 8.72566 16.6809 8.00024 16.6809V18.6809C9.86016 18.6809 11.3221 17.1769 11.4181 15.3567L9.42092 15.2513ZM13.3817 14.304H10.4195V16.304H13.3817V14.304ZM14 13.6258C14 14.0345 13.6888 14.304 13.3817 14.304V16.304C14.8611 16.304 16 15.0701 16 13.6258H14ZM13.3846 12.9472C13.6873 12.9472 14 13.2156 14 13.6258H16C16 12.1831 14.8626 10.9472 13.3846 10.9472V12.9472ZM12.3846 8.59086V11.9472H14.3846V8.59086H12.3846ZM9.5232 4.2816C11.2029 4.93231 12.3846 6.62651 12.3846 8.59086H14.3846C14.3846 5.8274 12.72 3.37517 10.2457 2.41665L9.5232 4.2816ZM8.88444 3.27521V3.34912H10.8844V3.27521H8.88444ZM7.99976 2.31836C8.45235 2.31836 8.88444 2.71145 8.88444 3.27521H10.8844C10.8844 1.67734 9.62608 0.318359 7.99976 0.318359V2.31836ZM7.11556 3.27476C7.11531 2.71177 7.54726 2.31836 7.99976 2.31836V0.318359C6.37334 0.318359 5.11485 1.67802 5.11556 3.27565L7.11556 3.27476ZM7.11556 3.34912V3.27521H5.11556V3.34912H7.11556ZM3.61544 8.59086C3.61544 6.62607 4.79705 4.93232 6.4768 4.2816L5.75433 2.41665C3.28009 3.37516 1.61544 5.82685 1.61544 8.59086H3.61544ZM3.61592 11.947L3.61544 8.59071L1.61544 8.591L1.61592 11.9473L3.61592 11.947ZM2 13.6253C2 13.215 2.31133 12.9472 2.61592 12.9472V10.9472C1.13679 10.9472 0 12.1817 0 13.6253H2ZM2.61832 14.3035C2.31068 14.3035 2 14.0345 2 13.6253H0C0 15.0701 1.13841 16.3035 2.61832 16.3035V14.3035ZM5.58093 14.3035H2.61832V16.3035H5.58093V14.3035ZM8.00024 16.6809C7.27487 16.6809 6.62322 16.0811 6.57955 15.2509L4.58231 15.356C4.67806 17.1759 6.13995 18.6809 8.00024 18.6809V16.6809ZM6.66029 16.3035H9.33923V14.3035H6.66029V16.3035ZM7.99976 15.5621C7.85309 15.5621 7.67784 15.4385 7.65572 15.208L5.66486 15.399C5.77832 16.5818 6.75023 17.5621 7.99976 17.5621V15.5621ZM8.34373 15.2087C8.32188 15.4381 8.14698 15.5621 7.99976 15.5621V17.5621C9.24874 17.5621 10.222 16.5823 10.3347 15.3983L8.34373 15.2087ZM7.72417 5.84789L7.56303 11.0405L9.56206 11.1025L9.7232 5.90992L7.72417 5.84789ZM7.22461 6.87891H8.72368V4.87891H7.22461V6.87891ZM8.39012 11.0396L8.2241 5.84695L6.22512 5.91086L6.39114 11.1035L8.39012 11.0396ZM8.56255 10.0715H7.39063V12.0715H8.56255V10.0715ZM8.18555 12.6784C8.18555 12.6781 8.18556 12.6848 8.18337 12.697C8.18114 12.7095 8.17693 12.726 8.16945 12.745C8.15319 12.7862 8.12953 12.8189 8.10892 12.8396L6.69187 11.4283C6.34617 11.7753 6.18555 12.218 6.18555 12.6784H8.18555ZM8.11718 12.5204C8.13138 12.535 8.15254 12.5629 8.16825 12.6023C8.18371 12.6411 8.18555 12.6701 8.18555 12.6784H6.18555C6.18555 13.1414 6.35212 13.5742 6.68362 13.915L8.11718 12.5204ZM7.97659 12.4385C7.96139 12.4385 7.97773 12.4363 8.01222 12.4495C8.04932 12.4638 8.08398 12.4869 8.10929 12.5123L6.6915 13.923C7.05317 14.2865 7.51455 14.4385 7.97659 14.4385V12.4385ZM7.836 12.5204C7.8656 12.4899 7.90427 12.4645 7.9434 12.4495C7.97936 12.4358 7.99525 12.4385 7.97659 12.4385V14.4385C8.43699 14.4385 8.90554 14.2891 9.26956 13.915L7.836 12.5204ZM7.76763 12.6784C7.76763 12.6701 7.76947 12.6411 7.78493 12.6023C7.80064 12.5629 7.8218 12.535 7.836 12.5204L9.26956 13.915C9.60106 13.5742 9.76763 13.1414 9.76763 12.6784H7.76763ZM7.84425 12.8396C7.82365 12.8189 7.79998 12.7862 7.78373 12.745C7.77625 12.726 7.77204 12.7095 7.76981 12.697C7.76762 12.6848 7.76763 12.6781 7.76763 12.6784H9.76763C9.76763 12.218 9.60701 11.7753 9.26131 11.4283L7.84425 12.8396ZM7.97659 12.9131C7.99525 12.9131 7.97936 12.9158 7.9434 12.9021C7.90428 12.8871 7.8656 12.8617 7.836 12.8312L9.26956 11.4366C8.90554 11.0624 8.43698 10.9131 7.97659 10.9131V12.9131ZM8.1093 12.8392C8.08398 12.8647 8.04932 12.8878 8.01222 12.9021C7.97773 12.9153 7.96138 12.9131 7.97659 12.9131V10.9131C7.51456 10.9131 7.05317 11.0651 6.6915 11.4286L8.1093 12.8392Z"
    fill="white" mask="url(#path-1-outside-1_8947_33959)" />
</svg>
