<svg width="23" height="24" viewBox="0 0 23 24" fill="none" xmlns="http://www.w3.org/2000/svg">
	<g clip-path="url(#clip0_1439_18352)">
		<path d="M19.91 2.4126H18.9039L18.6164 3.45417C18.3769 4.40106 17.4426 5.11123 16.4844 5.11123C15.9574 5.11123 15.4543 4.89818 15.1669 4.49575C14.8555 4.09332 14.7596 3.54886 14.9034 3.02808L15.0711 2.4126H11.8371L11.5496 3.45417C11.2861 4.40106 10.3758 5.11123 9.39368 5.11123C8.86666 5.11123 8.38756 4.89818 8.07614 4.49575C7.76472 4.09332 7.6689 3.54886 7.81263 3.02808L7.98032 2.4126H6.92629C5.3213 2.4126 3.7163 3.64355 3.30906 5.22959L0.338618 16.0478C0.099066 16.9 0.242797 17.7522 0.745856 18.3677C1.22496 18.9831 1.96757 19.3382 2.806 19.3382H4.26727V19.9774C4.26727 21.6581 5.65667 23.0311 7.35749 23.0311H19.91C21.6108 23.0311 23.0002 21.6581 23.0002 19.9774V5.46631C23.0002 3.78559 21.6108 2.4126 19.91 2.4126ZM2.82996 17.4918C2.63832 17.4918 2.39876 17.4445 2.25503 17.2551C2.1113 17.0894 2.08735 16.829 2.18317 16.5449L4.6266 7.50212H19.5267L17.2031 16.0715C16.9875 16.8526 16.149 17.5155 15.3825 17.5155H2.82996V17.4918ZM21.1317 19.9774C21.1317 20.6402 20.5807 21.1847 19.91 21.1847H7.38144C6.7107 21.1847 6.15973 20.6402 6.15973 19.9774V19.3382H15.3825C16.9875 19.3382 18.5925 18.1073 18.9997 16.5212L21.1317 8.68573V19.9774Z" fill="#919191" />
		<path d="M9.39309 4.25919C9.96801 4.25919 10.5429 3.80942 10.6867 3.24128L11.022 1.98666C11.1658 1.41852 10.8304 0.96875 10.2794 0.96875C9.72846 0.96875 9.12958 1.41852 8.98585 1.98666L8.65048 3.24128C8.50675 3.78574 8.84212 4.25919 9.39309 4.25919Z" fill="#919191" />
		<path d="M16.4843 4.25919C17.0593 4.25919 17.6342 3.80942 17.7779 3.24128L18.1133 1.98666C18.257 1.41852 17.9216 0.96875 17.3707 0.96875C16.8197 0.96875 16.2208 1.41852 16.0771 1.98666L15.7178 3.24128C15.574 3.78574 15.9094 4.25919 16.4843 4.25919Z" fill="#919191" />
		<path d="M11.6685 13.0654H9.44068C9.29695 13.0654 9.12926 13.1838 9.08135 13.3258L8.65016 14.9355C8.60225 15.0776 8.69807 15.1959 8.8418 15.1959H11.0696C11.2134 15.1959 11.381 15.0776 11.429 14.9355L11.8602 13.3258C11.9081 13.1838 11.8122 13.0654 11.6685 13.0654Z" fill="#919191" />
		<path d="M7.74078 13.0654H5.51294C5.36921 13.0654 5.20153 13.1838 5.15362 13.3258L4.72242 14.9355C4.67451 15.0776 4.77033 15.1959 4.91407 15.1959H7.1419C7.28563 15.1959 7.45332 15.0776 7.50123 14.9355L7.93242 13.3258C7.98033 13.1838 7.90846 13.0654 7.74078 13.0654Z" fill="#919191" />
		<path d="M15.5982 13.0654H13.3704C13.2266 13.0654 13.0589 13.1838 13.011 13.3258L12.5798 14.9355C12.5319 15.0776 12.6278 15.1959 12.7715 15.1959H14.9993C15.143 15.1959 15.3107 15.0776 15.3586 14.9355L15.7898 13.3258C15.8378 13.1838 15.7419 13.0654 15.5982 13.0654Z" fill="#919191" />
		<path d="M12.5787 9.68018H10.3508C10.2071 9.68018 10.0394 9.79854 9.99151 9.94057L9.56031 11.5503C9.5124 11.6923 9.60822 11.8107 9.75196 11.8107H11.9798C12.1235 11.8107 12.2912 11.6923 12.3391 11.5503L12.7703 9.94057C12.8182 9.79854 12.7464 9.68018 12.5787 9.68018Z" fill="#919191" />
		<path d="M8.67437 9.68018H6.44654C6.30281 9.68018 6.13512 9.79854 6.08721 9.94057L5.65602 11.5503C5.60811 11.6923 5.70393 11.8107 5.84766 11.8107H8.07549C8.21922 11.8107 8.38691 11.6923 8.43482 11.5503L8.86601 9.94057C8.91392 9.79854 8.8181 9.68018 8.67437 9.68018Z" fill="#919191" />
		<path d="M13.7052 11.8341H15.9331C16.0768 11.8341 16.2445 11.7158 16.2924 11.5737L16.7236 9.96401C16.7715 9.82197 16.6757 9.70361 16.5319 9.70361H14.3041C14.1604 9.70361 13.9927 9.82197 13.9448 9.96401L13.5136 11.5737C13.4657 11.6921 13.5375 11.8341 13.7052 11.8341Z" fill="#919191" />
	</g>
	<defs>
		<clipPath id="clip0_1439_18352">
			<rect width="22.7742" height="22.0625" fill="white" transform="translate(0.225586 0.96875)" />
		</clipPath>
	</defs>
</svg>
