<svg width="24" height="24" viewBox="0 0 24 24" fill="none" xmlns="http://www.w3.org/2000/svg">
	<g id="Property 1=Default">
		<path id="Path 18" d="M2 1.5H22C22.1326 1.5 22.2598 1.55268 22.3536 1.64645C22.4473 1.74022 22.5 1.86739 22.5 2V22C22.5 22.1326 22.4473 22.2598 22.3536 22.3536C22.2598 22.4473 22.1326 22.5 22 22.5H2C1.86739 22.5 1.74022 22.4473 1.64645 22.3536C1.55268 22.2598 1.5 22.1326 1.5 22V2C1.5 1.86739 1.55268 1.74021 1.64645 1.64645C1.74021 1.55268 1.86739 1.5 2 1.5Z" fill="#005EA2" stroke="#005EA2" stroke-width="3" />
		<path id="Path 20" fill-rule="evenodd" clip-rule="evenodd" d="M18.1 8.7C18.0962 8.88542 18.0251 9.06313 17.9 9.2L12.2 14.9L11.1 16C10.9631 16.1251 10.7854 16.1962 10.6 16.2C10.4146 16.1962 10.2369 16.1251 10.1 16L9 14.9L6.2 12.1C6.07486 11.9631 6.00377 11.7854 6 11.6C6.00377 11.4146 6.07486 11.2369 6.2 11.1L7.3 10C7.43687 9.87486 7.61458 9.80377 7.8 9.8C7.98542 9.80377 8.16313 9.87486 8.3 10L10.6 12.3L15.7 7.2C15.8369 7.07486 16.0146 7.00377 16.2 7C16.3854 7.00377 16.5631 7.07486 16.7 7.2L17.8 8.3C18 8.4 18.1 8.5 18.1 8.7Z" fill="white" />
	</g>
</svg>
