<svg width="9" height="9" viewBox="0 0 9 9" fill="none" xmlns="http://www.w3.org/2000/svg">
  <path
    d="M7.79199 0.205172C8.06533 -0.0684702 8.52162 -0.0683111 8.79507 0.205172C9.06824 0.478861 9.06826 0.93486 8.79507 1.20854L5.51314 4.49323L8.79507 7.77793C9.06834 8.0516 9.06828 8.50776 8.79507 8.6903L8.70336 8.78129C8.42993 9.05498 7.9745 9.055 7.70109 8.78129L4.46543 5.54209L1.22976 8.78129C0.956347 9.05495 0.500903 9.05554 0.227495 8.8731L0.136601 8.78129C-0.0453957 8.50753 -0.0455858 8.05151 0.136601 7.77793L3.43719 4.51273L0.136601 1.20854C-0.045483 0.934801 -0.0455844 0.478806 0.136601 0.205172H0.227495C0.500803 -0.0684343 0.956302 -0.0682035 1.22976 0.205172L4.4914 3.46956L7.79199 0.205172Z"
    fill="#44627C" />
</svg>