<svg width="10" height="10" viewBox="0 0 10 10" fill="none" xmlns="http://www.w3.org/2000/svg">
    <path fill-rule="evenodd" clip-rule="evenodd"
        d="M6.05001 4.925L9.65 8.525C9.95 8.825 9.95 9.325 9.65 9.525L9.55001 9.625C9.25 9.925 8.75 9.925 8.45 9.625L4.9 6.075L1.35001 9.625C1.05001 9.925 0.550007 9.925 0.250004 9.725L0.149998 9.625C-0.0499992 9.325 -0.0499992 8.825 0.149998 8.525L3.77156 4.94656L0.149998 1.325C-0.0499992 1.025 -0.0499992 0.525 0.149998 0.225H0.250004C0.550007 -0.075 1.05001 -0.075 1.35001 0.225L4.92844 3.80344L8.55001 0.225C8.85001 -0.075 9.35001 -0.075 9.65 0.225C9.95 0.525 9.95 1.025 9.65 1.325L6.05001 4.925Z"
        fill="#44627C" />
</svg>