<svg width="22" height="22" viewBox="0 0 22 22" fill="none" xmlns="http://www.w3.org/2000/svg">
  <path
    d="M2.18969 8.11805C2.18969 8.11805 2.194 8.12254 2.194 8.12703C2.19615 8.13377 2.20261 8.14051 2.20476 8.14724C2.21337 8.16296 2.22413 8.17868 2.23704 8.19215C2.2435 8.19889 2.2478 8.20338 2.25426 8.21012C2.26932 8.22359 2.28654 8.23482 2.30591 8.2438C2.31022 8.2438 2.31237 8.24829 2.31667 8.25054C2.31667 8.25054 2.31882 8.25054 2.32098 8.25054C2.3425 8.25727 2.36617 8.26401 2.38984 8.26401C2.38984 8.26401 2.39415 8.26401 2.3963 8.26401C2.40921 8.26401 2.41998 8.25952 2.43289 8.25727C2.4458 8.25503 2.45656 8.25503 2.46732 8.25054L3.84901 7.68692C3.95877 7.64201 4.01472 7.51177 3.97168 7.39501C3.92864 7.28049 3.80381 7.2221 3.6919 7.26701L2.76647 7.64425C4.1912 4.04923 7.56793 1.67126 11.3191 1.67126C16.4219 1.67126 20.5734 6.00281 20.5734 11.3268C20.5734 11.4504 20.6703 11.5514 20.7886 11.5514C20.907 11.5514 21.0038 11.4504 21.0038 11.3268C21.0017 5.75356 16.6586 1.22217 11.3191 1.22217C7.41082 1.22217 3.89205 3.68996 2.38984 7.41971L2.0498 6.51253C2.00676 6.39801 1.88194 6.33963 1.77002 6.38454C1.66026 6.42945 1.60431 6.55969 1.64735 6.67645L2.18754 8.11805H2.18969Z"
    fill="#005A9E" stroke="#005A9E" stroke-width="0.5" />
  <path
    d="M20.788 11.8598C20.5061 11.8598 20.2758 11.6196 20.2758 11.3254C20.2758 8.83291 19.3439 6.48638 17.648 4.71918C15.9543 2.95199 13.7053 1.97745 11.3164 1.97969C7.92241 1.97969 4.86635 3.95572 3.34047 7.0747L3.58151 6.9759C3.70849 6.92425 3.84838 6.9265 3.9732 6.98263C4.09803 7.03877 4.19488 7.14431 4.24438 7.27679C4.29388 7.40927 4.29172 7.55299 4.23577 7.68322C4.17981 7.81346 4.08081 7.91451 3.95383 7.96616L2.57215 8.52977C2.52911 8.54774 2.49467 8.55223 2.47746 8.55447C2.46885 8.55672 2.45809 8.55896 2.44733 8.56121L2.38491 8.56795C2.34402 8.56795 2.30313 8.56345 2.26224 8.55223L2.17615 8.52528L2.15678 8.51181C2.1245 8.49609 2.09222 8.47363 2.06209 8.44669C2.04918 8.43546 2.03411 8.42199 2.0212 8.40852C1.99107 8.37708 1.96524 8.33891 1.94372 8.29849C1.94157 8.294 1.93726 8.28726 1.93296 8.28052L1.90929 8.23112L1.37125 6.78952C1.26794 6.51557 1.39923 6.20569 1.66179 6.09791C1.78877 6.04627 1.9265 6.04851 2.05348 6.10465C2.17831 6.16079 2.27515 6.26632 2.32465 6.39881L2.41289 6.63009C4.10233 3.13612 7.52641 0.913086 11.3185 0.913086C16.8216 0.913086 21.2981 5.58369 21.2981 11.3254C21.2981 11.6196 21.0678 11.8598 20.7858 11.8598H20.788Z"
    fill="#005A9E" stroke="#005A9E" stroke-width="0.5" />
  <path
    d="M20.9897 15.9752L20.4495 14.5336C20.4495 14.5336 20.4474 14.5291 20.4452 14.5269C20.4387 14.5134 20.4301 14.5022 20.4215 14.4887C20.4129 14.4775 20.4065 14.4663 20.3979 14.455C20.3892 14.4461 20.3763 14.4393 20.3634 14.4303C20.3527 14.4236 20.3441 14.4146 20.3333 14.4079C20.3311 14.4079 20.329 14.4079 20.3247 14.4079C20.3225 14.4079 20.3204 14.4056 20.3182 14.4034C20.3075 14.3989 20.2967 14.4012 20.2859 14.3989C20.2709 14.3967 20.2558 14.3922 20.2407 14.3922C20.2257 14.3922 20.2128 14.3967 20.1977 14.3989C20.1869 14.4012 20.1762 14.3989 20.1654 14.4056L18.7837 14.9693C18.674 15.0142 18.618 15.1444 18.6611 15.2612C18.7041 15.3757 18.8289 15.4341 18.9408 15.3892L19.8663 15.0119C18.4415 18.6025 15.0648 20.9827 11.3136 20.9827C6.21085 20.9827 2.05934 16.6511 2.05934 11.3271C2.05934 11.2036 1.96249 11.1025 1.84412 11.1025C1.72575 11.1025 1.62891 11.2036 1.62891 11.3271C1.62891 16.8981 5.97411 21.4318 11.3136 21.4318C15.2219 21.4318 18.7407 18.964 20.2429 15.2342L20.5829 16.1414C20.6152 16.229 20.697 16.2851 20.7831 16.2851C20.8089 16.2851 20.8369 16.2806 20.8606 16.2694C20.9725 16.2245 21.0263 16.0943 20.9832 15.9775L20.9897 15.9752Z"
    fill="#005A9E" stroke="#005A9E" stroke-width="0.5" />
  <path
    d="M11.3155 21.7379C5.81242 21.7379 1.33594 17.0673 1.33594 11.3256C1.33594 11.0315 1.56622 10.7935 1.84815 10.7935C2.13008 10.7935 2.36036 11.0337 2.36036 11.3279C2.36036 16.4813 6.37844 20.6736 11.3176 20.6736C14.7116 20.6736 17.7676 18.6976 19.2935 15.5786L19.0525 15.6774C18.7921 15.7852 18.4929 15.6504 18.3896 15.3765C18.3401 15.244 18.3423 15.1003 18.3961 14.9678C18.4499 14.8376 18.551 14.7365 18.678 14.6849L20.0963 14.1055L20.1544 14.0966C20.1544 14.0966 20.1931 14.0853 20.2362 14.0853C20.2771 14.0853 20.3136 14.0921 20.333 14.0966L20.4535 14.1302C20.4923 14.1482 20.5203 14.1707 20.5332 14.1819C20.5418 14.1864 20.5698 14.2066 20.602 14.2358C20.6322 14.265 20.6494 14.2942 20.6601 14.3099C20.6688 14.3211 20.6795 14.3368 20.6903 14.3548L20.701 14.3683L20.7204 14.4132L21.2627 15.8615C21.3122 15.994 21.3101 16.14 21.2541 16.2702C21.1982 16.4004 21.0992 16.5015 20.9722 16.5531C20.9163 16.5778 20.8517 16.5891 20.7871 16.5891C20.5762 16.5891 20.389 16.4566 20.3115 16.25L20.2233 16.0165C18.5317 19.5149 15.1076 21.7357 11.3176 21.7357L11.3155 21.7379ZM20.2641 14.4379V14.4446L20.2728 14.3952L20.2641 14.4379Z"
    fill="#005A9E" stroke="#005A9E" stroke-width="0.5" />
  <path fill-rule="evenodd" clip-rule="evenodd"
    d="M17.7321 10.4146H16.4807C16.3264 10.4146 16.189 10.3108 16.1469 10.1622C16.0459 9.81161 15.9056 9.47507 15.7288 9.15817C15.6531 9.02355 15.6783 8.85248 15.7877 8.74311L16.6715 7.8597C16.7753 7.75594 16.7753 7.58486 16.6715 7.4811L15.5184 6.32846C15.4146 6.2247 15.2434 6.2247 15.1396 6.32846L14.2559 7.21187C14.1464 7.32124 13.9753 7.34648 13.8406 7.27076C13.5236 7.09408 13.1841 6.95386 12.8362 6.8529C12.6875 6.81083 12.5837 6.67341 12.5837 6.51917V5.26838C12.5837 5.11974 12.463 5.00195 12.3143 5.00195H10.6843C10.5356 5.00195 10.4149 5.12255 10.4149 5.27118V6.51917C10.4149 6.67341 10.3111 6.81083 10.1624 6.8529C9.8117 6.95386 9.47502 7.09408 9.15798 7.27076C9.02331 7.34648 8.85216 7.32124 8.74274 7.21187L7.85896 6.32846C7.75515 6.2247 7.58401 6.2247 7.4802 6.32846L6.32708 7.4811C6.22327 7.58486 6.22327 7.75594 6.32708 7.8597L7.21086 8.74311C7.32028 8.85248 7.34553 9.02075 7.26977 9.15817C7.09302 9.47507 6.95274 9.81441 6.85173 10.1622C6.80965 10.3108 6.67217 10.4146 6.51786 10.4146H5.26654C5.11784 10.4146 5 10.5352 5 10.6838V12.3132C5 12.4618 5.12064 12.5796 5.26654 12.5824H6.52066C6.67498 12.5824 6.81245 12.6862 6.85454 12.8348C6.95554 13.1854 7.09582 13.5219 7.27258 13.8388C7.34833 13.9734 7.32308 14.1445 7.21366 14.2539L6.32988 15.1373C6.22607 15.241 6.22607 15.4121 6.32988 15.5159L7.48301 16.6685C7.58681 16.7723 7.75796 16.7723 7.86177 16.6685L8.74555 15.7851C8.81008 15.7206 8.89986 15.6842 8.99245 15.6842C9.05137 15.6842 9.11028 15.6982 9.16079 15.729C9.47783 15.9057 9.81731 16.0459 10.1652 16.1469C10.3139 16.189 10.4177 16.3264 10.4177 16.4806V17.7314C10.4177 17.88 10.5384 17.9978 10.6871 17.9978H12.3171C12.4658 17.9978 12.5837 17.8772 12.5837 17.7314V16.4806C12.5837 16.3264 12.6875 16.189 12.8362 16.1469C13.1869 16.0459 13.5236 15.9057 13.8406 15.729C13.9753 15.6533 14.1464 15.6757 14.2559 15.7879L15.1396 16.6713C15.2463 16.7751 15.4146 16.7751 15.5184 16.6713L16.6715 15.5187C16.7753 15.4149 16.7753 15.2439 16.6715 15.1401L15.7877 14.2567C15.6783 14.1473 15.6531 13.979 15.7288 13.8416C15.9056 13.5247 16.0459 13.1854 16.1469 12.8348C16.189 12.6862 16.3264 12.5824 16.4807 12.5824H17.7321C17.8808 12.5824 17.9986 12.4618 18.0014 12.3132V10.6838C18.0014 10.5352 17.8808 10.4174 17.7321 10.4146ZM11.5007 14.9718C9.58163 14.9718 8.0245 13.4153 8.0245 11.4971C8.0245 9.57884 9.58163 8.02236 11.5007 8.02236C13.4198 8.02236 14.9741 9.57884 14.9769 11.4971C14.9769 13.4153 13.4198 14.9718 11.5007 14.9718Z"
    fill="#005A9E" stroke="#005A9E" stroke-width="0.25" />
</svg>
