<svg xmlns="http://www.w3.org/2000/svg" width="22" height="24" viewBox="0 0 22 24" fill="none">
    <path
        d="M21.1531 18.7692H5.92233C5.44848 18.7692 5.07617 18.3969 5.07617 17.923V0.999962C5.07617 0.526116 5.44848 0.153809 5.92233 0.153809H14.3839C14.6039 0.153809 14.8239 0.238424 14.9762 0.407655L21.7454 7.17689C21.8977 7.32919 21.9992 7.54919 21.9992 7.76919V17.923C21.9992 18.3969 21.6269 18.7692 21.1531 18.7692ZM6.76848 17.0769H20.3069V8.12458L14.0285 1.84612H6.76848V17.0769Z"
        fill="currentColor" />
    <path
        d="M21.1544 8.61535H14.3852C13.9114 8.61535 13.5391 8.24304 13.5391 7.76919V0.999962C13.5391 0.526116 13.9114 0.153809 14.3852 0.153809C14.8591 0.153809 15.2314 0.526116 15.2314 0.999962V6.92304H21.1544C21.6283 6.92304 22.0006 7.29535 22.0006 7.76919C22.0006 8.24304 21.6283 8.61535 21.1544 8.61535Z"
        fill="currentColor" />
    <path
        d="M16.0769 23.8463H0.846154C0.372308 23.8463 0 23.474 0 23.0002V6.07711C0 5.60326 0.372308 5.23096 0.846154 5.23096H5.92308C6.39692 5.23096 6.76923 5.60326 6.76923 6.07711C6.76923 6.55096 6.39692 6.92326 5.92308 6.92326H1.69231V22.154H15.2308V17.9233C15.2308 17.4494 15.6031 17.0771 16.0769 17.0771C16.5508 17.0771 16.9231 17.4494 16.9231 17.9233V23.0002C16.9231 23.474 16.5508 23.8463 16.0769 23.8463Z"
        fill="currentColor" />
</svg>