<svg xmlns="http://www.w3.org/2000/svg" width="14" height="16" viewBox="0 0 14 16" fill="none">
    <g clip-path="url(#clip0_5125_22632)">
        <path fill-rule="evenodd" clip-rule="evenodd"
            d="M3.3775 0.165714C3.48833 0.0571429 3.63417 0 3.79167 0H9.91667C10.885 0 11.6667 0.765714 11.6667 1.71429V2.28571H12.25C13.2183 2.28571 14 3.05143 14 4V14.2857C14 15.2343 13.2183 16 12.25 16H4.08333C3.115 16 2.33333 15.2343 2.33333 14.2857V13.7143H1.75C0.781667 13.7143 0 12.9486 0 12V3.71429C0 3.56 0.0641667 3.41714 0.169167 3.30857L3.3775 0.165714ZM2.91667 4.57143H1.16667V12C1.16667 12.3143 1.42917 12.5714 1.75 12.5714H9.91667C10.2375 12.5714 10.5 12.3143 10.5 12V1.71429C10.5 1.4 10.2375 1.14286 9.91667 1.14286H4.66667V2.85714C4.66667 3.80571 3.885 4.57143 2.91667 4.57143Z"
            fill="#125868" />
    </g>
    <defs>
        <clipPath id="clip0_5125_22632">
            <rect width="14" height="16" fill="white" />
        </clipPath>
    </defs>
</svg>