<svg width="21" height="23" viewBox="0 0 21 23" fill="none" xmlns="http://www.w3.org/2000/svg">
  <g clip-path="url(#clip0_7683_14243)">
    <path d="M9.28027 1.76611L14.5486 6.37587H9.66239C9.45101 6.37587 9.28027 6.20514 9.28027 5.99376V1.76611Z"
      fill="white" />
    <path
      d="M15.4587 22.3596C18.0091 22.3596 20.0766 20.2921 20.0766 17.7417C20.0766 15.1913 18.0091 13.1238 15.4587 13.1238C12.9083 13.1238 10.8408 15.1913 10.8408 17.7417C10.8408 20.2921 12.9083 22.3596 15.4587 22.3596Z"
      fill="white" />
    <path
      d="M1.64613 18.4895C1.44288 18.4895 1.28027 18.3269 1.28027 18.1237V1.53016C1.28027 1.32691 1.44288 1.16431 1.64613 1.16431H8.70304V5.74967C8.70304 6.40821 9.23962 6.94479 9.89816 6.94479H15.3209V12.7822C13.5892 12.8879 12.0933 13.8635 11.2559 15.2781H3.51605C3.2884 15.2781 3.10141 15.4651 3.10141 15.6928C3.10141 15.9204 3.2884 16.1074 3.51605 16.1074H10.8656C10.6624 16.6602 10.5486 17.2537 10.5486 17.8716C10.5486 18.083 10.5648 18.2944 10.5892 18.5058H1.64613V18.4895Z"
      fill="white" />
    <path
      d="M13.3052 11.9368H3.54908C3.32144 11.9368 3.14258 12.1156 3.14258 12.3433C3.14258 12.5709 3.32144 12.7498 3.54908 12.7498H13.3052C13.5328 12.7498 13.7117 12.5709 13.7117 12.3433C13.7117 12.1156 13.5328 11.9368 13.3052 11.9368Z"
      fill="black" />
    <path
      d="M3.50807 9.51394H13.2642C13.4918 9.51394 13.6707 9.33507 13.6707 9.10743C13.6707 8.87979 13.4918 8.70093 13.2642 8.70093H3.50807C3.28042 8.70093 3.10156 8.87979 3.10156 9.10743C3.10156 9.33507 3.28042 9.51394 3.50807 9.51394Z"
      fill="black" />
    <path
      d="M15.9309 12.8229V6.6847C15.9472 6.56274 15.8984 6.44079 15.8089 6.35949L9.30488 0.660305C9.30488 0.660305 9.28862 0.660305 9.28049 0.652175C9.23171 0.619655 9.18293 0.595264 9.12602 0.579004C9.0935 0.579004 9.06911 0.570874 9.03659 0.562744H1.67886C1.02846 0.562744 0.5 1.0912 0.5 1.74161V18.0831C0.5 18.7335 1.02846 19.2619 1.67886 19.2619H10.6626C11.2805 21.3351 13.2073 22.8473 15.4756 22.8473C18.248 22.8473 20.5 20.5953 20.5 17.8229C20.5 15.205 18.4919 13.0505 15.9309 12.8229ZM9.44309 1.86356L14.4593 6.2538H9.80894C9.60569 6.2538 9.44309 6.0912 9.44309 5.88795V1.86356ZM1.67886 18.4489C1.47561 18.4489 1.31301 18.2863 1.31301 18.0831V1.74161C1.31301 1.53835 1.47561 1.37575 1.67886 1.37575H8.63008V5.88795C8.63008 6.53835 9.15854 7.06681 9.80894 7.06681H15.1504V12.8148C13.4431 12.9205 11.9715 13.8798 11.1423 15.2782H3.52439C3.29675 15.2782 3.11789 15.4571 3.11789 15.6847C3.11789 15.9123 3.29675 16.0912 3.52439 16.0912H10.7602C10.5569 16.6359 10.4431 17.2132 10.4431 17.831C10.4431 18.0424 10.4593 18.2538 10.4837 18.4571H1.67886V18.4489ZM15.4756 22.0343C13.1504 22.0343 11.2642 20.14 11.2642 17.8229C11.2642 15.5058 13.1585 13.6115 15.4756 13.6115C17.7927 13.6115 19.687 15.5058 19.687 17.8229C19.687 20.14 17.7927 22.0343 15.4756 22.0343Z"
      fill="black" />
    <path fill-rule="evenodd" clip-rule="evenodd"
      d="M17.1784 15.3605L17.9689 16.151L16.2047 17.9152L17.969 19.6795L17.1785 20.47L15.4142 18.7057L13.6498 20.4701L12.8593 19.6796L14.6237 17.9152L12.8594 16.1509L13.6499 15.3604L15.4142 17.1247L17.1784 15.3605Z"
      fill="#B54717" />
  </g>
  <defs>
    <clipPath id="clip0_7683_14243">
      <rect width="20" height="22.2846" fill="white" transform="translate(0.5 0.562744)" />
    </clipPath>
  </defs>
</svg>