<svg width="22" height="25" viewBox="0 0 22 25" fill="none" xmlns="http://www.w3.org/2000/svg">
    <g clip-path="url(#clip0_11617_34561)">
        <path
            d="M18.875 0.863281H3.125C1.68125 0.863281 0.5 1.87578 0.5 3.11328V22.6133C0.5 23.8508 1.68125 24.8633 3.125 24.8633H18.875C20.3188 24.8633 21.5 23.8508 21.5 22.6133V3.11328C21.5 1.87578 20.3188 0.863281 18.875 0.863281ZM2.25 3.11328C2.25 2.70078 2.64375 2.36328 3.125 2.36328H18.875C19.3563 2.36328 19.75 2.70078 19.75 3.11328V22.6133C19.75 23.0258 19.3563 23.3633 18.875 23.3633H3.125C2.64375 23.3633 2.25 23.0258 2.25 22.6133V3.11328Z"
            fill="currentColor" />
        <path
            d="M11.875 12.1133H17.125C17.6062 12.1133 18 11.7758 18 11.3633C18 10.9508 17.6062 10.6133 17.125 10.6133H11.875C11.3937 10.6133 11 10.9508 11 11.3633C11 11.7758 11.3937 12.1133 11.875 12.1133Z"
            fill="currentColor" />
        <path
            d="M11.875 15.1133H15.375C15.8562 15.1133 16.25 14.7758 16.25 14.3633C16.25 13.9508 15.8562 13.6133 15.375 13.6133H11.875C11.3937 13.6133 11 13.9508 11 14.3633C11 14.7758 11.3937 15.1133 11.875 15.1133Z"
            fill="currentColor" />
        <path
            d="M11.875 5.36328H17.125C17.6062 5.36328 18 5.02578 18 4.61328C18 4.20078 17.6062 3.86328 17.125 3.86328H11.875C11.3937 3.86328 11 4.20078 11 4.61328C11 5.02578 11.3937 5.36328 11.875 5.36328Z"
            fill="currentColor" />
        <path
            d="M11.875 8.36328H15.375C15.8562 8.36328 16.25 8.02578 16.25 7.61328C16.25 7.20078 15.8562 6.86328 15.375 6.86328H11.875C11.3937 6.86328 11 7.20078 11 7.61328C11 8.02578 11.3937 8.36328 11.875 8.36328Z"
            fill="currentColor" />
        <path
            d="M4.875 15.1133H8.375C8.85625 15.1133 9.25 14.7758 9.25 14.3633V11.3633C9.25 10.9508 8.85625 10.6133 8.375 10.6133H4.875C4.39375 10.6133 4 10.9508 4 11.3633V14.3633C4 14.7758 4.39375 15.1133 4.875 15.1133ZM5.75 13.6133V12.1133H7.5V13.6133H5.75Z"
            fill="currentColor" />
        <path
            d="M4.875 8.36328H8.375C8.85625 8.36328 9.25 8.02578 9.25 7.61328V4.61328C9.25 4.20078 8.85625 3.86328 8.375 3.86328H4.875C4.39375 3.86328 4 4.20078 4 4.61328V7.61328C4 8.02578 4.39375 8.36328 4.875 8.36328ZM5.75 6.86328V5.36328H7.5V6.86328H5.75Z"
            fill="currentColor" />
        <path
            d="M11.875 18.8633H17.125C17.6062 18.8633 18 18.5258 18 18.1133C18 17.7008 17.6062 17.3633 17.125 17.3633H11.875C11.3937 17.3633 11 17.7008 11 18.1133C11 18.5258 11.3937 18.8633 11.875 18.8633Z"
            fill="currentColor" />
        <path
            d="M11.875 21.8633H15.375C15.8562 21.8633 16.25 21.5258 16.25 21.1133C16.25 20.7008 15.8562 20.3633 15.375 20.3633H11.875C11.3937 20.3633 11 20.7008 11 21.1133C11 21.5258 11.3937 21.8633 11.875 21.8633Z"
            fill="currentColor" />
        <path
            d="M4.875 21.8633H8.375C8.85625 21.8633 9.25 21.5258 9.25 21.1133V18.1133C9.25 17.7008 8.85625 17.3633 8.375 17.3633H4.875C4.39375 17.3633 4 17.7008 4 18.1133V21.1133C4 21.5258 4.39375 21.8633 4.875 21.8633ZM5.75 20.3633V18.8633H7.5V20.3633H5.75Z"
            fill="currentColor" />
    </g>
    <defs>
        <clipPath id="clip0_11617_34561">
            <rect width="21" height="24" fill="white" transform="translate(0.5 0.863281)" />
        </clipPath>
    </defs>
</svg>