<svg width="24" height="20" viewBox="0 0 24 20" fill="none" xmlns="http://www.w3.org/2000/svg">
    <g clip-path="url(#clip0_11742_9084)">
        <path
            d="M8.57799 9.85354C8.57799 9.52305 8.31965 9.25391 7.99942 9.25391H2.93892C2.62004 9.25391 2.36035 9.52165 2.36035 9.85354C2.36035 10.1854 2.61869 10.4532 2.93892 10.4532H8.00076C8.31965 10.4532 8.57933 10.1854 8.57933 9.85494L8.57799 9.85354Z"
            fill="currentColor" />
        <path d="M6.97057 14.0488H2.4873V15.2481H6.97057V14.0488Z" fill="currentColor" />
        <path
            d="M11.1471 5.06058C11.1471 4.73008 10.8887 4.46094 10.5685 4.46094H3.06588C2.74699 4.46094 2.4873 4.72868 2.4873 5.06058C2.4873 5.39247 2.74564 5.66021 3.06588 5.66021H10.5685C10.8874 5.66021 11.1471 5.39247 11.1471 5.06197V5.06058Z"
            fill="currentColor" />
        <path
            d="M16.9638 4.29297C13.078 4.29297 9.92676 7.55751 9.92676 11.5862C9.92676 15.615 13.0766 18.8795 16.9638 18.8795C20.851 18.8795 24.0009 15.615 24.0009 11.5862C24.0009 7.55751 20.851 4.29297 16.9638 4.29297ZM16.9652 17.128C14.0118 17.128 11.6167 14.6472 11.6181 11.5862C11.6181 8.52529 14.0131 6.04307 16.9665 6.04447C19.9199 6.04447 22.3136 8.52529 22.3136 11.5862C22.3136 14.6472 19.9186 17.1294 16.9652 17.1294V17.128Z"
            fill="currentColor" />
        <path
            d="M13.6715 12.4987H18.2826L17.0165 13.758C16.6801 14.0926 16.668 14.6463 16.9909 14.9949C17.3138 15.3435 17.848 15.3561 18.1844 15.0214L20.8647 12.3551C21.201 12.0204 21.2132 11.4668 20.8902 11.1182C20.8687 11.0958 20.8472 11.0735 20.823 11.0526L18.1804 8.19946C17.8991 7.89545 17.4322 7.88569 17.1389 8.17714L16.9828 8.33194C16.6895 8.62339 16.6801 9.10728 16.9613 9.41128L18.1978 10.7472H13.6688C13.2033 10.7472 12.8252 11.1391 12.8252 11.6216C12.8252 12.1041 13.2033 12.4959 13.6688 12.4959L13.6715 12.4987Z"
            fill="currentColor" />
        <path
            d="M11.2257 18.777H10.744C10.7359 18.7784 10.7292 18.777 10.7211 18.777H2.02231C1.54465 18.777 1.15849 18.3754 1.15849 17.8817V2.09455C1.15849 1.5995 1.546 1.19928 2.02231 1.19928H13.4C13.8777 1.19928 14.2638 1.60089 14.2638 2.09455V2.92986C14.2638 3.26035 14.5222 3.52949 14.8424 3.52949C15.1626 3.52949 15.421 3.26175 15.421 2.92986V0.895273C15.421 0.400223 15.0335 0 14.5572 0H0.863822C0.387509 0 0 0.401618 0 0.895273V19.081C0 19.5761 0.387509 19.9763 0.863822 19.9763C0.863822 19.9763 2.26316 19.9944 4.83983 19.9944C5.1318 19.9944 5.42916 19.9888 5.72787 19.9777L11.2391 19.9986C11.558 19.9986 11.8177 19.7309 11.8177 19.399C11.8177 19.0671 11.5432 18.7756 11.2243 18.7756L11.2257 18.777Z"
            fill="currentColor" />
    </g>
    <defs>
        <clipPath id="clip0_11742_9084">
            <rect width="24" height="20" fill="white" />
        </clipPath>
    </defs>
</svg>