<svg width="19" height="20" viewBox="0 0 19 20" fill="none" xmlns="http://www.w3.org/2000/svg">
  <g clip-path="url(#clip0_9618_1426)">
    <circle cx="9.7983" cy="10.4262" r="6.39205" fill="#42C684" />
    <path fill-rule="evenodd" clip-rule="evenodd"
      d="M0.214844 9.99982C0.214844 4.93988 4.31683 0.837891 9.37678 0.837891C14.4367 0.837891 18.5387 4.93988 18.5387 9.99982C18.5387 15.0598 14.4367 19.1618 9.37678 19.1618C4.31683 19.1618 0.214844 15.0598 0.214844 9.99982ZM6.69893 9.46715L8.5424 11.2441C8.60284 11.3025 8.6512 11.3721 8.68472 11.4491C8.71824 11.5261 8.73627 11.6089 8.73778 11.6929C8.73928 11.7769 8.72423 11.8603 8.69349 11.9385C8.66274 12.0166 8.61691 12.088 8.55859 12.1484C8.50028 12.2088 8.43064 12.2572 8.35364 12.2907C8.27664 12.3242 8.19379 12.3423 8.10982 12.3438C8.02585 12.3453 7.94241 12.3302 7.86425 12.2995C7.7861 12.2687 7.71477 12.2229 7.65433 12.1646L4.67223 9.28903C4.6115 9.23071 4.56289 9.16097 4.5292 9.08381C4.4955 9.00665 4.47738 8.92359 4.47587 8.83941C4.47437 8.75523 4.48951 8.67158 4.52043 8.59326C4.55135 8.51495 4.59743 8.44351 4.65604 8.38306L7.63899 5.29443C7.75676 5.17248 7.91814 5.10231 8.08764 5.09935C8.25715 5.09639 8.42088 5.16089 8.54283 5.27866C8.66477 5.39642 8.73494 5.55781 8.7379 5.72731C8.74086 5.89681 8.67636 6.06055 8.55859 6.18249L6.62138 8.18874H11.2518H11.2697C11.3141 8.18928 11.3584 8.19156 11.4026 8.19556C11.8727 8.23079 12.3303 8.36312 12.7467 8.5842C13.1242 8.78619 13.5137 9.09727 13.8077 9.56857C14.1026 10.0424 14.2773 10.6424 14.2773 11.3848C14.2773 13.0382 13.5708 13.9697 12.7748 14.4495C12.3182 14.7208 11.8019 14.8757 11.2714 14.9004H11.2518H10.57C10.4004 14.9004 10.2378 14.833 10.118 14.7132C9.9981 14.5933 9.93075 14.4307 9.93075 14.2612C9.93075 14.0917 9.9981 13.9291 10.118 13.8092C10.2378 13.6893 10.4004 13.622 10.57 13.622H11.2526L11.2995 13.6186C11.5875 13.5918 11.8661 13.5015 12.1151 13.3544C12.5123 13.1149 12.9989 12.6078 12.9989 11.3848C12.9989 10.8487 12.8754 10.4899 12.7228 10.2444C12.5806 10.0181 12.3805 9.83394 12.1433 9.7109C11.8688 9.56601 11.566 9.48282 11.256 9.46715H6.69893Z"
      fill="white" />
  </g>
  <defs>
    <clipPath id="clip0_9618_1426">
      <rect width="18.75" height="20" fill="white" />
    </clipPath>
  </defs>
</svg>
