<svg width="24" height="24" viewBox="0 0 24 24" fill="none" xmlns="http://www.w3.org/2000/svg">
  <circle cx="11.5" cy="12" r="11.5" fill="#C05239" />
  <path d="M18.1399 11.3848V12.5942L4.83594 12.5942L4.83594 11.3848L18.1399 11.3848Z" fill="white" />
  <path
    d="M18.1399 11.3848L18.8899 11.3848V10.6348H18.1399V11.3848ZM18.1399 12.5942V13.3442H18.8899V12.5942H18.1399ZM4.83594 12.5942H4.08594L4.08594 13.3442H4.83594L4.83594 12.5942ZM4.83594 11.3848L4.83594 10.6348L4.08594 10.6348V11.3848L4.83594 11.3848ZM17.3899 11.3848V12.5942H18.8899V11.3848L17.3899 11.3848ZM18.1399 11.8442L4.83594 11.8442L4.83594 13.3442L18.1399 13.3442V11.8442ZM5.58594 12.5942L5.58594 11.3848L4.08594 11.3848L4.08594 12.5942H5.58594ZM4.83594 12.1348L18.1399 12.1348V10.6348L4.83594 10.6348L4.83594 12.1348Z"
    fill="white" />
</svg>
