<svg width="22" height="25" viewBox="0 0 22 25" fill="none" xmlns="http://www.w3.org/2000/svg">
  <path fill-rule="evenodd" clip-rule="evenodd"
    d="M10.6956 25C12.6706 25 14.2851 23.3933 14.3919 21.3684H18.9178C20.2826 21.3684 21.3904 20.2199 21.3904 18.8044C21.3904 17.3888 20.2826 16.2396 18.9222 16.2396V11.1115C18.9222 7.49977 16.7478 4.33213 13.5744 3.10277V2.98984C13.5744 1.33848 12.283 0 10.6948 0C9.10665 0 7.81525 1.33924 7.81598 2.98984V3.10277C4.64258 4.33213 2.46821 7.49901 2.46821 11.1115L2.46894 16.2396C1.10628 16.2396 0 17.3873 0 18.8036C0 20.2199 1.10702 21.3676 2.47261 21.3676H6.99913C7.10564 23.3921 8.72026 25 10.6956 25ZM10.6948 23.2907C11.7614 23.2907 12.6385 22.4474 12.7414 21.3676H8.64827C8.75184 22.4474 9.62821 23.2907 10.6948 23.2907ZM11.5579 14.9005L11.8041 6.9668H9.51367L9.76733 14.9005H11.5579ZM9.78139 16.5249C9.56255 16.7447 9.45312 17.0219 9.45312 17.3568C9.45312 17.6811 9.56255 17.9558 9.78139 18.1807C10.0052 18.4057 10.2987 18.5182 10.6617 18.5182C11.0298 18.5182 11.3233 18.4057 11.5421 18.1807C11.7609 17.9558 11.8704 17.6811 11.8704 17.3568C11.8704 17.0219 11.7609 16.7447 11.5421 16.5249C11.3233 16.3 11.0298 16.1875 10.6617 16.1875C10.2987 16.1875 10.0052 16.3 9.78139 16.5249Z"
    fill="currentColor" />
</svg>
