<svg width="23" height="24" viewBox="0 0 23 24" fill="none" xmlns="http://www.w3.org/2000/svg">
  <circle cx="11.5" cy="11.5" r="11.5" fill="#2A836D" />
  <path d="M10 7L6 11L10 15" stroke="white" stroke-width="2.25" stroke-linecap="square" />
  <path d="M17.3582 10.9414V11.7176L7 11.7176L7 10.9414L17.3582 10.9414Z" fill="white" />
  <path
    d="M17.3582 10.9414L18.1082 10.9414V10.1914L17.3582 10.1914V10.9414ZM17.3582 11.7176V12.4676H18.1082V11.7176L17.3582 11.7176ZM7 11.7176L6.25 11.7176L6.25 12.4676H7L7 11.7176ZM7 10.9414L7 10.1914H6.25V10.9414L7 10.9414ZM16.6082 10.9414V11.7176L18.1082 11.7176V10.9414L16.6082 10.9414ZM17.3582 10.9676L7 10.9676L7 12.4676L17.3582 12.4676V10.9676ZM7.75 11.7176L7.75 10.9414L6.25 10.9414L6.25 11.7176L7.75 11.7176ZM7 11.6914L17.3582 11.6914V10.1914L7 10.1914L7 11.6914Z"
    fill="white" />
  <path d="M18 22L17.2238 22L17.2238 10.9414L18 10.9414L18 22Z" fill="white" />
  <path
    d="M18 22L18 22.75L18.75 22.75L18.75 22L18 22ZM17.2238 22L16.4738 22L16.4738 22.75L17.2238 22.75L17.2238 22ZM17.2238 10.9414L17.2238 10.1914L16.4738 10.1914L16.4738 10.9414L17.2238 10.9414ZM18 10.9414L18.75 10.9414L18.75 10.1914L18 10.1914L18 10.9414ZM18 21.25L17.2238 21.25L17.2238 22.75L18 22.75L18 21.25ZM17.9738 22L17.9738 10.9414L16.4738 10.9414L16.4738 22L17.9738 22ZM17.2238 11.6914L18 11.6914L18 10.1914L17.2238 10.1914L17.2238 11.6914ZM17.25 10.9414L17.25 22L18.75 22L18.75 10.9414L17.25 10.9414Z"
    fill="white" />
</svg>
