<svg width="20" height="20" viewBox="0 0 20 20" fill="none" xmlns="http://www.w3.org/2000/svg">
    <g clip-path="url(#clip0_11491_41354)">
        <path
            d="M7.78927 11.0547L15.8945 11.0547L15.8945 9.05469L7.78927 9.05469L10.3156 6.42311L8.94716 5.05469L3.99979 10.0021L8.94716 14.9494L10.3156 13.581L7.78927 11.0547Z"
            fill="currentColor" />
        <path
            d="M19.8945 16.9476L19.8945 3.05284C19.8945 1.36863 18.6314 0.105469 16.9472 0.105469L3.05243 0.105468C1.36822 0.105468 0.105057 1.36863 0.105057 3.05284L0.105056 16.9476C0.105056 18.6318 1.36821 19.8949 3.05242 19.8949L16.9472 19.8949C18.6314 19.8949 19.8945 18.6318 19.8945 16.9476ZM3.05242 18.0002C2.42085 18.0002 2.10506 17.5792 2.10506 17.0528L2.10506 3.05284C2.10506 2.42126 2.52611 2.10547 3.05243 2.10547L16.9472 2.10547C17.5787 2.10547 17.8945 2.42126 17.8945 3.05284L17.8945 16.9476C17.8945 17.5792 17.4735 17.8949 16.9472 17.8949L3.05242 17.8949L3.05242 18.0002Z"
            fill="currentColor" />
    </g>
    <defs>
        <clipPath id="clip0_11491_41354">
            <rect width="20" height="20" fill="currentColor" transform="translate(20) rotate(90)" />
        </clipPath>
    </defs>
</svg>