<svg width="24" height="20" viewBox="0 0 24 20" fill="none" xmlns="http://www.w3.org/2000/svg">
    <g clip-path="url(#clip0_11742_33334)">
        <path
            d="M8.57799 9.86067C8.57799 9.5467 8.31965 9.29102 7.99942 9.29102H2.93892C2.62004 9.29102 2.36035 9.54537 2.36035 9.86067C2.36035 10.176 2.61869 10.4303 2.93892 10.4303H8.00076C8.31965 10.4303 8.57933 10.176 8.57933 9.862L8.57799 9.86067Z"
            fill="currentColor" />
        <path d="M6.97155 13.8457H2.48828V14.985H6.97155V13.8457Z" fill="currentColor" />
        <path
            d="M11.148 5.30794C11.148 4.99396 10.8897 4.73828 10.5695 4.73828H3.06685C2.74797 4.73828 2.48828 4.99264 2.48828 5.30794C2.48828 5.62323 2.74662 5.87759 3.06685 5.87759H10.5695C10.8883 5.87759 11.148 5.62323 11.148 5.30926V5.30794Z"
            fill="currentColor" />
        <path
            d="M16.9628 4.57812C13.077 4.57812 9.92578 7.67944 9.92578 11.5067C9.92578 15.334 13.0756 18.4353 16.9628 18.4353C20.85 18.4353 23.9999 15.334 23.9999 11.5067C23.9999 7.67944 20.85 4.57812 16.9628 4.57812ZM16.9642 16.7714C14.0108 16.7714 11.6158 14.4146 11.6171 11.5067C11.6171 8.59883 14.0121 6.24072 16.9655 6.24205C19.9189 6.24205 22.3126 8.59883 22.3126 11.5067C22.3126 14.4146 19.9176 16.7727 16.9642 16.7727V16.7714Z"
            fill="currentColor" />
        <path
            d="M20.2825 10.6959H15.6714L16.9375 9.49965C17.2739 9.18171 17.286 8.65577 16.9631 8.32457C16.6401 7.99338 16.106 7.98145 15.7696 8.2994L13.0893 10.8324C12.7529 11.1503 12.7408 11.6763 13.0638 12.0075C13.0853 12.0287 13.1068 12.0499 13.131 12.0697L15.7736 14.7802C16.0548 15.069 16.5217 15.0783 16.8151 14.8014L16.9711 14.6544C17.2645 14.3775 17.2739 13.9178 16.9927 13.629L15.7561 12.3599H20.2852C20.7507 12.3599 21.1288 11.9876 21.1288 11.5292C21.1288 11.0708 20.7507 10.6986 20.2852 10.6986L20.2825 10.6959Z"
            fill="currentColor" />
        <path
            d="M11.2257 18.3382H10.744C10.7359 18.3395 10.7292 18.3382 10.7211 18.3382H2.02231C1.54465 18.3382 1.15849 17.9566 1.15849 17.4877V2.48982C1.15849 2.01952 1.546 1.63931 2.02231 1.63931H13.4C13.8777 1.63931 14.2638 2.02085 14.2638 2.48982V3.28336C14.2638 3.59734 14.5222 3.85302 14.8424 3.85302C15.1626 3.85302 15.421 3.59866 15.421 3.28336V1.35051C15.421 0.880212 15.0335 0.5 14.5572 0.5H0.863822C0.387509 0.5 0 0.881537 0 1.35051V18.627C0 19.0973 0.387509 19.4775 0.863822 19.4775C0.863822 19.4775 2.26316 19.4947 4.83983 19.4947C5.1318 19.4947 5.42916 19.4894 5.72787 19.4788L11.2391 19.4987C11.558 19.4987 11.8177 19.2443 11.8177 18.929C11.8177 18.6137 11.5432 18.3368 11.2243 18.3368L11.2257 18.3382Z"
            fill="currentColor" />
    </g>
    <defs>
        <clipPath id="clip0_11742_33334">
            <rect width="24" height="19" fill="white" transform="translate(0 0.5)" />
        </clipPath>
    </defs>
</svg>