<svg width="188" height="188" viewBox="0 0 188 188" fill="none" xmlns="http://www.w3.org/2000/svg">
    <circle cx="94" cy="90" r="90" fill="black" fill-opacity="0.2" />
    <g filter="url(#filter0_d_4283_6979)">
        <circle cx="94" cy="90" r="86" stroke="#26B893" stroke-width="8" shape-rendering="crispEdges" />
    </g>
    <g clip-path="url(#clip0_4283_6979)">
        <path
            d="M94.22 8C48.81 8 12 44.81 12 90.22C12 135.63 48.81 172.44 94.22 172.44C139.63 172.44 176.44 135.63 176.44 90.22C176.44 44.81 139.63 8 94.22 8ZM152.03 139.81V67.06H126.58V77.32L134.84 81.95C134.84 81.95 134.89 81.98 134.91 82C134.98 82.04 135.04 82.09 135.1 82.14C135.16 82.18 135.21 82.23 135.26 82.28C135.31 82.33 135.36 82.38 135.4 82.43C135.44 82.48 135.5 82.54 135.54 82.6C135.58 82.66 135.61 82.71 135.65 82.77C135.69 82.83 135.72 82.9 135.75 82.96C135.78 83.03 135.8 83.09 135.82 83.15C135.84 83.21 135.87 83.29 135.89 83.36C135.91 83.43 135.92 83.49 135.93 83.56C135.94 83.64 135.95 83.72 135.95 83.8C135.95 83.83 135.95 83.86 135.95 83.88V112.12L144.09 116.56C144.09 116.56 144.14 116.6 144.17 116.61C144.24 116.65 144.3 116.7 144.37 116.75C144.43 116.79 144.48 116.84 144.53 116.89C144.58 116.94 144.63 116.99 144.68 117.04C144.73 117.09 144.78 117.15 144.82 117.21C144.86 117.27 144.9 117.32 144.93 117.39C144.97 117.45 145 117.51 145.03 117.58C145.06 117.65 145.09 117.71 145.11 117.78C145.13 117.85 145.16 117.92 145.17 117.99C145.19 118.06 145.2 118.12 145.21 118.19C145.22 118.27 145.23 118.35 145.23 118.43C145.23 118.46 145.23 118.49 145.23 118.52V146.76C143.8 148.05 142.32 149.27 140.8 150.45V119.83L96.32 95.54V166.37C95.61 166.39 94.91 166.42 94.2 166.42C93.42 166.42 92.65 166.38 91.88 166.36V95.31L49.05 115.72C48.63 116.24 48 116.55 47.33 116.55H47.31L40.26 119.91V144C38.7 142.44 37.22 140.81 35.81 139.12V118.51C35.81 118.51 35.82 118.42 35.82 118.38C35.82 118.29 35.83 118.2 35.85 118.12C35.86 118.06 35.88 117.99 35.9 117.93C35.92 117.86 35.94 117.78 35.97 117.71C36 117.65 36.02 117.58 36.06 117.52C36.09 117.45 36.13 117.39 36.17 117.32C36.21 117.26 36.25 117.21 36.29 117.16C36.33 117.1 36.38 117.04 36.43 116.99C36.48 116.94 36.53 116.9 36.58 116.85C36.63 116.8 36.69 116.75 36.75 116.71C36.82 116.66 36.89 116.62 36.96 116.58C37 116.55 37.04 116.53 37.09 116.5L45.12 112.67V94.42H29.07V129.71C22.05 118.18 18 104.64 18 90.18C18 48.19 52.19 14 94.22 14C136.25 14 170.44 48.19 170.44 90.22C170.44 109.15 163.49 126.47 152.03 139.81Z"
            fill="white" />
        <path d="M49.5703 110.58L91.9003 90.4104V65.1904L49.5703 85.2804V110.58Z" fill="white" />
        <path d="M58.9697 75.8996L91.8997 60.2696V34.3496L58.9697 56.2896V75.8996Z" fill="white" />
        <path d="M122.13 56.1502L96.3398 34.9102V60.3802L122.13 74.8202V56.1502Z" fill="white" />
        <path d="M96.3398 90.4897L131.53 109.71V85.1797L96.3398 65.4697V90.4897Z" fill="white" />
    </g>
    <defs>
        <filter id="filter0_d_4283_6979" x="0" y="0" width="188" height="188" filterUnits="userSpaceOnUse"
            color-interpolation-filters="sRGB">
            <feFlood flood-opacity="0" result="BackgroundImageFix" />
            <feColorMatrix in="SourceAlpha" type="matrix" values="0 0 0 0 0 0 0 0 0 0 0 0 0 0 0 0 0 0 127 0"
                result="hardAlpha" />
            <feOffset dy="4" />
            <feGaussianBlur stdDeviation="2" />
            <feComposite in2="hardAlpha" operator="out" />
            <feColorMatrix type="matrix" values="0 0 0 0 0 0 0 0 0 0 0 0 0 0 0 0 0 0 0.25 0" />
            <feBlend mode="normal" in2="BackgroundImageFix" result="effect1_dropShadow_4283_6979" />
            <feBlend mode="normal" in="SourceGraphic" in2="effect1_dropShadow_4283_6979" result="shape" />
        </filter>
        <clipPath id="clip0_4283_6979">
            <rect width="164.44" height="164.44" fill="white" transform="translate(12 8)" />
        </clipPath>
    </defs>
</svg>