<svg width="435" height="336" viewBox="0 0 435 336" fill="none" xmlns="http://www.w3.org/2000/svg">
  <rect width="435" height="336" rx="168" fill="url(#paint0_radial_10829_32246)" />
  <g clip-path="url(#clip0_10829_32246)">
    <path
      d="M113.044 92.2557C109.066 89.8835 102.6 89.8835 98.622 92.2557C96.5612 93.4861 95.4297 95.1667 95.4297 96.9841C95.4297 98.8015 96.5651 100.482 98.622 101.712C100.609 102.899 103.222 103.494 105.835 103.494C108.448 103.494 111.057 102.899 113.047 101.712C115.108 100.482 116.24 98.8055 116.24 96.9841C116.24 95.1627 115.104 93.4861 113.044 92.2557ZM112.336 100.442C108.751 102.585 102.915 102.585 99.3296 100.442C97.7277 99.485 96.845 98.2546 96.845 96.9801C96.845 95.7055 97.7277 94.4792 99.3296 93.5223C101.122 92.4527 103.478 91.918 105.831 91.918C108.183 91.918 110.543 92.4527 112.336 93.5223C113.938 94.4792 114.824 95.7095 114.824 96.9841C114.824 98.2587 113.942 99.485 112.34 100.442H112.336Z"
      fill="#31F7C9" />
    <path
      d="M130.161 73.4266C128.1 74.657 126.969 76.3336 126.969 78.155C126.969 79.9764 128.104 81.653 130.165 82.8834C132.152 84.0695 134.765 84.6645 137.378 84.6645C139.991 84.6645 142.6 84.0695 144.587 82.8834C146.647 81.653 147.779 79.9764 147.779 78.155C147.779 76.3336 146.643 74.657 144.587 73.4266C140.609 71.0544 134.139 71.0544 130.165 73.4266H130.161ZM146.363 78.155C146.363 79.4296 145.481 80.6559 143.879 81.6128C140.294 83.7559 134.458 83.7559 130.873 81.6128C129.271 80.6559 128.384 79.4255 128.384 78.151C128.384 76.8764 129.267 75.6501 130.869 74.6932C134.454 72.5501 140.29 72.5541 143.875 74.6932C145.477 75.6501 146.36 76.8804 146.36 78.151L146.363 78.155Z"
      fill="#31F7C9" />
    <path
      d="M183.176 73.5553L142.998 49.5717C142.676 49.3787 142.318 49.2822 141.96 49.2822C141.603 49.2822 141.241 49.3787 140.922 49.5717L60.0304 97.8606C59.3888 98.2465 58.9922 98.9542 58.9922 99.7222V126.307C58.9922 127.075 59.3888 127.787 60.0304 128.169L100.208 152.152C100.531 152.345 100.888 152.442 101.246 152.442C101.604 152.442 101.965 152.345 102.284 152.152L183.176 103.859C183.818 103.473 184.214 102.766 184.214 101.998V75.4129C184.214 74.6449 183.818 73.9333 183.176 73.5513V73.5553ZM101.954 149.028V124.132L132.29 106.023L181.43 76.6875V101.584L101.958 149.032L101.954 149.028ZM101.246 122.865L62.4839 99.7262L141.96 52.2777L180.719 75.4169L101.246 122.865ZM61.7801 100.993L100.542 124.132V149.028L61.7801 125.889V100.993Z"
      fill="#31F7C9" />
    <path
      d="M250.673 45.9362C243.842 41.8552 232.725 41.8592 225.893 45.9362C222.448 47.9908 220.555 50.7691 220.555 53.7565C220.555 56.7439 222.452 59.5222 225.893 61.5768C229.311 63.6153 233.798 64.6366 238.285 64.6366C242.772 64.6366 247.259 63.6153 250.677 61.5768C254.122 59.5222 256.016 56.7439 256.016 53.7565C256.016 50.7691 254.118 47.9908 250.677 45.9362H250.673ZM249.966 60.3103C243.523 64.1541 233.04 64.1581 226.601 60.3103C223.615 58.5251 221.97 56.2011 221.97 53.7565C221.97 51.3119 223.615 48.9879 226.601 47.2027C229.82 45.2808 234.051 44.3199 238.285 44.3199C242.52 44.3199 246.746 45.2808 249.97 47.2027C252.956 48.9879 254.6 51.3119 254.6 53.7565C254.6 56.2011 252.956 58.5251 249.97 60.3103H249.966Z"
      fill="#31F7C9" />
    <path
      d="M263.729 37.3246C256.897 33.2476 247.861 31 238.28 31C228.699 31 219.663 33.2476 212.835 37.3246C205.646 41.6187 201.688 47.4528 201.688 53.7573V72.4979C201.688 78.8023 205.646 84.6404 212.839 88.9305C219.647 92.9955 228.645 95.2391 238.187 95.2551C238.218 95.2551 238.253 95.2551 238.284 95.2551C245.419 95.2551 250.388 98.5843 250.388 101.576C250.388 102.762 251.318 103.727 252.468 103.727C253.615 103.727 254.549 102.766 254.549 101.576V92.9231C257.931 91.8938 261.015 90.5549 263.733 88.9346C270.922 84.6445 274.881 78.8064 274.881 72.5019V53.7613C274.881 47.4568 270.922 41.6187 263.729 37.3286V37.3246ZM253.176 90.3298V82.8311C253.176 79.2647 250.05 76.2371 245.361 74.7052C245.337 74.6972 245.314 74.6851 245.287 74.6771C251.963 73.8689 258.106 71.9068 263.045 68.9596C267.361 66.3823 270.436 63.2462 272.093 59.8044V72.4938C272.093 77.7248 268.628 82.6743 262.337 86.4297C259.654 88.0299 256.574 89.3407 253.176 90.3257V90.3298ZM251.761 91.0977V97.5952C249.404 94.4912 244.346 92.3884 238.342 92.3763C238.323 92.3763 238.303 92.3763 238.284 92.3763C229.189 92.3763 220.647 90.2694 214.231 86.4377C207.94 82.6823 204.475 77.7328 204.475 72.4979V59.8085C206.132 63.2462 209.207 66.3864 213.523 68.9636C220.149 72.92 228.94 75.0993 238.284 75.0993C238.77 75.0993 239.248 75.1153 239.719 75.1435C239.828 75.1515 239.933 75.1636 240.041 75.1716C240.407 75.1998 240.773 75.2319 241.126 75.2762C241.224 75.2882 241.321 75.3043 241.418 75.3204C241.78 75.3687 242.137 75.4249 242.487 75.4893C242.573 75.5054 242.654 75.5255 242.736 75.5415C243.09 75.6139 243.44 75.6903 243.782 75.7788C248.475 76.989 251.757 79.6949 251.757 82.8351V91.1017L251.761 91.0977ZM272.054 54.7021C272.03 54.9675 271.995 55.2329 271.957 55.4982C271.949 55.5385 271.949 55.5827 271.941 55.6229C271.844 56.234 271.696 56.8412 271.502 57.4403C270.273 61.2841 267.127 64.8384 262.333 67.6971C255.917 71.5248 247.375 73.6357 238.28 73.6357C229.182 73.6357 220.639 71.5248 214.227 67.6971C209.437 64.8384 206.291 61.2841 205.059 57.4403C204.868 56.8412 204.72 56.234 204.619 55.6189C204.615 55.5827 204.611 55.5465 204.608 55.5103C204.565 55.2409 204.534 54.9715 204.51 54.6981C204.487 54.3845 204.472 54.0709 204.472 53.7533C204.472 48.5223 207.936 43.5728 214.227 39.8174C220.857 35.857 229.57 33.8788 238.28 33.8788C246.99 33.8788 255.703 35.857 262.333 39.8174C268.624 43.5728 272.089 48.5223 272.089 53.7573C272.089 54.0709 272.073 54.3885 272.05 54.7021H272.054Z"
      fill="#31F7C9" />
    <path
      d="M250.686 289.311C251.965 292.126 255.741 294.016 260.076 294.016C261.414 294.016 262.739 293.831 264.015 293.469L341.582 271.383C347.842 269.602 351.913 265.863 352.469 261.388C352.936 257.628 350.813 254.042 346.645 251.557L332.145 242.9C332.76 241.473 333.121 239.961 333.121 238.542V226.516C333.121 224.136 334.579 221.205 336.465 219.568C337.472 221.04 338.716 222.294 340.081 223.106C341.197 223.774 342.309 224.111 343.382 224.111C344.16 224.111 344.907 223.927 345.568 223.577C345.63 223.549 345.692 223.512 345.754 223.476L392.468 195.589C394.074 194.628 394.995 192.71 394.995 190.321C394.995 186.22 392.305 181.403 388.871 179.353C387.752 178.685 386.639 178.348 385.562 178.348C384.703 178.348 383.906 178.561 383.198 178.987L336.485 206.875C334.879 207.836 333.957 209.753 333.957 212.142C333.957 213.831 334.42 215.636 335.194 217.325C332.569 219.407 330.629 223.219 330.629 226.52V238.546C330.629 239.515 330.384 240.576 329.968 241.602L317.747 234.308C314.31 232.257 309.799 231.128 305.048 231.128C297.987 231.128 291.641 233.58 288.484 237.533L251.487 283.839C250.153 285.512 249.858 287.506 250.682 289.316L250.686 289.311ZM336.745 212.138C336.745 210.787 337.149 209.806 337.88 209.368C338.009 209.291 338.145 209.239 338.289 209.199C338.32 209.191 338.355 209.179 338.386 209.17C338.53 209.138 338.681 209.114 338.841 209.114C338.868 209.114 338.899 209.118 338.93 209.118C339.035 209.118 339.14 209.13 339.245 209.146C339.292 209.154 339.342 209.166 339.393 209.175C339.486 209.195 339.584 209.219 339.681 209.247C339.735 209.263 339.786 209.279 339.84 209.299C339.941 209.335 340.046 209.376 340.151 209.424C340.198 209.444 340.248 209.464 340.295 209.488C340.451 209.561 340.606 209.641 340.766 209.737C343.375 211.293 345.498 215.097 345.498 218.213C345.498 219.564 345.093 220.545 344.362 220.983C343.631 221.422 342.605 221.289 341.473 220.613C340.486 220.026 339.572 219.114 338.814 218.04L341.745 216.291C342.34 215.933 342.546 215.145 342.2 214.53C341.858 213.911 341.092 213.702 340.497 214.06L337.566 215.809C337.048 214.594 336.745 213.316 336.745 212.142V212.138ZM387.479 181.846C390.088 183.402 392.211 187.205 392.211 190.317C392.211 191.668 391.807 192.649 391.076 193.088L346.792 219.524C346.816 219.399 346.831 219.262 346.847 219.13C346.858 219.049 346.874 218.973 346.882 218.889C346.901 218.667 346.913 218.438 346.913 218.205C346.913 214.562 344.522 210.284 341.473 208.463C341.081 208.23 340.692 208.045 340.311 207.908L384.594 181.472C384.878 181.303 385.209 181.218 385.566 181.218C386.138 181.218 386.791 181.428 387.479 181.842V181.846ZM253.376 288.399C252.817 287.506 252.906 286.589 253.637 285.673L290.63 239.366C295.343 233.472 308.559 232.153 316.351 236.801L328.564 244.09C327.919 244.951 327.168 245.683 326.371 246.157L322.001 248.767C321.406 249.124 321.2 249.912 321.546 250.528C321.775 250.942 322.195 251.171 322.627 251.171C322.837 251.171 323.051 251.115 323.249 250.998L327.619 248.389C328.79 247.689 329.863 246.632 330.745 245.389L345.249 254.046C348.441 255.952 350.024 258.428 349.701 261.018C349.3 264.254 345.906 267.157 340.839 268.601L263.272 290.687C259.042 291.893 254.66 290.445 253.376 288.395V288.399Z"
      fill="#31F7C9" />
    <path
      d="M293.981 112.396C291.155 110.707 288.46 110.458 286.391 111.692C284.327 112.927 283.188 115.464 283.188 118.841C283.188 125.479 287.71 133.581 293.274 136.902C294.918 137.883 296.52 138.378 297.975 138.378C299.024 138.378 299.997 138.121 300.86 137.606C302.924 136.372 304.064 133.834 304.064 130.457C304.064 123.819 299.542 115.713 293.977 112.396H293.981ZM300.156 136.335C298.546 137.296 296.353 137.047 293.981 135.632C288.81 132.544 284.603 125.013 284.603 118.837C284.603 116.007 285.489 113.916 287.099 112.959C287.745 112.573 288.479 112.384 289.284 112.384C290.49 112.384 291.851 112.814 293.274 113.663C298.445 116.75 302.652 124.281 302.652 130.457C302.652 133.288 301.766 135.378 300.156 136.335Z"
      fill="#31F7C9" />
    <path
      d="M359.035 157.565C357.491 157.565 355.877 158.063 354.236 159.04C353.548 159.45 352.86 159.949 352.187 160.524L332.24 148.614V126.344C332.24 119.693 330.094 112.183 326.194 105.199C322.294 98.2147 317.08 92.5375 311.508 89.2123C308.098 87.1779 304.789 86.1445 301.675 86.1445C299.408 86.1445 297.332 86.6954 295.508 87.789L278.668 97.8408C278.621 97.869 278.578 97.8971 278.536 97.9252C274.274 100.547 271.859 105.914 271.859 112.882C271.859 119.85 274.006 127.043 277.906 134.027C281.806 141.011 287.02 146.689 292.592 150.014L312.282 161.77L345.814 181.789C346.137 181.982 346.495 182.079 346.853 182.079C347.21 182.079 347.572 181.982 347.891 181.789L364.731 171.738C365.373 171.356 365.769 170.644 365.769 169.876V165.928C365.769 160.926 363.063 157.561 359.031 157.561L359.035 157.565ZM293.984 147.525C283.322 141.16 274.647 125.624 274.647 112.89C274.647 106.883 276.568 102.428 280.06 100.342C280.27 100.217 280.48 100.104 280.697 99.9959C280.783 99.9517 280.876 99.9155 280.966 99.8793C281.098 99.819 281.226 99.7627 281.362 99.7104C281.467 99.6702 281.576 99.6341 281.685 99.5979C281.806 99.5577 281.926 99.5134 282.051 99.4772C282.167 99.4411 282.284 99.4129 282.4 99.3848C285.531 98.5887 289.298 99.3928 293.28 101.773C303.942 108.138 312.616 123.678 312.616 136.408V158.654L293.988 147.533L293.984 147.525ZM314.032 158.304V136.404C314.032 123.208 305.038 107.101 293.984 100.503C290.768 98.5846 287.657 97.6156 284.835 97.6156C284.765 97.6156 284.698 97.6156 284.628 97.6156L296.9 90.2899C300.392 88.2072 305.085 88.7098 310.116 91.7172C320.778 98.082 329.453 113.622 329.453 126.352V149.443L314.028 158.65V158.308L314.032 158.304ZM348.035 168.376L338.473 174.086L331.506 169.924L342.303 163.479C342.642 163.278 342.758 162.828 342.564 162.478C342.369 162.128 341.938 162.007 341.596 162.209L330.09 169.08L323.122 164.918L333.92 158.473C334.258 158.272 334.375 157.822 334.181 157.472C333.986 157.122 333.555 157.002 333.213 157.203L321.707 164.07L314.739 159.913L330.164 150.705L351.324 163.338C350.014 164.818 348.898 166.555 348.035 168.372V168.376ZM346.145 178.665L339.885 174.93L347.125 170.608C346.499 172.433 346.145 174.279 346.145 175.984V178.665ZM347.56 175.984C347.56 171.927 349.726 166.985 352.953 163.692C353.828 162.8 354.73 162.072 355.625 161.537C357.646 160.331 359.509 160.114 360.87 160.926C362.231 161.738 362.981 163.515 362.981 165.928V169.454L347.556 178.661V175.979L347.56 175.984Z"
      fill="#31F7C9" />
    <path
      d="M223.002 273.32L169.515 241.388L108.85 205.169L124.901 190.449C125.344 190.043 125.6 189.456 125.6 188.841V172.585C125.6 171.817 125.204 171.106 124.562 170.724L119.406 167.648C119.088 167.455 118.726 167.358 118.368 167.358C118.108 167.358 117.847 167.411 117.598 167.511L83.6576 181.467C83.5643 181.507 83.4749 181.552 83.3854 181.604L41.0382 206.89C40.3966 207.276 40 207.984 40 208.752V227.034C40 227.802 40.3966 228.514 41.0382 228.896L54.1378 236.716C54.4527 236.905 54.8105 237.005 55.176 237.005H58.5704C58.9359 237.005 59.2936 236.905 59.6086 236.716L85.7223 221.123L149.653 259.292L207.604 293.89C208.172 294.228 208.821 294.405 209.486 294.405C210.268 294.405 211.053 294.172 211.827 293.71L220.856 288.318C223.317 286.85 225.172 283.268 225.172 279.987V277.92C225.172 275.821 224.378 274.145 223.002 273.32ZM209 291.394C208.759 291.249 208.557 290.967 208.421 290.577C208.289 290.207 208.223 289.773 208.223 289.287V287.22C208.223 286.975 208.238 286.722 208.269 286.468C208.491 284.683 209.451 282.745 210.676 281.724C210.847 281.583 210.999 281.47 211.143 281.386L220.171 275.994C220.338 275.894 220.498 275.821 220.653 275.769C220.657 275.769 220.665 275.765 220.669 275.761C220.817 275.713 220.953 275.693 221.085 275.689C221.12 275.689 221.159 275.685 221.194 275.689C221.225 275.689 221.256 275.697 221.283 275.701C221.303 275.701 221.322 275.705 221.342 275.709C221.431 275.729 221.517 275.765 221.594 275.809H221.598C222.084 276.103 222.376 276.891 222.376 277.916V279.983C222.376 282.202 221.038 284.876 219.456 285.821L210.427 291.213C210.031 291.45 209.463 291.671 208.992 291.394H209ZM57.8666 234.122H55.3704L42.7879 226.612V212.045L54.826 219.234C54.9349 219.298 55.0554 219.33 55.1798 219.33H57.8628V234.122H57.8666ZM210.439 280.115C210.233 280.24 210.019 280.393 209.79 280.582C208.063 282.021 206.807 284.816 206.807 287.22V289.287C206.807 289.572 206.827 289.85 206.862 290.115L151.053 256.795L150.867 256.683C150.435 256.333 150.19 255.605 150.19 254.672V252.602C150.19 250.853 151.03 248.746 152.235 247.475C152.729 246.953 153.409 246.727 153.896 246.631L166.439 244.094C166.517 244.078 166.591 244.05 166.657 244.009C166.995 243.808 167.489 243.607 167.944 243.776L168.041 243.837L168.127 243.885L219.631 274.635C219.576 274.663 219.522 274.696 219.467 274.728L210.439 280.119V280.115ZM81.8807 212.636V214.702C81.8807 216.19 82.3667 217.36 83.2143 217.963C83.2571 218.003 83.3077 218.04 83.3699 218.076L84.3186 218.643L59.2859 233.588V219.021L100.222 194.583V201.655L97.3949 199.966C96.5706 199.476 95.5596 199.54 94.5448 200.143L85.5162 205.535C83.4826 206.749 81.8884 209.869 81.8884 212.64L81.8807 212.636ZM105.226 204.643L101.629 202.495V193.642L106.373 189.291L122.816 174.214V188.511L105.226 204.643ZM100.506 192.717L88.6307 199.806L58.3799 217.867H55.3665L42.784 210.356V209.174L84.7347 184.129L118.31 170.326L122.319 172.718L100.506 192.721V192.717ZM86.0839 218.007L84.0737 216.809C83.5876 216.52 83.296 215.732 83.296 214.702V212.636C83.296 210.416 84.6336 207.743 86.2161 206.798L95.2447 201.406C95.6413 201.169 96.209 200.947 96.6795 201.229L100.237 203.352L165.965 242.594L166.077 242.662C166.077 242.662 166.058 242.671 166.05 242.675L153.616 245.187C152.64 245.384 151.808 245.819 151.216 246.446C149.751 247.994 148.767 250.467 148.767 252.598V254.668C148.767 254.946 148.79 255.203 148.821 255.456H148.817L86.0761 217.999L86.0839 218.007Z"
      fill="#31F7C9" />
    <path
      d="M96.6799 264.363L100.312 270.772C100.63 271.399 101.093 271.906 101.657 272.243L146.749 299.166C146.749 299.166 146.749 299.198 146.749 299.214C146.749 302.62 148.724 304.996 151.551 304.996C152.605 304.996 153.698 304.666 154.79 304.015C158.134 302.021 160.751 297.333 160.751 293.34C160.751 291.736 160.331 290.345 159.542 289.319C158.663 288.181 157.388 287.558 155.949 287.558C154.895 287.558 153.803 287.888 152.714 288.539C152.698 288.547 152.687 288.555 152.671 288.563L107.575 261.641C107.112 261.363 106.587 261.211 106.019 261.182C105.942 261.174 105.864 261.166 105.786 261.166L98.484 261.122C98.484 261.122 98.4762 261.122 98.4723 261.122C97.7297 261.122 97.0415 261.532 96.6721 262.2C96.2988 262.867 96.3027 263.695 96.6799 264.359V264.363ZM149.627 298.101C149.988 295.757 151.427 293.175 153.212 291.676C153.507 291.426 153.806 291.213 154.102 291.036C154.767 290.638 155.397 290.437 155.941 290.437C156.287 290.437 156.602 290.518 156.87 290.678C157.57 291.097 157.959 292.041 157.959 293.34C157.959 296.348 155.91 300.014 153.394 301.518C152.309 302.166 151.326 302.294 150.622 301.876C149.922 301.458 149.533 300.513 149.533 299.214C149.533 298.861 149.564 298.487 149.623 298.097L149.627 298.101ZM99.7088 264.017L105.638 264.053C105.689 264.061 105.736 264.065 105.79 264.065C105.957 264.061 106.086 264.085 106.179 264.142L151.567 291.241C150.109 292.741 148.962 294.796 148.433 296.85L103.045 269.751C102.928 269.682 102.835 269.566 102.757 269.401C102.742 269.365 102.722 269.332 102.699 269.3L99.7049 264.017H99.7088Z"
      fill="#31F7C9" />
    <path
      d="M280.278 166.76L278.361 165.252C274.853 152.136 267.839 134.131 254.179 121.346C249.502 116.967 244.276 113.429 238.654 110.827C231.915 107.707 224.465 105.866 216.51 105.355L215.374 105.214C212.901 104.905 210.413 104.748 207.971 104.748C196.718 104.748 186.068 107.969 176.324 114.321C166.281 120.867 161.047 128.289 159.683 130.412C159.675 130.424 159.671 130.432 159.663 130.444C156.148 135.507 153.349 142.032 150.6 151.573C149.281 155.321 148.15 159.257 147.232 163.282C144.701 165.296 142.78 168.235 141.517 172.031C140.163 176.096 140.012 179.891 140.008 181.339C139.981 193.284 147.423 204.317 160.962 212.399C161.977 213.006 163.034 213.629 164.127 214.268L164.613 214.554C165.262 214.932 165.923 215.314 166.596 215.7C174.096 219.998 181.033 223.56 187.81 226.584C194.716 229.664 201.524 232.209 208.049 234.139C209.281 234.505 210.448 234.834 211.622 235.148C212.8 235.462 214.033 235.771 215.277 236.065C223.723 238.059 231.97 239.068 239.785 239.068C245.365 239.068 250.855 238.554 256.096 237.536C256.831 237.396 257.566 237.239 258.282 237.078C260.755 236.527 263.247 235.84 265.685 235.039C269.013 233.946 272.303 232.619 275.464 231.091C276.308 230.681 277.179 230.239 278.135 229.728C279.391 229.061 280.507 228.437 281.541 227.818C295.251 219.66 302.2 210.24 302.192 199.826C302.184 189.175 295.018 178.359 280.278 166.764V166.76ZM239.785 236.181C232.18 236.181 224.143 235.196 215.899 233.246C214.682 232.961 213.481 232.655 212.322 232.35C211.167 232.04 210.02 231.718 208.815 231.361C202.407 229.463 195.711 226.962 188.915 223.93C182.223 220.943 175.364 217.425 167.949 213.175C167.284 212.793 166.627 212.415 165.985 212.041L165.499 211.76C164.415 211.124 163.365 210.505 162.358 209.902C149.717 202.355 142.772 192.215 142.796 181.343C142.804 176.618 144.196 170.225 147.956 166.442C147.823 167.101 147.695 167.765 147.574 168.428C147.466 169.019 147.372 169.586 147.283 170.129C146.579 174.415 146.529 178.697 146.529 178.822C146.529 178.822 146.521 178.934 146.509 179.107C145.615 189.525 151.202 199.143 161.837 205.491C162.517 205.897 163.221 206.311 163.94 206.73C164.691 207.168 165.461 207.606 166.25 208.056L166.347 208.109C172.872 211.792 179.038 214.791 185.205 217.28C190.878 219.572 196.532 221.401 201.999 222.72C202.854 222.925 203.713 223.122 204.6 223.311C211.031 224.686 217.381 225.382 223.497 225.382C224.01 225.382 224.524 225.378 225.033 225.366C228.311 225.301 231.585 225.036 234.769 224.566C236.756 224.272 238.747 223.898 240.687 223.452C242.682 222.993 244.684 222.443 246.64 221.815C247.97 221.389 249.307 220.919 250.622 220.416C252.624 219.648 254.634 218.776 256.59 217.823C257.348 217.465 273.244 209.874 277.898 200.819C279.628 197.981 280.628 195.017 280.869 191.998C280.872 191.978 280.876 191.953 280.88 191.929C281.047 190.494 280.946 187.575 280.942 187.43C280.935 187.31 280.752 184.451 280.033 179.799C279.55 176.671 278.94 173.482 278.217 170.326C278.147 170.016 278.069 169.699 277.991 169.373C277.914 169.047 277.836 168.722 277.754 168.392L278.59 169.051C292.588 180.068 299.396 190.132 299.404 199.822C299.412 209.13 292.934 217.706 280.153 225.313C279.15 225.908 278.077 226.512 276.864 227.159C275.934 227.653 275.091 228.084 274.286 228.474C271.237 229.949 268.061 231.232 264.849 232.285C262.493 233.057 260.086 233.721 257.698 234.251C256.995 234.408 256.291 234.557 255.587 234.694C250.513 235.679 245.198 236.177 239.789 236.177L239.785 236.181ZM153.255 152.45C155.926 143.162 158.609 136.849 161.988 132.033C162.268 131.635 162.544 131.253 162.824 130.887C162.844 130.859 162.863 130.83 162.887 130.806C163.174 130.428 163.462 130.067 163.761 129.713C165.737 127.288 168.007 125.27 170.519 123.714L170.694 123.593C170.846 123.497 170.986 123.416 171.134 123.336L171.227 123.28C172.72 122.419 174.318 121.711 175.967 121.177C176.826 120.899 177.716 120.662 178.615 120.477C179.575 120.276 180.578 120.127 181.647 120.031C185.162 119.713 188.887 120.071 192.71 121.092C195.369 121.804 198.099 122.837 200.817 124.172C201.765 124.639 202.726 125.145 203.675 125.684C204.067 125.905 204.46 126.13 204.853 126.367C205.354 126.669 205.856 126.979 206.357 127.296C213.244 131.679 219.928 137.77 226.231 145.406L226.72 146.005C227.055 146.415 227.389 146.833 227.72 147.251C237.16 159.181 245.089 174.037 250.042 189.083C253.246 198.813 255.097 208.109 255.56 216.721C253.775 217.573 251.955 218.358 250.14 219.053C248.853 219.548 247.538 220.01 246.236 220.428C244.315 221.043 242.351 221.582 240.392 222.036C238.486 222.475 236.534 222.845 234.583 223.13C231.456 223.588 228.241 223.854 225.021 223.914C218.528 224.043 211.77 223.355 204.88 221.884C204.025 221.699 203.177 221.51 202.333 221.305C196.928 220.002 191.345 218.193 185.734 215.925C179.626 213.456 173.509 210.481 167.039 206.83L166.942 206.778C166.16 206.336 165.394 205.897 164.652 205.463C163.936 205.045 163.24 204.635 162.564 204.233C152.423 198.182 147.096 189.071 147.94 179.216C147.948 179.055 147.956 178.958 147.959 178.898C147.959 178.854 148.01 174.548 148.698 170.378C148.788 169.844 148.881 169.289 148.986 168.702C149.215 167.431 149.488 166.092 149.791 164.713C149.791 164.705 149.791 164.697 149.791 164.693C150.712 160.523 151.875 156.43 153.271 152.458L153.255 152.45ZM215.04 108.069L216.152 108.21C218.948 109.267 221.786 110.659 224.597 112.335C225.185 112.685 225.772 113.055 226.355 113.429C230.92 116.356 235.457 120.063 239.836 124.45C246.982 131.602 253.779 140.665 259.491 150.653C261.734 154.577 263.826 158.67 265.708 162.811C266.365 164.255 266.999 165.718 267.598 167.158C268.049 168.247 268.488 169.337 268.912 170.431C272.828 180.539 275.472 190.856 276.564 200.288C272.657 207.654 260.424 214.26 256.928 216.034C256.928 215.997 256.921 215.961 256.921 215.921C256.913 215.804 256.909 215.692 256.901 215.575C256.893 215.467 256.882 215.378 256.87 215.286C256.287 206.919 254.444 197.956 251.364 188.604C246.356 173.398 238.342 158.38 228.797 146.318C228.462 145.896 228.124 145.474 227.786 145.06L227.292 144.453C220.896 136.701 214.095 130.509 207.085 126.046C206.575 125.72 206.062 125.402 205.549 125.093C205.144 124.852 204.744 124.622 204.343 124.393C203.371 123.842 202.384 123.32 201.412 122.845C198.612 121.47 195.801 120.405 193.052 119.669C190.019 118.861 187.044 118.451 184.148 118.451C183.242 118.451 182.347 118.491 181.457 118.571C180.388 118.668 179.334 118.825 178.327 119.038C177.382 119.235 176.441 119.484 175.535 119.778C174.143 120.228 172.79 120.795 171.495 121.47C181.06 113.304 196.065 105.697 215.04 108.077V108.069ZM275.853 166.663C275.853 166.663 275.853 166.695 275.857 166.711C276.14 167.797 276.389 168.782 276.607 169.695C276.685 170.02 276.763 170.346 276.836 170.668C277.552 173.788 278.155 176.94 278.633 180.032C279.34 184.612 279.523 187.498 279.527 187.507C279.527 187.535 279.617 190.156 279.496 191.551C279.484 191.596 279.477 191.644 279.473 191.692C279.321 193.879 278.738 196.043 277.727 198.149C277.7 197.952 277.669 197.767 277.637 197.595C276.382 188.733 273.846 179.22 270.23 169.884C269.803 168.778 269.359 167.676 268.9 166.579C268.298 165.127 267.652 163.648 266.991 162.188C265.09 158.002 262.979 153.869 260.712 149.905C254.938 139.805 248.063 130.637 240.823 123.396C236.371 118.941 231.756 115.17 227.101 112.186C226.507 111.804 225.904 111.43 225.305 111.069C223.843 110.196 222.373 109.4 220.907 108.688C220.907 108.688 220.904 108.688 220.9 108.684C226.81 109.484 232.382 111.085 237.514 113.457C242.872 115.938 247.849 119.311 252.309 123.485C265.424 135.756 272.291 153.057 275.853 166.667V166.663Z"
      fill="#31F7C9" />
  </g>
  <defs>
    <radialGradient id="paint0_radial_10829_32246" cx="0" cy="0" r="1" gradientUnits="userSpaceOnUse"
      gradientTransform="translate(217.5 168) rotate(90) scale(103.418 133.89)">
      <stop stop-color="#3F8D97" />
      <stop offset="1" stop-color="#2F4F70" />
    </radialGradient>
    <clipPath id="clip0_10829_32246">
      <rect width="355" height="274" fill="white" transform="translate(40 31)" />
    </clipPath>
  </defs>
</svg>
