<svg width="15" height="19" viewBox="0 0 15 19" fill="none" xmlns="http://www.w3.org/2000/svg">
  <g clip-path="url(#clip0_12699_32826)">
    <path d="M10 1L15.2676 5L15 19H1V1H10Z" fill="white" />
    <path
      d="M10.3899 1.01135L13.7539 4.37966H10.3792L10.3899 1.01135ZM7.47371 7.09017H3.3876C3.10905 7.09017 2.88192 7.31729 2.88192 7.59584C2.88192 7.87439 3.10905 8.10152 3.3876 8.10152H7.47371C7.75226 8.10152 7.97938 7.87439 7.97938 7.59584C7.97938 7.31729 7.7544 7.09017 7.47371 7.09017ZM3.3876 10.7242C3.10905 10.7242 2.88192 10.9513 2.88192 11.2298C2.88192 11.5084 3.10905 11.7355 3.3876 11.7355H11.3798C11.6584 11.7355 11.8855 11.5084 11.8855 11.2298C11.8855 10.9513 11.6584 10.7242 11.3798 10.7242H3.3876ZM3.3876 14.3603C3.10905 14.3603 2.88192 14.5853 2.88192 14.866C2.88192 15.1467 3.10905 15.3717 3.3876 15.3717H11.3798C11.6584 15.3717 11.8855 15.1445 11.8855 14.866C11.8855 14.5874 11.6584 14.3603 11.3798 14.3603H3.3876ZM1.01135 1.01349H9.36785V4.88534C9.36785 5.16389 9.59497 5.39101 9.87352 5.39101H13.7539V17.4865H1.01135V1.01135V1.01349ZM0.505675 0C0.224983 0 0 0.227125 0 0.505675V17.9922C0 18.2707 0.224983 18.4979 0.505675 18.4979H14.2618C14.3946 18.4979 14.5253 18.4443 14.6196 18.35C14.716 18.2536 14.7674 18.125 14.7674 17.9922V4.2061C14.7674 4.06469 14.7289 3.91898 14.6196 3.81185L10.9577 0.147846C10.8592 0.0492819 10.7306 0 10.5999 0H10.5935H0.505675Z"
      fill="currentColor" stroke="currentColor" stroke-width="0.5" />
  </g>
  <defs>
    <clipPath id="clip0_12699_32826">
      <rect width="14.7674" height="18.5" fill="white" />
    </clipPath>
  </defs>
</svg>
