<svg width="188" height="188" viewBox="0 0 188 188" fill="none" xmlns="http://www.w3.org/2000/svg">
  <path
    d="M184 90C184 139.706 143.706 180 94 180C44.2944 180 4 139.706 4 90C4 40.2944 44.2944 0 94 0C143.706 0 184 40.2944 184 90Z"
    fill="black" fill-opacity="0.2" />
  <g filter="url(#filter0_d_3321_7705)">
    <path fill-rule="evenodd" clip-rule="evenodd"
      d="M94 172C139.287 172 176 135.287 176 90C176 44.7127 139.287 8 94 8C48.7127 8 12 44.7127 12 90C12 135.287 48.7127 172 94 172ZM94 180C143.706 180 184 139.706 184 90C184 40.2944 143.706 0 94 0C44.2944 0 4 40.2944 4 90C4 139.706 44.2944 180 94 180Z"
      fill="#26B893" />
  </g>
  <path
    d="M169.982 58.2172C165.84 48.4266 159.912 39.6329 152.362 32.0829C144.812 24.5328 136.018 18.6046 126.227 14.4627C116.089 10.1748 105.32 8 94.2222 8C83.1243 8 72.3552 10.1748 62.2172 14.4627C52.4266 18.6046 43.6329 24.5328 36.0829 32.0829C28.5328 39.6329 22.6046 48.4246 18.4627 58.2172C14.1748 68.3552 12 79.1243 12 90.2222C12 101.32 14.1748 112.089 18.4627 122.227C22.6046 132.018 28.5328 140.812 36.0829 148.362C43.6329 155.912 52.4266 161.84 62.2172 165.982C72.3552 170.27 83.1243 172.444 94.2222 172.444C105.32 172.444 116.089 170.27 126.227 165.982C136.018 161.84 144.812 155.912 152.362 148.362C159.912 140.812 165.84 132.018 169.982 122.227C174.27 112.089 176.444 101.32 176.444 90.2222C176.444 79.1243 174.27 68.3552 169.982 58.2172ZM145.391 146.746C144.567 138.394 138.476 131.51 130.542 129.247C125.582 127.831 120.823 125.785 116.517 122.947L116.19 122.733C111.207 119.45 109.976 112.741 113.343 107.814C120.922 96.726 125.812 81.1572 125.812 70.8959C125.812 53.4483 111.668 39.3061 94.2222 39.3061C76.7767 39.3061 62.6324 53.4504 62.6324 70.8959C62.6324 81.1552 67.5247 96.726 75.1014 107.814C78.4684 112.741 77.2372 119.45 72.2545 122.733L71.9277 122.947C67.6192 125.783 62.8627 127.831 57.9026 129.247C49.9682 131.512 43.8776 138.396 43.0533 146.746C27.6387 132.778 17.9426 112.613 17.9426 90.2243C17.9447 48.1614 52.1614 13.9447 94.2222 13.9447C136.283 13.9447 170.5 48.1635 170.5 90.2222C170.5 112.611 160.804 132.778 145.389 146.744L145.391 146.746Z"
    fill="white" />
  <defs>
    <filter id="filter0_d_3321_7705" x="0" y="0" width="188" height="188" filterUnits="userSpaceOnUse"
      color-interpolation-filters="sRGB">
      <feFlood flood-opacity="0" result="BackgroundImageFix" />
      <feColorMatrix in="SourceAlpha" type="matrix" values="0 0 0 0 0 0 0 0 0 0 0 0 0 0 0 0 0 0 127 0"
        result="hardAlpha" />
      <feOffset dy="4" />
      <feGaussianBlur stdDeviation="2" />
      <feComposite in2="hardAlpha" operator="out" />
      <feColorMatrix type="matrix" values="0 0 0 0 0 0 0 0 0 0 0 0 0 0 0 0 0 0 0.25 0" />
      <feBlend mode="normal" in2="BackgroundImageFix" result="effect1_dropShadow_3321_7705" />
      <feBlend mode="normal" in="SourceGraphic" in2="effect1_dropShadow_3321_7705" result="shape" />
    </filter>
  </defs>
</svg>
