<svg width="188" height="188" viewBox="0 0 188 188" fill="none" xmlns="http://www.w3.org/2000/svg">
  <circle cx="94" cy="90" r="90" fill="black" fill-opacity="0.2" />
  <g filter="url(#filter0_d_8912_32949)">
    <circle cx="94" cy="90" r="86" stroke="#26B893" stroke-width="8" shape-rendering="crispEdges" />
  </g>
  <circle cx="94.22" cy="90.22" r="79.22" stroke="white" stroke-width="6" />
  <g clip-path="url(#clip0_8912_32949)">
    <path
      d="M70.9747 46.125C70.0839 46.125 69.4287 46.7987 69.4287 47.6256V56.8744C69.4287 57.0683 69.4697 57.2725 69.5413 57.4563C69.6232 57.64 69.7256 57.8033 69.8689 57.9463C70.0123 58.0892 70.1761 58.1912 70.3604 58.2729C70.5447 58.3444 70.7392 58.3852 70.9439 58.3852H117.036C117.435 58.3852 117.824 58.2321 118.111 57.9463C118.398 57.6604 118.561 57.2827 118.561 56.8846V47.6256C118.561 46.7885 117.865 46.125 117.015 46.125H112.418L106.276 40H81.7042L75.5613 46.125H70.9644H70.9747Z"
      fill="white" />
    <path fill-rule="evenodd" clip-rule="evenodd"
      d="M51 58.324C51 51.5967 56.4876 46.1454 63.2857 46.125V61.4681C63.2857 63.1831 64.6883 64.5 66.4186 64.5H121.581C123.312 64.5 124.714 63.1423 124.714 61.4681V46.125H124.673C127.929 46.125 131.052 47.3908 133.365 49.6877C135.679 51.9744 136.98 55.0879 136.99 58.3342V125.811C136.99 132.549 131.482 138.01 124.663 138.01H63.3267C60.071 138.01 56.9483 136.744 54.6345 134.447C52.3207 132.161 51.0205 129.047 51.0102 125.801V58.324H51ZM69.4286 85.9375C69.4286 87.581 70.8005 89 72.5 89H115.5C117.159 89 118.571 87.6321 118.571 85.9375C118.571 84.2429 117.2 82.875 115.5 82.875H72.5C70.8414 82.875 69.4286 84.2429 69.4286 85.9375ZM69.4286 110.437C69.4286 112.081 70.8005 113.5 72.5 113.5H115.5C117.159 113.5 118.571 112.132 118.571 110.437C118.571 108.743 117.2 107.375 115.5 107.375H72.5C70.8414 107.375 69.4286 108.743 69.4286 110.437ZM115.5 95.125H72.5C70.8005 95.125 69.4286 96.4929 69.4286 98.1875C69.4286 99.8821 70.8005 101.25 72.5 101.25H115.5C117.2 101.25 118.571 99.8821 118.571 98.1875C118.571 96.4929 117.2 95.125 115.5 95.125Z"
      fill="white" />
  </g>
  <defs>
    <filter id="filter0_d_8912_32949" x="0" y="0" width="188" height="188" filterUnits="userSpaceOnUse"
      color-interpolation-filters="sRGB">
      <feFlood flood-opacity="0" result="BackgroundImageFix" />
      <feColorMatrix in="SourceAlpha" type="matrix" values="0 0 0 0 0 0 0 0 0 0 0 0 0 0 0 0 0 0 127 0"
        result="hardAlpha" />
      <feOffset dy="4" />
      <feGaussianBlur stdDeviation="2" />
      <feComposite in2="hardAlpha" operator="out" />
      <feColorMatrix type="matrix" values="0 0 0 0 0 0 0 0 0 0 0 0 0 0 0 0 0 0 0.25 0" />
      <feBlend mode="normal" in2="BackgroundImageFix" result="effect1_dropShadow_8912_32949" />
      <feBlend mode="normal" in="SourceGraphic" in2="effect1_dropShadow_8912_32949" result="shape" />
    </filter>
    <clipPath id="clip0_8912_32949">
      <rect width="86" height="98" fill="white" transform="translate(51 40)" />
    </clipPath>
  </defs>
</svg>
