<svg width="25" height="25" viewBox="0 0 25 25" fill="none" xmlns="http://www.w3.org/2000/svg">
  <g clip-path="url(#clip0_8391_16437)">
    <path
      d="M20.9677 0H4.03226C1.80645 0 0 1.80645 0 4.03226V20.9677C0 23.1935 1.80645 25 4.03226 25H20.9677C23.1935 25 25 23.1935 25 20.9677V4.03226C25 1.80645 23.1935 0 20.9677 0ZM4.03226 21.7742C3.58871 21.7742 3.22581 21.4113 3.22581 20.9677V11.2903H7.25806V21.7742H4.03226ZM10.4839 21.7742V11.2903H14.5161V21.7742H10.4839ZM21.7742 20.9677C21.7742 21.4113 21.4113 21.7742 20.9677 21.7742H17.7419V11.2903H21.7742V20.9677ZM21.7742 8.06452H3.22581V4.03226C3.22581 3.58871 3.58871 3.22581 4.03226 3.22581H20.9677C21.4113 3.22581 21.7742 3.58871 21.7742 4.03226V8.06452Z"
      fill="#083A50" />
  </g>
  <defs>
    <clipPath id="clip0_8391_16437">
      <rect width="25" height="25" fill="white" />
    </clipPath>
  </defs>
</svg>