<svg width="31" height="29" viewBox="0 0 31 29" fill="none" xmlns="http://www.w3.org/2000/svg">
<path d="M28.3831 15.6904C27.3319 15.6904 26.5036 16.4925 26.5036 17.4432V20.5893C26.5036 22.8472 24.5286 24.7189 22.0757 24.7189H8.18682C5.76581 24.7189 3.75893 22.8769 3.75893 20.5893V7.6359C3.75893 5.37797 5.73396 3.50626 8.18682 3.50626H11.064C12.1153 3.50626 12.9435 2.7041 12.9435 1.7534C12.9435 0.80269 12.1153 0 11.064 0H8.18682C3.66336 0 0 3.4166 0 7.63537V20.559C0 24.8075 3.66336 28.2241 8.18682 28.2241H22.0439C26.5992 28.2241 30.2626 24.8075 30.2626 20.5888V17.4427C30.2626 16.4623 29.4025 15.6899 28.3831 15.6899V15.6904Z" fill="#01828C"/>
<path d="M26.6191 11.305C26.6191 12.2553 27.4528 13.004 28.4409 13.004C29.4289 13.004 30.2626 12.2265 30.2626 11.305V1.69903C30.2626 0.748727 29.4289 0 28.4409 0H18.086C17.0671 0 16.2643 0.777524 16.2643 1.69903C16.2643 2.62054 17.098 3.39807 18.086 3.39807H24.0254L10.1617 16.328C9.45149 16.9903 9.45149 18.0846 10.1617 18.747C10.8718 19.4093 12.0452 19.4093 12.7553 18.747L26.6191 5.81703V11.305Z" fill="#01828C"/>
</svg>
