<svg width="15" height="15" viewBox="0 0 15 15" fill="none" xmlns="http://www.w3.org/2000/svg">
<path d="M14.0684 8.33882C13.5473 8.33882 13.1368 8.76513 13.1368 9.2704V10.9424C13.1368 12.1424 12.1579 13.1371 10.9421 13.1371H4.05788C2.85789 13.1371 1.86315 12.1582 1.86315 10.9424V4.05818C1.86315 2.85818 2.8421 1.86344 4.05788 1.86344H5.48401C6.00506 1.86344 6.41559 1.43712 6.41559 0.931861C6.41559 0.426598 6.00506 0 5.48401 0H4.05788C1.81578 0 0 1.81579 0 4.05789V10.9263C0 13.1842 1.81578 15 4.05788 15H10.9263C13.1842 15 15 13.1842 15 10.9421V9.27011C15 8.74906 14.5736 8.33853 14.0684 8.33853V8.33882Z" fill="#FFFFFF"/>
<path d="M13.194 6.00813C13.194 6.51318 13.6072 6.9111 14.097 6.9111C14.5867 6.9111 15 6.49788 15 6.00813V0.902969C15 0.397919 14.5867 0 14.097 0H8.9645C8.45946 0 8.06154 0.413223 8.06154 0.902969C8.06154 1.39272 8.47476 1.80594 8.9645 1.80594H11.9084L5.03671 8.67769C4.6847 9.02969 4.6847 9.61126 5.03671 9.96327C5.38871 10.3153 5.97028 10.3153 6.32229 9.96327L13.194 3.09152V6.00813Z" fill="#FFFFFF"/>
</svg>
