<?xml version="1.0" encoding="utf-8"?>
<!-- Generator: Adobe Illustrator 27.2.0, SVG Export Plug-In . SVG Version: 6.00 Build 0)  -->
<svg version="1.1" id="Layer_1" xmlns="http://www.w3.org/2000/svg" xmlns:xlink="http://www.w3.org/1999/xlink" x="0px" y="0px"
	 viewBox="0 0 83 46" style="enable-background:new 0 0 83 46;" xml:space="preserve">
<style type="text/css">
	.st0{fill-rule:evenodd;clip-rule:evenodd;fill:#FFFFFF;}
</style>
<g>
	<path class="st0" d="M83,0H45v14h38V0z M56,9c1.1,0,2-0.9,2-2s-0.9-2-2-2s-2,0.9-2,2S54.9,9,56,9z M66,7c0,1.1-0.9,2-2,2
		s-2-0.9-2-2s0.9-2,2-2S66,5.9,66,7z M72,9c1.1,0,2-0.9,2-2s-0.9-2-2-2s-2,0.9-2,2S70.9,9,72,9z"/>
	<path class="st0" d="M83,16H45v14h38V16z M56,25c1.1,0,2-0.9,2-2s-0.9-2-2-2s-2,0.9-2,2S54.9,25,56,25z M66,23c0,1.1-0.9,2-2,2
		s-2-0.9-2-2s0.9-2,2-2S66,21.9,66,23z M72,25c1.1,0,2-0.9,2-2s-0.9-2-2-2s-2,0.9-2,2S70.9,25,72,25z"/>
	<path class="st0" d="M83,32H45v14h38V32z M56,41c1.1,0,2-0.9,2-2s-0.9-2-2-2s-2,0.9-2,2S54.9,41,56,41z M66,39c0,1.1-0.9,2-2,2
		s-2-0.9-2-2s0.9-2,2-2S66,37.9,66,39z M72,41c1.1,0,2-0.9,2-2s-0.9-2-2-2s-2,0.9-2,2S70.9,41,72,41z"/>
	<path class="st0" d="M25.4,9.5c1.4-5.3,6-9.3,11.6-9.5v0h0.5H43v24.5V46h-6H13v0c-0.2,0-0.3,0-0.5,0C5.6,46,0,40.3,0,33.2
		C0,27,4.3,21.8,10.1,20.7c0.6-6.5,6-11.5,12.4-11.5C23.5,9.2,24.5,9.3,25.4,9.5z"/>
</g>
</svg>
