<svg width="26" height="17" viewBox="0 0 26 17" fill="none" xmlns="http://www.w3.org/2000/svg">
<path d="M24.9205 7.39539H3.5769L8.68187 1.85798C9.06199 1.43991 9.04526 0.714906 8.64386 0.304612C8.4462 0.107236 8.18392 0 7.90263 0C7.89351 0 7.88515 0 7.87602 0C7.58561 0.00699365 7.30889 0.132102 7.11731 0.342689L0.308655 7.73653C0.0364912 8.00695 0 8.27348 0 8.49883C0 8.77625 0.157368 9.0964 0.305614 9.25726L7.12035 16.6581C7.33778 16.8858 7.61754 17 7.89807 17C8.15959 17 8.42187 16.9005 8.6355 16.7008C8.83696 16.5182 8.9586 16.2424 8.96924 15.944C8.97988 15.6362 8.87421 15.3417 8.68035 15.1389L3.5769 9.60228H24.9205C25.5157 9.60228 26 9.10728 26 8.49883C26 7.89039 25.5157 7.39539 24.9205 7.39539Z" fill="#0095A2"/>
</svg>
