<svg width="458" height="56" viewBox="0 0 458 56" fill="none" xmlns="http://www.w3.org/2000/svg">
<path d="M75.2792 27.5L60.2234 0H5.82159C2.60968 0 0 2.64815 0 5.90741V49.0926C0 52.3519 2.60968 55 5.82159 55H60.2234L75.2792 27.5Z" fill="#606061"/>
<path d="M73.7736 2.85185C72.6695 1.12037 70.7625 0 68.755 0H64.2383L79.4949 27.5L64.2383 55H68.755C70.8628 55 72.7699 53.8796 73.7736 52.1481L87.3239 27.5L73.7736 2.85185Z" fill="#BA1F40"/>
<path d="M36 15.656H32V39.14H36V15.656Z" fill="white"/>
<path d="M24 15.656V32.8776L13 15.656H9V39.14H13V21.9184L24 39.14H28V15.656H24Z" fill="white"/>
<path d="M55 15.656V25.441H44V15.656H40V39.14H44V29.355H55V39.14H59V15.656H55Z" fill="white"/>
<path d="M106.8 0.376068H109.3V10.906H106.8L101.5 4.32479V10.906H99V0.376068H101.3L106.8 7.1453V0.376068Z" fill="#BB0E3D"/>
<path d="M120.1 10.906L119.1 8.64957H114.4L113.4 10.906H110.7L115.5 0.376068H117.9L122.7 10.906H120.1ZM116.7 3.47863L115.3 6.48718H118.1L116.7 3.47863Z" fill="#BB0E3D"/>
<path d="M127.9 2.44445V10.906H125.4V2.44445H122.2V0.376068H131V2.44445H127.9Z" fill="#BB0E3D"/>
<path d="M132.9 0.376068H135.4V10.906H132.9V0.376068Z" fill="#BB0E3D"/>
<path d="M147.6 9.40171C146.5 10.4359 145.1 11 143.4 11C141.7 11 140.4 10.4359 139.2 9.40171C138.1 8.36752 137.5 7.05128 137.5 5.54701C137.5 4.04273 138.1 2.7265 139.2 1.69231C140.3 0.65812 141.7 0.094017 143.4 0.094017C145.1 0.094017 146.4 0.65812 147.6 1.69231C148.7 2.7265 149.3 4.04273 149.3 5.54701C149.3 7.1453 148.7 8.36752 147.6 9.40171ZM146.7 5.54701C146.7 4.60684 146.4 3.8547 145.7 3.10256C145.1 2.44445 144.3 2.06837 143.3 2.06837C142.3 2.06837 141.6 2.44445 140.9 3.10256C140.2 3.76068 139.9 4.60684 139.9 5.54701C139.9 6.48718 140.2 7.23932 140.9 7.89744C141.5 8.55556 142.3 8.83761 143.3 8.83761C144.3 8.83761 145 8.55556 145.7 7.89744C146.4 7.33333 146.7 6.48718 146.7 5.54701Z" fill="#BB0E3D"/>
<path d="M159.2 0.376068H161.7V10.906H159.2L153.9 4.32479V10.906H151.4V0.376068H153.7L159.2 7.1453V0.376068Z" fill="#BB0E3D"/>
<path d="M172.4 10.906L171.4 8.64957H166.7L165.7 10.906H163L167.8 0.376068H170.2L175 10.906H172.4ZM169.1 3.47863L167.7 6.48718H170.5L169.1 3.47863Z" fill="#BB0E3D"/>
<path d="M176.4 10.906V0.376068H178.9V8.83761H183.7V10.906H176.4Z" fill="#BB0E3D"/>
<path d="M194.8 8.83761C196 8.83761 197 8.36752 197.8 7.42735L199.4 8.93162C198.1 10.2479 196.6 10.906 194.9 10.906C193.2 10.906 191.8 10.4359 190.6 9.40171C189.5 8.36752 188.9 7.05128 188.9 5.54701C188.9 3.94872 189.5 2.72649 190.6 1.59829C191.7 0.564102 193.1 0 194.8 0C196.6 0 198.2 0.65812 199.4 1.97436L197.8 3.66667C197 2.7265 196 2.25641 194.9 2.25641C194 2.25641 193.2 2.53846 192.5 3.10257C191.8 3.66667 191.5 4.4188 191.5 5.45299C191.5 6.48718 191.8 7.23932 192.4 7.80342C193.2 8.55556 193.9 8.83761 194.8 8.83761Z" fill="#BB0E3D"/>
<path d="M209.3 10.906L208.3 8.64957H203.6L202.6 10.906H199.9L204.7 0.376068H207.1L211.9 10.906H209.3ZM205.9 3.47863L204.5 6.48718H207.3L205.9 3.47863Z" fill="#BB0E3D"/>
<path d="M221.1 0.376068H223.6V10.906H221.1L215.8 4.32479V10.906H213.3V0.376068H215.6L221.1 7.1453V0.376068Z" fill="#BB0E3D"/>
<path d="M231.5 8.83761C232.7 8.83761 233.7 8.36752 234.5 7.42735L236.1 8.93162C234.8 10.2479 233.3 10.906 231.6 10.906C229.9 10.906 228.5 10.4359 227.3 9.40171C226.2 8.36752 225.6 7.05128 225.6 5.54701C225.6 3.94872 226.2 2.72649 227.3 1.59829C228.4 0.564102 229.8 0 231.5 0C233.3 0 234.9 0.65812 236.1 1.97436L234.5 3.66667C233.7 2.7265 232.7 2.25641 231.6 2.25641C230.7 2.25641 229.9 2.53846 229.2 3.10257C228.5 3.66667 228.2 4.4188 228.2 5.45299C228.2 6.48718 228.5 7.23932 229.1 7.80342C229.8 8.55556 230.6 8.83761 231.5 8.83761Z" fill="#BB0E3D"/>
<path d="M246.1 0.376068V2.44445H240.5V4.60684H245.5V6.5812H240.5V8.83761H246.2V10.906H238V0.376068H246.1Z" fill="#BB0E3D"/>
<path d="M257.6 3.8547C257.6 5.54701 256.9 6.5812 255.5 7.1453L258.3 10.906H255.2L252.7 7.52137H251V10.906H248.5V0.376068H252.7C254.4 0.376068 255.7 0.658119 256.4 1.22222C257.1 1.78632 257.6 2.63248 257.6 3.8547ZM254.6 5.07692C254.9 4.79487 255.1 4.4188 255.1 3.8547C255.1 3.2906 254.9 2.91453 254.6 2.7265C254.3 2.53846 253.7 2.44445 252.9 2.44445H251V5.54701H252.8C253.7 5.54701 254.2 5.35897 254.6 5.07692Z" fill="#BB0E3D"/>
<path d="M264.4 0.376068H266.9V10.906H264.4V0.376068Z" fill="#BB0E3D"/>
<path d="M277.4 0.376068H279.9V10.906H277.4L272.1 4.32479V10.906H269.6V0.376068H271.9L277.4 7.1453V0.376068Z" fill="#BB0E3D"/>
<path d="M285.3 2.44444C285.1 2.63248 284.9 2.91453 284.9 3.19658C284.9 3.47863 285 3.76068 285.3 3.94872C285.6 4.13675 286.3 4.32479 287.3 4.60684C288.3 4.88889 289.2 5.26496 289.8 5.73504C290.4 6.20513 290.7 6.95726 290.7 7.89744C290.7 8.83761 290.3 9.58974 289.6 10.1538C288.9 10.718 287.9 11 286.6 11C284.8 11 283.2 10.3419 281.8 9.11966L283.3 7.42735C284.5 8.46154 285.6 8.93162 286.6 8.93162C287.1 8.93162 287.4 8.83761 287.7 8.64957C288 8.46154 288.1 8.17949 288.1 7.89744C288.1 7.61538 288 7.33333 287.7 7.1453C287.4 6.95727 286.9 6.76923 286.1 6.58119C284.8 6.29914 283.8 5.92308 283.2 5.45299C282.6 4.98291 282.3 4.23077 282.3 3.2906C282.3 2.35043 282.7 1.50427 283.4 0.940171C284.2 0.376068 285.1 0.094017 286.3 0.094017C287 0.094017 287.8 0.188034 288.5 0.470085C289.2 0.752136 289.9 1.03419 290.5 1.50427L289.2 3.19658C288.2 2.53846 287.2 2.16239 286.2 2.16239C285.9 2.16239 285.5 2.25641 285.3 2.44444Z" fill="#BB0E3D"/>
<path d="M297.5 2.44445V10.906H295V2.44445H291.8V0.376068H300.6V2.44445H297.5Z" fill="#BB0E3D"/>
<path d="M302.5 0.376068H305V10.906H302.5V0.376068Z" fill="#BB0E3D"/>
<path d="M312.5 2.44445V10.906H310V2.44445H306.8V0.376068H315.6V2.44445H312.5Z" fill="#BB0E3D"/>
<path d="M320.4 8.17949C320.8 8.64957 321.4 8.93162 322.1 8.93162C322.8 8.93162 323.4 8.64957 323.8 8.17949C324.2 7.7094 324.4 7.05128 324.4 6.20513V0.376068H326.9V6.29914C326.9 7.80342 326.5 9.02564 325.6 9.77778C324.7 10.6239 323.6 11 322.2 11C320.8 11 319.7 10.6239 318.8 9.77778C317.9 8.93162 317.4 7.80342 317.4 6.29914V0.376068H319.9V6.20513C319.8 7.05128 320 7.7094 320.4 8.17949Z" fill="#BB0E3D"/>
<path d="M334.2 2.44445V10.906H331.7V2.44445H328.5V0.376068H337.3V2.44445H334.2Z" fill="#BB0E3D"/>
<path d="M347.3 0.376068V2.44445H341.7V4.60684H346.7V6.5812H341.7V8.83761H347.4V10.906H339.2V0.376068H347.3Z" fill="#BB0E3D"/>
<path d="M107.778 34.252C110.34 34.252 112.461 33.328 113.847 31.627L111.663 29.611C110.676 30.766 109.437 31.354 107.967 31.354C105.216 31.354 103.263 29.422 103.263 26.65C103.263 23.878 105.216 21.946 107.967 21.946C109.437 21.946 110.676 22.534 111.663 23.668L113.847 21.652C112.461 19.972 110.34 19.048 107.799 19.048C103.221 19.048 99.819 22.219 99.819 26.65C99.819 31.081 103.221 34.252 107.778 34.252ZM122.78 22.534C121.331 22.534 120.071 22.996 119.189 23.878V18.418H115.913V34H119.189V28.414C119.189 26.335 120.323 25.369 121.898 25.369C123.347 25.369 124.187 26.209 124.187 28.036V34H127.463V27.532C127.463 24.088 125.447 22.534 122.78 22.534ZM132.071 21.127C133.289 21.127 134.108 20.329 134.108 19.237C134.108 18.229 133.289 17.473 132.071 17.473C130.853 17.473 130.034 18.271 130.034 19.3C130.034 20.329 130.853 21.127 132.071 21.127ZM130.433 34H133.709V22.702H130.433V34ZM136.749 34H140.025V18.418H136.749V34ZM151.298 18.418V23.899C150.479 22.975 149.303 22.534 147.917 22.534C144.725 22.534 142.268 24.802 142.268 28.351C142.268 31.9 144.725 34.168 147.917 34.168C149.429 34.168 150.626 33.685 151.445 32.698V34H154.574V18.418H151.298ZM148.484 31.48C146.846 31.48 145.586 30.304 145.586 28.351C145.586 26.398 146.846 25.222 148.484 25.222C150.101 25.222 151.361 26.398 151.361 28.351C151.361 30.304 150.101 31.48 148.484 31.48ZM164.473 22.534C163.024 22.534 161.764 22.996 160.882 23.878V18.418H157.606V34H160.882V28.414C160.882 26.335 162.016 25.369 163.591 25.369C165.04 25.369 165.88 26.209 165.88 28.036V34H169.156V27.532C169.156 24.088 167.14 22.534 164.473 22.534ZM177.624 34.168C181.215 34.168 183.819 31.753 183.819 28.351C183.819 24.949 181.215 22.534 177.624 22.534C174.033 22.534 171.408 24.949 171.408 28.351C171.408 31.753 174.033 34.168 177.624 34.168ZM177.624 31.48C175.986 31.48 174.726 30.304 174.726 28.351C174.726 26.398 175.986 25.222 177.624 25.222C179.262 25.222 180.501 26.398 180.501 28.351C180.501 30.304 179.262 31.48 177.624 31.48ZM191.385 34.168C194.976 34.168 197.58 31.753 197.58 28.351C197.58 24.949 194.976 22.534 191.385 22.534C187.794 22.534 185.169 24.949 185.169 28.351C185.169 31.753 187.794 34.168 191.385 34.168ZM191.385 31.48C189.747 31.48 188.487 30.304 188.487 28.351C188.487 26.398 189.747 25.222 191.385 25.222C193.023 25.222 194.262 26.398 194.262 28.351C194.262 30.304 193.023 31.48 191.385 31.48ZM208.002 18.418V23.899C207.183 22.975 206.007 22.534 204.621 22.534C201.429 22.534 198.972 24.802 198.972 28.351C198.972 31.9 201.429 34.168 204.621 34.168C206.133 34.168 207.33 33.685 208.149 32.698V34H211.278V18.418H208.002ZM205.188 31.48C203.55 31.48 202.29 30.304 202.29 28.351C202.29 26.398 203.55 25.222 205.188 25.222C206.805 25.222 208.065 26.398 208.065 28.351C208.065 30.304 206.805 31.48 205.188 31.48ZM227.523 34.252C230.085 34.252 232.206 33.328 233.592 31.627L231.408 29.611C230.421 30.766 229.182 31.354 227.712 31.354C224.961 31.354 223.008 29.422 223.008 26.65C223.008 23.878 224.961 21.946 227.712 21.946C229.182 21.946 230.421 22.534 231.408 23.668L233.592 21.652C232.206 19.972 230.085 19.048 227.544 19.048C222.966 19.048 219.564 22.219 219.564 26.65C219.564 31.081 222.966 34.252 227.523 34.252ZM240.133 22.534C238.327 22.534 236.5 23.017 235.261 23.899L236.437 26.188C237.256 25.537 238.495 25.138 239.692 25.138C241.456 25.138 242.296 25.957 242.296 27.364H239.692C236.248 27.364 234.841 28.75 234.841 30.745C234.841 32.698 236.416 34.168 239.062 34.168C240.721 34.168 241.897 33.622 242.506 32.593V34H245.572V27.553C245.572 24.13 243.577 22.534 240.133 22.534ZM239.881 31.963C238.726 31.963 238.033 31.417 238.033 30.598C238.033 29.842 238.516 29.275 240.049 29.275H242.296V30.43C241.918 31.459 240.973 31.963 239.881 31.963ZM255.404 22.534C253.871 22.534 252.548 23.059 251.666 24.025V22.702H248.537V34H251.813V28.414C251.813 26.335 252.947 25.369 254.522 25.369C255.971 25.369 256.811 26.209 256.811 28.036V34H260.087V27.532C260.087 24.088 258.071 22.534 255.404 22.534ZM268.64 34.168C271.013 34.168 272.882 33.118 273.701 31.312L271.16 29.926C270.551 31.018 269.648 31.48 268.619 31.48C266.96 31.48 265.658 30.325 265.658 28.351C265.658 26.377 266.96 25.222 268.619 25.222C269.648 25.222 270.551 25.705 271.16 26.776L273.701 25.411C272.882 23.563 271.013 22.534 268.64 22.534C264.965 22.534 262.34 24.949 262.34 28.351C262.34 31.753 264.965 34.168 268.64 34.168ZM286.511 28.393C286.511 24.76 283.949 22.534 280.631 22.534C277.187 22.534 274.604 24.97 274.604 28.351C274.604 31.711 277.145 34.168 281.051 34.168C283.088 34.168 284.663 33.538 285.713 32.341L283.97 30.451C283.193 31.186 282.332 31.543 281.135 31.543C279.413 31.543 278.216 30.682 277.901 29.275H286.448C286.469 29.002 286.511 28.645 286.511 28.393ZM280.652 25.012C282.122 25.012 283.193 25.936 283.424 27.364H277.859C278.09 25.915 279.161 25.012 280.652 25.012ZM291.821 24.193V22.702H288.692V34H291.968V28.666C291.968 26.503 293.165 25.516 294.971 25.516C295.223 25.516 295.433 25.537 295.706 25.558V22.534C293.963 22.534 292.619 23.101 291.821 24.193ZM303.914 34H310.592C315.401 34 318.698 31.102 318.698 26.65C318.698 22.198 315.401 19.3 310.592 19.3H303.914V34ZM307.316 31.207V22.093H310.424C313.343 22.093 315.254 23.836 315.254 26.65C315.254 29.464 313.343 31.207 310.424 31.207H307.316ZM325.59 22.534C323.784 22.534 321.957 23.017 320.718 23.899L321.894 26.188C322.713 25.537 323.952 25.138 325.149 25.138C326.913 25.138 327.753 25.957 327.753 27.364H325.149C321.705 27.364 320.298 28.75 320.298 30.745C320.298 32.698 321.873 34.168 324.519 34.168C326.178 34.168 327.354 33.622 327.963 32.593V34H331.029V27.553C331.029 24.13 329.034 22.534 325.59 22.534ZM325.338 31.963C324.183 31.963 323.49 31.417 323.49 30.598C323.49 29.842 323.973 29.275 325.506 29.275H327.753V30.43C327.375 31.459 326.43 31.963 325.338 31.963ZM340.398 31.144C340.041 31.417 339.558 31.564 339.075 31.564C338.193 31.564 337.668 31.039 337.668 30.073V25.474H340.482V22.954H337.668V20.203H334.392V22.954H332.649V25.474H334.392V30.115C334.392 32.803 335.946 34.168 338.613 34.168C339.621 34.168 340.608 33.937 341.28 33.454L340.398 31.144ZM347.676 22.534C345.87 22.534 344.043 23.017 342.804 23.899L343.98 26.188C344.799 25.537 346.038 25.138 347.235 25.138C348.999 25.138 349.839 25.957 349.839 27.364H347.235C343.791 27.364 342.384 28.75 342.384 30.745C342.384 32.698 343.959 34.168 346.605 34.168C348.264 34.168 349.44 33.622 350.049 32.593V34H353.115V27.553C353.115 24.13 351.12 22.534 347.676 22.534ZM347.424 31.963C346.269 31.963 345.576 31.417 345.576 30.598C345.576 29.842 346.059 29.275 347.592 29.275H349.839V30.43C349.461 31.459 348.516 31.963 347.424 31.963ZM362.259 34H365.661V19.3H362.259V34ZM375.785 22.534C374.252 22.534 372.929 23.059 372.047 24.025V22.702H368.918V34H372.194V28.414C372.194 26.335 373.328 25.369 374.903 25.369C376.352 25.369 377.192 26.209 377.192 28.036V34H380.468V27.532C380.468 24.088 378.452 22.534 375.785 22.534ZM385.076 21.127C386.294 21.127 387.113 20.329 387.113 19.237C387.113 18.229 386.294 17.473 385.076 17.473C383.858 17.473 383.039 18.271 383.039 19.3C383.039 20.329 383.858 21.127 385.076 21.127ZM383.438 34H386.714V22.702H383.438V34ZM396.159 31.144C395.802 31.417 395.319 31.564 394.836 31.564C393.954 31.564 393.429 31.039 393.429 30.073V25.474H396.243V22.954H393.429V20.203H390.153V22.954H388.41V25.474H390.153V30.115C390.153 32.803 391.707 34.168 394.374 34.168C395.382 34.168 396.369 33.937 397.041 33.454L396.159 31.144ZM400.518 21.127C401.736 21.127 402.555 20.329 402.555 19.237C402.555 18.229 401.736 17.473 400.518 17.473C399.3 17.473 398.481 18.271 398.481 19.3C398.481 20.329 399.3 21.127 400.518 21.127ZM398.88 34H402.156V22.702H398.88V34ZM409.754 22.534C407.948 22.534 406.121 23.017 404.882 23.899L406.058 26.188C406.877 25.537 408.116 25.138 409.313 25.138C411.077 25.138 411.917 25.957 411.917 27.364H409.313C405.869 27.364 404.462 28.75 404.462 30.745C404.462 32.698 406.037 34.168 408.683 34.168C410.342 34.168 411.518 33.622 412.127 32.593V34H415.193V27.553C415.193 24.13 413.198 22.534 409.754 22.534ZM409.502 31.963C408.347 31.963 407.654 31.417 407.654 30.598C407.654 29.842 408.137 29.275 409.67 29.275H411.917V30.43C411.539 31.459 410.594 31.963 409.502 31.963ZM424.563 31.144C424.206 31.417 423.723 31.564 423.24 31.564C422.358 31.564 421.833 31.039 421.833 30.073V25.474H424.647V22.954H421.833V20.203H418.557V22.954H416.814V25.474H418.557V30.115C418.557 32.803 420.111 34.168 422.778 34.168C423.786 34.168 424.773 33.937 425.445 33.454L424.563 31.144ZM428.921 21.127C430.139 21.127 430.958 20.329 430.958 19.237C430.958 18.229 430.139 17.473 428.921 17.473C427.703 17.473 426.884 18.271 426.884 19.3C426.884 20.329 427.703 21.127 428.921 21.127ZM427.283 34H430.559V22.702H427.283V34ZM441.664 22.702L438.43 30.388L435.301 22.702H431.92L436.666 34H440.047L444.814 22.702H441.664ZM456.91 28.393C456.91 24.76 454.348 22.534 451.03 22.534C447.586 22.534 445.003 24.97 445.003 28.351C445.003 31.711 447.544 34.168 451.45 34.168C453.487 34.168 455.062 33.538 456.112 32.341L454.369 30.451C453.592 31.186 452.731 31.543 451.534 31.543C449.812 31.543 448.615 30.682 448.3 29.275H456.847C456.868 29.002 456.91 28.645 456.91 28.393ZM451.051 25.012C452.521 25.012 453.592 25.936 453.823 27.364H448.258C448.489 25.915 449.56 25.012 451.051 25.012ZM110.823 40.3V46.096H104.145V40.3H100.743V55H104.145V48.973H110.823V55H114.225V40.3H110.823ZM125.578 43.702V49.288C125.578 51.367 124.486 52.333 122.974 52.333C121.525 52.333 120.685 51.493 120.685 49.603V43.702H117.409V50.086C117.409 53.572 119.404 55.168 122.239 55.168C123.625 55.168 124.885 54.643 125.746 53.656V55H128.854V43.702H125.578ZM138.567 43.534C137.16 43.534 136.005 43.975 135.165 44.899V39.418H131.889V55H135.018V53.698C135.837 54.685 137.055 55.168 138.567 55.168C141.738 55.168 144.195 52.9 144.195 49.351C144.195 45.802 141.738 43.534 138.567 43.534ZM138 52.48C136.362 52.48 135.123 51.304 135.123 49.351C135.123 47.398 136.362 46.222 138 46.222C139.638 46.222 140.877 47.398 140.877 49.351C140.877 51.304 139.638 52.48 138 52.48Z" fill="#606060"/>
<path d="M113.847 31.627L113.895 31.6665L113.933 31.6209L113.889 31.5811L113.847 31.627ZM111.663 29.611L111.705 29.5651L111.658 29.521L111.615 29.5704L111.663 29.611ZM111.663 23.668L111.616 23.709L111.658 23.7576L111.705 23.7139L111.663 23.668ZM113.847 21.652L113.889 21.6979L113.933 21.6578L113.895 21.6122L113.847 21.652ZM107.778 34.3145C110.355 34.3145 112.496 33.3844 113.895 31.6665L113.799 31.5875C112.426 33.2716 110.325 34.1895 107.778 34.1895V34.3145ZM113.889 31.5811L111.705 29.5651L111.621 29.6569L113.805 31.6729L113.889 31.5811ZM111.615 29.5704C110.64 30.7122 109.418 31.2915 107.967 31.2915V31.4165C109.456 31.4165 110.712 30.8198 111.711 29.6516L111.615 29.5704ZM107.967 31.2915C106.606 31.2915 105.447 30.814 104.627 29.9972C103.808 29.1805 103.326 28.0209 103.326 26.65H103.201C103.201 28.0511 103.694 29.2435 104.539 30.0858C105.384 30.928 106.577 31.4165 107.967 31.4165V31.2915ZM103.326 26.65C103.326 25.2791 103.808 24.1195 104.627 23.3028C105.447 22.486 106.606 22.0085 107.967 22.0085V21.8835C106.577 21.8835 105.384 22.372 104.539 23.2142C103.694 24.0565 103.201 25.2489 103.201 26.65H103.326ZM107.967 22.0085C109.418 22.0085 110.64 22.5879 111.616 23.709L111.71 23.627C110.712 22.4801 109.456 21.8835 107.967 21.8835V22.0085ZM111.705 23.7139L113.889 21.6979L113.805 21.6061L111.621 23.6221L111.705 23.7139ZM113.895 21.6122C112.495 19.9156 110.356 18.9855 107.799 18.9855V19.1105C110.324 19.1105 112.427 20.0284 113.799 21.6918L113.895 21.6122ZM107.799 18.9855C103.19 18.9855 99.7565 22.1813 99.7565 26.65H99.8815C99.8815 22.2567 103.252 19.1105 107.799 19.1105V18.9855ZM99.7565 26.65C99.7565 31.1186 103.19 34.3145 107.778 34.3145V34.1895C103.252 34.1895 99.8815 31.0434 99.8815 26.65H99.7565ZM119.189 23.878H119.127V24.0289L119.234 23.9222L119.189 23.878ZM119.189 18.418H119.252V18.3555H119.189V18.418ZM115.913 18.418V18.3555H115.851V18.418H115.913ZM115.913 34H115.851V34.0625H115.913V34ZM119.189 34V34.0625H119.252V34H119.189ZM124.187 34H124.125V34.0625H124.187V34ZM127.463 34V34.0625H127.526V34H127.463ZM122.78 22.4715C121.318 22.4715 120.041 22.9379 119.145 23.8338L119.234 23.9222C120.102 23.0541 121.345 22.5965 122.78 22.5965V22.4715ZM119.252 23.878V18.418H119.127V23.878H119.252ZM119.189 18.3555H115.913V18.4805H119.189V18.3555ZM115.851 18.418V34H115.976V18.418H115.851ZM115.913 34.0625H119.189V33.9375H115.913V34.0625ZM119.252 34V28.414H119.127V34H119.252ZM119.252 28.414C119.252 27.3856 119.532 26.6417 119.998 26.1551C120.464 25.6688 121.124 25.4315 121.898 25.4315V25.3065C121.098 25.3065 120.403 25.5522 119.908 26.0686C119.414 26.5848 119.127 27.3634 119.127 28.414H119.252ZM121.898 25.4315C122.611 25.4315 123.164 25.6376 123.54 26.059C123.917 26.4816 124.125 27.1309 124.125 28.036H124.25C124.25 27.1141 124.038 26.4299 123.633 25.9758C123.227 25.5204 122.635 25.3065 121.898 25.3065V25.4315ZM124.125 28.036V34H124.25V28.036H124.125ZM124.187 34.0625H127.463V33.9375H124.187V34.0625ZM127.526 34V27.532H127.401V34H127.526ZM127.526 27.532C127.526 25.7977 127.018 24.5304 126.166 23.6968C125.314 22.8636 124.126 22.4715 122.78 22.4715V22.5965C124.102 22.5965 125.255 22.9814 126.078 23.7862C126.901 24.5906 127.401 25.8223 127.401 27.532H127.526ZM130.433 34H130.37V34.0625H130.433V34ZM133.709 34V34.0625H133.771V34H133.709ZM133.709 22.702H133.771V22.6395H133.709V22.702ZM130.433 22.702V22.6395H130.37V22.702H130.433ZM132.071 21.1895C132.694 21.1895 133.219 20.9853 133.589 20.637C133.959 20.2885 134.17 19.7993 134.17 19.237H134.045C134.045 19.7667 133.847 20.2224 133.503 20.546C133.159 20.8697 132.666 21.0645 132.071 21.0645V21.1895ZM134.17 19.237C134.17 18.1874 133.316 17.4105 132.071 17.4105V17.5355C133.262 17.5355 134.045 18.2706 134.045 19.237H134.17ZM132.071 17.4105C130.823 17.4105 129.971 18.2316 129.971 19.3H130.096C130.096 18.3104 130.882 17.5355 132.071 17.5355V17.4105ZM129.971 19.3C129.971 20.3684 130.823 21.1895 132.071 21.1895V21.0645C130.882 21.0645 130.096 20.2896 130.096 19.3H129.971ZM130.433 34.0625H133.709V33.9375H130.433V34.0625ZM133.771 34V22.702H133.646V34H133.771ZM133.709 22.6395H130.433V22.7645H133.709V22.6395ZM130.37 22.702V34H130.495V22.702H130.37ZM136.749 34H136.687V34.0625H136.749V34ZM140.025 34V34.0625H140.088V34H140.025ZM140.025 18.418H140.088V18.3555H140.025V18.418ZM136.749 18.418V18.3555H136.687V18.418H136.749ZM136.749 34.0625H140.025V33.9375H136.749V34.0625ZM140.088 34V18.418H139.963V34H140.088ZM140.025 18.3555H136.749V18.4805H140.025V18.3555ZM136.687 18.418V34H136.812V18.418H136.687ZM151.298 18.418V18.3555H151.235V18.418H151.298ZM151.298 23.899L151.251 23.9405L151.36 24.0637V23.899H151.298ZM151.445 32.698H151.507V32.5248L151.397 32.6581L151.445 32.698ZM151.445 34H151.382V34.0625H151.445V34ZM154.574 34V34.0625H154.636V34H154.574ZM154.574 18.418H154.636V18.3555H154.574V18.418ZM151.235 18.418V23.899H151.36V18.418H151.235ZM151.344 23.8575C150.511 22.9172 149.316 22.4715 147.917 22.4715V22.5965C149.289 22.5965 150.446 23.0328 151.251 23.9405L151.344 23.8575ZM147.917 22.4715C146.306 22.4715 144.877 23.0441 143.851 24.0674C142.825 25.0909 142.205 26.5616 142.205 28.351H142.33C142.33 26.5914 142.939 25.1536 143.939 24.1559C144.94 23.1579 146.336 22.5965 147.917 22.5965V22.4715ZM142.205 28.351C142.205 30.1404 142.825 31.6111 143.851 32.6346C144.877 33.6579 146.306 34.2305 147.917 34.2305V34.1055C146.336 34.1055 144.94 33.5441 143.939 32.5461C142.939 31.5484 142.33 30.1106 142.33 28.351H142.205ZM147.917 34.2305C149.443 34.2305 150.659 33.7424 151.493 32.7379L151.397 32.6581C150.592 33.6276 149.415 34.1055 147.917 34.1055V34.2305ZM151.382 32.698V34H151.507V32.698H151.382ZM151.445 34.0625H154.574V33.9375H151.445V34.0625ZM154.636 34V18.418H154.511V34H154.636ZM154.574 18.3555H151.298V18.4805H154.574V18.3555ZM148.484 31.4175C147.68 31.4175 146.972 31.1293 146.465 30.6045C145.959 30.0796 145.648 29.3138 145.648 28.351H145.523C145.523 29.3412 145.843 30.1399 146.376 30.6913C146.908 31.2427 147.649 31.5425 148.484 31.5425V31.4175ZM145.648 28.351C145.648 27.3882 145.959 26.6224 146.465 26.0975C146.972 25.5727 147.68 25.2845 148.484 25.2845V25.1595C147.649 25.1595 146.908 25.4593 146.376 26.0107C145.843 26.5621 145.523 27.3608 145.523 28.351H145.648ZM148.484 25.2845C149.277 25.2845 149.979 25.5726 150.484 26.0974C150.988 26.6223 151.298 27.3882 151.298 28.351H151.423C151.423 27.3608 151.104 26.5622 150.574 26.0108C150.044 25.4594 149.308 25.1595 148.484 25.1595V25.2845ZM151.298 28.351C151.298 29.3138 150.988 30.0797 150.484 30.6046C149.979 31.1294 149.277 31.4175 148.484 31.4175V31.5425C149.308 31.5425 150.044 31.2426 150.574 30.6912C151.104 30.1398 151.423 29.3412 151.423 28.351H151.298ZM160.882 23.878H160.819V24.0289L160.926 23.9222L160.882 23.878ZM160.882 18.418H160.944V18.3555H160.882V18.418ZM157.606 18.418V18.3555H157.543V18.418H157.606ZM157.606 34H157.543V34.0625H157.606V34ZM160.882 34V34.0625H160.944V34H160.882ZM165.88 34H165.817V34.0625H165.88V34ZM169.156 34V34.0625H169.218V34H169.156ZM164.473 22.4715C163.011 22.4715 161.733 22.9379 160.838 23.8338L160.926 23.9222C161.794 23.0541 163.037 22.5965 164.473 22.5965V22.4715ZM160.944 23.878V18.418H160.819V23.878H160.944ZM160.882 18.3555H157.606V18.4805H160.882V18.3555ZM157.543 18.418V34H157.668V18.418H157.543ZM157.606 34.0625H160.882V33.9375H157.606V34.0625ZM160.944 34V28.414H160.819V34H160.944ZM160.944 28.414C160.944 27.3856 161.225 26.6417 161.691 26.1551C162.157 25.6688 162.816 25.4315 163.591 25.4315V25.3065C162.79 25.3065 162.095 25.5522 161.6 26.0686C161.106 26.5848 160.819 27.3634 160.819 28.414H160.944ZM163.591 25.4315C164.303 25.4315 164.856 25.6376 165.232 26.059C165.609 26.4816 165.817 27.1309 165.817 28.036H165.942C165.942 27.1141 165.73 26.4299 165.325 25.9758C164.919 25.5204 164.327 25.3065 163.591 25.3065V25.4315ZM165.817 28.036V34H165.942V28.036H165.817ZM165.88 34.0625H169.156V33.9375H165.88V34.0625ZM169.218 34V27.532H169.093V34H169.218ZM169.218 27.532C169.218 25.7977 168.71 24.5304 167.858 23.6968C167.006 22.8636 165.818 22.4715 164.473 22.4715V22.5965C165.794 22.5965 166.948 22.9814 167.771 23.7862C168.593 24.5906 169.093 25.8223 169.093 27.532H169.218ZM177.624 34.2305C181.246 34.2305 183.882 31.7914 183.882 28.351H183.757C183.757 31.7146 181.185 34.1055 177.624 34.1055V34.2305ZM183.882 28.351C183.882 24.9106 181.246 22.4715 177.624 22.4715V22.5965C181.185 22.5965 183.757 24.9874 183.757 28.351H183.882ZM177.624 22.4715C174.003 22.4715 171.346 24.9104 171.346 28.351H171.471C171.471 24.9876 174.064 22.5965 177.624 22.5965V22.4715ZM171.346 28.351C171.346 31.7916 174.003 34.2305 177.624 34.2305V34.1055C174.064 34.1055 171.471 31.7144 171.471 28.351H171.346ZM177.624 31.4175C176.821 31.4175 176.113 31.1293 175.606 30.6045C175.099 30.0796 174.789 29.3138 174.789 28.351H174.664C174.664 29.3412 174.984 30.1399 175.516 30.6913C176.049 31.2427 176.79 31.5425 177.624 31.5425V31.4175ZM174.789 28.351C174.789 27.3882 175.099 26.6224 175.606 26.0975C176.113 25.5727 176.821 25.2845 177.624 25.2845V25.1595C176.79 25.1595 176.049 25.4593 175.516 26.0107C174.984 26.5621 174.664 27.3608 174.664 28.351H174.789ZM177.624 25.2845C178.428 25.2845 179.13 25.5727 179.632 26.0973C180.134 26.622 180.439 27.3879 180.439 28.351H180.564C180.564 27.3611 180.25 26.5625 179.722 26.0109C179.195 25.4593 178.459 25.1595 177.624 25.1595V25.2845ZM180.439 28.351C180.439 29.3141 180.134 30.08 179.632 30.6047C179.13 31.1293 178.428 31.4175 177.624 31.4175V31.5425C178.459 31.5425 179.195 31.2427 179.722 30.6911C180.25 30.1395 180.564 29.3409 180.564 28.351H180.439ZM191.385 34.2305C195.007 34.2305 197.643 31.7914 197.643 28.351H197.518C197.518 31.7146 194.946 34.1055 191.385 34.1055V34.2305ZM197.643 28.351C197.643 24.9106 195.007 22.4715 191.385 22.4715V22.5965C194.946 22.5965 197.518 24.9874 197.518 28.351H197.643ZM191.385 22.4715C187.764 22.4715 185.107 24.9104 185.107 28.351H185.232C185.232 24.9876 187.824 22.5965 191.385 22.5965V22.4715ZM185.107 28.351C185.107 31.7916 187.764 34.2305 191.385 34.2305V34.1055C187.824 34.1055 185.232 31.7144 185.232 28.351H185.107ZM191.385 31.4175C190.581 31.4175 189.874 31.1293 189.367 30.6045C188.86 30.0796 188.55 29.3138 188.55 28.351H188.425C188.425 29.3412 188.744 30.1399 189.277 30.6913C189.809 31.2427 190.551 31.5425 191.385 31.5425V31.4175ZM188.55 28.351C188.55 27.3882 188.86 26.6224 189.367 26.0975C189.874 25.5727 190.581 25.2845 191.385 25.2845V25.1595C190.551 25.1595 189.809 25.4593 189.277 26.0107C188.744 26.5621 188.425 27.3608 188.425 28.351H188.55ZM191.385 25.2845C192.189 25.2845 192.891 25.5727 193.393 26.0973C193.894 26.622 194.2 27.3879 194.2 28.351H194.325C194.325 27.3611 194.01 26.5625 193.483 26.0109C192.956 25.4593 192.219 25.1595 191.385 25.1595V25.2845ZM194.2 28.351C194.2 29.3141 193.894 30.08 193.393 30.6047C192.891 31.1293 192.189 31.4175 191.385 31.4175V31.5425C192.219 31.5425 192.956 31.2427 193.483 30.6911C194.01 30.1395 194.325 29.3409 194.325 28.351H194.2ZM208.002 18.418V18.3555H207.939V18.418H208.002ZM208.002 23.899L207.955 23.9405L208.064 24.0637V23.899H208.002ZM208.149 32.698H208.211V32.5248L208.101 32.6581L208.149 32.698ZM208.149 34H208.086V34.0625H208.149V34ZM211.278 34V34.0625H211.34V34H211.278ZM211.278 18.418H211.34V18.3555H211.278V18.418ZM207.939 18.418V23.899H208.064V18.418H207.939ZM208.049 23.8575C207.215 22.9172 206.02 22.4715 204.621 22.4715V22.5965C205.993 22.5965 207.151 23.0328 207.955 23.9405L208.049 23.8575ZM204.621 22.4715C203.01 22.4715 201.581 23.0441 200.555 24.0674C199.529 25.0909 198.909 26.5616 198.909 28.351H199.034C199.034 26.5914 199.643 25.1536 200.643 24.1559C201.644 23.1579 203.04 22.5965 204.621 22.5965V22.4715ZM198.909 28.351C198.909 30.1404 199.529 31.6111 200.555 32.6346C201.581 33.6579 203.01 34.2305 204.621 34.2305V34.1055C203.04 34.1055 201.644 33.5441 200.643 32.5461C199.643 31.5484 199.034 30.1106 199.034 28.351H198.909ZM204.621 34.2305C206.147 34.2305 207.363 33.7424 208.197 32.7379L208.101 32.6581C207.296 33.6276 206.119 34.1055 204.621 34.1055V34.2305ZM208.086 32.698V34H208.211V32.698H208.086ZM208.149 34.0625H211.278V33.9375H208.149V34.0625ZM211.34 34V18.418H211.215V34H211.34ZM211.278 18.3555H208.002V18.4805H211.278V18.3555ZM205.188 31.4175C204.384 31.4175 203.676 31.1293 203.17 30.6045C202.663 30.0796 202.352 29.3138 202.352 28.351H202.227C202.227 29.3412 202.547 30.1399 203.08 30.6913C203.612 31.2427 204.353 31.5425 205.188 31.5425V31.4175ZM202.352 28.351C202.352 27.3882 202.663 26.6224 203.17 26.0975C203.676 25.5727 204.384 25.2845 205.188 25.2845V25.1595C204.353 25.1595 203.612 25.4593 203.08 26.0107C202.547 26.5621 202.227 27.3608 202.227 28.351H202.352ZM205.188 25.2845C205.981 25.2845 206.683 25.5726 207.188 26.0974C207.692 26.6223 208.002 27.3882 208.002 28.351H208.127C208.127 27.3608 207.808 26.5622 207.278 26.0108C206.748 25.4594 206.012 25.1595 205.188 25.1595V25.2845ZM208.002 28.351C208.002 29.3138 207.692 30.0797 207.188 30.6046C206.683 31.1294 205.981 31.4175 205.188 31.4175V31.5425C206.012 31.5425 206.748 31.2426 207.278 30.6912C207.808 30.1398 208.127 29.3412 208.127 28.351H208.002ZM233.592 31.627L233.641 31.6665L233.678 31.6209L233.635 31.5811L233.592 31.627ZM231.408 29.611L231.451 29.5651L231.403 29.521L231.361 29.5704L231.408 29.611ZM231.408 23.668L231.361 23.709L231.403 23.7576L231.451 23.7139L231.408 23.668ZM233.592 21.652L233.635 21.6979L233.678 21.6578L233.64 21.6122L233.592 21.652ZM227.523 34.3145C230.101 34.3145 232.241 33.3844 233.641 31.6665L233.544 31.5875C232.171 33.2716 230.07 34.1895 227.523 34.1895V34.3145ZM233.635 31.5811L231.451 29.5651L231.366 29.6569L233.55 31.6729L233.635 31.5811ZM231.361 29.5704C230.385 30.7122 229.163 31.2915 227.712 31.2915V31.4165C229.201 31.4165 230.457 30.8198 231.456 29.6516L231.361 29.5704ZM227.712 31.2915C226.352 31.2915 225.192 30.814 224.373 29.9972C223.553 29.1805 223.071 28.0209 223.071 26.65H222.946C222.946 28.0511 223.439 29.2435 224.284 30.0858C225.129 30.928 226.322 31.4165 227.712 31.4165V31.2915ZM223.071 26.65C223.071 25.2791 223.553 24.1195 224.373 23.3028C225.192 22.486 226.352 22.0085 227.712 22.0085V21.8835C226.322 21.8835 225.129 22.372 224.284 23.2142C223.439 24.0565 222.946 25.2489 222.946 26.65H223.071ZM227.712 22.0085C229.163 22.0085 230.385 22.5879 231.361 23.709L231.455 23.627C230.457 22.4801 229.201 21.8835 227.712 21.8835V22.0085ZM231.451 23.7139L233.635 21.6979L233.55 21.6061L231.366 23.6221L231.451 23.7139ZM233.64 21.6122C232.241 19.9156 230.101 18.9855 227.544 18.9855V19.1105C230.07 19.1105 232.172 20.0284 233.544 21.6918L233.64 21.6122ZM227.544 18.9855C222.935 18.9855 219.502 22.1813 219.502 26.65H219.627C219.627 22.2567 222.997 19.1105 227.544 19.1105V18.9855ZM219.502 26.65C219.502 31.1186 222.935 34.3145 227.523 34.3145V34.1895C222.997 34.1895 219.627 31.0434 219.627 26.65H219.502ZM235.261 23.899L235.225 23.8481L235.181 23.8795L235.206 23.9276L235.261 23.899ZM236.437 26.188L236.382 26.2166L236.417 26.2843L236.476 26.2369L236.437 26.188ZM242.296 27.364V27.4265H242.359V27.364H242.296ZM242.506 32.593H242.569V32.3647L242.453 32.5612L242.506 32.593ZM242.506 34H242.444V34.0625H242.506V34ZM245.572 34V34.0625H245.635V34H245.572ZM242.296 29.275H242.359V29.2125H242.296V29.275ZM242.296 30.43L242.355 30.4516L242.359 30.4411V30.43H242.296ZM240.133 22.4715C238.318 22.4715 236.477 22.9566 235.225 23.8481L235.298 23.9499C236.523 23.0774 238.337 22.5965 240.133 22.5965V22.4715ZM235.206 23.9276L236.382 26.2166L236.493 26.1594L235.317 23.8704L235.206 23.9276ZM236.476 26.2369C237.283 25.596 238.507 25.2005 239.692 25.2005V25.0755C238.484 25.0755 237.23 25.478 236.399 26.1391L236.476 26.2369ZM239.692 25.2005C240.566 25.2005 241.2 25.4033 241.615 25.7702C242.028 26.1359 242.234 26.6732 242.234 27.364H242.359C242.359 26.6478 242.145 26.0721 241.697 25.6766C241.251 25.2822 240.583 25.0755 239.692 25.0755V25.2005ZM242.296 27.3015H239.692V27.4265H242.296V27.3015ZM239.692 27.3015C237.964 27.3015 236.735 27.6492 235.938 28.2567C235.137 28.8663 234.779 29.7314 234.779 30.745H234.904C234.904 29.7636 235.249 28.9382 236.013 28.3561C236.78 27.7718 237.977 27.4265 239.692 27.4265V27.3015ZM234.779 30.745C234.779 31.7394 235.18 32.6128 235.919 33.2366C236.658 33.8598 237.728 34.2305 239.062 34.2305V34.1055C237.751 34.1055 236.711 33.7412 236 33.1411C235.29 32.5417 234.904 31.7036 234.904 30.745H234.779ZM239.062 34.2305C240.734 34.2305 241.936 33.6795 242.56 32.6248L242.453 32.5612C241.859 33.5645 240.708 34.1055 239.062 34.1055V34.2305ZM242.444 32.593V34H242.569V32.593H242.444ZM242.506 34.0625H245.572V33.9375H242.506V34.0625ZM245.635 34V27.553H245.51V34H245.635ZM245.635 27.553C245.635 25.8292 245.132 24.5552 244.186 23.7132C243.241 22.8724 241.864 22.4715 240.133 22.4715V22.5965C241.847 22.5965 243.189 22.9936 244.103 23.8066C245.015 24.6183 245.51 25.8538 245.51 27.553H245.635ZM239.881 31.9005C239.313 31.9005 238.866 31.766 238.562 31.5377C238.26 31.3106 238.096 30.9879 238.096 30.598H237.971C237.971 31.0271 238.153 31.3869 238.487 31.6376C238.818 31.887 239.295 32.0255 239.881 32.0255V31.9005ZM238.096 30.598C238.096 30.2345 238.211 29.9245 238.504 29.7028C238.801 29.4785 239.289 29.3375 240.049 29.3375V29.2125C239.277 29.2125 238.757 29.355 238.429 29.6032C238.097 29.854 237.971 30.2055 237.971 30.598H238.096ZM240.049 29.3375H242.296V29.2125H240.049V29.3375ZM242.234 29.275V30.43H242.359V29.275H242.234ZM242.238 30.4084C241.871 31.407 240.954 31.9005 239.881 31.9005V32.0255C240.993 32.0255 241.966 31.511 242.355 30.4516L242.238 30.4084ZM251.666 24.025H251.604V24.1861L251.713 24.0671L251.666 24.025ZM251.666 22.702H251.729V22.6395H251.666V22.702ZM248.537 22.702V22.6395H248.475V22.702H248.537ZM248.537 34H248.475V34.0625H248.537V34ZM251.813 34V34.0625H251.876V34H251.813ZM256.811 34H256.749V34.0625H256.811V34ZM260.087 34V34.0625H260.15V34H260.087ZM255.404 22.4715C253.857 22.4715 252.516 23.0015 251.62 23.9829L251.713 24.0671C252.581 23.1165 253.886 22.5965 255.404 22.5965V22.4715ZM251.729 24.025V22.702H251.604V24.025H251.729ZM251.666 22.6395H248.537V22.7645H251.666V22.6395ZM248.475 22.702V34H248.6V22.702H248.475ZM248.537 34.0625H251.813V33.9375H248.537V34.0625ZM251.876 34V28.414H251.751V34H251.876ZM251.876 28.414C251.876 27.3856 252.156 26.6417 252.622 26.1551C253.088 25.6688 253.748 25.4315 254.522 25.4315V25.3065C253.722 25.3065 253.027 25.5522 252.532 26.0686C252.038 26.5848 251.751 27.3634 251.751 28.414H251.876ZM254.522 25.4315C255.235 25.4315 255.788 25.6376 256.164 26.059C256.541 26.4816 256.749 27.1309 256.749 28.036H256.874C256.874 27.1141 256.662 26.4299 256.257 25.9758C255.851 25.5204 255.259 25.3065 254.522 25.3065V25.4315ZM256.749 28.036V34H256.874V28.036H256.749ZM256.811 34.0625H260.087V33.9375H256.811V34.0625ZM260.15 34V27.532H260.025V34H260.15ZM260.15 27.532C260.15 25.7977 259.642 24.5304 258.79 23.6968C257.938 22.8636 256.75 22.4715 255.404 22.4715V22.5965C256.726 22.5965 257.879 22.9814 258.702 23.7862C259.525 24.5906 260.025 25.8223 260.025 27.532H260.15ZM273.701 31.312L273.758 31.3378L273.782 31.2849L273.731 31.2571L273.701 31.312ZM271.16 29.926L271.19 29.8711L271.136 29.8415L271.105 29.8956L271.16 29.926ZM271.16 26.776L271.106 26.8069L271.136 26.8599L271.19 26.8311L271.16 26.776ZM273.701 25.411L273.731 25.4661L273.782 25.4386L273.758 25.3857L273.701 25.411ZM268.64 34.2305C271.031 34.2305 272.926 33.1713 273.758 31.3378L273.644 31.2862C272.837 33.0647 270.995 34.1055 268.64 34.1055V34.2305ZM273.731 31.2571L271.19 29.8711L271.13 29.9809L273.671 31.3669L273.731 31.2571ZM271.105 29.8956C270.507 30.9676 269.625 31.4175 268.619 31.4175V31.5425C269.67 31.5425 270.594 31.0684 271.215 29.9564L271.105 29.8956ZM268.619 31.4175C267.804 31.4175 267.081 31.1341 266.561 30.6117C266.041 30.0894 265.72 29.3238 265.72 28.351H265.595C265.595 29.3522 265.926 30.1511 266.472 30.6998C267.018 31.2484 267.775 31.5425 268.619 31.5425V31.4175ZM265.72 28.351C265.72 27.3782 266.041 26.6126 266.561 26.0903C267.081 25.5679 267.804 25.2845 268.619 25.2845V25.1595C267.775 25.1595 267.018 25.4536 266.472 26.0022C265.926 26.5509 265.595 27.3498 265.595 28.351H265.72ZM268.619 25.2845C269.625 25.2845 270.507 25.7548 271.106 26.8069L271.214 26.7451C270.595 25.6552 269.671 25.1595 268.619 25.1595V25.2845ZM271.19 26.8311L273.731 25.4661L273.671 25.3559L271.13 26.7209L271.19 26.8311ZM273.758 25.3857C272.927 23.5096 271.031 22.4715 268.64 22.4715V22.5965C270.995 22.5965 272.837 23.6164 273.644 25.4363L273.758 25.3857ZM268.64 22.4715C264.935 22.4715 262.277 24.9098 262.277 28.351H262.402C262.402 24.9882 264.995 22.5965 268.64 22.5965V22.4715ZM262.277 28.351C262.277 31.7922 264.935 34.2305 268.64 34.2305V34.1055C264.995 34.1055 262.402 31.7138 262.402 28.351H262.277ZM285.713 32.341L285.76 32.3822L285.797 32.34L285.759 32.2986L285.713 32.341ZM283.97 30.451L284.016 30.4086L283.973 30.3621L283.927 30.4056L283.97 30.451ZM277.901 29.275V29.2125H277.823L277.84 29.2887L277.901 29.275ZM286.448 29.275V29.3375H286.506L286.51 29.2798L286.448 29.275ZM283.424 27.364V27.4265H283.497L283.485 27.354L283.424 27.364ZM277.859 27.364L277.797 27.3542L277.785 27.4265H277.859V27.364ZM286.573 28.393C286.573 26.5611 285.927 25.0795 284.858 24.056C283.79 23.0329 282.304 22.4715 280.631 22.4715V22.5965C282.276 22.5965 283.729 23.1481 284.772 24.1463C285.813 25.144 286.448 26.5919 286.448 28.393H286.573ZM280.631 22.4715C277.155 22.4715 274.541 24.933 274.541 28.351H274.666C274.666 25.007 277.219 22.5965 280.631 22.5965V22.4715ZM274.541 28.351C274.541 30.0475 275.183 31.5187 276.32 32.5655C277.457 33.6119 279.084 34.2305 281.051 34.2305V34.1055C279.111 34.1055 277.515 33.4956 276.405 32.4735C275.295 31.4518 274.666 30.0145 274.666 28.351H274.541ZM281.051 34.2305C283.101 34.2305 284.695 33.596 285.76 32.3822L285.666 32.2998C284.63 33.48 283.074 34.1055 281.051 34.1055V34.2305ZM285.759 32.2986L284.016 30.4086L283.924 30.4934L285.667 32.3834L285.759 32.2986ZM283.927 30.4056C283.162 31.1293 282.316 31.4805 281.135 31.4805V31.6055C282.347 31.6055 283.224 31.2427 284.013 30.4964L283.927 30.4056ZM281.135 31.4805C279.435 31.4805 278.269 30.6337 277.962 29.2613L277.84 29.2887C278.162 30.7303 279.39 31.6055 281.135 31.6055V31.4805ZM277.901 29.3375H286.448V29.2125H277.901V29.3375ZM286.51 29.2798C286.531 29.0113 286.573 28.6481 286.573 28.393H286.448C286.448 28.6419 286.407 28.9927 286.385 29.2702L286.51 29.2798ZM280.652 25.0745C282.091 25.0745 283.136 25.9762 283.362 27.374L283.485 27.354C283.249 25.8958 282.152 24.9495 280.652 24.9495V25.0745ZM283.424 27.3015H277.859V27.4265H283.424V27.3015ZM277.92 27.3738C278.034 26.6625 278.353 26.0886 278.823 25.6924C279.293 25.2962 279.919 25.0745 280.652 25.0745V24.9495C279.893 24.9495 279.238 25.1793 278.742 25.5968C278.247 26.0144 277.915 26.6165 277.797 27.3542L277.92 27.3738ZM291.821 24.193H291.758V24.3845L291.871 24.2299L291.821 24.193ZM291.821 22.702H291.883V22.6395H291.821V22.702ZM288.692 22.702V22.6395H288.629V22.702H288.692ZM288.692 34H288.629V34.0625H288.692V34ZM291.968 34V34.0625H292.03V34H291.968ZM295.706 25.558L295.701 25.6203L295.768 25.6255V25.558H295.706ZM295.706 22.534H295.768V22.4715H295.706V22.534ZM291.883 24.193V22.702H291.758V24.193H291.883ZM291.821 22.6395H288.692V22.7645H291.821V22.6395ZM288.629 22.702V34H288.754V22.702H288.629ZM288.692 34.0625H291.968V33.9375H288.692V34.0625ZM292.03 34V28.666H291.905V34H292.03ZM292.03 28.666C292.03 27.5958 292.326 26.8265 292.836 26.3244C293.346 25.8221 294.079 25.5785 294.971 25.5785V25.4535C294.057 25.4535 293.288 25.7034 292.748 26.2353C292.208 26.7675 291.905 27.5732 291.905 28.666H292.03ZM294.971 25.5785C295.22 25.5785 295.426 25.5992 295.701 25.6203L295.71 25.4957C295.439 25.4748 295.226 25.4535 294.971 25.4535V25.5785ZM295.768 25.558V22.534H295.643V25.558H295.768ZM295.706 22.4715C293.949 22.4715 292.583 23.0433 291.77 24.1561L291.871 24.2299C292.654 23.1587 293.976 22.5965 295.706 22.5965V22.4715ZM303.914 34H303.851V34.0625H303.914V34ZM303.914 19.3V19.2375H303.851V19.3H303.914ZM307.316 31.207H307.253V31.2695H307.316V31.207ZM307.316 22.093V22.0305H307.253V22.093H307.316ZM303.914 34.0625H310.592V33.9375H303.914V34.0625ZM310.592 34.0625C313.009 34.0625 315.051 33.3342 316.49 32.041C317.93 30.7472 318.76 28.8923 318.76 26.65H318.635C318.635 28.8597 317.818 30.6798 316.406 31.948C314.995 33.2168 312.984 33.9375 310.592 33.9375V34.0625ZM318.76 26.65C318.76 24.4077 317.93 22.5528 316.49 21.259C315.051 19.9658 313.009 19.2375 310.592 19.2375V19.3625C312.984 19.3625 314.995 20.0832 316.406 21.352C317.818 22.6202 318.635 24.4403 318.635 26.65H318.76ZM310.592 19.2375H303.914V19.3625H310.592V19.2375ZM303.851 19.3V34H303.976V19.3H303.851ZM307.378 31.207V22.093H307.253V31.207H307.378ZM307.316 22.1555H310.424V22.0305H307.316V22.1555ZM310.424 22.1555C311.871 22.1555 313.062 22.5874 313.891 23.3619C314.719 24.1359 315.191 25.2577 315.191 26.65H315.316C315.316 25.2283 314.833 24.0716 313.976 23.2706C313.12 22.4701 311.896 22.0305 310.424 22.0305V22.1555ZM315.191 26.65C315.191 28.0423 314.719 29.1641 313.891 29.9381C313.062 30.7126 311.871 31.1445 310.424 31.1445V31.2695C311.896 31.2695 313.12 30.8299 313.976 30.0294C314.833 29.2284 315.316 28.0717 315.316 26.65H315.191ZM310.424 31.1445H307.316V31.2695H310.424V31.1445ZM320.718 23.899L320.681 23.8481L320.637 23.8795L320.662 23.9276L320.718 23.899ZM321.894 26.188L321.838 26.2166L321.873 26.2843L321.932 26.2369L321.894 26.188ZM327.753 27.364V27.4265H327.815V27.364H327.753ZM327.963 32.593H328.025V32.3647L327.909 32.5612L327.963 32.593ZM327.963 34H327.9V34.0625H327.963V34ZM331.029 34V34.0625H331.091V34H331.029ZM327.753 29.275H327.815V29.2125H327.753V29.275ZM327.753 30.43L327.811 30.4516L327.815 30.4411V30.43H327.753ZM325.59 22.4715C323.774 22.4715 321.934 22.9566 320.681 23.8481L320.754 23.9499C321.979 23.0774 323.793 22.5965 325.59 22.5965V22.4715ZM320.662 23.9276L321.838 26.2166L321.949 26.1594L320.773 23.8704L320.662 23.9276ZM321.932 26.2369C322.739 25.596 323.963 25.2005 325.149 25.2005V25.0755C323.94 25.0755 322.686 25.478 321.855 26.1391L321.932 26.2369ZM325.149 25.2005C326.022 25.2005 326.656 25.4033 327.071 25.7702C327.484 26.1359 327.69 26.6732 327.69 27.364H327.815C327.815 26.6478 327.601 26.0721 327.153 25.6766C326.707 25.2822 326.039 25.0755 325.149 25.0755V25.2005ZM327.753 27.3015H325.149V27.4265H327.753V27.3015ZM325.149 27.3015C323.42 27.3015 322.191 27.6492 321.394 28.2567C320.593 28.8663 320.235 29.7314 320.235 30.745H320.36C320.36 29.7636 320.705 28.9382 321.469 28.3561C322.236 27.7718 323.433 27.4265 325.149 27.4265V27.3015ZM320.235 30.745C320.235 31.7394 320.637 32.6128 321.375 33.2366C322.114 33.8598 323.184 34.2305 324.519 34.2305V34.1055C323.207 34.1055 322.167 33.7412 321.456 33.1411C320.746 32.5417 320.36 31.7036 320.36 30.745H320.235ZM324.519 34.2305C326.191 34.2305 327.392 33.6795 328.016 32.6248L327.909 32.5612C327.315 33.5645 326.164 34.1055 324.519 34.1055V34.2305ZM327.9 32.593V34H328.025V32.593H327.9ZM327.963 34.0625H331.029V33.9375H327.963V34.0625ZM331.091 34V27.553H330.966V34H331.091ZM331.091 27.553C331.091 25.8292 330.588 24.5552 329.642 23.7132C328.697 22.8724 327.32 22.4715 325.59 22.4715V22.5965C327.303 22.5965 328.645 22.9936 329.559 23.8066C330.471 24.6183 330.966 25.8538 330.966 27.553H331.091ZM325.338 31.9005C324.769 31.9005 324.322 31.766 324.018 31.5377C323.716 31.3106 323.552 30.9879 323.552 30.598H323.427C323.427 31.0271 323.609 31.3869 323.943 31.6376C324.274 31.887 324.751 32.0255 325.338 32.0255V31.9005ZM323.552 30.598C323.552 30.2345 323.667 29.9245 323.96 29.7028C324.257 29.4785 324.745 29.3375 325.506 29.3375V29.2125C324.733 29.2125 324.213 29.355 323.885 29.6032C323.553 29.854 323.427 30.2055 323.427 30.598H323.552ZM325.506 29.3375H327.753V29.2125H325.506V29.3375ZM327.69 29.275V30.43H327.815V29.275H327.69ZM327.694 30.4084C327.327 31.407 326.41 31.9005 325.338 31.9005V32.0255C326.449 32.0255 327.422 31.511 327.811 30.4516L327.694 30.4084ZM340.398 31.144L340.457 31.1217L340.427 31.0435L340.36 31.0944L340.398 31.144ZM337.668 25.474V25.4115H337.606V25.474H337.668ZM340.482 25.474V25.5365H340.545V25.474H340.482ZM340.482 22.954H340.545V22.8915H340.482V22.954ZM337.668 22.954H337.606V23.0165H337.668V22.954ZM337.668 20.203H337.731V20.1405H337.668V20.203ZM334.392 20.203V20.1405H334.33V20.203H334.392ZM334.392 22.954V23.0165H334.455V22.954H334.392ZM332.649 22.954V22.8915H332.587V22.954H332.649ZM332.649 25.474H332.587V25.5365H332.649V25.474ZM334.392 25.474H334.455V25.4115H334.392V25.474ZM341.28 33.454L341.317 33.5048L341.356 33.4767L341.339 33.4317L341.28 33.454ZM340.36 31.0944C340.016 31.3579 339.547 31.5015 339.075 31.5015V31.6265C339.57 31.6265 340.067 31.4761 340.436 31.1936L340.36 31.0944ZM339.075 31.5015C338.647 31.5015 338.313 31.3742 338.086 31.1375C337.859 30.9004 337.731 30.5451 337.731 30.073H337.606C337.606 30.5669 337.74 30.9571 337.996 31.224C338.252 31.4913 338.622 31.6265 339.075 31.6265V31.5015ZM337.731 30.073V25.474H337.606V30.073H337.731ZM337.668 25.5365H340.482V25.4115H337.668V25.5365ZM340.545 25.474V22.954H340.42V25.474H340.545ZM340.482 22.8915H337.668V23.0165H340.482V22.8915ZM337.731 22.954V20.203H337.606V22.954H337.731ZM337.668 20.1405H334.392V20.2655H337.668V20.1405ZM334.33 20.203V22.954H334.455V20.203H334.33ZM334.392 22.8915H332.649V23.0165H334.392V22.8915ZM332.587 22.954V25.474H332.712V22.954H332.587ZM332.649 25.5365H334.392V25.4115H332.649V25.5365ZM334.33 25.474V30.115H334.455V25.474H334.33ZM334.33 30.115C334.33 31.4711 334.722 32.5029 335.46 33.1951C336.197 33.8867 337.27 34.2305 338.613 34.2305V34.1055C337.29 34.1055 336.252 33.7668 335.546 33.1039C334.84 32.4416 334.455 31.4469 334.455 30.115H334.33ZM338.613 34.2305C339.629 34.2305 340.631 33.9981 341.317 33.5048L341.244 33.4032C340.586 33.8759 339.614 34.1055 338.613 34.1055V34.2305ZM341.339 33.4317L340.457 31.1217L340.34 31.1663L341.222 33.4763L341.339 33.4317ZM342.804 23.899L342.768 23.8481L342.724 23.8795L342.749 23.9276L342.804 23.899ZM343.98 26.188L343.925 26.2166L343.96 26.2843L344.019 26.2369L343.98 26.188ZM349.839 27.364V27.4265H349.902V27.364H349.839ZM350.049 32.593H350.112V32.3647L349.996 32.5612L350.049 32.593ZM350.049 34H349.987V34.0625H350.049V34ZM353.115 34V34.0625H353.178V34H353.115ZM349.839 29.275H349.902V29.2125H349.839V29.275ZM349.839 30.43L349.898 30.4516L349.902 30.4411V30.43H349.839ZM347.676 22.4715C345.861 22.4715 344.02 22.9566 342.768 23.8481L342.841 23.9499C344.066 23.0774 345.88 22.5965 347.676 22.5965V22.4715ZM342.749 23.9276L343.925 26.2166L344.036 26.1594L342.86 23.8704L342.749 23.9276ZM344.019 26.2369C344.826 25.596 346.05 25.2005 347.235 25.2005V25.0755C346.026 25.0755 344.773 25.478 343.942 26.1391L344.019 26.2369ZM347.235 25.2005C348.109 25.2005 348.743 25.4033 349.158 25.7702C349.571 26.1359 349.777 26.6732 349.777 27.364H349.902C349.902 26.6478 349.688 26.0721 349.24 25.6766C348.794 25.2822 348.126 25.0755 347.235 25.0755V25.2005ZM349.839 27.3015H347.235V27.4265H349.839V27.3015ZM347.235 27.3015C345.507 27.3015 344.278 27.6492 343.481 28.2567C342.68 28.8663 342.322 29.7314 342.322 30.745H342.447C342.447 29.7636 342.792 28.9382 343.556 28.3561C344.323 27.7718 345.52 27.4265 347.235 27.4265V27.3015ZM342.322 30.745C342.322 31.7394 342.723 32.6128 343.462 33.2366C344.201 33.8598 345.271 34.2305 346.605 34.2305V34.1055C345.294 34.1055 344.254 33.7412 343.543 33.1411C342.833 32.5417 342.447 31.7036 342.447 30.745H342.322ZM346.605 34.2305C348.277 34.2305 349.479 33.6795 350.103 32.6248L349.996 32.5612C349.402 33.5645 348.251 34.1055 346.605 34.1055V34.2305ZM349.987 32.593V34H350.112V32.593H349.987ZM350.049 34.0625H353.115V33.9375H350.049V34.0625ZM353.178 34V27.553H353.053V34H353.178ZM353.178 27.553C353.178 25.8292 352.675 24.5552 351.729 23.7132C350.784 22.8724 349.407 22.4715 347.676 22.4715V22.5965C349.39 22.5965 350.732 22.9936 351.646 23.8066C352.558 24.6183 353.053 25.8538 353.053 27.553H353.178ZM347.424 31.9005C346.856 31.9005 346.409 31.766 346.105 31.5377C345.803 31.3106 345.639 30.9879 345.639 30.598H345.514C345.514 31.0271 345.696 31.3869 346.03 31.6376C346.361 31.887 346.838 32.0255 347.424 32.0255V31.9005ZM345.639 30.598C345.639 30.2345 345.754 29.9245 346.047 29.7028C346.344 29.4785 346.832 29.3375 347.592 29.3375V29.2125C346.82 29.2125 346.3 29.355 345.972 29.6032C345.64 29.854 345.514 30.2055 345.514 30.598H345.639ZM347.592 29.3375H349.839V29.2125H347.592V29.3375ZM349.777 29.275V30.43H349.902V29.275H349.777ZM349.781 30.4084C349.414 31.407 348.497 31.9005 347.424 31.9005V32.0255C348.536 32.0255 349.509 31.511 349.898 30.4516L349.781 30.4084ZM362.259 34H362.196V34.0625H362.259V34ZM365.661 34V34.0625H365.723V34H365.661ZM365.661 19.3H365.723V19.2375H365.661V19.3ZM362.259 19.3V19.2375H362.196V19.3H362.259ZM362.259 34.0625H365.661V33.9375H362.259V34.0625ZM365.723 34V19.3H365.598V34H365.723ZM365.661 19.2375H362.259V19.3625H365.661V19.2375ZM362.196 19.3V34H362.321V19.3H362.196ZM372.047 24.025H371.985V24.1861L372.093 24.0671L372.047 24.025ZM372.047 22.702H372.11V22.6395H372.047V22.702ZM368.918 22.702V22.6395H368.856V22.702H368.918ZM368.918 34H368.856V34.0625H368.918V34ZM372.194 34V34.0625H372.257V34H372.194ZM377.192 34H377.13V34.0625H377.192V34ZM380.468 34V34.0625H380.531V34H380.468ZM375.785 22.4715C374.238 22.4715 372.897 23.0015 372.001 23.9829L372.093 24.0671C372.961 23.1165 374.266 22.5965 375.785 22.5965V22.4715ZM372.11 24.025V22.702H371.985V24.025H372.11ZM372.047 22.6395H368.918V22.7645H372.047V22.6395ZM368.856 22.702V34H368.981V22.702H368.856ZM368.918 34.0625H372.194V33.9375H368.918V34.0625ZM372.257 34V28.414H372.132V34H372.257ZM372.257 28.414C372.257 27.3856 372.537 26.6417 373.003 26.1551C373.469 25.6688 374.129 25.4315 374.903 25.4315V25.3065C374.103 25.3065 373.408 25.5522 372.913 26.0686C372.418 26.5848 372.132 27.3634 372.132 28.414H372.257ZM374.903 25.4315C375.616 25.4315 376.169 25.6376 376.544 26.059C376.922 26.4816 377.13 27.1309 377.13 28.036H377.255C377.255 27.1141 377.043 26.4299 376.638 25.9758C376.231 25.5204 375.64 25.3065 374.903 25.3065V25.4315ZM377.13 28.036V34H377.255V28.036H377.13ZM377.192 34.0625H380.468V33.9375H377.192V34.0625ZM380.531 34V27.532H380.406V34H380.531ZM380.531 27.532C380.531 25.7977 380.023 24.5304 379.171 23.6968C378.319 22.8636 377.131 22.4715 375.785 22.4715V22.5965C377.107 22.5965 378.26 22.9814 379.083 23.7862C379.906 24.5906 380.406 25.8223 380.406 27.532H380.531ZM383.438 34H383.375V34.0625H383.438V34ZM386.714 34V34.0625H386.776V34H386.714ZM386.714 22.702H386.776V22.6395H386.714V22.702ZM383.438 22.702V22.6395H383.375V22.702H383.438ZM385.076 21.1895C385.699 21.1895 386.224 20.9853 386.594 20.637C386.964 20.2885 387.175 19.7993 387.175 19.237H387.05C387.05 19.7667 386.852 20.2224 386.508 20.546C386.164 20.8697 385.671 21.0645 385.076 21.0645V21.1895ZM387.175 19.237C387.175 18.1874 386.321 17.4105 385.076 17.4105V17.5355C386.267 17.5355 387.05 18.2706 387.05 19.237H387.175ZM385.076 17.4105C383.828 17.4105 382.976 18.2316 382.976 19.3H383.101C383.101 18.3104 383.887 17.5355 385.076 17.5355V17.4105ZM382.976 19.3C382.976 20.3684 383.828 21.1895 385.076 21.1895V21.0645C383.887 21.0645 383.101 20.2896 383.101 19.3H382.976ZM383.438 34.0625H386.714V33.9375H383.438V34.0625ZM386.776 34V22.702H386.651V34H386.776ZM386.714 22.6395H383.438V22.7645H386.714V22.6395ZM383.375 22.702V34H383.5V22.702H383.375ZM396.159 31.144L396.218 31.1217L396.188 31.0435L396.121 31.0944L396.159 31.144ZM393.429 25.474V25.4115H393.367V25.474H393.429ZM396.243 25.474V25.5365H396.306V25.474H396.243ZM396.243 22.954H396.306V22.8915H396.243V22.954ZM393.429 22.954H393.367V23.0165H393.429V22.954ZM393.429 20.203H393.492V20.1405H393.429V20.203ZM390.153 20.203V20.1405H390.091V20.203H390.153ZM390.153 22.954V23.0165H390.216V22.954H390.153ZM388.41 22.954V22.8915H388.348V22.954H388.41ZM388.41 25.474H388.348V25.5365H388.41V25.474ZM390.153 25.474H390.216V25.4115H390.153V25.474ZM397.041 33.454L397.078 33.5048L397.117 33.4767L397.1 33.4317L397.041 33.454ZM396.121 31.0944C395.777 31.3579 395.307 31.5015 394.836 31.5015V31.6265C395.331 31.6265 395.828 31.4761 396.197 31.1936L396.121 31.0944ZM394.836 31.5015C394.408 31.5015 394.074 31.3742 393.847 31.1375C393.62 30.9004 393.492 30.5451 393.492 30.073H393.367C393.367 30.5669 393.501 30.9571 393.757 31.224C394.013 31.4913 394.383 31.6265 394.836 31.6265V31.5015ZM393.492 30.073V25.474H393.367V30.073H393.492ZM393.429 25.5365H396.243V25.4115H393.429V25.5365ZM396.306 25.474V22.954H396.181V25.474H396.306ZM396.243 22.8915H393.429V23.0165H396.243V22.8915ZM393.492 22.954V20.203H393.367V22.954H393.492ZM393.429 20.1405H390.153V20.2655H393.429V20.1405ZM390.091 20.203V22.954H390.216V20.203H390.091ZM390.153 22.8915H388.41V23.0165H390.153V22.8915ZM388.348 22.954V25.474H388.473V22.954H388.348ZM388.41 25.5365H390.153V25.4115H388.41V25.5365ZM390.091 25.474V30.115H390.216V25.474H390.091ZM390.091 30.115C390.091 31.4711 390.483 32.5029 391.221 33.1951C391.958 33.8867 393.031 34.2305 394.374 34.2305V34.1055C393.051 34.1055 392.013 33.7668 391.306 33.1039C390.6 32.4416 390.216 31.4469 390.216 30.115H390.091ZM394.374 34.2305C395.39 34.2305 396.391 33.9981 397.078 33.5048L397.005 33.4032C396.347 33.8759 395.375 34.1055 394.374 34.1055V34.2305ZM397.1 33.4317L396.218 31.1217L396.101 31.1663L396.983 33.4763L397.1 33.4317ZM398.88 34H398.818V34.0625H398.88V34ZM402.156 34V34.0625H402.219V34H402.156ZM402.156 22.702H402.219V22.6395H402.156V22.702ZM398.88 22.702V22.6395H398.818V22.702H398.88ZM400.518 21.1895C401.141 21.1895 401.666 20.9853 402.036 20.637C402.406 20.2885 402.618 19.7993 402.618 19.237H402.493C402.493 19.7667 402.294 20.2224 401.951 20.546C401.607 20.8697 401.113 21.0645 400.518 21.0645V21.1895ZM402.618 19.237C402.618 18.1874 401.763 17.4105 400.518 17.4105V17.5355C401.709 17.5355 402.493 18.2706 402.493 19.237H402.618ZM400.518 17.4105C399.271 17.4105 398.419 18.2316 398.419 19.3H398.544C398.544 18.3104 399.33 17.5355 400.518 17.5355V17.4105ZM398.419 19.3C398.419 20.3684 399.271 21.1895 400.518 21.1895V21.0645C399.33 21.0645 398.544 20.2896 398.544 19.3H398.419ZM398.88 34.0625H402.156V33.9375H398.88V34.0625ZM402.219 34V22.702H402.094V34H402.219ZM402.156 22.6395H398.88V22.7645H402.156V22.6395ZM398.818 22.702V34H398.943V22.702H398.818ZM404.882 23.899L404.845 23.8481L404.801 23.8795L404.826 23.9276L404.882 23.899ZM406.058 26.188L406.002 26.2166L406.037 26.2843L406.096 26.2369L406.058 26.188ZM411.917 27.364V27.4265H411.979V27.364H411.917ZM412.127 32.593H412.189V32.3647L412.073 32.5612L412.127 32.593ZM412.127 34H412.064V34.0625H412.127V34ZM415.193 34V34.0625H415.255V34H415.193ZM411.917 29.275H411.979V29.2125H411.917V29.275ZM411.917 30.43L411.975 30.4516L411.979 30.4411V30.43H411.917ZM409.754 22.4715C407.938 22.4715 406.098 22.9566 404.845 23.8481L404.918 23.9499C406.144 23.0774 407.957 22.5965 409.754 22.5965V22.4715ZM404.826 23.9276L406.002 26.2166L406.113 26.1594L404.937 23.8704L404.826 23.9276ZM406.096 26.2369C406.903 25.596 408.128 25.2005 409.313 25.2005V25.0755C408.104 25.0755 406.85 25.478 406.019 26.1391L406.096 26.2369ZM409.313 25.2005C410.186 25.2005 410.82 25.4033 411.235 25.7702C411.648 26.1359 411.854 26.6732 411.854 27.364H411.979C411.979 26.6478 411.765 26.0721 411.317 25.6766C410.871 25.2822 410.203 25.0755 409.313 25.0755V25.2005ZM411.917 27.3015H409.313V27.4265H411.917V27.3015ZM409.313 27.3015C407.584 27.3015 406.355 27.6492 405.558 28.2567C404.757 28.8663 404.399 29.7314 404.399 30.745H404.524C404.524 29.7636 404.869 28.9382 405.633 28.3561C406.4 27.7718 407.598 27.4265 409.313 27.4265V27.3015ZM404.399 30.745C404.399 31.7394 404.801 32.6128 405.539 33.2366C406.278 33.8598 407.348 34.2305 408.683 34.2305V34.1055C407.371 34.1055 406.331 33.7412 405.62 33.1411C404.91 32.5417 404.524 31.7036 404.524 30.745H404.399ZM408.683 34.2305C410.355 34.2305 411.556 33.6795 412.18 32.6248L412.073 32.5612C411.479 33.5645 410.329 34.1055 408.683 34.1055V34.2305ZM412.064 32.593V34H412.189V32.593H412.064ZM412.127 34.0625H415.193V33.9375H412.127V34.0625ZM415.255 34V27.553H415.13V34H415.255ZM415.255 27.553C415.255 25.8292 414.752 24.5552 413.806 23.7132C412.861 22.8724 411.484 22.4715 409.754 22.4715V22.5965C411.467 22.5965 412.809 22.9936 413.723 23.8066C414.635 24.6183 415.13 25.8538 415.13 27.553H415.255ZM409.502 31.9005C408.933 31.9005 408.486 31.766 408.182 31.5377C407.88 31.3106 407.716 30.9879 407.716 30.598H407.591C407.591 31.0271 407.774 31.3869 408.107 31.6376C408.438 31.887 408.915 32.0255 409.502 32.0255V31.9005ZM407.716 30.598C407.716 30.2345 407.831 29.9245 408.124 29.7028C408.421 29.4785 408.909 29.3375 409.67 29.3375V29.2125C408.897 29.2125 408.377 29.355 408.049 29.6032C407.717 29.854 407.591 30.2055 407.591 30.598H407.716ZM409.67 29.3375H411.917V29.2125H409.67V29.3375ZM411.854 29.275V30.43H411.979V29.275H411.854ZM411.858 30.4084C411.491 31.407 410.574 31.9005 409.502 31.9005V32.0255C410.613 32.0255 411.586 31.511 411.975 30.4516L411.858 30.4084ZM424.562 31.144L424.621 31.1217L424.591 31.0435L424.525 31.0944L424.562 31.144ZM421.833 25.474V25.4115H421.77V25.474H421.833ZM424.647 25.474V25.5365H424.709V25.474H424.647ZM424.647 22.954H424.709V22.8915H424.647V22.954ZM421.833 22.954H421.77V23.0165H421.833V22.954ZM421.833 20.203H421.895V20.1405H421.833V20.203ZM418.557 20.203V20.1405H418.494V20.203H418.557ZM418.557 22.954V23.0165H418.619V22.954H418.557ZM416.814 22.954V22.8915H416.751V22.954H416.814ZM416.814 25.474H416.751V25.5365H416.814V25.474ZM418.557 25.474H418.619V25.4115H418.557V25.474ZM425.445 33.454L425.481 33.5048L425.52 33.4767L425.503 33.4317L425.445 33.454ZM424.525 31.0944C424.18 31.3579 423.711 31.5015 423.24 31.5015V31.6265C423.734 31.6265 424.231 31.4761 424.6 31.1936L424.525 31.0944ZM423.24 31.5015C422.811 31.5015 422.477 31.3742 422.25 31.1375C422.023 30.9004 421.895 30.5451 421.895 30.073H421.77C421.77 30.5669 421.904 30.9571 422.16 31.224C422.416 31.4913 422.786 31.6265 423.24 31.6265V31.5015ZM421.895 30.073V25.474H421.77V30.073H421.895ZM421.833 25.5365H424.647V25.4115H421.833V25.5365ZM424.709 25.474V22.954H424.584V25.474H424.709ZM424.647 22.8915H421.833V23.0165H424.647V22.8915ZM421.895 22.954V20.203H421.77V22.954H421.895ZM421.833 20.1405H418.557V20.2655H421.833V20.1405ZM418.494 20.203V22.954H418.619V20.203H418.494ZM418.557 22.8915H416.814V23.0165H418.557V22.8915ZM416.751 22.954V25.474H416.876V22.954H416.751ZM416.814 25.5365H418.557V25.4115H416.814V25.5365ZM418.494 25.474V30.115H418.619V25.474H418.494ZM418.494 30.115C418.494 31.4711 418.886 32.5029 419.624 33.1951C420.361 33.8867 421.434 34.2305 422.777 34.2305V34.1055C421.454 34.1055 420.416 33.7668 419.71 33.1039C419.004 32.4416 418.619 31.4469 418.619 30.115H418.494ZM422.777 34.2305C423.793 34.2305 424.795 33.9981 425.481 33.5048L425.408 33.4032C424.75 33.8759 423.778 34.1055 422.777 34.1055V34.2305ZM425.503 33.4317L424.621 31.1217L424.504 31.1663L425.386 33.4763L425.503 33.4317ZM427.283 34H427.221V34.0625H427.283V34ZM430.559 34V34.0625H430.622V34H430.559ZM430.559 22.702H430.622V22.6395H430.559V22.702ZM427.283 22.702V22.6395H427.221V22.702H427.283ZM428.921 21.1895C429.544 21.1895 430.07 20.9853 430.44 20.637C430.81 20.2885 431.021 19.7993 431.021 19.237H430.896C430.896 19.7667 430.698 20.2224 430.354 20.546C430.01 20.8697 429.517 21.0645 428.921 21.0645V21.1895ZM431.021 19.237C431.021 18.1874 430.166 17.4105 428.921 17.4105V17.5355C430.113 17.5355 430.896 18.2706 430.896 19.237H431.021ZM428.921 17.4105C427.674 17.4105 426.822 18.2316 426.822 19.3H426.947C426.947 18.3104 427.733 17.5355 428.921 17.5355V17.4105ZM426.822 19.3C426.822 20.3684 427.674 21.1895 428.921 21.1895V21.0645C427.733 21.0645 426.947 20.2896 426.947 19.3H426.822ZM427.283 34.0625H430.559V33.9375H427.283V34.0625ZM430.622 34V22.702H430.497V34H430.622ZM430.559 22.6395H427.283V22.7645H430.559V22.6395ZM427.221 22.702V34H427.346V22.702H427.221ZM441.664 22.702V22.6395H441.622L441.606 22.6778L441.664 22.702ZM438.43 30.388L438.372 30.4116L438.429 30.5514L438.487 30.4122L438.43 30.388ZM435.301 22.702L435.359 22.6784L435.343 22.6395H435.301V22.702ZM431.92 22.702V22.6395H431.826L431.862 22.7262L431.92 22.702ZM436.666 34L436.608 34.0242L436.624 34.0625H436.666V34ZM440.047 34V34.0625H440.088L440.104 34.0243L440.047 34ZM444.814 22.702L444.871 22.7263L444.908 22.6395H444.814V22.702ZM441.606 22.6778L438.372 30.3638L438.487 30.4122L441.721 22.7262L441.606 22.6778ZM438.488 30.3644L435.359 22.6784L435.243 22.7256L438.372 30.4116L438.488 30.3644ZM435.301 22.6395H431.92V22.7645H435.301V22.6395ZM431.862 22.7262L436.608 34.0242L436.724 33.9758L431.978 22.6778L431.862 22.7262ZM436.666 34.0625H440.047V33.9375H436.666V34.0625ZM440.104 34.0243L444.871 22.7263L444.756 22.6777L439.989 33.9757L440.104 34.0243ZM444.814 22.6395H441.664V22.7645H444.814V22.6395ZM456.112 32.341L456.159 32.3822L456.196 32.34L456.158 32.2986L456.112 32.341ZM454.369 30.451L454.415 30.4086L454.372 30.3621L454.326 30.4056L454.369 30.451ZM448.3 29.275V29.2125H448.222L448.239 29.2887L448.3 29.275ZM456.847 29.275V29.3375H456.905L456.909 29.2798L456.847 29.275ZM453.823 27.364V27.4265H453.896L453.885 27.354L453.823 27.364ZM448.258 27.364L448.196 27.3542L448.185 27.4265H448.258V27.364ZM456.973 28.393C456.973 26.5611 456.326 25.0795 455.258 24.056C454.189 23.0329 452.703 22.4715 451.03 22.4715V22.5965C452.675 22.5965 454.129 23.1481 455.171 24.1463C456.213 25.144 456.848 26.5919 456.848 28.393H456.973ZM451.03 22.4715C447.554 22.4715 444.941 24.933 444.941 28.351H445.066C445.066 25.007 447.618 22.5965 451.03 22.5965V22.4715ZM444.941 28.351C444.941 30.0475 445.582 31.5187 446.719 32.5655C447.856 33.6119 449.484 34.2305 451.45 34.2305V34.1055C449.51 34.1055 447.914 33.4956 446.804 32.4735C445.694 31.4518 445.066 30.0145 445.066 28.351H444.941ZM451.45 34.2305C453.5 34.2305 455.094 33.596 456.159 32.3822L456.065 32.2998C455.03 33.48 453.474 34.1055 451.45 34.1055V34.2305ZM456.158 32.2986L454.415 30.4086L454.323 30.4934L456.066 32.3834L456.158 32.2986ZM454.326 30.4056C453.561 31.1293 452.716 31.4805 451.534 31.4805V31.6055C452.747 31.6055 453.623 31.2427 454.412 30.4964L454.326 30.4056ZM451.534 31.4805C449.835 31.4805 448.668 30.6337 448.361 29.2613L448.239 29.2887C448.562 30.7303 449.789 31.6055 451.534 31.6055V31.4805ZM448.3 29.3375H456.847V29.2125H448.3V29.3375ZM456.909 29.2798C456.93 29.0113 456.973 28.6481 456.973 28.393H456.848C456.848 28.6419 456.806 28.9927 456.785 29.2702L456.909 29.2798ZM451.051 25.0745C452.49 25.0745 453.535 25.9762 453.761 27.374L453.885 27.354C453.649 25.8958 452.552 24.9495 451.051 24.9495V25.0745ZM453.823 27.3015H448.258V27.4265H453.823V27.3015ZM448.32 27.3738C448.433 26.6625 448.752 26.0886 449.222 25.6924C449.693 25.2962 450.318 25.0745 451.051 25.0745V24.9495C450.293 24.9495 449.637 25.1793 449.142 25.5968C448.646 26.0144 448.314 26.6165 448.196 27.3542L448.32 27.3738ZM110.823 40.3V40.2375H110.761V40.3H110.823ZM110.823 46.096V46.1585H110.886V46.096H110.823ZM104.145 46.096H104.082V46.1585H104.145V46.096ZM104.145 40.3H104.207V40.2375H104.145V40.3ZM100.743 40.3V40.2375H100.681V40.3H100.743ZM100.743 55H100.681V55.0625H100.743V55ZM104.145 55V55.0625H104.207V55H104.145ZM104.145 48.973V48.9105H104.082V48.973H104.145ZM110.823 48.973H110.886V48.9105H110.823V48.973ZM110.823 55H110.761V55.0625H110.823V55ZM114.225 55V55.0625H114.288V55H114.225ZM114.225 40.3H114.288V40.2375H114.225V40.3ZM110.761 40.3V46.096H110.886V40.3H110.761ZM110.823 46.0335H104.145V46.1585H110.823V46.0335ZM104.207 46.096V40.3H104.082V46.096H104.207ZM104.145 40.2375H100.743V40.3625H104.145V40.2375ZM100.681 40.3V55H100.806V40.3H100.681ZM100.743 55.0625H104.145V54.9375H100.743V55.0625ZM104.207 55V48.973H104.082V55H104.207ZM104.145 49.0355H110.823V48.9105H104.145V49.0355ZM110.761 48.973V55H110.886V48.973H110.761ZM110.823 55.0625H114.225V54.9375H110.823V55.0625ZM114.288 55V40.3H114.163V55H114.288ZM114.225 40.2375H110.823V40.3625H114.225V40.2375ZM125.578 43.702V43.6395H125.515V43.702H125.578ZM120.685 43.702H120.747V43.6395H120.685V43.702ZM117.409 43.702V43.6395H117.346V43.702H117.409ZM125.746 53.656H125.808V53.4893L125.699 53.6149L125.746 53.656ZM125.746 55H125.683V55.0625H125.746V55ZM128.854 55V55.0625H128.916V55H128.854ZM128.854 43.702H128.916V43.6395H128.854V43.702ZM125.515 43.702V49.288H125.64V43.702H125.515ZM125.515 49.288C125.515 50.317 125.245 51.0613 124.797 51.5478C124.349 52.0337 123.716 52.2705 122.974 52.2705V52.3955C123.744 52.3955 124.413 52.1493 124.889 51.6325C125.365 51.1162 125.64 50.338 125.64 49.288H125.515ZM122.974 52.2705C122.262 52.2705 121.709 52.0644 121.333 51.6356C120.956 51.2051 120.747 50.54 120.747 49.603H120.622C120.622 50.556 120.834 51.2559 121.239 51.7179C121.645 52.1816 122.237 52.3955 122.974 52.3955V52.2705ZM120.747 49.603V43.702H120.622V49.603H120.747ZM120.685 43.6395H117.409V43.7645H120.685V43.6395ZM117.346 43.702V50.086H117.471V43.702H117.346ZM117.346 50.086C117.346 51.8409 117.849 53.1294 118.717 53.9789C119.585 54.8282 120.81 55.2305 122.239 55.2305V55.1055C120.833 55.1055 119.643 54.7098 118.805 53.8896C117.967 53.0696 117.471 51.8171 117.471 50.086H117.346ZM122.239 55.2305C123.641 55.2305 124.919 54.6992 125.793 53.6971L125.699 53.6149C124.851 54.5868 123.609 55.1055 122.239 55.1055V55.2305ZM125.683 53.656V55H125.808V53.656H125.683ZM125.746 55.0625H128.854V54.9375H125.746V55.0625ZM128.916 55V43.702H128.791V55H128.916ZM128.854 43.6395H125.578V43.7645H128.854V43.6395ZM135.165 44.899H135.102V45.0607L135.211 44.941L135.165 44.899ZM135.165 39.418H135.227V39.3555H135.165V39.418ZM131.889 39.418V39.3555H131.826V39.418H131.889ZM131.889 55H131.826V55.0625H131.889V55ZM135.018 55V55.0625H135.08V55H135.018ZM135.018 53.698L135.066 53.6581L134.955 53.5248V53.698H135.018ZM138.567 43.4715C137.146 43.4715 135.973 43.9174 135.119 44.857L135.211 44.941C136.037 44.0326 137.174 43.5965 138.567 43.5965V43.4715ZM135.227 44.899V39.418H135.102V44.899H135.227ZM135.165 39.3555H131.889V39.4805H135.165V39.3555ZM131.826 39.418V55H131.951V39.418H131.826ZM131.889 55.0625H135.018V54.9375H131.889V55.0625ZM135.08 55V53.698H134.955V55H135.08ZM134.97 53.7379C135.804 54.7426 137.041 55.2305 138.567 55.2305V55.1055C137.069 55.1055 135.87 54.6274 135.066 53.6581L134.97 53.7379ZM138.567 55.2305C140.168 55.2305 141.591 54.6579 142.614 53.6346C143.638 52.6111 144.257 51.1404 144.257 49.351H144.132C144.132 51.1106 143.524 52.5484 142.526 53.5462C141.528 54.5441 140.137 55.1055 138.567 55.1055V55.2305ZM144.257 49.351C144.257 47.5616 143.638 46.0909 142.614 45.0674C141.591 44.0441 140.168 43.4715 138.567 43.4715V43.5965C140.137 43.5965 141.528 44.1579 142.526 45.1558C143.524 46.1536 144.132 47.5914 144.132 49.351H144.257ZM138 52.4175C137.196 52.4175 136.494 52.1293 135.992 51.6047C135.491 51.08 135.185 50.3141 135.185 49.351H135.06C135.06 50.3409 135.375 51.1395 135.902 51.6911C136.429 52.2427 137.166 52.5425 138 52.5425V52.4175ZM135.185 49.351C135.185 48.3879 135.491 47.622 135.992 47.0973C136.494 46.5727 137.196 46.2845 138 46.2845V46.1595C137.166 46.1595 136.429 46.4593 135.902 47.0109C135.375 47.5625 135.06 48.3611 135.06 49.351H135.185ZM138 46.2845C138.804 46.2845 139.506 46.5727 140.008 47.0973C140.509 47.622 140.814 48.3879 140.814 49.351H140.939C140.939 48.3611 140.625 47.5625 140.098 47.0109C139.57 46.4593 138.834 46.1595 138 46.1595V46.2845ZM140.814 49.351C140.814 50.3141 140.509 51.08 140.008 51.6047C139.506 52.1293 138.804 52.4175 138 52.4175V52.5425C138.834 52.5425 139.57 52.2427 140.098 51.6911C140.625 51.1395 140.939 50.3409 140.939 49.351H140.814Z" fill="#606060"/>
</svg>
