<svg width="23" height="28" viewBox="0 0 23 28" fill="none" xmlns="http://www.w3.org/2000/svg">
  <g clip-path="url(#clip0_1489_25979)">
    <path fill-rule="evenodd" clip-rule="evenodd"
      d="M17.161 11.9139V5.59915C17.161 5.12665 16.8767 4.47222 16.5259 4.13794L12.9018 0.678081C12.551 0.343796 11.862 0.0725098 11.3724 0.0725098H1.89512C0.903075 0.0725098 0.0996094 0.839438 0.0996094 1.7838V20.6459C0.0996094 21.5915 0.899707 22.3572 1.89309 22.3572H6.21888C6.07004 21.8056 5.9771 21.2322 5.94679 20.6433H2.78883C2.29516 20.6433 1.89512 20.2582 1.89512 19.7838L1.91061 2.64458C1.91061 2.17015 2.31604 1.78508 2.81375 1.78508L10.4207 1.7838C10.9191 1.7838 11.3232 2.16758 11.3232 2.64008V3.92772C11.3232 4.87465 12.1267 5.64287 13.118 5.64287H14.4866C14.9849 5.64287 15.3883 6.02858 15.3877 6.50301L15.3796 11.6536C15.9918 11.6832 16.5871 11.7719 17.161 11.9127V11.9139ZM7.13751 15.9292H5.48747C4.99179 15.9292 4.58905 16.313 4.58905 16.7868C4.58905 17.2606 4.99112 17.6437 5.48747 17.6437H6.34751C6.54619 17.0407 6.81222 16.4667 7.13751 15.9292ZM10.5689 12.713C10.4106 12.5806 10.2039 12.5009 9.97691 12.5009H5.48747C4.99179 12.5009 4.58905 12.8847 4.58905 13.3578C4.58905 13.8309 4.99112 14.2154 5.48747 14.2154H8.50333C9.10947 13.6246 9.80517 13.1174 10.5689 12.7137V12.713ZM13.5693 9.92944C13.5693 9.4563 13.1672 9.07251 12.6708 9.07251H5.48747C4.99179 9.07251 4.58905 9.4563 4.58905 9.92944C4.58905 10.4026 4.99112 10.7864 5.48747 10.7864H12.6708C13.1665 10.7864 13.5693 10.4026 13.5693 9.92944ZM8.62995 6.50108C8.62995 6.02794 8.22788 5.64351 7.73219 5.64351H5.48747C4.99179 5.64351 4.58905 6.0273 4.58905 6.50108C4.58905 6.97487 4.99112 7.35801 5.48747 7.35801H7.73219C8.22788 7.35801 8.62995 6.97422 8.62995 6.50108ZM7.73219 20.2152C7.73219 16.4281 10.9487 13.3578 14.9162 13.3578C18.8837 13.3578 22.0996 16.4281 22.0996 20.2152C22.0996 24.0022 18.8837 27.0725 14.9162 27.0725C10.9487 27.0725 7.73219 24.0022 7.73219 20.2152ZM20.3041 20.2152C20.3041 17.375 17.8917 15.0723 14.9162 15.0723C11.9408 15.0723 9.52837 17.375 9.52837 20.2152C9.52837 23.0553 11.9408 25.358 14.9162 25.358C17.8917 25.358 20.3041 23.0553 20.3041 20.2152ZM14.4286 23.3928L18.4695 19.5357C18.8204 19.2007 18.8204 18.6582 18.4695 18.3232C18.1187 17.9883 17.5502 17.9883 17.1993 18.3232L13.7996 21.5799L12.1839 20.0377C11.833 19.7028 11.2646 19.7028 10.9137 20.0377C10.5628 20.3727 10.5628 20.9152 10.9137 21.2502L13.1584 23.3934C13.5093 23.7284 14.0778 23.7284 14.4286 23.3934V23.3928Z"
      fill="#10EBA9" />
  </g>
  <defs>
    <clipPath id="clip0_1489_25979">
      <rect width="22" height="27" fill="white" transform="translate(0.0996094 0.0725098)" />
    </clipPath>
  </defs>
</svg>
