<svg width="23" height="25" viewBox="0 0 23 25" fill="none" xmlns="http://www.w3.org/2000/svg">
  <path d="M12.3865 14.8239L12.6398 7.14404H10.2841L10.545 14.8239H12.3865Z" fill="#0B7F99" />
  <path
    d="M10.5603 16.3963C10.3352 16.609 10.2227 16.8774 10.2227 17.2015C10.2227 17.5155 10.3352 17.7813 10.5603 17.9991C10.7905 18.2169 11.0923 18.3257 11.4657 18.3257C11.8443 18.3257 12.1461 18.2169 12.3712 17.9991C12.5963 17.7813 12.7088 17.5155 12.7088 17.2015C12.7088 16.8774 12.5963 16.609 12.3712 16.3963C12.1461 16.1785 11.8443 16.0696 11.4657 16.0696C11.0923 16.0696 10.7905 16.1785 10.5603 16.3963Z"
    fill="#0B7F99" />
  <path fill-rule="evenodd" clip-rule="evenodd"
    d="M15.3021 21.0845C15.1922 23.0446 13.5317 24.5999 11.5004 24.5999C9.46878 24.5999 7.80815 23.0435 7.6986 21.0838H3.04308C1.63857 21.0838 0.5 19.9728 0.5 18.6018C0.5 17.2308 1.63781 16.1198 3.0393 16.1198C3.03779 16.1198 3.03855 11.1559 3.03855 11.1559C3.03855 7.65894 5.27489 4.59341 8.53874 3.40339V3.29406C8.53798 1.69629 9.86619 0.399902 11.4996 0.399902C13.1331 0.399902 14.4613 1.69555 14.4613 3.29406V3.40339C17.7251 4.59341 19.9615 7.65968 19.9615 11.1559V16.1198C21.3607 16.1198 22.5 17.2323 22.5 18.6025C22.5 19.9728 21.3607 21.0845 19.9569 21.0845H15.3021ZM9.39474 21.0838H13.6045C13.4987 22.129 12.5966 22.9452 11.4996 22.9452C10.4026 22.9452 9.50127 22.129 9.39474 21.0838ZM4.73016 11.1559C4.73016 8.1871 6.74589 5.60614 9.61913 4.79581L10.2296 4.62295V3.29406C10.2296 2.61078 10.7977 2.05529 11.4989 2.05529C12.2 2.05529 12.7681 2.61004 12.7681 3.29406V4.62295L13.3794 4.79581C16.2526 5.60614 18.2683 8.18784 18.2683 11.1559V16.1198C18.2683 17.0358 19.0246 17.7752 19.9599 17.7752C20.4261 17.7752 20.8069 18.1475 20.8069 18.6025C20.8069 19.0576 20.4261 19.4299 19.9569 19.4299H3.04157C2.57164 19.4299 2.19161 19.0583 2.19161 18.6025C2.19161 18.1468 2.57164 17.7752 3.03855 17.7752C3.97162 17.7752 4.73016 17.0336 4.73016 16.1198V11.1559Z"
    fill="#0B7F99" />
</svg>
