<svg width="29" height="29" viewBox="0 0 29 29" fill="none" xmlns="http://www.w3.org/2000/svg">
  <path fill-rule="evenodd" clip-rule="evenodd"
    d="M14.2568 5.92432H13.0473V11.9714H7V13.1809H13.0473V19.2282H14.2568V13.1809H20.3039V11.9714H14.2568V5.92432Z"
    fill="white" />
  <path
    d="M13.0473 5.92432V5.17432H12.2973V5.92432H13.0473ZM14.2568 5.92432H15.0068V5.17432H14.2568V5.92432ZM13.0473 11.9714V12.7214H13.7973V11.9714H13.0473ZM7 11.9714V11.2214H6.25V11.9714H7ZM7 13.1809H6.25V13.9309H7V13.1809ZM13.0473 13.1809H13.7973V12.4309H13.0473V13.1809ZM13.0473 19.2282H12.2973V19.9782H13.0473V19.2282ZM14.2568 19.2282V19.9782H15.0068V19.2282H14.2568ZM14.2568 13.1809V12.4309H13.5068V13.1809H14.2568ZM20.3039 13.1809V13.9309H21.0539V13.1809H20.3039ZM20.3039 11.9714H21.0539V11.2214H20.3039V11.9714ZM14.2568 11.9714H13.5068V12.7214H14.2568V11.9714ZM13.0473 6.67432H14.2568V5.17432H13.0473V6.67432ZM13.7973 11.9714V5.92432H12.2973V11.9714H13.7973ZM7 12.7214H13.0473V11.2214H7V12.7214ZM7.75 13.1809V11.9714H6.25V13.1809H7.75ZM13.0473 12.4309H7V13.9309H13.0473V12.4309ZM13.7973 19.2282V13.1809H12.2973V19.2282H13.7973ZM14.2568 18.4782H13.0473V19.9782H14.2568V18.4782ZM13.5068 13.1809V19.2282H15.0068V13.1809H13.5068ZM20.3039 12.4309H14.2568V13.9309H20.3039V12.4309ZM19.5539 11.9714V13.1809H21.0539V11.9714H19.5539ZM14.2568 12.7214H20.3039V11.2214H14.2568V12.7214ZM13.5068 5.92432V11.9714H15.0068V5.92432H13.5068Z"
    fill="#D2ECFF" />
</svg>
