<svg xmlns="http://www.w3.org/2000/svg" width="21" height="29" viewBox="0 0 21 29" fill="none">
    <g clip-path="url(#clip0_4244_7137)">
        <path
            d="M3.92503 0.188477C3.09437 0.188477 2.41016 0.868939 2.41016 1.69503C2.41016 2.34537 2.83432 2.9053 3.42007 3.11622V27.0554C3.41755 27.3216 3.6574 27.5652 3.92503 27.5652C4.19266 27.5652 4.43251 27.3216 4.42999 27.0554V13.4964H20.0837C20.273 13.4964 20.4599 13.3784 20.5407 13.2077C20.6215 13.0369 20.5937 12.8185 20.47 12.6728L17.1953 8.72564L20.47 4.77093C20.5861 4.62529 20.6114 4.41186 20.5331 4.24363C20.4523 4.0754 20.2705 3.95738 20.0837 3.95487H4.42999V3.11622C5.01574 2.90781 5.4399 2.34537 5.4399 1.69503C5.4399 0.868939 4.75569 0.188477 3.92503 0.188477ZM3.92503 1.19285C4.21033 1.19285 4.42999 1.4113 4.42999 1.69503C4.42999 1.97877 4.21033 2.19722 3.92503 2.19722C3.63973 2.19722 3.42007 1.97877 3.42007 1.69503C3.42007 1.4113 3.63973 1.19285 3.92503 1.19285ZM4.42999 4.95924H19.0182L16.1627 8.40424C16.0163 8.58252 16.0163 8.86123 16.1627 9.03951L19.0182 12.492H4.42999V4.95924Z"
            fill="white" />
        <path
            d="M3.92494 27.7533C3.7482 27.7533 3.56894 27.6755 3.43765 27.5424C3.30384 27.4068 3.22809 27.2285 3.23062 27.0528V3.24161C2.62214 2.96792 2.2207 2.36279 2.2207 1.69488C2.2207 0.760812 2.98571 0 3.92494 0C4.86416 0 5.62917 0.760812 5.62917 1.69488C5.62917 2.36279 5.22773 2.97043 4.61925 3.24161V3.7664H20.0836C20.3462 3.77142 20.5936 3.92961 20.7047 4.16312C20.8158 4.39664 20.7804 4.68791 20.6188 4.88878L17.4427 8.72548L20.6188 12.5521C20.788 12.753 20.8259 13.0493 20.7148 13.2853C20.6037 13.5239 20.3512 13.6821 20.0861 13.6846H4.61925V27.0553C4.61925 27.2285 4.54603 27.4068 4.41222 27.5424C4.27841 27.6755 4.10167 27.7533 3.92494 27.7533ZM3.92494 0.37664C3.19527 0.37664 2.59942 0.966708 2.59942 1.69488C2.59942 2.24979 2.95542 2.74947 3.4831 2.93779L3.60934 2.98299V27.0553C3.60934 27.1356 3.64468 27.2135 3.70528 27.2787C3.82899 27.4043 4.01835 27.4043 4.14207 27.2787C4.20519 27.216 4.24054 27.1356 4.23801 27.0578V13.3079H20.0811C20.1997 13.3079 20.3159 13.2326 20.3664 13.1271C20.4169 13.0217 20.3967 12.8811 20.3234 12.7932L16.9503 8.72548L20.3234 4.65024C20.3941 4.56236 20.4093 4.42677 20.3613 4.32131C20.3108 4.21585 20.1972 4.14303 20.0811 4.14052H4.24054V2.98047L4.36677 2.93528C4.89446 2.74696 5.25045 2.24728 5.25045 1.69237C5.25045 0.964197 4.6546 0.374129 3.92494 0.374129V0.37664ZM19.4196 12.6802H4.24054V4.77077H19.4196L16.309 8.52461C16.2207 8.63258 16.2207 8.81336 16.309 8.92134L19.4196 12.6802ZM4.61925 12.3036H18.6167L16.0162 9.15987C15.8142 8.9138 15.8142 8.52963 16.0162 8.28607L18.6167 5.14992H4.61925V12.3061V12.3036ZM3.92494 2.38538C3.53612 2.38538 3.23062 2.08156 3.23062 1.69488C3.23062 1.30819 3.53612 1.00437 3.92494 1.00437C4.31375 1.00437 4.61925 1.30819 4.61925 1.69488C4.61925 2.08156 4.31375 2.38538 3.92494 2.38538ZM3.92494 1.38101C3.74568 1.38101 3.60934 1.5166 3.60934 1.69488C3.60934 1.87315 3.74568 2.00874 3.92494 2.00874C4.1042 2.00874 4.24054 1.87315 4.24054 1.69488C4.24054 1.5166 4.1042 1.38101 3.92494 1.38101Z"
            fill="white" />
        <path
            d="M9.61342 27.1885H0.918044C0.639163 27.1885 0.413086 27.4133 0.413086 27.6907C0.413086 27.968 0.639163 28.1928 0.918044 28.1928H9.61342C9.8923 28.1928 10.1184 27.968 10.1184 27.6907C10.1184 27.4133 9.8923 27.1885 9.61342 27.1885Z"
            fill="white" />
        <path
            d="M9.61333 28.381H0.91795C0.534182 28.381 0.223633 28.0722 0.223633 27.6905C0.223633 27.3088 0.534182 27 0.91795 27H9.61333C9.9971 27 10.3076 27.3088 10.3076 27.6905C10.3076 28.0722 9.9971 28.381 9.61333 28.381ZM0.91795 27.3766C0.74374 27.3766 0.602351 27.5173 0.602351 27.6905C0.602351 27.8638 0.74374 28.0044 0.91795 28.0044H9.61333C9.78754 28.0044 9.92893 27.8638 9.92893 27.6905C9.92893 27.5173 9.78754 27.3766 9.61333 27.3766H0.91795Z"
            fill="white" />
    </g>
    <defs>
        <clipPath id="clip0_4244_7137">
            <rect width="20.5518" height="28.381" fill="white" transform="translate(0.223633)" />
        </clipPath>
    </defs>
</svg>