<svg width="36" height="36" viewBox="0 0 36 36" fill="none" xmlns="http://www.w3.org/2000/svg">
  <path fill-rule="evenodd" clip-rule="evenodd"
    d="M13.1307 9.19967H23.5665C24.143 9.19967 24.6099 9.69231 24.6099 10.3V12.4996H26.6972V10.3C26.6972 8.47745 25.2956 7 23.5665 7H13.1307C11.4016 7 10 8.47745 10 10.3V25.6996C10 27.5221 11.4016 28.9995 13.1307 28.9995H18.3486V26.7999H13.1307C12.5542 26.7999 12.0873 26.3072 12.0873 25.6996V10.3C12.0873 9.69231 12.5542 9.19967 13.1307 9.19967ZM14.1745 12.4996C14.1745 11.892 14.6414 11.3998 15.2179 11.3998H21.4793C22.0558 11.3998 22.5227 11.8925 22.5227 12.4996C22.5227 13.1068 22.0553 13.6 21.4793 13.6H15.2179C14.6414 13.6 14.1745 13.1073 14.1745 12.4996ZM14.1745 16.8999C14.1745 16.2923 14.6414 15.7996 15.2179 15.7996H21.4793C22.0558 15.7996 22.5227 16.2923 22.5227 16.8999C22.5227 17.5076 22.0553 17.9998 21.4793 17.9998H15.2179C14.6414 17.9998 14.1745 17.5071 14.1745 16.8999ZM15.2179 20.1999C14.6414 20.1999 14.1745 20.6925 14.1745 21.2997C14.1745 21.9069 14.6414 22.3996 15.2179 22.3996H18.3486C18.9251 22.3996 19.392 21.9069 19.392 21.2997C19.392 20.6925 18.9246 20.1999 18.3486 20.1999H15.2179ZM28.9003 14.6545C27.5246 13.8541 25.7942 14.3806 25.0348 15.8307L21.0696 23.4018C20.9837 23.5664 20.939 23.7512 20.9399 23.9388L20.9573 27.9053C20.9591 28.307 21.1684 28.6757 21.5034 28.8675C21.8384 29.0589 22.2458 29.0424 22.5665 28.8251L25.703 26.6938C25.8483 26.5953 25.9678 26.46 26.0514 26.3006L30.0166 18.7295C30.776 17.2794 30.2764 15.4555 28.9012 14.655L28.9003 14.6545ZM26.8622 16.8938C27.0644 16.5077 27.5255 16.3677 27.8918 16.5808C28.2581 16.7939 28.3909 17.2799 28.1887 17.666L24.351 24.9943L23.0357 25.8881L23.0285 24.2146L26.8622 16.8938Z"
    fill="#7CB6E0" />
</svg>
