<svg width="36" height="39" viewBox="0 0 36 39" fill="none" xmlns="http://www.w3.org/2000/svg">
  <path
    d="M29.0771 20.4231C29.0771 18.9647 28.4975 17.5655 27.4664 16.5338C26.4353 15.5021 25.0362 14.9231 23.5771 14.9231C22.1181 14.9231 20.7196 15.5027 19.6879 16.5338C18.6562 17.5649 18.0771 18.9641 18.0771 20.4231C18.0771 21.8821 18.6568 23.2807 19.6879 24.3124C20.719 25.3441 22.1181 25.9231 23.5771 25.9231C25.0362 25.9231 26.4347 25.3435 27.4664 24.3124C28.4981 23.2813 29.0771 21.8821 29.0771 20.4231ZM19.7695 20.4231C19.7695 19.4132 20.1708 18.4449 20.8846 17.7305C21.5984 17.0161 22.5672 16.6154 23.5771 16.6154C24.5871 16.6154 25.5553 17.0167 26.2697 17.7305C26.9841 18.4443 27.3848 19.4132 27.3848 20.4231C27.3848 21.433 26.9835 22.4013 26.2697 23.1157C25.5559 23.8301 24.5871 24.2308 23.5771 24.2308C22.5672 24.2308 21.599 23.8295 20.8846 23.1157C20.1702 22.4019 19.7695 21.433 19.7695 20.4231Z"
    fill="#7CB6E0" />
  <path
    d="M26.3207 20.0154C26.6229 19.6108 26.6096 18.9907 26.2899 18.6058C25.9702 18.2209 25.457 18.207 25.1234 18.5736L23.1815 20.9152L22.09 19.5961C21.9347 19.388 21.7159 19.266 21.4844 19.2587C21.2529 19.2514 21.0287 19.3595 20.8649 19.5567C20.7011 19.7546 20.6111 20.0249 20.6159 20.3046C20.6213 20.5843 20.7211 20.8495 20.8927 21.0379L22.585 23.0829C22.7427 23.275 22.9573 23.3831 23.1815 23.3845C23.407 23.3845 23.6233 23.2764 23.7823 23.0829L26.3207 20.0154Z"
    fill="#7CB6E0" />
  <path
    d="M33.4581 26.0401L32.29 26.2098C33.6888 24.1073 34.3325 21.5759 34.1114 19.0444C33.8907 16.5134 32.819 14.1377 31.0782 12.3198C29.3373 10.502 27.0341 9.35347 24.5587 9.06922C22.0832 8.78497 19.5873 9.38156 17.4935 10.759C17.2261 10.939 17.1506 11.3049 17.3245 11.5794C17.4981 11.8539 17.8564 11.9343 18.1272 11.7598C19.9944 10.5373 22.2183 10.0092 24.4231 10.2654C26.6278 10.5215 28.6782 11.5458 30.2284 13.1653C31.7786 14.7849 32.7327 16.9006 32.9308 19.155C33.129 21.4095 32.5579 23.6643 31.3147 25.5392L31.1366 24.2554C31.0915 23.9265 30.7932 23.6971 30.4708 23.7431C30.1483 23.789 29.9234 24.0933 29.9685 24.4222L30.3394 27.103C30.3802 27.3992 30.6301 27.6183 30.9234 27.6154H31.0052L33.6129 27.24C33.9354 27.1949 34.161 26.8915 34.1168 26.5626C34.0722 26.2337 33.7747 26.0035 33.4523 26.0486L33.4581 26.0396V26.0401Z"
    fill="#7CB6E0" stroke="#7CB6E0" />
  <path
    d="M28.23 28.2459C26.4546 29.4735 24.339 30.0048 22.2412 29.75C20.1434 29.4952 18.1915 28.4696 16.7164 26.8467C15.2414 25.2241 14.3331 23.1039 14.1451 20.8448C13.9574 18.5857 14.5016 16.3262 15.686 14.4484L15.8553 15.7339C15.8942 16.0305 16.1318 16.2495 16.4106 16.2469H16.4912C16.795 16.2005 17.006 15.8988 16.9631 15.5729L16.6105 12.8975C16.5677 12.5711 16.2869 12.3444 15.9831 12.3905L13.4954 12.7663C13.1888 12.8114 12.9742 13.1157 13.0166 13.445C13.0587 13.7744 13.3415 14.0049 13.6481 13.9593L14.7586 13.7893C13.4355 15.895 12.829 18.4268 13.0416 20.9573C13.2546 23.4878 14.2736 25.862 15.9271 27.6788C17.5807 29.4956 19.767 30.6439 22.1174 30.9298C24.4675 31.2157 26.8378 30.6213 28.8273 29.2476C29.0816 29.0674 29.1533 28.701 28.9879 28.4262C28.8229 28.1513 28.4822 28.0708 28.2248 28.2455H28.23V28.2459Z"
    fill="#7CB6E0" stroke="#7CB6E0" />
</svg>
