<svg width="25" height="25" viewBox="0 0 25 25" fill="none" xmlns="http://www.w3.org/2000/svg">
    <g clip-path="url(#clip0_4244_7145)">
        <path
            d="M21.6201 19.1299H2.62012C1.24012 19.1299 0.120117 18.0099 0.120117 16.6299V4.62988C0.120117 3.24988 1.25012 2.12988 2.62012 2.12988H6.18012C7.26012 2.12988 8.21012 2.81988 8.55012 3.83988L8.64012 4.09988C8.84012 4.70988 9.42012 5.12988 10.0601 5.12988H21.6201C23.0001 5.12988 24.1201 6.24988 24.1201 7.62988V16.6299C24.1201 18.0099 23.0001 19.1299 21.6201 19.1299ZM2.62012 3.12988C1.79012 3.12988 1.12012 3.79988 1.12012 4.62988V16.6299C1.12012 17.4599 1.79012 18.1299 2.62012 18.1299H21.6201C22.4501 18.1299 23.1201 17.4599 23.1201 16.6299V7.62988C23.1201 6.79988 22.4501 6.12988 21.6201 6.12988H10.0601C8.98012 6.12988 8.03012 5.43988 7.69012 4.41988L7.60012 4.14988C7.40012 3.53988 6.82012 3.11988 6.18012 3.11988H2.62012V3.12988Z"
            fill="#10EBA9" />
        <path
            d="M21.62 19.25H2.62C1.17 19.25 0 18.07 0 16.63V4.62C0 3.17 1.18 2 2.62 2H6.18C7.31 2 8.31 2.72 8.67 3.79L8.76 4.06C8.95 4.62 9.47 5 10.06 5H21.62C23.07 5 24.24 6.18 24.24 7.62V16.62C24.24 18.07 23.06 19.24 21.62 19.24V19.25ZM2.62 2.25C1.32 2.25 0.25 3.32 0.25 4.62V16.62C0.25 17.93 1.32 19 2.63 19H21.63C22.94 19 24.01 17.93 24.01 16.62V7.62C24.01 6.31 22.94 5.24 21.63 5.24H10.07C9.37 5.24 8.75 4.79 8.53 4.13L8.44 3.86C8.12 2.89 7.21 2.24 6.19 2.24H2.63L2.62 2.25ZM21.62 18.25H2.62C1.72 18.25 1 17.52 1 16.63V4.62C1 3.72 1.73 3 2.62 3H6.18C6.88 3 7.5 3.45 7.72 4.11L7.81 4.38C8.14 5.35 9.04 6 10.06 6H21.62C22.52 6 23.24 6.73 23.24 7.62V16.62C23.24 17.52 22.51 18.24 21.62 18.24V18.25ZM2.62 3.25C1.86 3.25 1.24 3.87 1.24 4.63V16.63C1.24 17.39 1.86 18.01 2.62 18.01H21.62C22.38 18.01 23 17.39 23 16.63V7.62C23 6.86 22.38 6.24 21.62 6.24H10.06C8.93 6.24 7.93 5.52 7.57 4.45L7.48 4.18C7.29 3.62 6.77 3.24 6.18 3.24H2.62V3.25Z"
            fill="#10EBA9" />
        <path
            d="M22.6201 6.12988C22.3401 6.12988 22.1201 5.90988 22.1201 5.62988V2.62988C22.1201 1.79988 21.4501 1.12988 20.6201 1.12988H3.62012C2.79012 1.12988 2.12012 1.79988 2.12012 2.62988C2.12012 2.90988 1.90012 3.12988 1.62012 3.12988C1.34012 3.12988 1.12012 2.90988 1.12012 2.62988C1.12012 1.24988 2.25012 0.129883 3.62012 0.129883H20.6201C22.0001 0.129883 23.1201 1.24988 23.1201 2.62988V5.62988C23.1201 5.90988 22.9001 6.12988 22.6201 6.12988Z"
            fill="#10EBA9" />
        <path
            d="M22.62 6.25C22.28 6.25 22 5.97 22 5.63V2.63C22 1.87 21.38 1.25 20.62 1.25H3.62C2.86 1.25 2.24 1.87 2.24 2.63C2.24 2.97 1.96 3.25 1.62 3.25C1.28 3.25 1 2.97 1 2.63C1 1.18 2.18 0 3.62 0H20.62C22.07 0 23.24 1.18 23.24 2.62V5.62C23.24 5.96 22.96 6.24 22.62 6.24V6.25ZM3.62 1H20.62C21.52 1 22.24 1.73 22.24 2.62V5.62C22.24 5.83 22.41 6 22.62 6C22.83 6 23 5.83 23 5.62V2.62C23 1.31 21.93 0.24 20.62 0.24H3.62C2.32 0.25 1.25 1.32 1.25 2.62C1.25 2.83 1.42 3 1.63 3C1.84 3 2.01 2.83 2.01 2.62C2.01 1.72 2.74 1 3.63 1H3.62Z"
            fill="#10EBA9" />
        <path
            d="M13.6201 24.1299H9.62012C9.34012 24.1299 9.12012 23.9099 9.12012 23.6299V21.6299C9.12012 21.3499 9.34012 21.1299 9.62012 21.1299H10.1201V20.6299C10.1201 20.3499 10.3401 20.1299 10.6201 20.1299H12.6201C12.9001 20.1299 13.1201 20.3499 13.1201 20.6299V21.1299H13.6201C13.9001 21.1299 14.1201 21.3499 14.1201 21.6299V23.6299C14.1201 23.9099 13.9001 24.1299 13.6201 24.1299ZM10.1201 23.1299H13.1201V22.1299H12.6201C12.3401 22.1299 12.1201 21.9099 12.1201 21.6299V21.1299H11.1201V21.6299C11.1201 21.9099 10.9001 22.1299 10.6201 22.1299H10.1201V23.1299Z"
            fill="#10EBA9" />
        <path
            d="M13.62 24.2498H9.62C9.28 24.2498 9 23.9698 9 23.6298V21.6298C9 21.2898 9.28 21.0098 9.62 21.0098H10V20.6298C10 20.2898 10.28 20.0098 10.62 20.0098H12.62C12.96 20.0098 13.24 20.2898 13.24 20.6298V21.0098H13.62C13.96 21.0098 14.24 21.2898 14.24 21.6298V23.6298C14.24 23.9698 13.96 24.2498 13.62 24.2498ZM9.62 21.2498C9.41 21.2498 9.24 21.4198 9.24 21.6298V23.6298C9.24 23.8398 9.41 24.0098 9.62 24.0098H13.62C13.83 24.0098 14 23.8398 14 23.6298V21.6298C14 21.4198 13.83 21.2498 13.62 21.2498H13V20.6298C13 20.4198 12.83 20.2498 12.62 20.2498H10.62C10.41 20.2498 10.24 20.4198 10.24 20.6298V21.2498H9.62ZM13.24 23.2498H9.99V21.9998H10.61C10.82 21.9998 10.99 21.8298 10.99 21.6198V20.9998H12.24V21.6198C12.24 21.8298 12.41 21.9998 12.62 21.9998H13.24V23.2498ZM10.24 22.9998H12.99V22.2498H12.61C12.27 22.2498 11.99 21.9698 11.99 21.6298V21.2498H11.24V21.6298C11.24 21.9698 10.96 22.2498 10.62 22.2498H10.24V22.9998Z"
            fill="#10EBA9" />
        <path
            d="M11.6201 21.1299C11.3401 21.1299 11.1201 20.9099 11.1201 20.6299V18.6299C11.1201 18.3499 11.3401 18.1299 11.6201 18.1299C11.9001 18.1299 12.1201 18.3499 12.1201 18.6299V20.6299C12.1201 20.9099 11.9001 21.1299 11.6201 21.1299Z"
            fill="#10EBA9" />
        <path
            d="M11.62 21.2498C11.28 21.2498 11 20.9698 11 20.6298V18.6298C11 18.2898 11.28 18.0098 11.62 18.0098C11.96 18.0098 12.24 18.2898 12.24 18.6298V20.6298C12.24 20.9698 11.96 21.2498 11.62 21.2498ZM11.62 18.2498C11.41 18.2498 11.24 18.4198 11.24 18.6298V20.6298C11.24 20.8398 11.41 21.0098 11.62 21.0098C11.83 21.0098 12 20.8398 12 20.6298V18.6298C12 18.4198 11.83 18.2498 11.62 18.2498Z"
            fill="#10EBA9" />
        <path
            d="M23.6201 23.1299H13.6201C13.3401 23.1299 13.1201 22.9099 13.1201 22.6299C13.1201 22.3499 13.3401 22.1299 13.6201 22.1299H23.6201C23.9001 22.1299 24.1201 22.3499 24.1201 22.6299C24.1201 22.9099 23.9001 23.1299 23.6201 23.1299Z"
            fill="#10EBA9" />
        <path
            d="M23.62 23.2498H13.62C13.28 23.2498 13 22.9698 13 22.6298C13 22.2898 13.28 22.0098 13.62 22.0098H23.62C23.96 22.0098 24.24 22.2898 24.24 22.6298C24.24 22.9698 23.96 23.2498 23.62 23.2498ZM13.62 22.2498C13.41 22.2498 13.24 22.4198 13.24 22.6298C13.24 22.8398 13.41 23.0098 13.62 23.0098H23.62C23.83 23.0098 24 22.8398 24 22.6298C24 22.4198 23.83 22.2498 23.62 22.2498H13.62Z"
            fill="#10EBA9" />
        <path
            d="M9.62012 23.1299H0.620117C0.340117 23.1299 0.120117 22.9099 0.120117 22.6299C0.120117 22.3499 0.340117 22.1299 0.620117 22.1299H9.62012C9.90012 22.1299 10.1201 22.3499 10.1201 22.6299C10.1201 22.9099 9.90012 23.1299 9.62012 23.1299Z"
            fill="#10EBA9" />
        <path
            d="M9.62 23.2498H0.62C0.28 23.2498 0 22.9698 0 22.6298C0 22.2898 0.28 22.0098 0.62 22.0098H9.62C9.96 22.0098 10.24 22.2898 10.24 22.6298C10.24 22.9698 9.96 23.2498 9.62 23.2498ZM0.62 22.2498C0.41 22.2498 0.24 22.4198 0.24 22.6298C0.24 22.8398 0.41 23.0098 0.62 23.0098H9.62C9.83 23.0098 10 22.8398 10 22.6298C10 22.4198 9.83 22.2498 9.62 22.2498H0.62Z"
            fill="#10EBA9" />
    </g>
    <defs>
        <clipPath id="clip0_4244_7145">
            <rect width="24.25" height="24.25" fill="white" />
        </clipPath>
    </defs>
</svg>
    