<svg xmlns="http://www.w3.org/2000/svg" width="36" height="36" viewBox="0 0 36 36" fill="none">
    <path
        d="M17.5 5C10.6078 5 5 10.6084 5 17.5013C5 24.3943 10.6078 30 17.5 30C24.3922 30 30 24.3916 30 17.5013C30 10.611 24.3896 5 17.5 5ZM28.8356 17.5013C28.8356 23.752 23.75 28.8407 17.5 28.8407C11.25 28.8407 6.16176 23.752 6.16176 17.5013C6.16176 11.2507 11.2474 6.16188 17.5 6.16188C23.7526 6.16188 28.8356 11.248 28.8356 17.5013Z"
        fill="white" />
    <path
        d="M8.83883 8.8389C3.96529 13.7124 3.96571 21.6434 8.83976 26.5175C13.7138 31.3915 21.643 31.3901 26.5165 26.5166C31.39 21.643 31.3896 13.712 26.5174 8.83982C21.6452 3.96762 13.7105 3.9672 8.83883 8.8389ZM25.6941 9.66316C30.114 14.083 30.1162 21.2774 25.6968 25.6968C21.2774 30.1163 14.0811 30.1159 9.66125 25.696C5.24137 21.2761 5.23914 14.0817 9.66041 9.66047C14.0817 5.23921 21.2724 5.24143 25.6941 9.66316Z"
        fill="white" />
    <path
        d="M10.9998 11.7069C10.6581 11.3651 10.6581 10.8111 10.9998 10.4694C11.3415 10.1277 11.8956 10.1277 12.2373 10.4694L24.4993 22.7319C24.841 23.0736 24.841 23.6276 24.4993 23.9693C24.1575 24.311 23.6035 24.311 23.2618 23.9693L10.9998 11.7069Z"
        fill="white" />
</svg>