<svg width="22" height="27" viewBox="0 0 22 27" fill="none" xmlns="http://www.w3.org/2000/svg">
    <g clip-path="url(#clip0_4242_7032)">
        <path
            d="M1.8002 25.789H9.5802C9.8002 25.789 9.9802 25.6048 9.9802 25.3797C9.9802 25.1545 9.8002 24.9703 9.5802 24.9703H1.8002C1.3602 24.9703 1.0002 24.6019 1.0002 24.1516V2.86537C1.0002 2.41509 1.3602 2.04667 1.8002 2.04667H4.8002V3.07005C4.8002 3.52033 5.1602 3.88875 5.6002 3.88875H13.2002C13.6402 3.88875 14.0002 3.52033 14.0002 3.07005V2.04667H17.0002C17.4402 2.04667 17.8002 2.41509 17.8002 2.86537V12.2804C17.8002 12.5056 17.9802 12.6898 18.2002 12.6898C18.4202 12.6898 18.6002 12.5056 18.6002 12.2804V2.86537C18.6002 1.9648 17.8802 1.22797 17.0002 1.22797H14.0002V1.02329C14.0002 0.573006 13.6402 0.20459 13.2002 0.20459H5.6002C5.1602 0.20459 4.8002 0.573006 4.8002 1.02329V1.22797H1.8002C0.920195 1.22797 0.200195 1.9648 0.200195 2.86537V24.1516C0.200195 25.0522 0.920195 25.789 1.8002 25.789ZM5.6002 1.02329H13.2002V1.63732V3.07005H5.6002V1.02329Z"
            fill="white" />
        <path
            d="M9.58 25.9938H1.8C0.808 25.9938 0 25.1669 0 24.1517V2.86546C0 1.85027 0.808 1.02338 1.8 1.02338H4.6C4.6 0.458473 5.048 0 5.6 0H13.2C13.752 0 14.2 0.458473 14.2 1.02338H17C17.992 1.02338 18.8 1.85027 18.8 2.86546V12.2805C18.8 12.6182 18.53 12.8946 18.2 12.8946C17.87 12.8946 17.6 12.6182 17.6 12.2805V2.86546C17.6 2.52774 17.33 2.25143 17 2.25143H14.2V3.07013C14.2 3.63504 13.752 4.09351 13.2 4.09351H5.6C5.048 4.09351 4.6 3.63504 4.6 3.07013V2.25143H1.8C1.47 2.25143 1.2 2.52774 1.2 2.86546V24.1517C1.2 24.4894 1.47 24.7657 1.8 24.7657H9.58C9.91 24.7657 10.18 25.0421 10.18 25.3798C10.18 25.7175 9.91 25.9938 9.58 25.9938ZM1.8 1.43273C1.028 1.43273 0.4 2.07541 0.4 2.86546V24.1517C0.4 24.9418 1.028 25.5844 1.8 25.5844H9.58C9.69 25.5844 9.78 25.4923 9.78 25.3798C9.78 25.2672 9.69 25.1751 9.58 25.1751H1.8C1.248 25.1751 0.8 24.7166 0.8 24.1517V2.86546C0.8 2.30055 1.248 1.84208 1.8 1.84208H5V3.07013C5 3.40785 5.27 3.68416 5.6 3.68416H13.2C13.53 3.68416 13.8 3.40785 13.8 3.07013V1.84208H17C17.552 1.84208 18 2.30055 18 2.86546V12.2805C18 12.3931 18.09 12.4852 18.2 12.4852C18.31 12.4852 18.4 12.3931 18.4 12.2805V2.86546C18.4 2.07541 17.772 1.43273 17 1.43273H13.8V1.02338C13.8 0.685663 13.53 0.409351 13.2 0.409351H5.6C5.27 0.409351 5 0.685663 5 1.02338V1.43273H1.8ZM13.4 3.27481H5.4V0.818702H13.4V3.27481ZM5.8 2.86546H13V1.22805H5.8V2.86546Z"
            fill="white" />
        <path
            d="M15.8003 8.39177C15.8003 8.16663 15.6203 7.98242 15.4003 7.98242H8.22031C8.00031 7.98242 7.82031 8.16663 7.82031 8.39177C7.82031 8.61692 8.00031 8.80112 8.22031 8.80112H15.4003C15.6203 8.80112 15.8003 8.61692 15.8003 8.39177Z"
            fill="white" />
        <path
            d="M15.4001 9.00589H8.22012C7.89012 9.00589 7.62012 8.72957 7.62012 8.39186C7.62012 8.05414 7.89012 7.77783 8.22012 7.77783H15.4001C15.7301 7.77783 16.0001 8.05414 16.0001 8.39186C16.0001 8.72957 15.7301 9.00589 15.4001 9.00589ZM8.22012 8.18718C8.11012 8.18718 8.02012 8.27929 8.02012 8.39186C8.02012 8.50443 8.11012 8.59653 8.22012 8.59653H15.4001C15.5101 8.59653 15.6001 8.50443 15.6001 8.39186C15.6001 8.27929 15.5101 8.18718 15.4001 8.18718H8.22012Z"
            fill="white" />
        <path
            d="M3.4 21.0814H7.4C7.62 21.0814 7.8 20.8972 7.8 20.672C7.8 20.4469 7.62 20.2627 7.4 20.2627H3.4C3.18 20.2627 3 20.4469 3 20.672C3 20.8972 3.18 21.0814 3.4 21.0814Z"
            fill="white" />
        <path
            d="M7.3998 21.2862H3.3998C3.0698 21.2862 2.7998 21.0098 2.7998 20.6721C2.7998 20.3344 3.0698 20.0581 3.3998 20.0581H7.3998C7.7298 20.0581 7.9998 20.3344 7.9998 20.6721C7.9998 21.0098 7.7298 21.2862 7.3998 21.2862ZM3.3998 20.4675C3.2898 20.4675 3.1998 20.5596 3.1998 20.6721C3.1998 20.7847 3.2898 20.8768 3.3998 20.8768H7.3998C7.5098 20.8768 7.5998 20.7847 7.5998 20.6721C7.5998 20.5596 7.5098 20.4675 7.3998 20.4675H3.3998Z"
            fill="white" />
        <path
            d="M3.4 10.4382H6.6C6.82 10.4382 7 10.254 7 10.0289V6.75408C7 6.52893 6.82 6.34473 6.6 6.34473H3.4C3.18 6.34473 3 6.52893 3 6.75408V10.0289C3 10.254 3.18 10.4382 3.4 10.4382ZM3.8 7.16343H6.2V9.61954H3.8V7.16343Z"
            fill="white" />
        <path
            d="M6.5998 10.643H3.3998C3.0698 10.643 2.7998 10.3667 2.7998 10.029V6.75416C2.7998 6.41645 3.0698 6.14014 3.3998 6.14014H6.5998C6.9298 6.14014 7.1998 6.41645 7.1998 6.75416V10.029C7.1998 10.3667 6.9298 10.643 6.5998 10.643ZM3.3998 6.54949C3.2898 6.54949 3.1998 6.64159 3.1998 6.75416V10.029C3.1998 10.1415 3.2898 10.2336 3.3998 10.2336H6.5998C6.7098 10.2336 6.7998 10.1415 6.7998 10.029V6.75416C6.7998 6.64159 6.7098 6.54949 6.5998 6.54949H3.3998ZM6.3998 9.8243H3.5998V6.95884H6.3998V9.8243ZM3.9998 9.41495H5.9998V7.36819H3.9998V9.41495Z"
            fill="white" />
        <path
            d="M3 16.9879C3 17.213 3.18 17.3972 3.4 17.3972H6.6C6.82 17.3972 7 17.213 7 16.9879V13.7131C7 13.4879 6.82 13.3037 6.6 13.3037H3.4C3.18 13.3037 3 13.4879 3 13.7131V16.9879ZM3.8 14.1224H6.2V16.5785H3.8V14.1224Z"
            fill="white" />
        <path
            d="M6.5998 17.602H3.3998C3.0698 17.602 2.7998 17.3257 2.7998 16.988V13.7131C2.7998 13.3754 3.0698 13.0991 3.3998 13.0991H6.5998C6.9298 13.0991 7.1998 13.3754 7.1998 13.7131V16.988C7.1998 17.3257 6.9298 17.602 6.5998 17.602ZM3.3998 13.5085C3.2898 13.5085 3.1998 13.6006 3.1998 13.7131V16.988C3.1998 17.1005 3.2898 17.1926 3.3998 17.1926H6.5998C6.7098 17.1926 6.7998 17.1005 6.7998 16.988V13.7131C6.7998 13.6006 6.7098 13.5085 6.5998 13.5085H3.3998ZM6.3998 16.7833H3.5998V13.9178H6.3998V16.7833ZM3.9998 16.3739H5.9998V14.3272H3.9998V16.3739Z"
            fill="white" />
        <path
            d="M8.60059 19.8534C8.60059 23.5785 11.5606 26.6077 15.2006 26.6077C18.8406 26.6077 21.8006 23.5785 21.8006 19.8534C21.8006 16.1283 18.8406 13.0991 15.2006 13.0991C11.5606 13.0991 8.60059 16.1283 8.60059 19.8534ZM21.0006 19.8534C21.0006 23.1282 18.4006 25.789 15.2006 25.789C12.0006 25.789 9.40059 23.1282 9.40059 19.8534C9.40059 16.5786 12.0006 13.9178 15.2006 13.9178C18.4006 13.9178 21.0006 16.5786 21.0006 19.8534Z"
            fill="white" />
        <path
            d="M15.2004 26.8125C11.4504 26.8125 8.40039 23.6912 8.40039 19.8535C8.40039 16.0158 11.4504 12.8945 15.2004 12.8945C18.9504 12.8945 22.0004 16.0158 22.0004 19.8535C22.0004 23.6912 18.9504 26.8125 15.2004 26.8125ZM15.2004 13.3039C11.6724 13.3039 8.80039 16.241 8.80039 19.8535C8.80039 23.466 11.6724 26.4031 15.2004 26.4031C18.7284 26.4031 21.6004 23.464 21.6004 19.8535C21.6004 16.243 18.7284 13.3039 15.2004 13.3039ZM15.2004 25.9938C11.8924 25.9938 9.20039 23.2388 9.20039 19.8535C9.20039 16.4682 11.8924 13.7132 15.2004 13.7132C18.5084 13.7132 21.2004 16.4682 21.2004 19.8535C21.2004 23.2388 18.5084 25.9938 15.2004 25.9938ZM15.2004 14.1226C12.1124 14.1226 9.60039 16.6933 9.60039 19.8535C9.60039 23.0137 12.1124 25.5844 15.2004 25.5844C18.2884 25.5844 20.8004 23.0137 20.8004 19.8535C20.8004 16.6933 18.2884 14.1226 15.2004 14.1226Z"
            fill="white" />
    </g>
    <path
        d="M14.2177 22.7447C14.2385 22.7654 14.2592 22.7654 14.2799 22.7862C14.3525 22.838 14.4354 22.8691 14.5183 22.8691C14.6219 22.8691 14.7256 22.8276 14.8085 22.7447L18.6746 18.8475C18.8404 18.6817 18.8301 18.4226 18.6746 18.2567C18.5088 18.1013 18.2496 18.1013 18.0838 18.2567L14.5079 21.8637L12.8392 20.195C12.6734 20.0291 12.4142 20.0291 12.2484 20.195C12.0826 20.3608 12.0826 20.6199 12.2484 20.7858L14.2074 22.7447H14.2177Z"
        fill="white" />
    <path
        d="M14.5083 22.9933C14.4046 22.9933 14.301 22.9518 14.1973 22.8896C14.1973 22.8896 14.1766 22.8793 14.1663 22.8689H14.1559L13.8657 22.6098H13.8968L12.1555 20.8685C12.0518 20.7648 12 20.6301 12 20.485C12 20.3399 12.0518 20.2051 12.1555 20.1015C12.2591 19.9978 12.3939 19.946 12.539 19.946C12.6841 19.946 12.8188 19.9978 12.9225 20.1015L14.4979 21.6769L17.9805 18.1632C18.1878 17.9456 18.5402 17.9456 18.7475 18.1632C18.9652 18.3705 18.9652 18.7229 18.7475 18.9302L14.84 22.8689C14.7467 22.9518 14.6223 22.9933 14.4979 22.9933H14.5083ZM14.301 22.6512L14.3528 22.6823C14.4254 22.7341 14.5808 22.7549 14.6741 22.6823V22.6098H14.7467L18.5817 18.754C18.6957 18.64 18.6957 18.4638 18.5817 18.3498C18.4677 18.2358 18.2915 18.2462 18.1774 18.3498L14.5083 22.0397L12.7463 20.2777C12.6944 20.2259 12.6219 20.1948 12.5493 20.1948C12.4768 20.1948 12.4042 20.2259 12.3524 20.2777C12.3006 20.3295 12.2695 20.4021 12.2695 20.4746C12.2695 20.5472 12.3006 20.6197 12.3524 20.6715L14.3114 22.6305L14.301 22.6512Z"
        fill="white" />
    <defs>
        <clipPath id="clip0_4242_7032">
            <rect width="22" height="26.8125" fill="white" />
        </clipPath>
    </defs>
</svg>
    