<svg width="26" height="25" viewBox="0 0 26 25" fill="none" xmlns="http://www.w3.org/2000/svg">
    <g clip-path="url(#clip0_4242_6990)">
        <path
            d="M1.06765 8.65059C1.06765 8.65059 1.07304 8.65598 1.07304 8.66138C1.07573 8.66946 1.08382 8.67755 1.08652 8.68564C1.0973 8.70451 1.11078 8.72338 1.12695 8.73955C1.13504 8.74764 1.14043 8.75303 1.14852 8.76112C1.16739 8.77729 1.18895 8.79077 1.21321 8.80155C1.21861 8.80155 1.2213 8.80694 1.22669 8.80964C1.22669 8.80964 1.22939 8.80964 1.23208 8.80964C1.25904 8.81773 1.28869 8.82581 1.31835 8.82581C1.31835 8.82581 1.32374 8.82581 1.32643 8.82581C1.34261 8.82581 1.35609 8.82042 1.37226 8.81773C1.38844 8.81503 1.40191 8.81503 1.41539 8.80964L3.14604 8.13302C3.28352 8.0791 3.35361 7.92275 3.29969 7.78257C3.24578 7.64509 3.08943 7.575 2.94925 7.62892L1.7901 8.0818C3.57466 3.76597 7.80422 0.911212 12.5028 0.911212C18.8944 0.911212 24.0944 6.11123 24.0944 12.5028C24.0944 12.651 24.2157 12.7723 24.364 12.7723C24.5122 12.7723 24.6335 12.651 24.6335 12.5028C24.6308 5.81201 19.1909 0.37207 12.5028 0.37207C7.60744 0.37207 3.19995 3.33465 1.31835 7.81223L0.892425 6.72316C0.838511 6.58568 0.68216 6.51559 0.541983 6.5695C0.404502 6.62342 0.334413 6.77977 0.388328 6.91995L1.06495 8.65059H1.06765Z"
            fill="white" />
        <path
            d="M24.3639 13.1416C24.0108 13.1416 23.7224 12.8531 23.7224 12.5C23.7224 9.50776 22.5551 6.69075 20.4309 4.56923C18.3094 2.4477 15.4924 1.27777 12.5001 1.28046C8.24899 1.28046 4.42108 3.65269 2.50983 7.39702L2.81174 7.27841C2.97079 7.21641 3.14601 7.21911 3.30236 7.2865C3.45871 7.35389 3.58002 7.48059 3.64202 7.63964C3.70402 7.79869 3.70133 7.97121 3.63124 8.12756C3.56115 8.28391 3.43715 8.40522 3.2781 8.46722L1.54746 9.14384C1.49354 9.16541 1.45041 9.1708 1.42885 9.1735C1.41806 9.17619 1.40458 9.17889 1.39111 9.18158L1.31293 9.18967C1.26171 9.18967 1.21049 9.18428 1.15928 9.1708L1.05145 9.13845L1.02719 9.12228C0.98675 9.10341 0.946314 9.07645 0.908574 9.0441C0.8924 9.03062 0.87353 9.01445 0.857356 8.99828C0.819616 8.96054 0.787267 8.91471 0.76031 8.86619C0.757614 8.86079 0.752223 8.85271 0.746832 8.84462L0.717179 8.78531L0.0432518 7.05467C-0.0861422 6.72579 0.0782959 6.35379 0.407172 6.22439C0.566219 6.16239 0.738745 6.16509 0.897791 6.23248C1.05414 6.29987 1.17545 6.42657 1.23745 6.58562L1.34797 6.86327C3.46411 2.66875 7.75298 0 12.5028 0C19.3957 0 25.0028 5.60707 25.0028 12.5C25.0028 12.8531 24.7144 13.1416 24.3612 13.1416H24.3639Z"
            fill="white" />
        <path
            d="M24.6149 18.0831L23.9382 16.3524C23.9382 16.3524 23.9355 16.347 23.9328 16.3444C23.9248 16.3282 23.914 16.3147 23.9032 16.2985C23.8924 16.285 23.8843 16.2716 23.8735 16.2581C23.8627 16.2473 23.8466 16.2392 23.8304 16.2284C23.8169 16.2204 23.8061 16.2096 23.7927 16.2015C23.79 16.2015 23.7873 16.2015 23.7819 16.2015C23.7792 16.2015 23.7765 16.1988 23.7738 16.1961C23.7603 16.1907 23.7468 16.1934 23.7334 16.1907C23.7145 16.188 23.6956 16.1826 23.6767 16.1826C23.6579 16.1826 23.6417 16.188 23.6228 16.1907C23.6094 16.1934 23.5959 16.1907 23.5824 16.1988L21.8518 16.8754C21.7143 16.9293 21.6442 17.0857 21.6981 17.2259C21.752 17.3633 21.9084 17.4334 22.0485 17.3795L23.2077 16.9266C21.4231 21.2371 17.1936 24.0945 12.4949 24.0945C6.10342 24.0945 0.903399 18.8945 0.903399 12.503C0.903399 12.3547 0.782093 12.2334 0.633829 12.2334C0.485565 12.2334 0.364258 12.3547 0.364258 12.503C0.364258 19.191 5.80689 24.6337 12.4949 24.6337C17.3904 24.6337 21.7978 21.6711 23.6794 17.1935L24.1054 18.2826C24.1458 18.3877 24.2482 18.4551 24.3561 18.4551C24.3884 18.4551 24.4235 18.4497 24.4531 18.4362C24.5933 18.3823 24.6607 18.226 24.6068 18.0858L24.6149 18.0831Z"
            fill="white" />
        <path
            d="M12.5 25.0002C5.60707 25.0002 0 19.3931 0 12.5002C0 12.1471 0.288441 11.8613 0.641579 11.8613C0.994716 11.8613 1.28316 12.1498 1.28316 12.5029C1.28316 18.6896 6.31605 23.7224 12.5027 23.7224C16.7538 23.7224 20.5817 21.3502 22.493 17.6059L22.1911 17.7245C21.8649 17.8539 21.4902 17.6921 21.3608 17.3633C21.2988 17.2042 21.3015 17.0317 21.3689 16.8727C21.4363 16.7163 21.563 16.595 21.722 16.533L23.4985 15.8375L23.5713 15.8267C23.5713 15.8267 23.6198 15.8132 23.6737 15.8132C23.7249 15.8132 23.7708 15.8213 23.795 15.8267L23.946 15.8672C23.9945 15.8887 24.0295 15.9157 24.0457 15.9292C24.0565 15.9345 24.0915 15.9588 24.132 15.9938C24.1697 16.0289 24.1913 16.0639 24.2048 16.0828C24.2155 16.0963 24.229 16.1152 24.2425 16.1367L24.256 16.1529L24.2802 16.2068L24.9596 17.9455C25.0216 18.1046 25.0189 18.2798 24.9488 18.4362C24.8787 18.5925 24.7547 18.7138 24.5956 18.7758C24.5256 18.8055 24.4447 18.819 24.3638 18.819C24.0996 18.819 23.8651 18.6599 23.7681 18.4119L23.6575 18.1315C21.5387 22.3315 17.2498 24.9975 12.5027 24.9975L12.5 25.0002ZM23.7088 16.2365V16.2445L23.7195 16.1852L23.7088 16.2365Z"
            fill="white" />
        <path fill-rule="evenodd" clip-rule="evenodd"
            d="M18.49 11.4596H17.2877C17.1394 11.4596 17.0073 11.3598 16.9669 11.2169C16.8698 10.88 16.7351 10.5565 16.5652 10.2519C16.4924 10.1225 16.5167 9.95804 16.6218 9.85291L17.471 9.00376C17.5707 8.90402 17.5707 8.73958 17.471 8.63984L16.363 7.53191C16.2633 7.43217 16.0989 7.43217 15.9991 7.53191L15.15 8.38105C15.0448 8.48619 14.8804 8.51045 14.751 8.43766C14.4464 8.26783 14.1202 8.13305 13.786 8.036C13.6431 7.99557 13.5433 7.86348 13.5433 7.71521V6.51293C13.5433 6.37006 13.4274 6.25684 13.2845 6.25684H11.7183C11.5755 6.25684 11.4596 6.37275 11.4596 6.51562V7.71521C11.4596 7.86348 11.3598 7.99557 11.2169 8.036C10.88 8.13305 10.5565 8.26783 10.2519 8.43766C10.1225 8.51045 9.95804 8.48619 9.85291 8.38105L9.00376 7.53191C8.90402 7.43217 8.73958 7.43217 8.63984 7.53191L7.53191 8.63984C7.43217 8.73958 7.43217 8.90402 7.53191 9.00376L8.38105 9.85291C8.48619 9.95804 8.51045 10.1198 8.43766 10.2519C8.26783 10.5565 8.13305 10.8827 8.036 11.2169C7.99557 11.3598 7.86348 11.4596 7.71521 11.4596H6.51293C6.37006 11.4596 6.25684 11.5755 6.25684 11.7183V13.2845C6.25684 13.4274 6.37275 13.5406 6.51293 13.5433H7.71791C7.86617 13.5433 7.99826 13.6431 8.0387 13.7859C8.13574 14.1229 8.27053 14.4464 8.44036 14.751C8.51314 14.8804 8.48888 15.0448 8.38375 15.15L7.5346 15.9991C7.43486 16.0989 7.43486 16.2633 7.5346 16.363L8.64254 17.471C8.74228 17.5707 8.90672 17.5707 9.00646 17.471L9.85561 16.6218C9.91761 16.5598 10.0039 16.5248 10.0928 16.5248C10.1494 16.5248 10.206 16.5383 10.2546 16.5679C10.5592 16.7378 10.8854 16.8725 11.2196 16.9696C11.3625 17.01 11.4622 17.1421 11.4622 17.2904V18.4927C11.4622 18.6355 11.5782 18.7487 11.721 18.7487H13.2872C13.4301 18.7487 13.5433 18.6328 13.5433 18.4927V17.2904C13.5433 17.1421 13.6431 17.01 13.786 16.9696C14.1229 16.8725 14.4464 16.7378 14.751 16.5679C14.8804 16.4951 15.0448 16.5167 15.15 16.6245L15.9991 17.4737C16.1016 17.5734 16.2633 17.5734 16.363 17.4737L17.471 16.3657C17.5707 16.266 17.5707 16.1016 17.471 16.0018L16.6218 15.1527C16.5167 15.0475 16.4924 14.8858 16.5652 14.7537C16.7351 14.4491 16.8698 14.1229 16.9669 13.7859C17.0073 13.6431 17.1394 13.5433 17.2877 13.5433H18.49C18.6328 13.5433 18.7461 13.4274 18.7488 13.2845V11.7183C18.7488 11.5755 18.6328 11.4622 18.49 11.4596ZM12.5028 15.8401C10.6589 15.8401 9.16281 14.344 9.16281 12.5001C9.16281 10.6562 10.6589 9.16011 12.5028 9.16011C14.3467 9.16011 15.8401 10.6562 15.8428 12.5001C15.8428 14.344 14.3467 15.8401 12.5028 15.8401Z"
            fill="white" />
    </g>
    <defs>
        <clipPath id="clip0_4242_6990">
            <rect width="25.0027" height="25" fill="white" />
        </clipPath>
    </defs>
</svg>
    