<svg width="25" height="25" viewBox="0 0 25 25" fill="none" xmlns="http://www.w3.org/2000/svg">
    <g clip-path="url(#clip0_4242_6969)">
        <path
            d="M15.3846 0C10.0818 0 5.7666 4.25794 5.7666 9.49374C5.7666 14.7295 10.079 18.9875 15.3818 18.9875C20.6845 18.9875 24.9969 14.7295 24.9969 9.49374C24.9969 4.25794 20.6845 0 15.3846 0ZM15.3846 17.8811C10.7015 17.8811 6.88997 14.1177 6.88997 9.49374C6.88997 4.8698 10.6987 1.10639 15.3846 1.10639C20.0705 1.10639 23.8792 4.8698 23.8792 9.49374C23.8792 14.1177 20.0677 17.8811 15.3846 17.8811Z"
            fill="white" />
        <path
            d="M8.70685 15.7745C8.57951 15.7913 8.46067 15.85 8.37295 15.9422L6.22241 18.0656L5.49236 17.3447C5.38483 17.2358 5.24052 17.1771 5.08772 17.1771C5.06508 17.1771 5.04528 17.1771 5.02264 17.1799C4.89813 17.1938 4.77929 17.2525 4.68874 17.3419L0.16129 21.815C-0.0537634 22.0301 -0.0537634 22.3822 0.16129 22.6001L2.42501 24.8352C2.53254 24.9414 2.67402 25.0001 2.824 25.0001C2.97397 25.0001 3.11545 24.9414 3.22298 24.838L7.75325 20.3649C7.96831 20.1498 7.96831 19.7978 7.75325 19.5799L7.0232 18.859L9.16808 16.7329C9.39445 16.5149 9.39728 16.1601 9.1794 15.9394C9.05773 15.8137 8.87946 15.7522 8.70402 15.7745H8.70685ZM2.82683 23.6534L1.36672 22.2117L5.09338 18.5238L6.55348 19.9766L2.82966 23.6534H2.82683Z"
            fill="white" />
        <path
            d="M14.2529 9.49354C14.2529 10.111 14.7594 10.6111 15.3848 10.6111C16.0101 10.6111 16.5167 10.111 16.5167 9.49354C16.5167 8.87609 16.0101 8.37598 15.3848 8.37598C14.7594 8.37598 14.2529 8.87609 14.2529 9.49354Z"
            fill="white" />
        <path
            d="M18.2148 9.49354C18.2148 10.111 18.7214 10.6111 19.3467 10.6111C19.9721 10.6111 20.4786 10.111 20.4786 9.49354C20.4786 8.87609 19.9721 8.37598 19.3467 8.37598C18.7214 8.37598 18.2148 8.87609 18.2148 9.49354Z"
            fill="white" />
        <path
            d="M12.5547 9.49354C12.5547 10.111 12.0482 10.6111 11.4229 10.6111C10.7975 10.6111 10.291 10.111 10.291 9.49354C10.291 8.87609 10.7975 8.37598 11.4229 8.37598C12.0482 8.37598 12.5547 8.87609 12.5547 9.49354Z"
            fill="white" />
    </g>
    <defs>
        <clipPath id="clip0_4242_6969">
            <rect width="25" height="25" fill="white" />
        </clipPath>
    </defs>
</svg>
    