<svg width="25" height="25" viewBox="0 0 25 25" fill="none" xmlns="http://www.w3.org/2000/svg">
    <path
        d="M12.5 0C5.60777 0 0 5.60836 0 12.5013C0 19.3943 5.60777 25 12.5 25C19.3922 25 25 19.3916 25 12.5013C25 5.61097 19.3896 0 12.5 0ZM23.8356 12.5013C23.8356 18.752 18.75 23.8407 12.5 23.8407C6.25 23.8407 1.16176 18.752 1.16176 12.5013C1.16176 6.25065 6.24739 1.16188 12.5 1.16188C18.7526 1.16188 23.8356 6.24804 23.8356 12.5013Z"
        fill="white" />
    <g clip-path="url(#clip0_4242_6986)">
        <path
            d="M10.7758 18.4534L16.4345 13.0241C16.7391 12.7317 16.7391 12.2306 16.4345 11.8964L10.7758 6.46711C10.4711 6.17893 9.95317 6.17893 9.60059 6.46711C9.30025 6.75945 9.30025 7.26062 9.60059 7.59474L14.6933 12.4811L9.60059 17.3717C9.2959 17.6641 9.2959 18.1652 9.60059 18.4993C9.7747 18.6664 9.99234 18.7499 10.1665 18.7499C10.3406 18.7499 10.6017 18.5829 10.7758 18.4576V18.4534Z"
            fill="white" />
    </g>
    <defs>
        <clipPath id="clip0_4242_6986">
            <rect width="7.29091" height="12.5" fill="white" transform="translate(9.37402 6.25)" />
        </clipPath>
    </defs>
</svg>
    