<svg xmlns="http://www.w3.org/2000/svg" width="25" height="27" viewBox="0 0 25 27" fill="none">
  <g clip-path="url(#clip0_4244_7223)">
    <path
      d="M24.9998 16.0726V8.65463C24.9998 8.0659 24.512 7.65346 23.9628 7.65346C23.3531 7.65346 22.9259 8.12444 22.9259 8.65463V13.3052C22.9259 13.5407 22.7433 13.7762 22.4994 13.894C22.3775 13.9532 19.0235 15.2477 19.0235 19.5458C19.0235 19.899 18.7182 20.193 18.3531 20.193C17.9879 20.193 17.6827 19.8983 17.6827 19.5458C17.6827 15.2477 20.4876 13.423 21.5238 12.8928V3.17846C21.5238 2.58973 21.036 2.17728 20.4869 2.17728C19.8771 2.17728 19.45 2.64827 19.45 3.17846V10.3024C19.45 10.6556 19.1447 10.9497 18.7796 10.9497C18.4144 10.9497 18.1092 10.655 18.1092 10.3024V1.00117C18.1092 0.412446 17.6214 0 17.0723 0C16.4625 0 16.0353 0.470982 16.0353 1.00117V10.3031C16.0353 10.6563 15.7301 10.9503 15.3649 10.9503C14.9998 10.9503 14.6946 10.6556 14.6946 10.3031V2.94297C14.6946 2.35424 14.2068 1.94179 13.597 1.94179C12.9872 1.94179 12.5601 2.41277 12.5601 2.94297V10.3024C12.5601 10.4787 12.4987 10.5971 12.3775 10.7142C12.3366 10.7536 12.2959 10.7734 12.2555 10.7734L12.1942 10.8326C12.1329 10.8918 12.0116 10.8918 11.9503 10.8918C11.5845 10.8918 11.2799 10.5971 11.2799 10.2445V5.06373C11.2799 4.53354 10.7921 4.06256 10.243 4.06256C9.63323 4.06256 9.20605 4.53354 9.20605 5.06373V11.7752C12.682 12.7172 15.2423 15.7786 15.2423 19.4872C15.2423 20.7239 14.9371 21.8421 14.4493 22.9018C15.181 23.1373 15.9127 23.1965 16.6444 23.1965H17.498C21.6444 23.2557 24.9977 20.0174 24.9977 16.0726H24.9998Z"
      fill="#FFA985" />
    <path
      d="M7.01185 26.3159C10.853 26.3159 14.0237 23.3138 14.0237 19.5459C14.0237 15.7781 10.853 12.7759 7.01185 12.7759C3.17073 12.7759 0 15.7787 0 19.5466C0 23.3144 3.10941 26.3166 7.01185 26.3166V26.3159ZM3.59721 17.191C3.35331 16.9555 3.35331 16.5437 3.59721 16.3082C3.84111 16.0728 4.2676 16.0728 4.5115 16.3082L6.95052 18.6632L9.38955 16.3082C9.63345 16.0728 10.0599 16.0728 10.3038 16.3082C10.5477 16.5437 10.5477 16.9555 10.3038 17.191L7.86481 19.5459L10.3038 21.9008C10.5477 22.1363 10.5477 22.5481 10.3038 22.7836C10.1819 22.9013 9.99861 22.9599 9.87735 22.9599C9.69477 22.9599 9.57212 22.9006 9.45087 22.7836L7.01185 20.4287L4.57282 22.7836C4.45087 22.9013 4.2676 22.9599 4.14634 22.9599C3.96376 22.9599 3.84111 22.9006 3.71986 22.7836C3.47596 22.5481 3.47596 22.1363 3.71986 21.9008L6.15888 19.5459L3.59791 17.191H3.59721Z"
      fill="#FFA985" />
  </g>
  <defs>
    <clipPath id="clip0_4244_7223">
      <rect width="25" height="26.3158" fill="white" />
    </clipPath>
  </defs>
</svg>