<svg width="26" height="25" viewBox="0 0 26 25" fill="none" xmlns="http://www.w3.org/2000/svg">
    <g clip-path="url(#clip0_4244_7097)">
        <path
            d="M10.2289 3.50342H3.03569C2.80766 3.50342 2.62109 3.68998 2.62109 3.91801C2.62109 4.14604 2.80766 4.33261 3.03569 4.33261H10.2289C10.4569 4.33261 10.6435 4.14604 10.6435 3.91801C10.6435 3.68998 10.4569 3.50342 10.2289 3.50342Z"
            fill="white" />
        <path
            d="M10.2289 4.45685H3.03566C2.73508 4.45685 2.48633 4.20809 2.48633 3.91788C2.48633 3.62766 2.73508 3.37891 3.03566 3.37891H10.2289C10.5294 3.37891 10.7678 3.62766 10.7678 3.91788C10.7678 4.20809 10.5191 4.45685 10.2289 4.45685ZM3.03566 3.62766C2.88019 3.62766 2.74545 3.75204 2.74545 3.90751C2.74545 4.06299 2.86983 4.18736 3.03566 4.18736H10.2289C10.3843 4.18736 10.5087 4.06299 10.5087 3.90751C10.5087 3.75204 10.3843 3.62766 10.2289 3.62766H3.03566Z"
            fill="white" />
        <path
            d="M13.9393 2.37354C13.0894 2.37354 12.4053 3.06798 12.4053 3.90753C12.4053 4.74708 13.0997 5.44153 13.9393 5.44153C14.7788 5.44153 15.4733 4.74708 15.4733 3.90753C15.4733 3.06798 14.7788 2.37354 13.9393 2.37354ZM13.9393 4.62271C13.5454 4.62271 13.2345 4.3014 13.2345 3.9179C13.2345 3.5344 13.5558 3.21309 13.9393 3.21309C14.3228 3.21309 14.6441 3.5344 14.6441 3.9179C14.6441 4.3014 14.3228 4.62271 13.9393 4.62271Z"
            fill="white" />
        <path
            d="M17.9822 2.37354C17.1323 2.37354 16.4482 3.06798 16.4482 3.90753C16.4482 4.74708 17.1427 5.44153 17.9822 5.44153C18.8218 5.44153 19.5162 4.74708 19.5162 3.90753C19.5162 3.06798 18.8322 2.37354 17.9822 2.37354ZM17.9822 4.62271C17.5884 4.62271 17.2774 4.3014 17.2774 3.9179C17.2774 3.5344 17.5987 3.21309 17.9822 3.21309C18.3657 3.21309 18.687 3.5344 18.687 3.9179C18.687 4.3014 18.3657 4.62271 17.9822 4.62271Z"
            fill="white" />
        <path
            d="M19.526 10.6551C19.526 9.80517 18.8316 9.12109 17.992 9.12109C17.1525 9.12109 16.458 9.81554 16.458 10.6551C16.458 11.4946 17.1525 12.1891 17.992 12.1891C18.8316 12.1891 19.526 11.4946 19.526 10.6551ZM17.2768 10.6551C17.2768 10.2612 17.5981 9.95028 17.9816 9.95028C18.3651 9.95028 18.6864 10.2716 18.6864 10.6551C18.6864 11.0386 18.3651 11.3599 17.9816 11.3599C17.5981 11.3599 17.2768 11.0386 17.2768 10.6551Z"
            fill="white" />
        <path
            d="M22.0242 2.37354C21.1743 2.37354 20.4902 3.06798 20.4902 3.90753C20.4902 4.74708 21.1847 5.44153 22.0242 5.44153C22.8638 5.44153 23.5582 4.74708 23.5582 3.90753C23.5582 3.06798 22.8638 2.37354 22.0242 2.37354ZM22.0242 4.62271C21.6304 4.62271 21.3194 4.3014 21.3194 3.9179C21.3194 3.5344 21.6407 3.21309 22.0242 3.21309C22.4077 3.21309 22.729 3.5344 22.729 3.9179C22.729 4.3014 22.4077 4.62271 22.0242 4.62271Z"
            fill="white" />
        <path
            d="M23.569 10.6551C23.569 9.80517 22.8745 9.12109 22.035 9.12109C21.1954 9.12109 20.501 9.81554 20.501 10.6551C20.501 11.4946 21.1954 12.1891 22.035 12.1891C22.8745 12.1891 23.569 11.4946 23.569 10.6551ZM21.3198 10.6551C21.3198 10.2612 21.6411 9.95028 22.0246 9.95028C22.4081 9.95028 22.7294 10.2716 22.7294 10.6551C22.7294 11.0386 22.4081 11.3599 22.0246 11.3599C21.6411 11.3599 21.3198 11.0386 21.3198 10.6551Z"
            fill="white" />
        <path
            d="M3.03569 10.2407C2.80766 10.2407 2.62109 10.4273 2.62109 10.6553C2.62109 10.8833 2.80766 11.0699 3.03569 11.0699H10.2289C10.4569 11.0699 10.6435 10.8833 10.6435 10.6553C10.6435 10.4273 10.4569 10.2407 10.2289 10.2407H3.03569Z"
            fill="white" />
        <path
            d="M10.2289 11.2045H3.03566C2.73508 11.2045 2.48633 10.9558 2.48633 10.6552C2.48633 10.3546 2.73508 10.1162 3.03566 10.1162H10.2289C10.5294 10.1162 10.7678 10.365 10.7678 10.6552C10.7678 10.9454 10.5191 11.2045 10.2289 11.2045ZM3.03566 10.3753C2.88019 10.3753 2.74545 10.4997 2.74545 10.6552C2.74545 10.8107 2.86983 10.9454 3.03566 10.9454H10.2289C10.3843 10.9454 10.5087 10.821 10.5087 10.6552C10.5087 10.4893 10.3843 10.3753 10.2289 10.3753H3.03566Z"
            fill="white" />
        <path
            d="M15.484 10.6551C15.484 9.80517 14.7896 9.12109 13.95 9.12109C13.1105 9.12109 12.416 9.81554 12.416 10.6551C12.416 11.4946 13.1105 12.1891 13.95 12.1891C14.7896 12.1891 15.484 11.4946 15.484 10.6551ZM13.95 11.3599C13.5561 11.3599 13.2452 11.0386 13.2452 10.6551C13.2452 10.2716 13.5665 9.95028 13.95 9.95028C14.3335 9.95028 14.6548 10.2716 14.6548 10.6551C14.6548 11.0386 14.3335 11.3599 13.95 11.3599Z"
            fill="white" />
        <path
            d="M3.03569 16.9775C2.80766 16.9775 2.62109 17.1641 2.62109 17.3921C2.62109 17.6202 2.80766 17.8067 3.03569 17.8067H10.2393C10.4673 17.8067 10.6538 17.6202 10.6538 17.3921C10.6538 17.1641 10.4673 16.9775 10.2393 16.9775H3.03569Z"
            fill="white" />
        <path
            d="M10.2392 17.9413H3.03566C2.73508 17.9413 2.48633 17.6926 2.48633 17.4024C2.48633 17.1121 2.73508 16.853 3.03566 16.853H10.2392C10.5398 16.853 10.7886 17.1018 10.7886 17.4024C10.7886 17.7029 10.5398 17.9413 10.2392 17.9413ZM3.03566 17.1121C2.88019 17.1121 2.74545 17.2365 2.74545 17.4024C2.74545 17.5682 2.86983 17.6822 3.03566 17.6822H10.2392C10.3947 17.6822 10.5294 17.5578 10.5294 17.4024C10.5294 17.2469 10.4051 17.1121 10.2392 17.1121H3.03566Z"
            fill="white" />
        <path
            d="M13.0271 20.7713C13.0271 20.5432 12.8406 20.3567 12.6126 20.3567H2.36172C1.8953 20.3567 1.52217 19.9835 1.52217 19.5171V15.2986C1.52217 14.8322 1.8953 14.4591 2.36172 14.4591H12.6436C12.8717 14.4591 13.0582 14.2725 13.0582 14.0445C13.0582 13.8165 12.8717 13.6299 12.6436 13.6299H2.36172C1.8953 13.6299 1.52217 13.2568 1.52217 12.7903V8.56149C1.52217 8.09508 1.8953 7.72194 2.36172 7.72194H23.8169C24.2834 7.72194 24.6565 8.09508 24.6565 8.56149V11.7435C24.6565 11.9715 24.8431 12.1581 25.0711 12.1581C25.2991 12.1581 25.4857 11.9715 25.4857 11.7435V8.56149C25.4857 8.05362 25.2577 7.60793 24.9053 7.29698C25.2577 6.98604 25.4857 6.54035 25.4857 6.03247V1.80362C25.4857 0.881145 24.7291 0.124512 23.8169 0.124512H2.36172C1.43925 0.124512 0.682617 0.881145 0.682617 1.80362V6.02211C0.682617 6.52998 0.910644 6.97567 1.26305 7.28662C0.910644 7.59756 0.682617 8.04325 0.682617 8.55113V12.7696C0.682617 13.2775 0.910644 13.7232 1.26305 14.0341C0.910644 14.3451 0.682617 14.7908 0.682617 15.2883V19.5068C0.682617 20.4292 1.43925 21.1755 2.35136 21.1755H12.6126C12.8406 21.1755 13.0271 20.9889 13.0271 20.7609V20.7713ZM1.5118 6.02211V1.80362C1.5118 1.3372 1.88494 0.964064 2.35136 0.964064H23.8066C24.273 0.964064 24.6461 1.34756 24.6461 1.80362V6.02211C24.6461 6.48852 24.273 6.86166 23.8066 6.86166H2.36172C1.8953 6.86166 1.52217 6.48852 1.52217 6.02211H1.5118Z"
            fill="white" />
        <path
            d="M12.6129 21.3101H2.36208C1.36705 21.3101 0.558594 20.5017 0.558594 19.5066V15.2778C0.558594 14.8114 0.745161 14.3553 1.07684 14.0236C0.745161 13.6816 0.558594 13.2359 0.558594 12.7591V8.54063C0.558594 8.07421 0.745161 7.61816 1.07684 7.27612C0.745161 6.93408 0.558594 6.48839 0.558594 6.02197V1.80348C0.558594 0.808458 1.36705 0 2.36208 0H23.8173C24.8123 0 25.6208 0.808458 25.6208 1.80348V6.02197C25.6208 6.48839 25.4342 6.94444 25.1025 7.28648C25.4342 7.62852 25.6208 8.07421 25.6208 8.54063V11.7226C25.6208 12.0232 25.372 12.2616 25.0818 12.2616C24.7916 12.2616 24.5325 12.0129 24.5325 11.7226V8.54063C24.5325 8.14677 24.2112 7.82546 23.8173 7.82546H2.36208C1.96821 7.82546 1.6469 8.14677 1.6469 8.54063V12.7695C1.6469 13.1633 1.96821 13.4847 2.36208 13.4847H12.644C12.9446 13.4847 13.1933 13.7334 13.1933 14.034C13.1933 14.3346 12.9446 14.573 12.644 14.573H2.36208C1.96821 14.573 1.6469 14.8943 1.6469 15.2881V19.517C1.6469 19.9109 1.96821 20.2322 2.36208 20.2322H12.6233C12.9239 20.2322 13.1726 20.4809 13.1726 20.7815C13.1726 21.0821 12.9239 21.3205 12.6233 21.3205L12.6129 21.3101ZM2.36208 0.259121C1.51216 0.259121 0.817715 0.953566 0.817715 1.80348V6.02197C0.817715 6.4573 1.01465 6.88226 1.35669 7.18284L1.4707 7.27612L1.35669 7.3694C1.01465 7.66998 0.817715 8.09494 0.817715 8.53026V12.7488C0.817715 13.1841 1.01465 13.609 1.35669 13.9096L1.4707 14.0029L1.35669 14.0962C1.01465 14.3968 0.817715 14.8114 0.817715 15.257V19.4859C0.817715 20.3358 1.51216 21.0303 2.36208 21.0303H12.6233C12.7787 21.0303 12.9135 20.9059 12.9135 20.7504C12.9135 20.5949 12.7891 20.4602 12.6233 20.4602H2.36208C1.8231 20.4602 1.38778 20.0249 1.38778 19.4859V15.257C1.38778 14.7181 1.8231 14.2828 2.36208 14.2828H12.644C12.7995 14.2828 12.9342 14.1584 12.9342 14.0029C12.9342 13.8474 12.8098 13.7127 12.644 13.7127H2.36208C1.8231 13.7127 1.38778 13.2774 1.38778 12.7384V8.50954C1.38778 7.97056 1.8231 7.53524 2.36208 7.53524H23.8277C24.3666 7.53524 24.802 7.97056 24.802 8.50954V11.6915C24.802 11.847 24.9263 11.9714 25.0922 11.9714C25.258 11.9714 25.372 11.847 25.372 11.6915V8.50954C25.372 8.07421 25.1751 7.64925 24.8331 7.34867L24.719 7.25539L24.8331 7.16211C25.1751 6.86153 25.372 6.44693 25.372 6.00124V1.80348C25.372 0.953566 24.6776 0.259121 23.8277 0.259121H2.36208ZM23.8173 6.99627H2.36208C1.8231 6.99627 1.38778 6.56095 1.38778 6.02197V1.80348C1.38778 1.26451 1.8231 0.829187 2.36208 0.829187H23.8277C24.3666 0.829187 24.802 1.26451 24.802 1.80348V6.02197C24.802 6.56095 24.3666 6.99627 23.8277 6.99627H23.8173ZM2.36208 1.08831C1.96821 1.08831 1.6469 1.40962 1.6469 1.80348V6.02197C1.6469 6.41584 1.96821 6.73715 2.36208 6.73715H23.8173C24.2112 6.73715 24.5325 6.41584 24.5325 6.02197V1.80348C24.5325 1.40962 24.2112 1.08831 23.8173 1.08831H2.36208Z"
            fill="white" />
        <path
            d="M19.5258 24.8757C22.8115 24.8757 25.4856 22.2016 25.4856 18.916C25.4856 15.6303 22.8115 12.9458 19.5154 12.9458C16.2194 12.9458 13.5557 15.6199 13.5557 18.916C13.5557 22.212 16.2298 24.8757 19.5154 24.8757H19.5258ZM19.5258 13.775C22.3554 13.775 24.6564 16.076 24.6564 18.9056C24.6564 21.7352 22.3554 24.0362 19.5258 24.0362C16.6962 24.0362 14.3952 21.7352 14.3952 18.9056C14.3952 16.076 16.6962 13.775 19.5258 13.775Z"
            fill="white" />
        <path
            d="M19.5262 25.0001C16.168 25.0001 13.4316 22.2638 13.4316 18.9056C13.4316 15.5474 16.168 12.811 19.5262 12.811C22.8844 12.811 25.6207 15.5474 25.6207 18.9056C25.6207 22.2638 22.8844 25.0001 19.5262 25.0001ZM19.5262 13.0702C16.3131 13.0702 13.6908 15.6925 13.6908 18.9056C13.6908 22.1187 16.3131 24.741 19.5262 24.741C22.7393 24.741 25.3616 22.1187 25.3616 18.9056C25.3616 15.6925 22.7393 13.0702 19.5262 13.0702ZM19.5262 24.1709C16.624 24.1709 14.2608 21.8077 14.2608 18.9056C14.2608 16.0034 16.624 13.6402 19.5262 13.6402C22.4283 13.6402 24.7915 16.0034 24.7915 18.9056C24.7915 21.8077 22.4283 24.1709 19.5262 24.1709ZM19.5262 13.8993C16.7691 13.8993 14.5199 16.1485 14.5199 18.9056C14.5199 21.6626 16.7691 23.9118 19.5262 23.9118C22.2832 23.9118 24.5324 21.6626 24.5324 18.9056C24.5324 16.1485 22.2832 13.8993 19.5262 13.8993Z"
            fill="white" />
        <path
            d="M18.2822 21.1549C18.3029 21.1756 18.3236 21.1756 18.3444 21.1963C18.4169 21.2482 18.4998 21.2793 18.5828 21.2793C18.6864 21.2793 18.7901 21.2378 18.873 21.1549L22.7391 17.2577C22.9049 17.0919 22.8945 16.8327 22.7391 16.6669C22.5732 16.5114 22.3141 16.5114 22.1483 16.6669L18.5724 20.2739L16.9037 18.6051C16.7378 18.4393 16.4787 18.4393 16.3129 18.6051C16.147 18.771 16.147 19.0301 16.3129 19.1959L18.2718 21.1549H18.2822Z"
            fill="white" />
        <path
            d="M18.5727 21.4034C18.4691 21.4034 18.3654 21.362 18.2618 21.2998C18.2618 21.2998 18.2411 21.2894 18.2307 21.279H18.2203L17.9301 21.0199H17.9612L16.2199 19.2786C16.1163 19.175 16.0645 19.0402 16.0645 18.8951C16.0645 18.75 16.1163 18.6153 16.2199 18.5116C16.3236 18.408 16.4583 18.3562 16.6034 18.3562C16.7485 18.3562 16.8833 18.408 16.9869 18.5116L18.5624 20.0871L22.045 16.5734C22.2523 16.3557 22.6047 16.3557 22.812 16.5734C23.0296 16.7807 23.0296 17.1331 22.812 17.3404L18.9044 21.279C18.8111 21.362 18.6868 21.4034 18.5624 21.4034H18.5727ZM18.3654 21.0614L18.4173 21.0925C18.4898 21.1443 18.6453 21.165 18.7386 21.0925V21.0199H18.8111L22.6461 17.1642C22.7601 17.0502 22.7601 16.874 22.6461 16.76C22.5321 16.646 22.3559 16.6563 22.2419 16.76L18.5727 20.4499L16.8107 18.6878C16.7589 18.636 16.6863 18.6049 16.6138 18.6049C16.5412 18.6049 16.4687 18.636 16.4169 18.6878C16.365 18.7397 16.3339 18.8122 16.3339 18.8848C16.3339 18.9573 16.365 19.0299 16.4169 19.0817L18.3758 21.0406L18.3654 21.0614Z"
            fill="white" />
    </g>
    <defs>
        <clipPath id="clip0_4244_7097">
            <rect width="25.0622" height="25" fill="white" transform="translate(0.558594)" />
        </clipPath>
    </defs>
</svg>
    