<svg width="80" height="80" viewBox="0 0 80 80" fill="none" xmlns="http://www.w3.org/2000/svg">
<path fill-rule="evenodd" clip-rule="evenodd" d="M80 0V80L0 80C0 35.8172 35.8172 0 80 0Z" fill="#007BBD"/>
<path d="M20.8763 39.3194H23.5778C24.7336 39.3194 25.6084 39.4817 26.2022 39.8063C26.7959 40.1308 27.0928 40.7008 27.0928 41.5163C27.0928 41.8448 27.0394 42.1417 26.9325 42.4069C26.8296 42.6721 26.6792 42.8898 26.4813 43.06C26.2833 43.2302 26.0419 43.341 25.7569 43.3925V43.4519C26.0458 43.5113 26.3071 43.6142 26.5406 43.7606C26.7742 43.9031 26.9602 44.1129 27.0988 44.39C27.2413 44.6631 27.3125 45.0273 27.3125 45.4825C27.3125 46.009 27.1839 46.4602 26.9266 46.8363C26.6693 47.2123 26.3011 47.5013 25.8222 47.7031C25.3472 47.901 24.7811 48 24.1241 48H20.8763V39.3194ZM22.7169 42.7572H23.7856C24.32 42.7572 24.6901 42.6741 24.8959 42.5078C25.1018 42.3376 25.2047 42.0882 25.2047 41.7597C25.2047 41.4272 25.082 41.1897 24.8366 41.0472C24.5951 40.9007 24.2111 40.8275 23.6847 40.8275H22.7169V42.7572ZM22.7169 44.2178V46.48H23.9163C24.4704 46.48 24.8564 46.3731 25.0741 46.1594C25.2918 45.9456 25.4006 45.6586 25.4006 45.2984C25.4006 45.0847 25.3531 44.8967 25.2581 44.7344C25.1631 44.5721 25.0028 44.4454 24.7772 44.3544C24.5555 44.2633 24.2488 44.2178 23.8569 44.2178H22.7169ZM34.3603 48L33.7309 45.9338H30.5663L29.9369 48H27.9538L31.0175 39.2838H33.2678L36.3434 48H34.3603ZM33.2916 44.39L32.6622 42.3713C32.6226 42.2367 32.5692 42.0645 32.5019 41.8547C32.4385 41.6409 32.3732 41.4252 32.3059 41.2075C32.2426 40.9858 32.1911 40.7939 32.1516 40.6316C32.112 40.7939 32.0566 40.9957 31.9853 41.2372C31.918 41.4747 31.8527 41.7003 31.7894 41.9141C31.726 42.1278 31.6805 42.2802 31.6528 42.3713L31.0294 44.39H33.2916ZM41.1291 40.7266C40.7768 40.7266 40.4641 40.7958 40.1909 40.9344C39.9218 41.069 39.6942 41.2649 39.5081 41.5222C39.326 41.7795 39.1875 42.0902 39.0925 42.4544C38.9975 42.8185 38.95 43.2282 38.95 43.6834C38.95 44.297 39.0252 44.8215 39.1756 45.2569C39.33 45.6883 39.5675 46.0189 39.8881 46.2484C40.2087 46.4741 40.6224 46.5869 41.1291 46.5869C41.4814 46.5869 41.8336 46.5473 42.1859 46.4681C42.5422 46.389 42.9281 46.2761 43.3437 46.1297V47.6734C42.9598 47.8318 42.5818 47.9446 42.2097 48.0119C41.8376 48.0831 41.42 48.1187 40.9569 48.1187C40.0623 48.1187 39.326 47.9347 38.7481 47.5666C38.1742 47.1945 37.7486 46.6759 37.4716 46.0109C37.1945 45.342 37.0559 44.5622 37.0559 43.6716C37.0559 43.0145 37.145 42.4128 37.3231 41.8666C37.5012 41.3203 37.7625 40.8473 38.1069 40.4475C38.4512 40.0477 38.8768 39.739 39.3834 39.5213C39.8901 39.3035 40.472 39.1947 41.1291 39.1947C41.5605 39.1947 41.992 39.2501 42.4234 39.3609C42.8589 39.4678 43.2745 39.6163 43.6703 39.8063L43.0766 41.3025C42.752 41.1481 42.4254 41.0135 42.0969 40.8988C41.7683 40.784 41.4457 40.7266 41.1291 40.7266ZM52.1788 48H50.0888L47.8147 44.3425L47.0369 44.9006V48H45.1963V39.3194H47.0369V43.2916C47.1596 43.1214 47.2803 42.9511 47.3991 42.7809C47.5178 42.6107 47.6385 42.4405 47.7613 42.2703L50.1125 39.3194H52.155L49.1269 43.1609L52.1788 48ZM59.7788 48H57.9381V40.8513H55.5809V39.3194H62.1359V40.8513H59.7788V48ZM71.3509 43.6478C71.3509 44.3168 71.2678 44.9264 71.1016 45.4766C70.9353 46.0228 70.682 46.4939 70.3416 46.8897C70.0051 47.2855 69.5776 47.5903 69.0591 47.8041C68.5405 48.0139 67.927 48.1187 67.2184 48.1187C66.5099 48.1187 65.8964 48.0139 65.3778 47.8041C64.8593 47.5903 64.4298 47.2855 64.0894 46.8897C63.7529 46.4939 63.5016 46.0208 63.3353 45.4706C63.1691 44.9204 63.0859 44.3089 63.0859 43.6359C63.0859 42.7374 63.2324 41.9556 63.5253 41.2906C63.8222 40.6217 64.2774 40.1031 64.8909 39.735C65.5045 39.3669 66.2843 39.1828 67.2303 39.1828C68.1724 39.1828 68.9463 39.3669 69.5519 39.735C70.1615 40.1031 70.6127 40.6217 70.9056 41.2906C71.2025 41.9596 71.3509 42.7453 71.3509 43.6478ZM65.0156 43.6478C65.0156 44.2534 65.0908 44.7759 65.2413 45.2153C65.3956 45.6507 65.6351 45.9872 65.9597 46.2247C66.2843 46.4582 66.7039 46.575 67.2184 46.575C67.7409 46.575 68.1645 46.4582 68.4891 46.2247C68.8137 45.9872 69.0492 45.6507 69.1956 45.2153C69.346 44.7759 69.4213 44.2534 69.4213 43.6478C69.4213 42.7374 69.251 42.0209 68.9106 41.4984C68.5702 40.9759 68.0101 40.7147 67.2303 40.7147C66.7118 40.7147 66.2882 40.8334 65.9597 41.0709C65.6351 41.3045 65.3956 41.6409 65.2413 42.0803C65.0908 42.5157 65.0156 43.0382 65.0156 43.6478ZM39.7634 64H37.9228V56.8513H35.5656V55.3194H42.1206V56.8513H39.7634V64ZM51.3356 59.6478C51.3356 60.3168 51.2525 60.9264 51.0863 61.4766C50.92 62.0228 50.6667 62.4939 50.3263 62.8897C49.9898 63.2855 49.5623 63.5903 49.0438 63.8041C48.5252 64.0139 47.9117 64.1187 47.2031 64.1187C46.4946 64.1187 45.881 64.0139 45.3625 63.8041C44.844 63.5903 44.4145 63.2855 44.0741 62.8897C43.7376 62.4939 43.4863 62.0208 43.32 61.4706C43.1538 60.9204 43.0706 60.3089 43.0706 59.6359C43.0706 58.7374 43.2171 57.9556 43.51 57.2906C43.8069 56.6217 44.2621 56.1031 44.8756 55.735C45.4892 55.3669 46.269 55.1828 47.215 55.1828C48.1571 55.1828 48.9309 55.3669 49.5366 55.735C50.1461 56.1031 50.5974 56.6217 50.8903 57.2906C51.1872 57.9596 51.3356 58.7453 51.3356 59.6478ZM45.0003 59.6478C45.0003 60.2534 45.0755 60.7759 45.2259 61.2153C45.3803 61.6507 45.6198 61.9872 45.9444 62.2247C46.269 62.4582 46.6885 62.575 47.2031 62.575C47.7256 62.575 48.1492 62.4582 48.4738 62.2247C48.7983 61.9872 49.0339 61.6507 49.1803 61.2153C49.3307 60.7759 49.4059 60.2534 49.4059 59.6478C49.4059 58.7374 49.2357 58.0209 48.8953 57.4984C48.5549 56.9759 47.9948 56.7147 47.215 56.7147C46.6965 56.7147 46.2729 56.8334 45.9444 57.0709C45.6198 57.3045 45.3803 57.6409 45.2259 58.0803C45.0755 58.5157 45.0003 59.0382 45.0003 59.6478ZM55.9075 55.3194C57.0277 55.3194 57.8451 55.5608 58.3597 56.0438C58.8743 56.5227 59.1316 57.1838 59.1316 58.0269C59.1316 58.4069 59.0742 58.771 58.9594 59.1194C58.8446 59.4638 58.6566 59.7705 58.3953 60.0397C58.138 60.3089 57.7936 60.5226 57.3622 60.6809C56.9307 60.8353 56.3983 60.9125 55.765 60.9125H54.9753V64H53.1347V55.3194H55.9075ZM55.8125 56.8275H54.9753V59.4044H55.5809C55.9253 59.4044 56.2242 59.3589 56.4775 59.2678C56.7308 59.1768 56.9268 59.0343 57.0653 58.8403C57.2039 58.6464 57.2731 58.397 57.2731 58.0922C57.2731 57.6647 57.1544 57.348 56.9169 57.1422C56.6794 56.9324 56.3112 56.8275 55.8125 56.8275Z" fill="white"/>
</svg>
