<svg width="22" height="25" viewBox="0 0 22 25" fill="none" xmlns="http://www.w3.org/2000/svg">
  <path d="M11.8865 14.8239L12.1398 7.14404H9.78406L10.045 14.8239H11.8865Z" fill="#D64000" />
  <path
    d="M10.0603 16.3963C9.83522 16.609 9.72268 16.8774 9.72268 17.2015C9.72268 17.5155 9.83522 17.7813 10.0603 17.9991C10.2905 18.2169 10.5923 18.3257 10.9657 18.3257C11.3443 18.3257 11.6461 18.2169 11.8712 17.9991C12.0963 17.7813 12.2088 17.5155 12.2088 17.2015C12.2088 16.8774 12.0963 16.609 11.8712 16.3963C11.6461 16.1785 11.3443 16.0696 10.9657 16.0696C10.5923 16.0696 10.2905 16.1785 10.0603 16.3963Z"
    fill="#B83700" />
  <path fill-rule="evenodd" clip-rule="evenodd"
    d="M14.8021 21.0845C14.6922 23.0446 13.0317 24.5999 11.0004 24.5999C8.96878 24.5999 7.30815 23.0435 7.1986 21.0838H2.54308C1.13857 21.0838 0 19.9728 0 18.6018C0 17.2308 1.13781 16.1198 2.5393 16.1198C2.53779 16.1198 2.53855 11.1559 2.53855 11.1559C2.53855 7.65894 4.77489 4.59341 8.03874 3.40339V3.29406C8.03798 1.69629 9.36619 0.399902 10.9996 0.399902C12.6331 0.399902 13.9613 1.69555 13.9613 3.29406V3.40339C17.2251 4.59341 19.4615 7.65968 19.4615 11.1559V16.1198C20.8607 16.1198 22 17.2323 22 18.6025C22 19.9728 20.8607 21.0845 19.4569 21.0845H14.8021ZM8.89474 21.0838H13.1045C12.9987 22.129 12.0966 22.9452 10.9996 22.9452C9.90261 22.9452 9.00127 22.129 8.89474 21.0838ZM4.23016 11.1559C4.23016 8.1871 6.24589 5.60614 9.11913 4.79581L9.72959 4.62295V3.29406C9.72959 2.61078 10.2977 2.05529 10.9989 2.05529C11.7 2.05529 12.2681 2.61004 12.2681 3.29406V4.62295L12.8794 4.79581C15.7526 5.60614 17.7683 8.18784 17.7683 11.1559V16.1198C17.7683 17.0358 18.5246 17.7752 19.4599 17.7752C19.9261 17.7752 20.3069 18.1475 20.3069 18.6025C20.3069 19.0576 19.9261 19.4299 19.4569 19.4299H2.54157C2.07164 19.4299 1.69161 19.0583 1.69161 18.6025C1.69161 18.1468 2.07164 17.7752 2.53855 17.7752C3.47162 17.7752 4.23016 17.0336 4.23016 16.1198V11.1559Z"
    fill="#B83700" />
</svg>
