<svg width="25" height="25" viewBox="0 0 25 25" fill="none" xmlns="http://www.w3.org/2000/svg">
  <g clip-path="url(#clip0_9397_21589)">
    <path
      d="M15.3836 0C10.0808 0 5.76562 4.25794 5.76562 9.49374C5.76562 14.7295 10.078 18.9875 15.3808 18.9875C20.6836 18.9875 24.996 14.7295 24.996 9.49374C24.996 4.25794 20.6836 0 15.3836 0ZM15.3836 17.8811C10.7005 17.8811 6.889 14.1177 6.889 9.49374C6.889 4.8698 10.6977 1.10639 15.3836 1.10639C20.0695 1.10639 23.8782 4.8698 23.8782 9.49374C23.8782 14.1177 20.0667 17.8811 15.3836 17.8811Z"
      fill="#2FC1FF" />
    <path
      d="M8.70685 15.774C8.57951 15.7908 8.46067 15.8495 8.37295 15.9417L6.22241 18.0651L5.49236 17.3442C5.38483 17.2353 5.24052 17.1766 5.08772 17.1766C5.06508 17.1766 5.04528 17.1766 5.02264 17.1794C4.89813 17.1934 4.77929 17.252 4.68874 17.3414L0.16129 21.8145C-0.0537634 22.0296 -0.0537634 22.3817 0.16129 22.5996L2.42501 24.8347C2.53254 24.9409 2.67402 24.9996 2.824 24.9996C2.97397 24.9996 3.11545 24.9409 3.22298 24.8375L7.75325 20.3645C7.96831 20.1493 7.96831 19.7973 7.75325 19.5794L7.0232 18.8585L9.16808 16.7324C9.39445 16.5144 9.39728 16.1596 9.1794 15.9389C9.05773 15.8132 8.87946 15.7517 8.70402 15.774H8.70685ZM2.82683 23.6529L1.36672 22.2112L5.09338 18.5233L6.55348 19.9761L2.82966 23.6529H2.82683Z"
      fill="#2FC1FF" />
    <path
      d="M14.2539 9.49354C14.2539 10.111 14.7604 10.6111 15.3858 10.6111C16.0111 10.6111 16.5176 10.111 16.5176 9.49354C16.5176 8.87609 16.0111 8.37598 15.3858 8.37598C14.7604 8.37598 14.2539 8.87609 14.2539 9.49354Z"
      fill="#2FC1FF" />
    <path
      d="M18.2148 9.49354C18.2148 10.111 18.7214 10.6111 19.3467 10.6111C19.9721 10.6111 20.4786 10.111 20.4786 9.49354C20.4786 8.87609 19.9721 8.37598 19.3467 8.37598C18.7214 8.37598 18.2148 8.87609 18.2148 9.49354Z"
      fill="#2FC1FF" />
    <path
      d="M12.5528 9.49354C12.5528 10.111 12.0463 10.6111 11.4209 10.6111C10.7956 10.6111 10.2891 10.111 10.2891 9.49354C10.2891 8.87609 10.7956 8.37598 11.4209 8.37598C12.0463 8.37598 12.5528 8.87609 12.5528 9.49354Z"
      fill="#2FC1FF" />
  </g>
</svg>