<svg width="1440" height="300" viewBox="0 0 1440 300" fill="none" xmlns="http://www.w3.org/2000/svg">
  <g clip-path="url(#clip0_2004_28230)">
    <path style="mix-blend-mode:multiply"
      d="M589.041 79.5214C602.238 80.5289 609.005 63.9658 598.88 55.4569C592.535 50.1341 592.36 40.4604 598.467 34.8747C603.726 30.0906 600.75 21.2061 593.578 20.6737C586.4 20.1187 582.096 28.4271 586.575 33.9789C591.749 40.4294 590.082 49.965 583.003 54.244C571.68 61.1376 575.821 78.5198 589.047 79.5439L589.041 79.5214Z"
      fill="url(#paint0_linear_2004_28230)" />
    <path style="mix-blend-mode:multiply"
      d="M675.915 52.1089C683.095 52.7598 688.7 45.5504 685.987 38.6652C682.41 29.6029 686.461 19.3402 695.24 15.1167C701.22 12.2353 700.125 3.45449 693.715 2.07079C691.263 1.54058 688.857 2.36946 687.27 4.01638C681.284 10.1477 671.62 10.7556 664.914 5.43223C659.178 0.862692 650.673 4.02735 649.158 11.0445C647.94 16.6358 651.7 22.017 657.295 22.8703C661.007 23.4282 664.559 21.8387 666.662 19.0449C669.591 15.1902 673.879 12.9247 678.413 12.4951C683.133 12.0404 686.71 16.4593 685.303 20.9699C683.592 26.4269 679.385 31.0046 673.596 32.9693C670.241 34.1217 667.621 37.0524 667.028 40.8182C666.172 46.4101 670.201 51.6239 675.921 52.1314L675.915 52.1089Z"
      fill="url(#paint1_linear_2004_28230)" />
    <path style="mix-blend-mode:multiply"
      d="M1411.01 241.612C1418.76 243.028 1424.51 249.566 1424.92 257.42C1425.27 264.016 1432.76 267.642 1438.13 264.007C1443.99 260.05 1442.65 251.165 1436.12 248.97C1432.39 247.696 1429.33 245.234 1427.3 242.113C1424.36 237.55 1427.16 231.373 1432.52 230.627C1434.73 230.331 1437 230.526 1439.21 231.313C1445.08 233.393 1450.36 226.966 1447.19 221.645C1445.07 218.091 1440.31 217.283 1437.14 219.973C1432.25 224.131 1425.17 224.489 1419.89 220.833C1415.7 217.827 1409.79 217.875 1405.59 221.466C1398.29 227.728 1401.42 239.866 1411.04 241.628L1411.01 241.612Z"
      fill="url(#paint2_linear_2004_28230)" />
    <path style="mix-blend-mode:multiply"
      d="M1401.71 183.683C1423.3 181.483 1435.77 156.891 1423.75 138.106C1407.98 113.358 1414.03 80.6238 1437.59 63.1057C1453.62 51.1648 1445.33 25.8115 1425.59 25.3799C1418.01 25.2198 1411.41 29.0576 1407.6 34.8316C1393.39 56.3952 1365.14 63.7717 1342.2 51.8691C1322.6 41.6804 1299.28 55.934 1298.81 77.5441C1298.44 94.7971 1312.7 108.541 1329.68 107.848C1341 107.381 1350.61 100.652 1355.21 91.1099C1361.64 78.0045 1373.06 68.847 1386.19 64.9412C1399.85 60.8925 1413.04 71.8641 1411.44 86.0253C1409.49 103.165 1399.69 119.087 1383.73 128.291C1374.46 133.655 1368.39 143.827 1368.84 155.28C1369.52 172.327 1384.42 185.418 1401.66 183.673L1401.71 183.683Z"
      fill="url(#paint3_linear_2004_28230)" />
    <path style="mix-blend-mode:multiply"
      d="M895.321 -23.8172C905.817 -25.9205 916.238 -19.7516 919.425 -9.52718C921.243 -3.65642 928.494 -1.46064 933.296 -5.4259C939.75 -10.7907 935.576 -21.3795 927.115 -20.7769C916.409 -20.0135 906.852 -27.4696 905.021 -38.0287C903.417 -47.2764 892.323 -51.4387 884.997 -45.3622C879.765 -41.0186 879.029 -33.2449 883.373 -28.0185C886.375 -24.4097 891.024 -22.9452 895.343 -23.8232L895.321 -23.8172Z"
      fill="url(#paint4_linear_2004_28230)" />
    <path style="mix-blend-mode:multiply"
      d="M1359.95 187.843C1353.26 188.771 1347.41 183.294 1347.92 176.568C1348.26 171.784 1346.05 167.414 1342.37 164.802C1335.85 160.175 1334.88 150.857 1340.33 144.987C1345.02 139.946 1341.44 131.628 1334.47 131.668C1330.1 131.695 1326.56 135.276 1326.59 139.648C1326.59 141.741 1327.43 143.659 1328.79 145.057C1334.3 150.865 1333.44 160.186 1326.96 164.908C1323.63 167.33 1321.49 171.264 1321.51 175.687C1321.56 182.987 1327.5 188.874 1334.81 188.818C1336.32 188.802 1337.79 188.534 1339.15 188.052C1345.54 185.786 1352.36 189.996 1353.22 196.698C1353.72 200.607 1357.08 203.641 1361.14 203.624C1365.52 203.597 1369.05 200.016 1369.02 195.644C1369.01 190.933 1364.86 187.171 1359.98 187.859L1359.95 187.843Z"
      fill="url(#paint5_linear_2004_28230)" />
    <path style="mix-blend-mode:multiply"
      d="M780.101 55.0033C777.098 48.3873 767.962 47.0752 763.292 52.9062C757.128 60.552 746.106 62.1211 738.03 56.5345C732.547 52.7401 725.386 58.0752 727.34 64.3672C728.101 66.7884 730.015 68.4714 732.265 69.0552C740.622 71.247 745.96 79.4104 744.63 87.9427C743.481 95.2482 750.499 101.115 757.386 98.9315C762.902 97.2075 765.745 91.2101 763.715 85.9008C762.368 82.3594 759.203 80.0449 755.691 79.6027C750.849 78.9589 746.732 76.3191 744.084 72.5926C741.344 68.698 743.418 63.3375 748.09 62.3418C753.737 61.1125 759.82 62.5346 764.459 66.6002C767.156 68.9664 771.035 69.7927 774.602 68.44C779.938 66.4025 782.51 60.2847 780.101 55.0033Z"
      fill="url(#paint6_linear_2004_28230)" />
    <path style="mix-blend-mode:multiply"
      d="M1432.3 54.0392C1445.31 63.9751 1463.83 60.6152 1472.6 47.0599C1480.94 34.1706 1477.25 16.9569 1464.35 8.62749C1448.26 -1.76779 1426.73 6.8641 1422.22 25.4044C1418.85 39.2179 1403.57 46.3864 1390.8 40.1428C1383.33 36.4888 1374.13 38.924 1369.49 46.0691C1363.73 54.9563 1367.58 67.1687 1377.97 70.8218C1398.28 77.982 1408.95 100.301 1401.76 120.61C1397.55 132.478 1401.83 146.095 1412.87 153.231C1425.76 161.561 1442.99 157.869 1451.33 144.98C1462.32 127.997 1452.05 105.548 1432.35 102.436C1411.86 99.1941 1397.69 80.5687 1399.65 60.2244C1406.4 48.9595 1421.66 45.8366 1432.32 54.0108L1432.3 54.0392Z"
      fill="url(#paint7_linear_2004_28230)" />
    <path style="mix-blend-mode:multiply"
      d="M1454.15 161.268C1435.01 166.764 1414.42 160.567 1401.53 145.405C1395.94 138.847 1385.41 140.285 1381.81 148.144C1378.22 155.974 1384 164.91 1392.62 164.818C1412.53 164.678 1430.69 176.184 1439.01 194.264C1447.47 212.648 1473.97 212.901 1482.54 194.225C1491.12 175.521 1473.61 155.661 1454.15 161.268Z"
      fill="url(#paint8_linear_2004_28230)" />
    <path style="mix-blend-mode:multiply"
      d="M895.87 91.0193C893.891 95.0075 889.23 96.8663 885.037 95.3052C882.637 94.4244 880.081 96.2315 880.161 98.8088C880.287 102.288 884.827 103.613 886.792 100.663C889.254 96.9562 894.149 95.7092 898.09 97.7703C901.53 99.5788 905.736 96.9985 905.587 93.068C905.486 90.2315 903.125 88.0412 900.286 88.1427C898.328 88.2037 896.661 89.3665 895.87 91.0193Z"
      fill="url(#paint9_linear_2004_28230)" />
    <path style="mix-blend-mode:multiply"
      d="M1419.36 9.6798C1431.39 8.63849 1438.52 -4.9167 1432 -15.4616C1423.44 -29.3409 1427.09 -47.4856 1440.34 -57.0295C1449.36 -63.5301 1444.96 -77.6928 1433.99 -78.0881C1429.79 -78.2498 1426.1 -76.1675 1423.93 -72.9948C1415.85 -61.1359 1400.11 -57.2841 1387.45 -64.0878C1376.66 -69.9188 1363.55 -62.1937 1363.12 -50.1926C1362.77 -40.5962 1370.57 -32.845 1380.02 -33.0832C1386.31 -33.2326 1391.7 -36.9181 1394.35 -42.1682C1398.03 -49.3959 1404.46 -54.3937 1411.79 -56.4531C1419.41 -58.5899 1426.66 -52.377 1425.63 -44.5259C1424.41 -35.0359 1418.84 -26.2473 1409.87 -21.2764C1404.67 -18.3832 1401.21 -12.7779 1401.36 -6.41558C1401.6 3.04849 1409.75 10.4676 1419.35 9.63483L1419.36 9.6798Z"
      fill="url(#paint10_linear_2004_28230)" />
    <path style="mix-blend-mode:multiply"
      d="M937.326 -4.39895C938.266 -12.1303 946.127 -17.0013 953.474 -14.4457C958.698 -12.6281 964.216 -13.7991 968.225 -17.1215C975.333 -23.0201 985.993 -21.3173 990.903 -13.4978C995.132 -6.79721 1005.46 -8.27752 1007.47 -16.052C1008.75 -20.9389 1005.82 -25.9141 1000.93 -27.1947C998.581 -27.7997 996.22 -27.4397 994.241 -26.3629C986.137 -21.9569 976.003 -25.6755 972.691 -34.2789C970.994 -38.69 967.253 -42.2717 962.318 -43.5404C954.171 -45.6673 945.852 -40.7957 943.72 -32.6529C943.28 -30.9485 943.15 -29.2541 943.28 -27.5802C943.887 -19.8251 937.186 -13.4808 929.448 -14.5132C924.929 -15.1219 920.552 -12.2797 919.388 -7.76115C918.104 -2.87424 921.034 2.10095 925.924 3.3816C931.176 4.75878 936.606 1.2531 937.287 -4.36456L937.326 -4.39895Z"
      fill="url(#paint11_linear_2004_28230)" />
    <path style="mix-blend-mode:multiply"
      d="M1256.97 36.6953C1248.67 46.0351 1233.87 45.332 1226.51 35.2501C1223.99 31.8264 1220.19 29.7521 1216.15 29.3285C1198.29 27.5112 1183.94 13.7686 1181.35 -4.00194C1179.87 -14.1484 1168.67 -19.7029 1159.7 -14.6811C1152.63 -10.7183 1150.13 -1.80298 1154.06 5.24019C1156.48 9.5567 1160.78 12.1714 1165.36 12.6439C1183.23 14.4611 1197.58 28.2037 1200.16 45.9743C1200.6 48.8909 1201.83 51.5481 1203.92 53.8098C1216.75 67.7145 1215.87 89.4317 1201.93 102.263C1193.78 109.762 1191.53 122.098 1197.15 132.159C1203.75 143.91 1218.64 148.105 1230.4 141.527C1245.9 132.854 1247.15 111.183 1233.13 100.697C1218.57 89.7781 1215.19 69.4739 1225.1 54.4866C1234.95 48.5104 1248.1 52.3227 1253.01 63.076C1259.02 76.1388 1274.79 81.1109 1287.16 74.1801C1298.92 67.5794 1303.12 52.705 1296.55 40.9479C1288.33 26.2796 1268.07 24.157 1256.94 36.7013L1256.97 36.6953Z"
      fill="url(#paint12_linear_2004_28230)" />
    <path style="mix-blend-mode:multiply"
      d="M1394.83 30.8221C1386.21 25.0683 1381.73 14.7997 1383.43 4.55838C1384.16 0.130507 1380.03 -3.56418 1375.7 -2.34758C1371.38 -1.13098 1369.77 4.17791 1372.69 7.56781C1379.44 15.4295 1380.98 26.5231 1376.59 35.9386C1372.11 45.4963 1380.94 56.1051 1391.27 53.2254C1401.61 50.3231 1403.61 36.681 1394.83 30.8221Z"
      fill="url(#paint13_linear_2004_28230)" />
    <path style="mix-blend-mode:multiply"
      d="M1272.4 -34.1299C1262.61 -17.5137 1241.83 -10.9573 1224.25 -18.9847C1214.17 -23.5843 1202.49 -16.4995 1202.08 -5.32246C1201.51 9.74406 1220.76 16.8739 1230.11 4.79999C1241.94 -10.4566 1263.43 -14.3373 1279.86 -4.12722C1294.21 4.80261 1313.15 -5.06846 1313.78 -22.1502C1314.23 -34.394 1304.67 -44.6879 1292.41 -45.1274C1283.95 -45.4389 1276.4 -40.9615 1272.4 -34.1299Z"
      fill="url(#paint14_linear_2004_28230)" />
    <path style="mix-blend-mode:multiply"
      d="M1318.08 -21.6512C1320.18 -19.1019 1321.22 -16.0583 1321.3 -13.0465C1321.37 -9.50427 1318.86 -6.43402 1315.36 -5.72541C1314.63 -5.57985 1313.89 -5.36087 1313.17 -5.09693C1309.22 -3.64292 1306.24 -0.712846 1304.59 2.82491C1302.12 8.1967 1303.96 12.0867 1303.25 15.211C1302.6 18.0523 1300.3 20.0815 1298.01 21.8171C1293.14 25.5126 1287.1 27.6162 1280.65 27.542C1279.01 27.5421 1277.34 27.8643 1275.73 28.6991C1271.13 31.048 1268.87 36.552 1270.53 41.4321C1272.43 47.0872 1278.62 49.9974 1284.17 47.9513C1287.53 46.7031 1289.85 43.9457 1290.69 40.7406C1292.66 33.2658 1297.54 27.1385 1303.9 23.4846C1306.47 22.0102 1309.56 21.9617 1312.28 23.1426C1315.77 24.6741 1319.85 24.9164 1323.71 23.4863C1326.89 22.3081 1329.44 20.1909 1331.16 17.5717C1332.68 15.243 1335.28 13.7626 1338.08 13.7915C1346 13.8113 1353.79 17.6697 1358.53 24.7638C1363.28 31.8578 1372.74 34.7902 1380.97 30.7605C1388.99 26.8353 1392.75 17.1295 1389.63 8.78865C1385.21 -3.00968 1370 -6.42105 1360.93 2.40492C1354.98 8.16323 1346.9 10.3517 1339.3 8.96742C1336.24 8.40617 1333.71 6.30854 1332.55 3.44163C1331.81 1.66329 1330.78 0.0357661 1329.43 -1.33909C1326.97 -3.8891 1326.75 -7.8976 1328.84 -10.7363C1330.61 -13.1531 1333.19 -15.0395 1336.36 -15.924C1346.33 -18.731 1351.62 -29.3946 1348.08 -38.9483C1344.57 -48.3896 1333.81 -53.0474 1324.45 -48.9118C1314.04 -44.3045 1310.52 -30.7655 1318.03 -21.6618L1318.08 -21.6512Z"
      fill="url(#paint15_linear_2004_28230)" />
    <path style="mix-blend-mode:multiply"
      d="M994.406 91.5029C1000.85 98.1953 1011.32 97.9035 1017.44 91.3753C1024.5 83.8524 1022.71 71.5268 1013.34 66.5224C999.115 58.8828 991.425 42.9208 994.372 27.0314C994.95 23.8469 993.973 20.4244 991.417 18.045C986.133 13.0912 977.496 15.3042 975.246 22.1792C970.028 38.0437 956.003 49.3813 939.377 51.1578C922.491 52.9548 915.186 73.943 927.75 85.7526C934.835 92.4192 945.49 92.9203 953.13 87.4826C965.994 78.497 983.52 80.2117 994.367 91.5373L994.406 91.5029ZM986.129 70.5953C980.295 71.2968 974.359 70.341 969.042 67.8984C965.065 66.0634 963.2 61.3838 964.902 57.3487C967.818 50.4418 972.508 44.4131 978.539 39.9061C981.049 38.015 984.58 38.6206 986.393 41.1964C990.797 47.4658 993.14 54.9542 993.141 62.6048C993.128 66.6504 990.171 70.1274 986.135 70.6178L986.129 70.5953Z"
      fill="url(#paint16_linear_2004_28230)" />
    <path style="mix-blend-mode:multiply"
      d="M1173.35 71.6757C1178.21 75.49 1178.29 82.8066 1173.53 86.7375C1170.18 89.5261 1168.67 93.7503 1169.29 97.8434C1170.38 105.061 1164.84 111.604 1157.53 111.734C1151.26 111.855 1148.02 119.449 1152.48 124.019C1155.26 126.892 1159.85 126.952 1162.72 124.148C1164.1 122.797 1164.82 121.066 1164.9 119.288C1165.23 111.982 1171.91 106.654 1179.11 107.925C1182.8 108.585 1186.76 107.514 1189.64 104.682C1194.43 100.023 1194.53 92.393 1189.87 87.6111C1188.91 86.6145 1187.79 85.8289 1186.62 85.2245C1181.1 82.4744 1179.54 75.308 1183.42 70.5035C1185.68 67.6906 1185.56 63.5624 1182.98 60.9237C1180.2 58.051 1175.61 57.9905 1172.74 60.795C1169.65 63.7998 1169.8 68.9095 1173.33 71.6816L1173.35 71.6757Z"
      fill="url(#paint17_linear_2004_28230)" />
    <path style="mix-blend-mode:multiply"
      d="M1041.38 57.92C1042.32 58.8266 1042.86 59.9813 1043.01 61.1698C1043.19 62.5666 1042.33 63.8761 1041 64.3008C1040.7 64.3782 1040.42 64.5006 1040.15 64.6455C1038.66 65.3996 1037.6 66.6668 1037.12 68.1404C1036.38 70.3566 1037.27 71.8056 1037.13 73.0715C1037 74.213 1036.18 75.1271 1035.35 75.9003C1033.6 77.5664 1031.31 78.6532 1028.75 78.8974C1028.12 78.9683 1027.45 79.1694 1026.85 79.5669C1025.15 80.6907 1024.5 82.9566 1025.35 84.801C1026.35 86.9425 1028.9 87.8324 1031 86.7708C1032.26 86.1497 1033.07 84.9479 1033.26 83.6476C1033.71 80.6172 1035.35 78.0159 1037.71 76.285C1038.66 75.6004 1039.88 75.4482 1041 75.7993C1042.45 76.2588 1044.06 76.1687 1045.53 75.4431C1046.72 74.8398 1047.65 73.896 1048.2 72.7881C1048.71 71.8106 1049.66 71.1035 1050.76 71.0036C1053.88 70.6839 1057.13 71.8463 1059.28 74.4287C1061.46 77.0277 1065.31 77.7641 1068.36 75.8261C1071.35 73.9284 1072.42 69.9416 1070.82 66.8042C1068.56 62.3502 1062.43 61.6622 1059.24 65.5374C1057.14 68.066 1054.06 69.2653 1051.02 69.0592C1049.79 68.9746 1048.71 68.2505 1048.11 67.1811C1047.74 66.5092 1047.27 65.9121 1046.69 65.4406C1045.61 64.5472 1045.34 62.9824 1046.05 61.7595C1046.65 60.7356 1047.58 59.8877 1048.8 59.3968C1052.61 57.8602 1054.23 53.4369 1052.43 49.8227C1050.64 46.2535 1046.22 44.8987 1042.71 46.9333C1038.8 49.1935 1038.01 54.6716 1041.36 57.9484L1041.38 57.92Z"
      fill="url(#paint18_linear_2004_28230)" />
    <path style="mix-blend-mode:multiply"
      d="M1107.78 91.684C1111.24 91.9462 1114.15 89.1808 1114.14 85.7675C1114.12 82.5011 1111.47 79.8803 1108.2 79.9031C1104.14 79.9199 1101.31 83.9651 1102.67 87.7658C1103.67 90.6069 1101.8 93.6513 1098.8 94.0371C1097.05 94.2588 1095.68 95.7503 1095.71 97.5724C1095.73 99.829 1097.82 101.538 1100.1 100.981C1104.56 99.8983 1109.03 102.612 1110.12 107.066C1110.76 109.663 1113.09 111.572 1115.89 111.578C1119.15 111.556 1121.78 108.913 1121.76 105.646C1121.73 101.37 1117.31 98.5706 1113.43 100.294C1109.41 102.105 1104.73 100.432 1102.72 96.5837C1102.61 93.7981 1104.95 91.4692 1107.8 91.678L1107.78 91.684Z"
      fill="url(#paint19_linear_2004_28230)" />
    <path style="mix-blend-mode:multiply"
      d="M1200.79 115.39C1215.83 119.182 1225.58 133.733 1223.33 149.099C1222.06 157.93 1230.15 165.316 1238.89 163.102C1250.65 160.134 1251.83 143.677 1240.39 139.198C1225.93 133.519 1218.1 117.836 1222.27 102.849C1225.93 89.7537 1214.06 77.3759 1200.7 80.7659C1191.13 83.178 1185.35 92.8892 1187.76 102.453C1189.43 109.059 1194.58 113.857 1200.76 115.396L1200.79 115.39Z"
      fill="url(#paint20_linear_2004_28230)" />
    <path style="mix-blend-mode:multiply"
      d="M1053.68 18.6067C1065.38 14.7883 1078.22 18.176 1086.5 27.2691C1090.09 31.2026 1096.56 30.0691 1098.61 25.1716C1100.66 20.2515 1096.9 14.8703 1091.59 15.0963C1079.3 15.6052 1067.84 8.89205 1062.31 -2.08412C1056.71 -13.2567 1040.34 -12.8493 1035.46 -1.11367C1030.57 10.6219 1041.8 22.4951 1053.7 18.6232L1053.68 18.6067Z"
      fill="url(#paint21_linear_2004_28230)" />
    <path style="mix-blend-mode:multiply"
      d="M956.892 112.477C954.602 106.731 946.863 105.242 942.637 110.017C937.075 116.301 927.614 117.216 920.945 112.123C916.415 108.654 910.087 112.951 911.527 118.393C912.08 120.484 913.659 121.991 915.547 122.574C922.583 124.778 926.835 131.93 925.374 139.15C924.119 145.328 929.87 150.591 935.834 149.014C940.605 147.751 943.259 142.766 941.729 138.167C940.722 135.089 938.097 132.993 935.12 132.481C931.028 131.759 927.596 129.347 925.497 126.053C923.311 122.613 925.283 118.145 929.294 117.469C934.155 116.64 939.301 118.069 943.088 121.735C945.285 123.849 948.571 124.711 951.674 123.698C956.3 122.161 958.727 117.044 956.887 112.454L956.892 112.477Z"
      fill="url(#paint22_linear_2004_28230)" />
    <path style="mix-blend-mode:multiply"
      d="M988 64.8146C995.129 68.4621 998.354 76.92 995.452 84.4247C993.771 88.7191 997.007 93.3966 1001.67 93.2699C1007.94 93.1265 1010.43 84.9843 1005.2 81.3896C998.579 76.8605 996.439 68.0434 1000.28 60.9883C1003.63 54.8314 999.088 47.2043 991.976 47.3537C986.88 47.4751 982.843 51.695 982.934 56.7716C982.998 60.2913 985.049 63.3096 987.994 64.7922L988 64.8146Z"
      fill="url(#paint23_linear_2004_28230)" />
    <path style="mix-blend-mode:multiply"
      d="M1295.6 49.8359C1304.45 67.0795 1298.84 88.2191 1282.58 98.826C1273.23 104.908 1273 118.61 1282.27 124.964C1294.77 133.542 1311.19 121.043 1305.95 106.621C1299.34 88.3758 1307.63 68.0905 1325.11 59.6388C1340.43 52.2667 1342.22 30.9092 1328.04 21.187C1317.89 14.2244 1304.01 16.8147 1297.01 26.9659C1292.2 33.9893 1291.95 42.7887 1295.6 49.8359Z"
      fill="url(#paint24_linear_2004_28230)" />
    <path style="mix-blend-mode:multiply"
      d="M1055.53 31.5267C1046.71 16.5847 1050.59 -2.60705 1064.56 -12.9453C1072.6 -18.8737 1072.08 -31.1268 1063.46 -36.3277C1051.83 -43.3318 1037.82 -31.3005 1043.25 -18.6868C1050.12 -2.72474 1043.81 15.8349 1028.63 24.3281C1015.34 31.7172 1014.86 50.9239 1028.06 58.8598C1037.51 64.5401 1049.78 61.5094 1055.49 52.0587C1059.42 45.5327 1059.19 37.654 1055.55 31.5208L1055.53 31.5267Z"
      fill="url(#paint25_linear_2004_28230)" />
    <path style="mix-blend-mode:multiply"
      d="M1234.06 -14.1944C1218.41 -28.0261 1214.33 -50.8144 1224.18 -69.2255C1232.46 -84.6981 1220.41 -103.189 1203.2 -102.291C1184.41 -101.313 1175.28 -79.29 1187.12 -65.3151C1193.86 -57.3066 1197.41 -47.5161 1197.72 -37.6128C1198.16 -23.2203 1183.32 -12.966 1170.06 -18.65C1164.66 -20.9729 1159.75 -24.5835 1155.81 -29.3867C1145.31 -42.201 1124.5 -34.792 1124.39 -18.3552C1124.33 -7.39179 1134.05 1.03249 1144.96 -0.771955C1161.79 -3.51601 1178.38 5.39975 1185.36 20.9485C1190.76 33.5456 1204.26 41.545 1218.75 39.1325C1243.95 34.9182 1253.47 2.99874 1234.04 -14.1884L1234.06 -14.1944Z"
      fill="url(#paint26_linear_2004_28230)" />
    <path style="mix-blend-mode:multiply"
      d="M793.887 2.34694C801.646 3.7345 808.71 -1.69521 809.653 -9.23481C810.75 -17.9219 803.353 -25.4925 794.432 -24.263C780.838 -22.3988 767.581 -29.5497 761.661 -41.914C760.476 -44.3914 758.079 -46.2595 755.144 -46.6138C749.041 -47.3811 744.202 -41.5534 746.11 -35.7065C750.448 -22.2257 746.463 -7.4333 735.926 2.06737C725.216 11.7341 730.665 29.7808 745.211 31.6103C753.406 32.642 760.979 27.6792 763.514 20.1513C767.867 7.57122 780.745 0.00152402 793.893 2.36943L793.887 2.34694ZM777.765 -7.89555C774.09 -4.4932 769.548 -2.18467 764.671 -1.23125C761.011 -0.503446 757.395 -2.79476 756.555 -6.42226C755.111 -12.6085 755.323 -19.0886 757.217 -25.2196C758.012 -27.7639 760.738 -29.1106 763.251 -28.2597C769.422 -26.1392 774.761 -22.1622 778.58 -16.9173C780.594 -14.1298 780.29 -10.272 777.759 -7.91803L777.765 -7.89555Z"
      fill="url(#paint27_linear_2004_28230)" />
    <path style="mix-blend-mode:multiply"
      d="M480.55 54.716C485.958 57.9529 488.054 64.7846 485.382 70.5201C483.846 73.8138 486.133 77.6357 489.788 77.7994C494.731 78.0073 497.12 71.7453 493.171 68.6518C488.189 64.7488 486.999 57.7015 490.377 52.3567C493.351 47.6721 490.168 41.4648 484.564 41.2152C480.547 41.0509 477.15 44.1391 476.984 48.1529C476.852 50.9306 478.303 53.41 480.528 54.7219L480.55 54.716Z"
      fill="url(#paint28_linear_2004_28230)" />
    <path style="mix-blend-mode:multiply"
      d="M1127.1 7.1758C1117.27 15.7188 1124.22 31.8772 1137.19 30.6593C1145.3 29.8868 1152.2 36.4317 1151.9 44.5493C1151.62 51.5267 1159.89 55.5702 1165.23 50.9092C1170.57 46.2481 1167.71 37.5256 1160.74 36.8437C1152.65 36.0249 1147.11 28.2762 1148.99 20.3682C1151.97 7.69423 1136.92 -1.38965 1127.1 7.1758Z"
      fill="url(#paint29_linear_2004_28230)" />
    <path style="mix-blend-mode:multiply"
      d="M1309.59 -81.5767C1324.59 -67.1153 1326.23 -43.6331 1313.36 -27.2111C1305.96 -17.7708 1310.46 -3.75629 1322.12 -0.487483C1337.82 3.89869 1350.19 -14.508 1339.85 -27.3641C1326.78 -43.6351 1328.17 -67.1705 1343.02 -81.8314C1356.03 -94.6332 1350.45 -117 1332.64 -121.983C1319.88 -125.536 1306.65 -118.091 1303.07 -105.33C1300.61 -96.5221 1303.41 -87.4715 1309.58 -81.5482L1309.59 -81.5767Z"
      fill="url(#paint30_linear_2004_28230)" />
    <path style="mix-blend-mode:multiply"
      d="M899.569 3.42576C892.917 15.5074 876.79 18.3546 866.375 9.29677C859 2.89937 849.147 1.15156 840.36 3.98159C824.805 8.9874 808.389 -0.816597 805.456 -16.9066C802.933 -30.7229 784.982 -35.0441 776.52 -23.6144C771.197 -16.4316 772.722 -6.29698 779.902 -1.00272C783.347 1.55052 787.476 2.50319 791.444 2.03065C807.673 0.118629 821.871 12.9155 821.645 29.2637C821.527 37.6438 825.32 45.9753 832.591 51.3417C844.59 60.197 861.472 57.6553 870.344 45.6839C872.185 43.1759 873.537 40.4602 874.408 37.6553C878.511 24.4919 893.747 18.4636 905.735 25.2766C912.762 29.2641 921.8 27.4743 926.735 20.8273C932.059 13.6444 930.533 3.50983 923.353 -1.78443C915.632 -7.4887 904.386 -5.30726 899.552 3.4542L899.569 3.42576Z"
      fill="url(#paint31_linear_2004_28230)" />
  </g>
  <defs>
    <linearGradient id="paint0_linear_2004_28230" x1="775.401" y1="184.048" x2="747.496"
      y2="181.903" gradientUnits="userSpaceOnUse">
      <stop stop-color="#E39DE0" />
      <stop offset="1" stop-color="#3A72B7" />
    </linearGradient>
    <linearGradient id="paint1_linear_2004_28230" x1="635.835" y1="2.37327" x2="628.001"
      y2="53.6716" gradientUnits="userSpaceOnUse">
      <stop stop-color="#1A5EC1" />
      <stop offset="0.21" stop-color="#206FC3" />
      <stop offset="0.63" stop-color="#2F9BC9" />
      <stop offset="1" stop-color="#40C8D0" />
    </linearGradient>
    <linearGradient id="paint2_linear_2004_28230" x1="1357.82" y1="197.722" x2="1323.13"
      y2="224.007" gradientUnits="userSpaceOnUse">
      <stop stop-color="#1A5EC1" />
      <stop offset="0.21" stop-color="#206FC3" />
      <stop offset="0.63" stop-color="#2F9BC9" />
      <stop offset="1" stop-color="#40C8D0" />
    </linearGradient>
    <linearGradient id="paint3_linear_2004_28230" x1="1246.07" y1="107.232" x2="1252.4" y2="262.749"
      gradientUnits="userSpaceOnUse">
      <stop stop-color="#1A5EC1" />
      <stop offset="0.21" stop-color="#206FC3" />
      <stop offset="0.63" stop-color="#2F9BC9" />
      <stop offset="1" stop-color="#40C8D0" />
    </linearGradient>
    <linearGradient id="paint4_linear_2004_28230" x1="1109.76" y1="12.8884" x2="1084.13" y2="34.192"
      gradientUnits="userSpaceOnUse">
      <stop stop-color="#1A5EC1" />
      <stop offset="0.21" stop-color="#206FC3" />
      <stop offset="0.63" stop-color="#2F9BC9" />
      <stop offset="1" stop-color="#40C8D0" />
    </linearGradient>
    <linearGradient id="paint5_linear_2004_28230" x1="1337.79" y1="145.346" x2="1290.62"
      y2="145.642" gradientUnits="userSpaceOnUse">
      <stop stop-color="#2FA6DF" />
      <stop offset="1" stop-color="#93D1A1" />
    </linearGradient>
    <linearGradient id="paint6_linear_2004_28230" x1="735.689" y1="74.9577" x2="784.202" y2="56.399"
      gradientUnits="userSpaceOnUse">
      <stop stop-color="#E39DE0" />
      <stop offset="1" stop-color="#3A72B7" />
    </linearGradient>
    <linearGradient id="paint7_linear_2004_28230" x1="1346.71" y1="165.049" x2="1428.32"
      y2="38.7414" gradientUnits="userSpaceOnUse">
      <stop stop-color="#E39DE0" />
      <stop offset="1" stop-color="#3A72B7" />
    </linearGradient>
    <linearGradient id="paint8_linear_2004_28230" x1="1488.92" y1="128.024" x2="1508.64"
      y2="84.9222" gradientUnits="userSpaceOnUse">
      <stop stop-color="#2FA6DF" />
      <stop offset="1" stop-color="#93D1A1" />
    </linearGradient>
    <linearGradient id="paint9_linear_2004_28230" x1="788.712" y1="-58.3276" x2="788.248"
      y2="-71.2832" gradientUnits="userSpaceOnUse">
      <stop stop-color="#1A5EC1" />
      <stop offset="0.21" stop-color="#206FC3" />
      <stop offset="0.63" stop-color="#2F9BC9" />
      <stop offset="1" stop-color="#40C8D0" />
    </linearGradient>
    <linearGradient id="paint10_linear_2004_28230" x1="1548.12" y1="-134.838" x2="1550.37"
      y2="-45.9252" gradientUnits="userSpaceOnUse">
      <stop stop-color="#2FA6DF" />
      <stop offset="1" stop-color="#93D1A1" />
    </linearGradient>
    <linearGradient id="paint11_linear_2004_28230" x1="935.737" y1="143.323" x2="949.865"
      y2="89.1222" gradientUnits="userSpaceOnUse">
      <stop stop-color="#E39DE0" />
      <stop offset="1" stop-color="#3A72B7" />
    </linearGradient>
    <linearGradient id="paint12_linear_2004_28230" x1="1116.79" y1="79.0904" x2="1232.55"
      y2="14.2309" gradientUnits="userSpaceOnUse">
      <stop stop-color="#2FA6DF" />
      <stop offset="1" stop-color="#93D1A1" />
    </linearGradient>
    <linearGradient id="paint13_linear_2004_28230" x1="1372.38" y1="29.1717" x2="1396.41"
      y2="22.4398" gradientUnits="userSpaceOnUse">
      <stop stop-color="#E39DE0" />
      <stop offset="1" stop-color="#3A72B7" />
    </linearGradient>
    <linearGradient id="paint14_linear_2004_28230" x1="1233.41" y1="84.8368" x2="1235.58"
      y2="25.6332" gradientUnits="userSpaceOnUse">
      <stop stop-color="#E39DE0" />
      <stop offset="1" stop-color="#3A72B7" />
    </linearGradient>
    <linearGradient id="paint15_linear_2004_28230" x1="1314.09" y1="-89.1608" x2="1281.86"
      y2="-176.193" gradientUnits="userSpaceOnUse">
      <stop stop-color="#2FA6DF" />
      <stop offset="1" stop-color="#93D1A1" />
    </linearGradient>
    <linearGradient id="paint16_linear_2004_28230" x1="926.678" y1="84.3802" x2="991.308"
      y2="145.181" gradientUnits="userSpaceOnUse">
      <stop stop-color="#1A5EC1" />
      <stop offset="0.21" stop-color="#206FC3" />
      <stop offset="0.63" stop-color="#2F9BC9" />
      <stop offset="1" stop-color="#40C8D0" />
    </linearGradient>
    <linearGradient id="paint17_linear_2004_28230" x1="1234.96" y1="26.7874" x2="1265.79"
      y2="58.4585" gradientUnits="userSpaceOnUse">
      <stop stop-color="#1A5EC1" />
      <stop offset="0.21" stop-color="#206FC3" />
      <stop offset="0.63" stop-color="#2F9BC9" />
      <stop offset="1" stop-color="#40C8D0" />
    </linearGradient>
    <linearGradient id="paint18_linear_2004_28230" x1="883.452" y1="-155.234" x2="867.608"
      y2="-186.858" gradientUnits="userSpaceOnUse">
      <stop stop-color="#1A5EC1" />
      <stop offset="0.21" stop-color="#206FC3" />
      <stop offset="0.63" stop-color="#2F9BC9" />
      <stop offset="1" stop-color="#40C8D0" />
    </linearGradient>
    <linearGradient id="paint19_linear_2004_28230" x1="1052.89" y1="26.8797" x2="1052.73"
      y2="-4.06803" gradientUnits="userSpaceOnUse">
      <stop stop-color="#2FA6DF" />
      <stop offset="1" stop-color="#93D1A1" />
    </linearGradient>
    <linearGradient id="paint20_linear_2004_28230" x1="1435.51" y1="220.893" x2="1388.82"
      y2="232.698" gradientUnits="userSpaceOnUse">
      <stop stop-color="#2FA6DF" />
      <stop offset="1" stop-color="#93D1A1" />
    </linearGradient>
    <linearGradient id="paint21_linear_2004_28230" x1="1196.02" y1="-12.6556" x2="1184.52"
      y2="14.9838" gradientUnits="userSpaceOnUse">
      <stop stop-color="#2FA6DF" />
      <stop offset="1" stop-color="#93D1A1" />
    </linearGradient>
    <linearGradient id="paint22_linear_2004_28230" x1="911.755" y1="128.081" x2="954.025"
      y2="114.084" gradientUnits="userSpaceOnUse">
      <stop stop-color="#2FA6DF" />
      <stop offset="1" stop-color="#93D1A1" />
    </linearGradient>
    <linearGradient id="paint23_linear_2004_28230" x1="906.575" y1="0.948704" x2="882.496"
      y2="1.46529" gradientUnits="userSpaceOnUse">
      <stop stop-color="#2FA6DF" />
      <stop offset="1" stop-color="#93D1A1" />
    </linearGradient>
    <linearGradient id="paint24_linear_2004_28230" x1="1346.89" y1="124.687" x2="1298.05"
      y2="91.1534" gradientUnits="userSpaceOnUse">
      <stop stop-color="#E39DE0" />
      <stop offset="1" stop-color="#3A72B7" />
    </linearGradient>
    <linearGradient id="paint25_linear_2004_28230" x1="1046.79" y1="-95.2004" x2="1092.78"
      y2="-67.4792" gradientUnits="userSpaceOnUse">
      <stop stop-color="#2FA6DF" />
      <stop offset="1" stop-color="#93D1A1" />
    </linearGradient>
    <linearGradient id="paint26_linear_2004_28230" x1="1064.15" y1="-72.153" x2="1181.28"
      y2="-84.4898" gradientUnits="userSpaceOnUse">
      <stop stop-color="#1A5EC1" />
      <stop offset="0.21" stop-color="#206FC3" />
      <stop offset="0.63" stop-color="#2F9BC9" />
      <stop offset="1" stop-color="#40C8D0" />
    </linearGradient>
    <linearGradient id="paint27_linear_2004_28230" x1="751.334" y1="41.5627" x2="825.654"
      y2="50.9997" gradientUnits="userSpaceOnUse">
      <stop stop-color="#E39DE0" />
      <stop offset="1" stop-color="#3A72B7" />
    </linearGradient>
    <linearGradient id="paint28_linear_2004_28230" x1="270.747" y1="-97.7879" x2="252.249"
      y2="-98.6096" gradientUnits="userSpaceOnUse">
      <stop stop-color="#2FA6DF" />
      <stop offset="1" stop-color="#93D1A1" />
    </linearGradient>
    <linearGradient id="paint29_linear_2004_28230" x1="1156.58" y1="0.217745" x2="1176.43"
      y2="-17.0907" gradientUnits="userSpaceOnUse">
      <stop stop-color="#E39DE0" />
      <stop offset="1" stop-color="#3A72B7" />
    </linearGradient>
    <linearGradient id="paint30_linear_2004_28230" x1="1276.07" y1="-144.462" x2="1215.43"
      y2="-161.429" gradientUnits="userSpaceOnUse">
      <stop stop-color="#E39DE0" />
      <stop offset="1" stop-color="#3A72B7" />
    </linearGradient>
    <linearGradient id="paint31_linear_2004_28230" x1="963.386" y1="-34.7567" x2="905.601"
      y2="43.5143" gradientUnits="userSpaceOnUse">
      <stop stop-color="#E39DE0" />
      <stop offset="1" stop-color="#3A72B7" />
    </linearGradient>
    <clipPath id="clip0_2004_28230">
      <rect width="300" height="1440" fill="white" transform="translate(1440) rotate(90)" />
    </clipPath>
  </defs>
</svg>
