<svg width="1440" height="146" viewBox="0 0 1440 146" fill="none" xmlns="http://www.w3.org/2000/svg">
  <g clip-path="url(#clip0_2628_31035)">
    <rect width="146" height="1440" transform="translate(1440) rotate(90)" fill="#E7EBF0" />
    <g clip-path="url(#clip1_2628_31035)">
      <path style="mix-blend-mode:multiply"
        d="M589.042 72.5219C602.239 73.5293 609.006 56.9663 598.881 48.4574C592.536 43.1346 592.361 33.4609 598.468 27.8752C603.727 23.0911 600.751 14.2066 593.579 13.6742C586.401 13.1192 582.097 21.4276 586.576 26.9794C591.75 33.4299 590.083 42.9655 583.004 47.2445C571.681 54.1381 575.822 71.5203 589.048 72.5443L589.042 72.5219Z"
        fill="url(#paint0_linear_2628_31035)" />
      <path style="mix-blend-mode:multiply"
        d="M675.915 45.1099C683.095 45.7607 688.7 38.5514 685.987 31.6662C682.41 22.6039 686.461 12.3412 695.24 8.11766C701.22 5.23627 700.125 -3.54453 693.715 -4.92823C691.263 -5.45844 688.857 -4.62957 687.27 -2.98264C681.284 3.14868 671.62 3.75661 664.914 -1.5668C659.178 -6.13633 650.673 -2.97167 649.158 4.0455C647.94 9.63676 651.7 15.0179 657.295 15.8713C661.007 16.4292 664.559 14.8396 666.662 12.0459C669.591 8.1912 673.879 5.92569 678.413 5.4961C683.133 5.04135 686.71 9.46026 685.303 13.9709C683.592 19.4279 679.385 24.0055 673.596 25.9703C670.241 27.1226 667.621 30.0534 667.028 33.8192C666.172 39.4111 670.201 44.6249 675.921 45.1324L675.915 45.1099Z"
        fill="url(#paint1_linear_2628_31035)" />
      <path style="mix-blend-mode:multiply"
        d="M1401.71 176.684C1423.3 174.483 1435.77 149.891 1423.75 131.106C1407.98 106.359 1414.03 73.6243 1437.59 56.1061C1453.62 44.1652 1445.33 18.8119 1425.59 18.3804C1418.01 18.2203 1411.41 22.0581 1407.6 27.8321C1393.39 49.3956 1365.14 56.7722 1342.2 44.8696C1322.6 34.6809 1299.28 48.9345 1298.81 70.5446C1298.44 87.7975 1312.7 101.541 1329.68 100.849C1341 100.382 1350.61 93.6529 1355.21 84.1104C1361.64 71.0049 1373.06 61.8474 1386.19 57.9417C1399.85 53.893 1413.04 64.8646 1411.44 79.0258C1409.49 96.1652 1399.69 112.088 1383.73 121.291C1374.46 126.656 1368.39 136.828 1368.84 148.281C1369.52 165.327 1384.42 178.419 1401.66 176.673L1401.71 176.684Z"
        fill="url(#paint2_linear_2628_31035)" />
      <path style="mix-blend-mode:multiply"
        d="M895.322 -30.8167C905.818 -32.9201 916.239 -26.7511 919.426 -16.5267C921.244 -10.6559 928.495 -8.46015 933.297 -12.4254C939.751 -17.7903 935.577 -28.379 927.116 -27.7764C916.41 -27.013 906.853 -34.4691 905.022 -45.0282C903.418 -54.2759 892.324 -58.4383 884.998 -52.3617C879.766 -48.0181 879.03 -40.2444 883.374 -35.018C886.376 -31.4092 891.025 -29.9447 895.344 -30.8227L895.322 -30.8167Z"
        fill="url(#paint3_linear_2628_31035)" />
      <path style="mix-blend-mode:multiply"
        d="M1359.95 180.843C1353.26 181.771 1347.41 176.294 1347.92 169.568C1348.26 164.784 1346.05 160.414 1342.37 157.802C1335.85 153.175 1334.88 143.857 1340.33 137.987C1345.02 132.946 1341.44 124.628 1334.47 124.668C1330.1 124.695 1326.56 128.276 1326.59 132.648C1326.59 134.741 1327.43 136.659 1328.79 138.057C1334.3 143.865 1333.44 153.186 1326.96 157.908C1323.63 160.33 1321.49 164.264 1321.51 168.687C1321.56 175.987 1327.5 181.874 1334.81 181.818C1336.32 181.802 1337.79 181.534 1339.15 181.052C1345.54 178.786 1352.36 182.996 1353.22 189.698C1353.72 193.607 1357.08 196.641 1361.14 196.624C1365.52 196.597 1369.05 193.016 1369.02 188.644C1369.01 183.933 1364.86 180.171 1359.98 180.859L1359.95 180.843Z"
        fill="url(#paint4_linear_2628_31035)" />
      <path style="mix-blend-mode:multiply"
        d="M780.101 48.0038C777.098 41.3878 767.962 40.0757 763.292 45.9067C757.128 53.5525 746.106 55.1215 738.03 49.535C732.547 45.7406 725.386 51.0757 727.34 57.3677C728.101 59.7889 730.015 61.4719 732.265 62.0557C740.622 64.2475 745.96 72.4109 744.63 80.9432C743.481 88.2487 750.499 94.1151 757.386 91.932C762.902 90.208 765.745 84.2106 763.715 78.9013C762.368 75.3598 759.203 73.0453 755.691 72.6032C750.849 71.9594 746.732 69.3196 744.084 65.593C741.344 61.6985 743.418 56.338 748.09 55.3423C753.737 54.113 759.82 55.5351 764.459 59.6007C767.156 61.9669 771.035 62.7932 774.602 61.4405C779.938 59.403 782.51 53.2852 780.101 48.0038Z"
        fill="url(#paint5_linear_2628_31035)" />
      <path style="mix-blend-mode:multiply"
        d="M1432.3 47.0397C1445.31 56.9756 1463.83 53.6157 1472.6 40.0603C1480.94 27.171 1477.25 9.95742 1464.35 1.62798C1448.26 -8.7673 1426.73 -0.135412 1422.22 18.4049C1418.85 32.2184 1403.57 39.3869 1390.8 33.1433C1383.33 29.4893 1374.13 31.9245 1369.49 39.0696C1363.73 47.9568 1367.58 60.1692 1377.97 63.8223C1398.28 70.9825 1408.95 93.3013 1401.76 113.611C1397.55 125.478 1401.83 139.095 1412.87 146.232C1425.76 154.561 1442.99 150.869 1451.33 137.98C1462.32 120.997 1452.05 98.5489 1432.35 95.4369C1411.86 92.1946 1397.69 73.5692 1399.65 53.2248C1406.4 41.96 1421.66 38.8371 1432.32 47.0113L1432.3 47.0397Z"
        fill="url(#paint6_linear_2628_31035)" />
      <path style="mix-blend-mode:multiply"
        d="M1454.15 154.269C1435.01 159.764 1414.42 153.567 1401.53 138.405C1395.94 131.848 1385.41 133.286 1381.81 141.144C1378.22 148.974 1384 157.91 1392.62 157.819C1412.53 157.678 1430.69 169.185 1439.01 187.265C1447.47 205.648 1473.97 205.901 1482.54 187.225C1491.12 168.521 1473.61 148.662 1454.15 154.269Z"
        fill="url(#paint7_linear_2628_31035)" />
      <path style="mix-blend-mode:multiply"
        d="M895.87 84.0198C893.891 88.008 889.23 89.8668 885.037 88.3057C882.637 87.4249 880.081 89.232 880.161 91.8093C880.287 95.2887 884.827 96.6137 886.792 93.6639C889.254 89.9567 894.149 88.7096 898.09 90.7708C901.53 92.5793 905.736 89.999 905.587 86.0685C905.486 83.232 903.125 81.0417 900.286 81.1432C898.328 81.2042 896.661 82.367 895.87 84.0198Z"
        fill="url(#paint8_linear_2628_31035)" />
      <path style="mix-blend-mode:multiply"
        d="M1419.36 2.68029C1431.39 1.63897 1438.52 -11.9162 1432 -22.4611C1423.44 -36.3404 1427.09 -54.4851 1440.34 -64.029C1449.36 -70.5296 1444.96 -84.6923 1433.99 -85.0876C1429.79 -85.2493 1426.1 -83.167 1423.93 -79.9943C1415.85 -68.1354 1400.11 -64.2836 1387.45 -71.0873C1376.66 -76.9183 1363.55 -69.1932 1363.12 -57.1921C1362.77 -47.5957 1370.57 -39.8445 1380.02 -40.0827C1386.31 -40.2321 1391.7 -43.9176 1394.35 -49.1677C1398.03 -56.3954 1404.46 -61.3932 1411.79 -63.4526C1419.41 -65.5894 1426.66 -59.3766 1425.63 -51.5254C1424.41 -42.0355 1418.84 -33.2468 1409.87 -28.2759C1404.67 -25.3827 1401.21 -19.7774 1401.36 -13.4151C1401.6 -3.95103 1409.75 3.4681 1419.35 2.63532L1419.36 2.68029Z"
        fill="url(#paint9_linear_2628_31035)" />
      <path style="mix-blend-mode:multiply"
        d="M937.326 -11.3985C938.266 -19.1299 946.127 -24.0008 953.474 -21.4452C958.698 -19.6276 964.216 -20.7986 968.225 -24.121C975.333 -30.0196 985.993 -28.3168 990.903 -20.4973C995.132 -13.7967 1005.46 -15.277 1007.47 -23.0515C1008.75 -27.9384 1005.82 -32.9136 1000.93 -34.1943C998.581 -34.7992 996.22 -34.4392 994.241 -33.3624C986.137 -28.9564 976.003 -32.675 972.691 -41.2784C970.994 -45.6895 967.253 -49.2712 962.318 -50.5399C954.171 -52.6669 945.852 -47.7952 943.72 -39.6524C943.28 -37.948 943.15 -36.2536 943.28 -34.5797C943.887 -26.8246 937.186 -20.4803 929.448 -21.5127C924.929 -22.1214 920.552 -19.2792 919.388 -14.7607C918.104 -9.87375 921.034 -4.89857 925.924 -3.61791C931.176 -2.24073 936.606 -5.74641 937.287 -11.3641L937.326 -11.3985Z"
        fill="url(#paint10_linear_2628_31035)" />
      <path style="mix-blend-mode:multiply"
        d="M1256.97 29.6953C1248.67 39.0351 1233.87 38.332 1226.51 28.2501C1223.99 24.8264 1220.19 22.7521 1216.15 22.3285C1198.29 20.5112 1183.94 6.76863 1181.35 -11.0019C1179.87 -21.1484 1168.67 -26.7029 1159.7 -21.6811C1152.63 -17.7183 1150.13 -8.80298 1154.06 -1.75981C1156.48 2.5567 1160.78 5.17139 1165.36 5.64388C1183.23 7.46115 1197.58 21.2037 1200.16 38.9743C1200.6 41.8909 1201.83 44.5481 1203.92 46.8098C1216.75 60.7145 1215.87 82.4317 1201.93 95.2633C1193.78 102.762 1191.53 115.098 1197.15 125.159C1203.75 136.91 1218.64 141.105 1230.4 134.527C1245.9 125.854 1247.15 104.183 1233.13 93.6966C1218.57 82.7781 1215.19 62.4739 1225.1 47.4866C1234.95 41.5104 1248.1 45.3227 1253.01 56.076C1259.02 69.1388 1274.79 74.1109 1287.16 67.1801C1298.92 60.5794 1303.12 45.705 1296.55 33.9479C1288.33 19.2796 1268.07 17.157 1256.94 29.7013L1256.97 29.6953Z"
        fill="url(#paint11_linear_2628_31035)" />
      <path style="mix-blend-mode:multiply"
        d="M1394.83 23.8221C1386.21 18.0683 1381.73 7.79971 1383.43 -2.44162C1384.16 -6.86949 1380.03 -10.5642 1375.7 -9.34758C1371.38 -8.13098 1369.77 -2.82209 1372.69 0.567809C1379.44 8.42952 1380.98 19.5231 1376.59 28.9386C1372.11 38.4963 1380.94 49.1051 1391.27 46.2254C1401.61 43.3231 1403.61 29.681 1394.83 23.8221Z"
        fill="url(#paint12_linear_2628_31035)" />
      <path style="mix-blend-mode:multiply"
        d="M1272.4 -41.1299C1262.61 -24.5137 1241.83 -17.9573 1224.25 -25.9847C1214.17 -30.5843 1202.49 -23.4995 1202.08 -12.3225C1201.51 2.74406 1220.76 9.87392 1230.11 -2.20001C1241.94 -17.4566 1263.43 -21.3373 1279.86 -11.1272C1294.21 -2.19739 1313.15 -12.0685 1313.78 -29.1502C1314.23 -41.394 1304.67 -51.6879 1292.41 -52.1274C1283.95 -52.4389 1276.4 -47.9615 1272.4 -41.1299Z"
        fill="url(#paint13_linear_2628_31035)" />
      <path style="mix-blend-mode:multiply"
        d="M1318.08 -28.6507C1320.18 -26.1014 1321.22 -23.0579 1321.3 -20.046C1321.37 -16.5038 1318.86 -13.4335 1315.36 -12.7249C1314.63 -12.5794 1313.89 -12.3604 1313.17 -12.0964C1309.22 -10.6424 1306.24 -7.71236 1304.59 -4.1746C1302.12 1.19719 1303.96 5.08717 1303.25 8.2115C1302.6 11.0528 1300.3 13.082 1298.01 14.8176C1293.14 18.513 1287.1 20.6167 1280.65 20.5425C1279.01 20.5426 1277.34 20.8648 1275.73 21.6996C1271.13 24.0485 1268.87 29.5525 1270.53 34.4326C1272.43 40.0877 1278.62 42.9979 1284.17 40.9518C1287.53 39.7036 1289.85 36.9461 1290.69 33.7411C1292.66 26.2662 1297.54 20.139 1303.9 16.4851C1306.47 15.0107 1309.56 14.9622 1312.28 16.1431C1315.77 17.6746 1319.85 17.9169 1323.71 16.4868C1326.89 15.3086 1329.44 13.1914 1331.16 10.5722C1332.68 8.24346 1335.28 6.7631 1338.08 6.79197C1346 6.81182 1353.79 10.6702 1358.53 17.7643C1363.28 24.8583 1372.74 27.7907 1380.97 23.761C1388.99 19.8358 1392.75 10.13 1389.63 1.78913C1385.21 -10.0092 1370 -13.4206 1360.93 -4.59459C1354.98 1.16372 1346.9 3.35217 1339.3 1.9679C1336.24 1.40666 1333.71 -0.690969 1332.55 -3.55788C1331.81 -5.33622 1330.78 -6.96375 1329.43 -8.33861C1326.97 -10.8886 1326.75 -14.8971 1328.84 -17.7359C1330.61 -20.1526 1333.19 -22.039 1336.36 -22.9235C1346.33 -25.7305 1351.62 -36.3941 1348.08 -45.9478C1344.57 -55.3891 1333.81 -60.0469 1324.45 -55.9113C1314.04 -51.304 1310.52 -37.765 1318.03 -28.6613L1318.08 -28.6507Z"
        fill="url(#paint14_linear_2628_31035)" />
      <path style="mix-blend-mode:multiply"
        d="M994.407 84.5039C1000.85 91.1963 1011.32 90.9045 1017.44 84.3763C1024.5 76.8534 1022.71 64.5277 1013.35 59.5233C999.116 51.8838 991.426 35.9218 994.373 20.0323C994.951 16.8478 993.974 13.4254 991.418 11.046C986.134 6.09219 977.497 8.30516 975.247 15.1802C970.029 31.0447 956.004 42.3823 939.378 44.1588C922.492 45.9558 915.187 66.944 927.751 78.7536C934.836 85.4202 945.491 85.9213 953.131 80.4836C965.995 71.4979 983.521 73.2127 994.368 84.5383L994.407 84.5039ZM986.13 63.5963C980.296 64.2978 974.36 63.342 969.043 60.8994C965.066 59.0644 963.201 54.3847 964.903 50.3496C967.819 43.4428 972.509 37.4141 978.54 32.9071C981.05 31.016 984.581 31.6216 986.394 34.1974C990.798 40.4668 993.141 47.9552 993.142 55.6058C993.129 59.6513 990.172 63.1284 986.136 63.6188L986.13 63.5963Z"
        fill="url(#paint15_linear_2628_31035)" />
      <path style="mix-blend-mode:multiply"
        d="M1173.35 64.6757C1178.21 68.49 1178.29 75.8066 1173.53 79.7375C1170.18 82.5261 1168.67 86.7503 1169.29 90.8434C1170.38 98.0614 1164.84 104.604 1157.53 104.734C1151.26 104.855 1148.02 112.449 1152.48 117.019C1155.26 119.892 1159.85 119.952 1162.72 117.148C1164.1 115.797 1164.82 114.066 1164.9 112.288C1165.23 104.982 1171.91 99.6539 1179.11 100.925C1182.8 101.585 1186.76 100.514 1189.64 97.6815C1194.43 93.0225 1194.53 85.393 1189.87 80.6111C1188.91 79.6145 1187.79 78.8289 1186.62 78.2245C1181.1 75.4744 1179.54 68.308 1183.42 63.5035C1185.68 60.6906 1185.56 56.5624 1182.98 53.9237C1180.2 51.051 1175.61 50.9905 1172.74 53.795C1169.65 56.7998 1169.8 61.9095 1173.33 64.6816L1173.35 64.6757Z"
        fill="url(#paint16_linear_2628_31035)" />
      <path style="mix-blend-mode:multiply"
        d="M1041.38 50.92C1042.32 51.8266 1042.86 52.9813 1043.01 54.1698C1043.19 55.5666 1042.33 56.8761 1041 57.3008C1040.7 57.3782 1040.42 57.5006 1040.15 57.6455C1038.66 58.3996 1037.6 59.6668 1037.12 61.1404C1036.39 63.3566 1037.28 64.8056 1037.13 66.0715C1037 67.213 1036.18 68.1271 1035.35 68.9003C1033.6 70.5664 1031.31 71.6532 1028.75 71.8974C1028.12 71.9683 1027.45 72.1694 1026.86 72.5669C1025.15 73.6907 1024.5 75.9566 1025.35 77.801C1026.35 79.9425 1028.9 80.8324 1031 79.7708C1032.26 79.1497 1033.07 77.9479 1033.26 76.6476C1033.71 73.6172 1035.36 71.0159 1037.71 69.285C1038.67 68.6004 1039.88 68.4482 1041.01 68.7993C1042.45 69.2588 1044.06 69.1687 1045.53 68.4431C1046.72 67.8398 1047.65 66.896 1048.2 65.7881C1048.72 64.8106 1049.66 64.1035 1050.76 64.0036C1053.88 63.6839 1057.13 64.8463 1059.28 67.4287C1061.46 70.0277 1065.32 70.7641 1068.37 68.8261C1071.36 66.9284 1072.42 62.9416 1070.82 59.8042C1068.56 55.3502 1062.43 54.6622 1059.24 58.5374C1057.14 61.066 1054.06 62.2653 1051.02 62.0592C1049.79 61.9746 1048.71 61.2505 1048.12 60.1811C1047.75 59.5092 1047.27 58.9121 1046.69 58.4406C1045.61 57.5472 1045.34 55.9824 1046.06 54.7595C1046.65 53.7356 1047.58 52.8877 1048.8 52.3968C1052.61 50.8602 1054.23 46.4369 1052.43 42.8227C1050.65 39.2535 1046.22 37.8987 1042.71 39.9333C1038.81 42.1935 1038.02 47.6716 1041.36 50.9484L1041.38 50.92Z"
        fill="url(#paint17_linear_2628_31035)" />
      <path style="mix-blend-mode:multiply"
        d="M1107.78 84.684C1111.24 84.9462 1114.15 82.1808 1114.14 78.7675C1114.12 75.5011 1111.47 72.8803 1108.2 72.9031C1104.14 72.9199 1101.31 76.9651 1102.67 80.7658C1103.67 83.6069 1101.8 86.6513 1098.8 87.0371C1097.05 87.2588 1095.68 88.7503 1095.71 90.5724C1095.73 92.829 1097.82 94.5377 1100.1 93.9813C1104.56 92.8983 1109.03 95.6122 1110.12 100.066C1110.76 102.663 1113.09 104.572 1115.89 104.578C1119.15 104.556 1121.78 101.913 1121.76 98.6461C1121.73 94.3698 1117.31 91.5706 1113.43 93.2944C1109.41 95.1049 1104.73 93.432 1102.72 89.5837C1102.61 86.7981 1104.95 84.4692 1107.8 84.678L1107.78 84.684Z"
        fill="url(#paint18_linear_2628_31035)" />
      <path style="mix-blend-mode:multiply"
        d="M1200.79 108.391C1215.83 112.182 1225.58 126.733 1223.33 142.1C1222.06 150.93 1230.15 158.316 1238.89 156.102C1250.65 153.135 1251.83 136.677 1240.39 132.198C1225.93 126.52 1218.1 110.836 1222.27 95.8494C1225.93 82.7542 1214.06 70.3764 1200.7 73.7664C1191.13 76.1785 1185.35 85.8897 1187.76 95.4535C1189.43 102.06 1194.58 106.857 1200.76 108.397L1200.79 108.391Z"
        fill="url(#paint19_linear_2628_31035)" />
      <path style="mix-blend-mode:multiply"
        d="M1053.68 11.6076C1065.38 7.78929 1078.22 11.177 1086.5 20.2701C1090.09 24.2035 1096.56 23.0701 1098.61 18.1726C1100.66 13.2525 1096.9 7.87131 1091.59 8.09728C1079.3 8.60622 1067.84 1.89302 1062.31 -9.08314C1056.71 -20.2557 1040.34 -19.8483 1035.46 -8.11269C1030.57 3.62292 1041.8 15.4961 1053.7 11.6242L1053.68 11.6076Z"
        fill="url(#paint20_linear_2628_31035)" />
      <path style="mix-blend-mode:multiply"
        d="M956.892 105.477C954.602 99.7312 946.863 98.2418 942.637 103.017C937.075 109.301 927.614 110.216 920.945 105.123C916.415 101.654 910.087 105.951 911.527 111.393C912.08 113.484 913.659 114.991 915.547 115.574C922.583 117.778 926.835 124.93 925.374 132.15C924.119 138.328 929.87 143.591 935.834 142.014C940.605 140.751 943.259 135.766 941.729 131.167C940.722 128.089 938.097 125.993 935.12 125.481C931.028 124.759 927.596 122.347 925.497 119.053C923.311 115.613 925.283 111.145 929.294 110.469C934.155 109.64 939.301 111.069 943.088 114.735C945.285 116.849 948.571 117.711 951.674 116.698C956.3 115.161 958.727 110.044 956.887 105.454L956.892 105.477Z"
        fill="url(#paint21_linear_2628_31035)" />
      <path style="mix-blend-mode:multiply"
        d="M988 57.8146C995.129 61.4621 998.354 69.92 995.452 77.4247C993.771 81.7191 997.007 86.3966 1001.67 86.2699C1007.94 86.1265 1010.43 77.9843 1005.2 74.3896C998.579 69.8605 996.439 61.0434 1000.28 53.9883C1003.63 47.8314 999.088 40.2043 991.976 40.3537C986.88 40.4751 982.843 44.695 982.934 49.7716C982.998 53.2913 985.049 56.3096 987.994 57.7922L988 57.8146Z"
        fill="url(#paint22_linear_2628_31035)" />
      <path style="mix-blend-mode:multiply"
        d="M1295.6 42.8359C1304.45 60.0795 1298.84 81.2191 1282.58 91.826C1273.23 97.908 1273 111.61 1282.27 117.964C1294.77 126.542 1311.19 114.043 1305.95 99.6209C1299.34 81.3758 1307.63 61.0905 1325.11 52.6388C1340.43 45.2667 1342.22 23.9092 1328.04 14.187C1317.89 7.22435 1304.01 9.81473 1297.01 19.9659C1292.2 26.9893 1291.95 35.7887 1295.6 42.8359Z"
        fill="url(#paint23_linear_2628_31035)" />
      <path style="mix-blend-mode:multiply"
        d="M1055.53 24.5272C1046.71 9.58515 1050.59 -9.60657 1064.56 -19.9448C1072.6 -25.8733 1072.08 -38.1263 1063.46 -43.3272C1051.83 -50.3314 1037.82 -38.3 1043.25 -25.6863C1050.12 -9.72425 1043.81 8.83541 1028.63 17.3286C1015.34 24.7177 1014.86 43.9244 1028.06 51.8603C1037.51 57.5406 1049.78 54.5099 1055.49 45.0592C1059.42 38.5332 1059.19 30.6544 1055.55 24.5213L1055.53 24.5272Z"
        fill="url(#paint24_linear_2628_31035)" />
      <path style="mix-blend-mode:multiply"
        d="M1234.06 -21.1934C1218.41 -35.0252 1214.33 -57.8134 1224.18 -76.2245C1232.46 -91.6971 1220.41 -110.188 1203.2 -109.29C1184.41 -108.312 1175.28 -86.289 1187.12 -72.3141C1193.86 -64.3056 1197.41 -54.5151 1197.72 -44.6119C1198.16 -30.2193 1183.32 -19.965 1170.06 -25.649C1164.66 -27.9719 1159.75 -31.5825 1155.81 -36.3857C1145.31 -49.2 1124.5 -41.7911 1124.39 -25.3542C1124.33 -14.3908 1134.05 -5.96654 1144.96 -7.77098C1161.79 -10.515 1178.38 -1.59928 1185.36 13.9494C1190.76 26.5466 1204.26 34.546 1218.75 32.1335C1243.95 27.9192 1253.47 -4.00029 1234.04 -21.1875L1234.06 -21.1934Z"
        fill="url(#paint25_linear_2628_31035)" />
      <path style="mix-blend-mode:multiply"
        d="M793.888 -4.65257C801.647 -3.26501 808.711 -8.69472 809.654 -16.2343C810.751 -24.9214 803.354 -32.4921 794.432 -31.2625C780.839 -29.3983 767.582 -36.5492 761.662 -48.9135C760.476 -51.3909 758.08 -53.259 755.145 -53.6133C749.042 -54.3806 744.203 -48.553 746.111 -42.706C750.449 -29.2252 746.464 -14.4328 735.927 -4.93214C725.217 4.73455 730.666 22.7813 745.212 24.6108C753.407 25.6425 760.98 20.6797 763.515 13.1518C767.868 0.571709 780.746 -6.99799 793.894 -4.63008L793.888 -4.65257ZM777.766 -14.8951C774.091 -11.4927 769.549 -9.18419 764.672 -8.23076C761.012 -7.50296 757.396 -9.79427 756.556 -13.4218C755.112 -19.608 755.324 -26.0881 757.217 -32.2191C758.013 -34.7634 760.739 -36.1102 763.252 -35.2592C769.423 -33.1387 774.762 -29.1617 778.581 -23.9168C780.595 -21.1293 780.291 -17.2715 777.76 -14.9175L777.766 -14.8951Z"
        fill="url(#paint26_linear_2628_31035)" />
      <path style="mix-blend-mode:multiply"
        d="M480.55 47.7169C485.958 50.9539 488.054 57.7855 485.382 63.5211C483.846 66.8148 486.133 70.6366 489.788 70.8003C494.731 71.0083 497.12 64.7463 493.171 61.6528C488.189 57.7498 486.999 50.7025 490.377 45.3577C493.351 40.673 490.168 34.4658 484.564 34.2162C480.547 34.0519 477.15 37.1401 476.984 41.1539C476.852 43.9316 478.303 46.4109 480.528 47.7229L480.55 47.7169Z"
        fill="url(#paint27_linear_2628_31035)" />
      <path style="mix-blend-mode:multiply"
        d="M1127.1 0.175801C1117.27 8.71877 1124.22 24.8772 1137.19 23.6593C1145.3 22.8868 1152.2 29.4317 1151.9 37.5493C1151.62 44.5267 1159.89 48.5702 1165.23 43.9092C1170.57 39.2481 1167.71 30.5256 1160.74 29.8437C1152.65 29.0249 1147.11 21.2762 1148.99 13.3682C1151.97 0.694231 1136.92 -8.38965 1127.1 0.175801Z"
        fill="url(#paint28_linear_2628_31035)" />
      <path style="mix-blend-mode:multiply"
        d="M1309.59 -88.5762C1324.59 -74.1148 1326.23 -50.6326 1313.36 -34.2106C1305.96 -24.7703 1310.46 -10.7558 1322.12 -7.48699C1337.82 -3.10082 1350.19 -21.5075 1339.85 -34.3636C1326.78 -50.6346 1328.17 -74.17 1343.02 -88.8309C1356.03 -101.633 1350.45 -123.999 1332.64 -128.983C1319.88 -132.535 1306.65 -125.09 1303.07 -112.329C1300.61 -103.522 1303.41 -94.4711 1309.58 -88.5478L1309.59 -88.5762Z"
        fill="url(#paint29_linear_2628_31035)" />
      <path style="mix-blend-mode:multiply"
        d="M899.569 -3.57375C892.917 8.5079 876.79 11.3551 866.375 2.29726C859 -4.10014 849.147 -5.84796 840.36 -3.01792C824.805 1.98789 808.389 -7.81611 805.456 -23.9061C802.933 -37.7224 784.982 -42.0436 776.52 -30.6139C771.197 -23.4311 772.722 -13.2965 779.902 -8.00223C783.347 -5.44899 787.476 -4.49632 791.444 -4.96886C807.673 -6.88088 821.871 5.91596 821.645 22.2642C821.527 30.6443 825.32 38.9758 832.591 44.3422C844.59 53.1975 861.472 50.6558 870.344 38.6844C872.185 36.1764 873.537 33.4607 874.408 30.6558C878.511 17.4924 893.747 11.4641 905.735 18.2771C912.762 22.2646 921.8 20.4748 926.735 13.8277C932.059 6.64491 930.533 -3.48968 923.353 -8.78394C915.632 -14.4882 904.386 -12.3068 899.552 -3.54531L899.569 -3.57375Z"
        fill="url(#paint30_linear_2628_31035)" />
    </g>
  </g>
  <defs>
    <linearGradient id="paint0_linear_2628_31035" x1="775.402" y1="177.048" x2="747.497"
      y2="174.903" gradientUnits="userSpaceOnUse">
      <stop stop-color="#E39DE0" />
      <stop offset="1" stop-color="#3A72B7" />
    </linearGradient>
    <linearGradient id="paint1_linear_2628_31035" x1="635.835" y1="-4.62575" x2="628.001"
      y2="46.6726" gradientUnits="userSpaceOnUse">
      <stop stop-color="#1A5EC1" />
      <stop offset="0.21" stop-color="#206FC3" />
      <stop offset="0.63" stop-color="#2F9BC9" />
      <stop offset="1" stop-color="#40C8D0" />
    </linearGradient>
    <linearGradient id="paint2_linear_2628_31035" x1="1246.07" y1="100.232" x2="1252.4" y2="255.749"
      gradientUnits="userSpaceOnUse">
      <stop stop-color="#1A5EC1" />
      <stop offset="0.21" stop-color="#206FC3" />
      <stop offset="0.63" stop-color="#2F9BC9" />
      <stop offset="1" stop-color="#40C8D0" />
    </linearGradient>
    <linearGradient id="paint3_linear_2628_31035" x1="1109.76" y1="5.88891" x2="1084.13"
      y2="27.1925" gradientUnits="userSpaceOnUse">
      <stop stop-color="#1A5EC1" />
      <stop offset="0.21" stop-color="#206FC3" />
      <stop offset="0.63" stop-color="#2F9BC9" />
      <stop offset="1" stop-color="#40C8D0" />
    </linearGradient>
    <linearGradient id="paint4_linear_2628_31035" x1="1337.79" y1="138.346" x2="1290.62"
      y2="138.642" gradientUnits="userSpaceOnUse">
      <stop stop-color="#2FA6DF" />
      <stop offset="1" stop-color="#93D1A1" />
    </linearGradient>
    <linearGradient id="paint5_linear_2628_31035" x1="735.689" y1="67.9582" x2="784.202"
      y2="49.3995" gradientUnits="userSpaceOnUse">
      <stop stop-color="#E39DE0" />
      <stop offset="1" stop-color="#3A72B7" />
    </linearGradient>
    <linearGradient id="paint6_linear_2628_31035" x1="1346.71" y1="158.05" x2="1428.32" y2="31.7419"
      gradientUnits="userSpaceOnUse">
      <stop stop-color="#E39DE0" />
      <stop offset="1" stop-color="#3A72B7" />
    </linearGradient>
    <linearGradient id="paint7_linear_2628_31035" x1="1488.92" y1="121.024" x2="1508.64"
      y2="77.9227" gradientUnits="userSpaceOnUse">
      <stop stop-color="#2FA6DF" />
      <stop offset="1" stop-color="#93D1A1" />
    </linearGradient>
    <linearGradient id="paint8_linear_2628_31035" x1="788.712" y1="-65.3271" x2="788.248"
      y2="-78.2828" gradientUnits="userSpaceOnUse">
      <stop stop-color="#1A5EC1" />
      <stop offset="0.21" stop-color="#206FC3" />
      <stop offset="0.63" stop-color="#2F9BC9" />
      <stop offset="1" stop-color="#40C8D0" />
    </linearGradient>
    <linearGradient id="paint9_linear_2628_31035" x1="1548.12" y1="-141.837" x2="1550.37"
      y2="-52.9247" gradientUnits="userSpaceOnUse">
      <stop stop-color="#2FA6DF" />
      <stop offset="1" stop-color="#93D1A1" />
    </linearGradient>
    <linearGradient id="paint10_linear_2628_31035" x1="935.737" y1="136.324" x2="949.865"
      y2="82.1226" gradientUnits="userSpaceOnUse">
      <stop stop-color="#E39DE0" />
      <stop offset="1" stop-color="#3A72B7" />
    </linearGradient>
    <linearGradient id="paint11_linear_2628_31035" x1="1116.79" y1="72.0904" x2="1232.55"
      y2="7.23091" gradientUnits="userSpaceOnUse">
      <stop stop-color="#2FA6DF" />
      <stop offset="1" stop-color="#93D1A1" />
    </linearGradient>
    <linearGradient id="paint12_linear_2628_31035" x1="1372.38" y1="22.1717" x2="1396.41"
      y2="15.4398" gradientUnits="userSpaceOnUse">
      <stop stop-color="#E39DE0" />
      <stop offset="1" stop-color="#3A72B7" />
    </linearGradient>
    <linearGradient id="paint13_linear_2628_31035" x1="1233.41" y1="77.8368" x2="1235.58"
      y2="18.6332" gradientUnits="userSpaceOnUse">
      <stop stop-color="#E39DE0" />
      <stop offset="1" stop-color="#3A72B7" />
    </linearGradient>
    <linearGradient id="paint14_linear_2628_31035" x1="1314.09" y1="-96.1603" x2="1281.86"
      y2="-183.193" gradientUnits="userSpaceOnUse">
      <stop stop-color="#2FA6DF" />
      <stop offset="1" stop-color="#93D1A1" />
    </linearGradient>
    <linearGradient id="paint15_linear_2628_31035" x1="926.679" y1="77.3812" x2="991.309"
      y2="138.182" gradientUnits="userSpaceOnUse">
      <stop stop-color="#1A5EC1" />
      <stop offset="0.21" stop-color="#206FC3" />
      <stop offset="0.63" stop-color="#2F9BC9" />
      <stop offset="1" stop-color="#40C8D0" />
    </linearGradient>
    <linearGradient id="paint16_linear_2628_31035" x1="1234.96" y1="19.7874" x2="1265.79"
      y2="51.4585" gradientUnits="userSpaceOnUse">
      <stop stop-color="#1A5EC1" />
      <stop offset="0.21" stop-color="#206FC3" />
      <stop offset="0.63" stop-color="#2F9BC9" />
      <stop offset="1" stop-color="#40C8D0" />
    </linearGradient>
    <linearGradient id="paint17_linear_2628_31035" x1="883.453" y1="-162.234" x2="867.61"
      y2="-193.858" gradientUnits="userSpaceOnUse">
      <stop stop-color="#1A5EC1" />
      <stop offset="0.21" stop-color="#206FC3" />
      <stop offset="0.63" stop-color="#2F9BC9" />
      <stop offset="1" stop-color="#40C8D0" />
    </linearGradient>
    <linearGradient id="paint18_linear_2628_31035" x1="1052.89" y1="19.8797" x2="1052.73"
      y2="-11.068" gradientUnits="userSpaceOnUse">
      <stop stop-color="#2FA6DF" />
      <stop offset="1" stop-color="#93D1A1" />
    </linearGradient>
    <linearGradient id="paint19_linear_2628_31035" x1="1435.51" y1="213.893" x2="1388.82"
      y2="225.698" gradientUnits="userSpaceOnUse">
      <stop stop-color="#2FA6DF" />
      <stop offset="1" stop-color="#93D1A1" />
    </linearGradient>
    <linearGradient id="paint20_linear_2628_31035" x1="1196.02" y1="-19.6546" x2="1184.52"
      y2="7.98474" gradientUnits="userSpaceOnUse">
      <stop stop-color="#2FA6DF" />
      <stop offset="1" stop-color="#93D1A1" />
    </linearGradient>
    <linearGradient id="paint21_linear_2628_31035" x1="911.755" y1="121.081" x2="954.025"
      y2="107.084" gradientUnits="userSpaceOnUse">
      <stop stop-color="#2FA6DF" />
      <stop offset="1" stop-color="#93D1A1" />
    </linearGradient>
    <linearGradient id="paint22_linear_2628_31035" x1="906.575" y1="-6.0513" x2="882.496"
      y2="-5.53471" gradientUnits="userSpaceOnUse">
      <stop stop-color="#2FA6DF" />
      <stop offset="1" stop-color="#93D1A1" />
    </linearGradient>
    <linearGradient id="paint23_linear_2628_31035" x1="1346.89" y1="117.687" x2="1298.05"
      y2="84.1534" gradientUnits="userSpaceOnUse">
      <stop stop-color="#E39DE0" />
      <stop offset="1" stop-color="#3A72B7" />
    </linearGradient>
    <linearGradient id="paint24_linear_2628_31035" x1="1046.79" y1="-102.2" x2="1092.78"
      y2="-74.4787" gradientUnits="userSpaceOnUse">
      <stop stop-color="#2FA6DF" />
      <stop offset="1" stop-color="#93D1A1" />
    </linearGradient>
    <linearGradient id="paint25_linear_2628_31035" x1="1064.15" y1="-79.1521" x2="1181.28"
      y2="-91.4889" gradientUnits="userSpaceOnUse">
      <stop stop-color="#1A5EC1" />
      <stop offset="0.21" stop-color="#206FC3" />
      <stop offset="0.63" stop-color="#2F9BC9" />
      <stop offset="1" stop-color="#40C8D0" />
    </linearGradient>
    <linearGradient id="paint26_linear_2628_31035" x1="751.335" y1="34.5632" x2="825.655"
      y2="44.0002" gradientUnits="userSpaceOnUse">
      <stop stop-color="#E39DE0" />
      <stop offset="1" stop-color="#3A72B7" />
    </linearGradient>
    <linearGradient id="paint27_linear_2628_31035" x1="270.747" y1="-104.787" x2="252.249"
      y2="-105.609" gradientUnits="userSpaceOnUse">
      <stop stop-color="#2FA6DF" />
      <stop offset="1" stop-color="#93D1A1" />
    </linearGradient>
    <linearGradient id="paint28_linear_2628_31035" x1="1156.58" y1="-6.78225" x2="1176.43"
      y2="-24.0907" gradientUnits="userSpaceOnUse">
      <stop stop-color="#E39DE0" />
      <stop offset="1" stop-color="#3A72B7" />
    </linearGradient>
    <linearGradient id="paint29_linear_2628_31035" x1="1276.07" y1="-151.462" x2="1215.43"
      y2="-168.429" gradientUnits="userSpaceOnUse">
      <stop stop-color="#E39DE0" />
      <stop offset="1" stop-color="#3A72B7" />
    </linearGradient>
    <linearGradient id="paint30_linear_2628_31035" x1="963.386" y1="-41.7562" x2="905.601"
      y2="36.5148" gradientUnits="userSpaceOnUse">
      <stop stop-color="#E39DE0" />
      <stop offset="1" stop-color="#3A72B7" />
    </linearGradient>
    <clipPath id="clip0_2628_31035">
      <rect width="146" height="1440" fill="white" transform="translate(1440) rotate(90)" />
    </clipPath>
    <clipPath id="clip1_2628_31035">
      <rect width="300" height="1440" fill="white" transform="translate(1440) rotate(90)" />
    </clipPath>
  </defs>
</svg>
